<?xml version="1.0" encoding="utf-8"?>
<!-- Generator: Adobe Illustrator 16.0.0, SVG Export Plug-In . SVG Version: 6.00 Build 0)  -->
<!DOCTYPE svg PUBLIC "-//W3C//DTD SVG 1.1//EN" "http://www.w3.org/Graphics/SVG/1.1/DTD/svg11.dtd">
<svg version="1.1" id="Layer_1" xmlns="http://www.w3.org/2000/svg" xmlns:xlink="http://www.w3.org/1999/xlink" x="0px" y="0px"
	 width="64px" height="64px" viewBox="0 0 64 64" enable-background="new 0 0 64 64" xml:space="preserve">
<path fill-rule="evenodd" clip-rule="evenodd" fill="#FFFFFF" d="M32.011,0.304c-17.49,0-31.674,14.182-31.674,31.677
	C0.337,45.976,9.412,57.85,22,62.038c1.584,0.288,2.163-0.687,2.163-1.525c0-0.753-0.028-2.747-0.043-5.392
	c-8.812,1.914-10.67-4.246-10.67-4.246c-1.44-3.656-3.518-4.633-3.518-4.633c-2.875-1.961,0.218-1.925,0.218-1.925
	c3.179,0.223,4.852,3.266,4.852,3.266c2.826,4.84,7.414,3.442,9.219,2.632c0.288-2.047,1.106-3.443,2.011-4.235
	c-7.034-0.8-14.429-3.516-14.429-15.656c0-3.458,1.234-6.285,3.26-8.5c-0.325-0.801-1.413-4.021,0.31-8.382
	c0,0,2.66-0.852,8.711,3.247c2.526-0.702,5.236-1.055,7.93-1.066c2.691,0.012,5.397,0.364,7.931,1.066
	c6.05-4.099,8.704-3.247,8.704-3.247c1.728,4.361,0.639,7.582,0.314,8.382c2.029,2.215,3.254,5.042,3.254,8.5
	c0,12.171-7.405,14.848-14.461,15.629c1.137,0.981,2.149,2.914,2.149,5.868c0,4.237-0.039,7.649-0.039,8.691
	c0,0.847,0.571,1.83,2.179,1.521c12.577-4.194,21.643-16.062,21.643-30.052C63.688,14.486,49.508,0.304,32.011,0.304z"/>
</svg>
