<?xml version="1.0" encoding="utf-8"?>
<!-- Generator: Adobe Illustrator 16.0.0, SVG Export Plug-In . SVG Version: 6.00 Build 0)  -->
<!DOCTYPE svg PUBLIC "-//W3C//DTD SVG 1.1//EN" "http://www.w3.org/Graphics/SVG/1.1/DTD/svg11.dtd">
<svg version="1.1" id="Layer_1" xmlns="http://www.w3.org/2000/svg" xmlns:xlink="http://www.w3.org/1999/xlink" x="0px" y="0px"
	 width="64px" height="64px" viewBox="0 0 64 64" enable-background="new 0 0 64 64" xml:space="preserve">
<g>
	<g>
		<path fill="#FFFFFF" d="M58.728,0.375H5.251c-2.553,0-4.626,2.026-4.626,4.525v53.698c0,2.499,2.074,4.527,4.626,4.527h53.476
			c2.562,0,4.645-2.028,4.645-4.527V4.9C63.372,2.401,61.289,0.375,58.728,0.375z M19.237,53.845H9.919V23.899h9.318V53.845z
			 M14.583,19.809c-2.989,0-5.403-2.419-5.403-5.397c0-2.979,2.414-5.398,5.403-5.398c2.975,0,5.393,2.419,5.393,5.398
			C19.976,17.39,17.559,19.809,14.583,19.809z M54.095,53.845H44.79V39.281c0-3.473-0.061-7.94-4.838-7.94
			c-4.84,0-5.58,3.786-5.58,7.691v14.813h-9.296V23.899h8.919v4.092h0.129c1.243-2.353,4.276-4.834,8.805-4.834
			c9.426,0,11.166,6.199,11.166,14.265V53.845z"/>
	</g>
</g>
</svg>
