<?xml version="1.0" encoding="utf-8"?>
<!-- Generator: Adobe Illustrator 16.0.0, SVG Export Plug-In . SVG Version: 6.00 Build 0)  -->
<!DOCTYPE svg PUBLIC "-//W3C//DTD SVG 1.1//EN" "http://www.w3.org/Graphics/SVG/1.1/DTD/svg11.dtd">
<svg version="1.1" id="Layer_1" xmlns="http://www.w3.org/2000/svg" xmlns:xlink="http://www.w3.org/1999/xlink" x="0px" y="0px"
	 width="205px" height="100px" viewBox="0 0 205 100" enable-background="new 0 0 205 100" xml:space="preserve">
<g>
	<path fill="#010101" d="M96.75,99.911c17.5-6.676,35.656-11.14,53.767-15.793c8.908-2.29,17.814-4.6,26.633-7.221
		c8.484-2.522,17.67-4.894,25.52-9.052c1.756-0.931,0.551-3.758-1.351-3.2c-8.772,2.567-17.247,6.309-26.024,8.972
		c-8.805,2.671-17.697,5.039-26.589,7.396c-17.776,4.718-35.536,9.612-52.615,16.508C94.639,98.107,95.246,100.485,96.75,99.911"/>
	<path fill="#010101" d="M93.454,44.586c17.955-3.247,35.88-6.579,53.732-10.357c8.914-1.887,17.819-3.834,26.68-5.955
		c8.732-2.091,18.025-3.767,26.42-6.969c1.557-0.595,0.961-2.785-0.688-2.495c-8.896,1.565-17.699,4.581-26.48,6.75
		c-8.842,2.183-17.701,4.29-26.584,6.297c-17.762,4.012-35.575,7.808-53.366,11.691C92.484,43.696,92.78,44.708,93.454,44.586"/>
	<path fill="#010101" d="M200.732,21.934c-0.432,14.57-1.553,29.077-2.364,43.625c-0.13,2.33,3.442,2.3,3.61,0
		c1.065-14.493,1.037-29.099,0.91-43.625C202.875,20.544,200.773,20.548,200.732,21.934"/>
	<path fill="#010101" d="M91.429,45.36c0.148,8.303,0.194,16.605,0.108,24.908c-0.085,8.272-0.744,16.659-0.104,24.913
		c0.17,2.181,3.087,2.112,3.342,0c1.962-16.247,0.191-33.52-0.651-49.821C94.035,43.64,91.398,43.615,91.429,45.36"/>
	<path fill="#010101" d="M3.898,27.758c14.351,4.337,28.699,8.671,43.278,12.191c13.597,3.284,28.585,7.473,42.666,7.353
		c1.422-0.013,1.803-2.218,0.344-2.541c-7.096-1.57-14.497-2.045-21.669-3.323c-7.211-1.285-14.375-2.814-21.502-4.501
		c-14.274-3.379-28.43-7.266-42.573-11.154C3.168,25.433,2.638,27.377,3.898,27.758"/>
	<path fill="#010101" d="M90.628,95.341C61.242,88.38,32.227,80.131,3.752,70.06c-2.394-0.847-3.413,2.944-1.046,3.793
		C31.125,84.051,60.279,92.22,89.969,97.731C91.516,98.019,92.199,95.713,90.628,95.341"/>
	<path fill="#010101" d="M176.561,16.742c6.678,2.218,13.643,4.621,20.629,5.581c2.064,0.284,3.018-2.592,0.889-3.222
		c-6.828-2.018-13.854-3.314-20.687-5.373C175.453,13.145,174.662,16.112,176.561,16.742"/>
	<path fill="#010101" d="M118.869,30.073c9.811-2.04,19.621-4.106,29.453-6.036c9.719-1.908,19.995-2.791,29.49-5.584
		c1.54-0.453,1.294-2.907-0.387-2.858c-9.693,0.28-19.621,2.906-29.109,4.781c-10.154,2.006-20.206,4.277-30.207,6.943
		C116.32,27.795,117.08,30.445,118.869,30.073"/>
	<path fill="#010101" d="M102.943,36.242c4.917-0.045,10.008-0.391,14.777-1.658c0.544-0.145,0.306-0.916-0.228-0.827
		c-4.86,0.806-9.607,1.584-14.549,1.693C102.434,35.461,102.432,36.247,102.943,36.242"/>
	<path fill="#010101" d="M101.025,30.236c-0.098,2.021,0.028,4.01,0.646,5.943c0.296,0.928,1.553,0.526,1.422-0.392
		c-0.265-1.845-0.48-3.685-0.418-5.552C102.711,29.171,101.077,29.179,101.025,30.236"/>
	<path fill="#010101" d="M115.637,28.486c-0.001,1.713,0.15,3.367,0.555,5.035c0.164,0.675,1.284,0.548,1.232-0.167
		c-0.12-1.618-0.232-3.245-0.247-4.868C117.168,27.495,115.637,27.493,115.637,28.486"/>
	<path fill="#010101" d="M103.389,30.209c4.066-0.925,8.221-1.467,12.275-2.411c0.545-0.127,0.44-1.048-0.135-0.993
		c-4.16,0.39-8.342,1.499-12.393,2.492C102.544,29.442,102.795,30.345,103.389,30.209"/>
	<path fill="#010101" d="M92.145,28.415c2.492,0.611,4.98,1.242,7.486,1.793c0.606,0.133,0.865-0.783,0.257-0.933
		c-2.492-0.617-5.003-1.152-7.509-1.709C91.828,27.444,91.593,28.28,92.145,28.415"/>
	<path fill="#010101" d="M92.15,34.336c3.142,0.924,6.31,1.728,9.549,2.223c0.464,0.071,0.678-0.618,0.199-0.722
		c-3.197-0.689-6.388-1.379-9.537-2.265C91.869,33.435,91.661,34.192,92.15,34.336"/>
	<path fill="#010101" d="M91.142,28.482c-0.109,1.391-0.104,2.761,0.117,4.139c0.097,0.601,1.083,0.458,1.059-0.144
		c-0.053-1.335-0.092-2.662,0.012-3.995C92.39,27.721,91.201,27.724,91.142,28.482"/>
	<path fill="#010101" d="M94.076,27.155c3.899-0.563,7.791-1.188,11.634-2.062c0.513-0.117,0.294-0.89-0.216-0.785
		c-3.85,0.79-7.685,1.646-11.547,2.38C93.637,26.748,93.775,27.199,94.076,27.155"/>
	<path fill="#010101" d="M106.863,25.445c2.553,0.882,5.106,1.747,7.678,2.571c0.503,0.161,0.707-0.613,0.217-0.784
		c-2.55-0.891-5.109-1.739-7.68-2.572C106.578,24.497,106.371,25.275,106.863,25.445"/>
	<path fill="#010101" d="M32.769,33.482c10.265-2.497,20.625-4.271,31.004-6.191c0.541-0.1,0.424-1.04-0.132-0.973
		c-10.498,1.267-20.888,3.636-31.129,6.23C31.908,32.702,32.163,33.629,32.769,33.482"/>
	<path fill="#010101" d="M3.056,18.848c8.854,1.072,17.533,2.786,26.306,4.328c0.85,0.149,1.23-1.111,0.362-1.315
		c-8.726-2.054-17.76-3.154-26.668-4.091C2.363,17.696,2.378,18.766,3.056,18.848"/>
	<path fill="#010101" d="M31.131,22.281c10.184-2.389,20.416-3.665,30.776-4.971c0.585-0.074,0.625-0.972,0-0.946
		c-10.439,0.431-20.914,2.491-31.033,4.983C30.268,21.497,30.525,22.424,31.131,22.281"/>
	<path fill="#010101" d="M61.758,17.321c0.274,2.491,0.451,4.995,0.626,7.495c0.054,0.77,1.203,0.787,1.211,0
		c0.024-2.513-0.143-4.997-0.407-7.495C63.092,16.414,61.658,16.407,61.758,17.321"/>
	<path fill="#010101" d="M30.771,10.631c8.849,2.691,17.853,5.235,26.968,6.853c0.659,0.117,0.952-0.866,0.281-1.018
		c-9.07-2.042-18.119-3.941-27.079-6.45C30.543,9.905,30.378,10.512,30.771,10.631"/>
	<path fill="#010101" d="M12.689,14.909c2.901-1.488,7.173-1.21,10.365-1.545c3.147-0.33,6.303-0.616,9.44-1.034
		c0.735-0.099,0.777-1.252,0-1.188c-4.203,0.344-8.395,0.882-12.587,1.344c-2.593,0.287-5.448,0.191-7.807,1.417
		C11.435,14.249,12.022,15.251,12.689,14.909"/>
	<path fill="#010101" d="M11.848,8.885c0.279,1.277,0.24,2.619-0.035,3.896c-0.15,0.696,0.827,0.96,1.061,0.293
		c0.527-1.501,0.547-2.979,0.183-4.521C12.872,7.765,11.676,8.1,11.848,8.885"/>
	<path fill="#010101" d="M13.791,8.632c5.762-1.322,11.524-2.644,17.286-3.966c-0.26-0.197-0.52-0.396-0.779-0.594
		c0.207,1.011,0.204,2.027-0.011,3.05c-0.11,0.715,0.968,1.035,1.103,0.305c0.217-1.18,0.273-2.146,0.139-3.354
		c-0.045-0.403-0.357-0.691-0.779-0.594C24.99,4.814,19.232,6.15,13.475,7.485C12.729,7.658,13.045,8.803,13.791,8.632"/>
	<path fill="#010101" d="M2.941,5.532c2.31,0.572,4.619,1.124,6.946,1.627c0.592,0.128,0.846-0.77,0.251-0.912
		C7.822,5.692,5.5,5.19,3.169,4.705C2.633,4.593,2.401,5.398,2.941,5.532"/>
	<path fill="#010101" d="M9.77,12.843c-2.132-0.484-4.261-0.996-6.404-1.433c-0.577-0.118-0.827,0.742-0.245,0.891
		c2.118,0.539,4.256,1.004,6.386,1.497C10.127,13.94,10.392,12.983,9.77,12.843"/>
	<path fill="#010101" d="M5.061,1.79c8.063,1.051,16.125,2.263,24.217,3.066c0.439,0.044,0.547-0.713,0.105-0.777
		C21.309,2.895,13.166,2.111,5.061,1.174C4.666,1.128,4.675,1.74,5.061,1.79"/>
	<path fill="#010101" d="M65.833,27.513c7.892,2.025,15.92,4.73,23.981,5.919c0.499,0.072,0.698-0.587,0.211-0.765
		c-7.651-2.797-15.996-4.236-23.9-6.215C65.439,26.28,65.146,27.337,65.833,27.513"/>
</g>
</svg>
