<?xml version="1.0" encoding="utf-8"?>
<!-- Generator: Adobe Illustrator 16.0.0, SVG Export Plug-In . SVG Version: 6.00 Build 0)  -->
<!DOCTYPE svg PUBLIC "-//W3C//DTD SVG 1.1//EN" "http://www.w3.org/Graphics/SVG/1.1/DTD/svg11.dtd">
<svg version="1.1" id="Layer_1" xmlns="http://www.w3.org/2000/svg" xmlns:xlink="http://www.w3.org/1999/xlink" x="0px" y="0px"
	 width="155px" height="205px" viewBox="0 0 155 205" enable-background="new 0 0 155 205" xml:space="preserve">
<g>
	<path fill="#010101" d="M46.434,47.316c-0.034,23.322-0.068,46.642-0.101,69.963c-0.017,11.469-0.036,22.938-0.019,34.407
		c0.009,5.735,0.017,11.469,0.025,17.204c0.009,5.51-0.468,11.292,0.717,16.665c0.477,2.158,3.325,2.188,3.79,0
		c1.144-5.389,0.628-11.153,0.595-16.665c-0.033-5.351-0.066-10.705-0.099-16.057c-0.073-11.853-0.18-23.702-0.287-35.553
		c-0.211-23.322-0.422-46.642-0.633-69.963C50.395,44.336,46.438,44.331,46.434,47.316"/>
	<path fill="#010101" d="M97.176,45.522c1.139,16.941,1.693,33.918,1.584,50.898c-0.054,8.493-0.291,16.982-0.595,25.473
		c-0.298,8.31-1.776,17.172-0.951,25.438c0.177,1.766,2.808,2.412,3.292,0.445c1.877-7.614,1.477-16.115,1.762-23.926
		c0.322-8.813,0.392-17.632,0.301-26.449c-0.176-17.32-1.033-34.622-2.502-51.879C99.91,43.69,97.051,43.654,97.176,45.522"/>
	<path fill="#010101" d="M134.041,169.145c-0.045,9.39,0.031,18.875,1.482,28.168c0.357,2.301,4.093,1.733,4.028-0.545
		c-0.252-9.219-1.11-18.394-1.233-27.623C138.281,166.395,134.055,166.387,134.041,169.145"/>
	<path fill="#010101" d="M138.615,169.643c4.953-2.267,10.031-4.814,13.91-8.716c1.461-1.471-0.381-3.636-2.137-2.77
		c-4.785,2.362-9.184,5.364-14.05,7.591C133.705,166.954,135.993,170.842,138.615,169.643"/>
	<path fill="#010101" d="M147.704,163.326c0.203,8.474,0.087,17.016,1.067,25.443c0.278,2.395,3.683,2.506,3.813,0
		c0.447-8.467-0.213-16.98-0.547-25.443C151.93,160.55,147.637,160.525,147.704,163.326"/>
	<path fill="#010101" d="M94.997,161.454c14.149,2.237,28.298,4.83,42.513,6.618c1.477,0.186,1.822-2.34,0.354-2.612
		c-13.973-2.583-28.127-4.376-42.174-6.515C94.055,158.697,93.342,161.191,94.997,161.454"/>
	<path fill="#010101" d="M127.311,158.701c6.771,0.297,13.396,1.432,19.933,3.205c1.874,0.508,2.64-2.322,0.799-2.898
		c-6.771-2.119-13.647-3.201-20.729-3.484C125.264,155.439,125.27,158.611,127.311,158.701"/>
	<path fill="#010101" d="M146.996,188.838c-3.084,3.717-6.049,7.488-8.963,11.34c-1.262,1.665,1.539,3.827,2.904,2.241
		c3.041-3.53,5.996-7.101,8.877-10.762C151.373,189.68,148.65,186.842,146.996,188.838"/>
	<path fill="#010101" d="M1.369,47.729c1.239,20.539,2.172,41.095,2.77,61.664c0.289,9.953,0.501,19.91,0.638,29.869
		c0.072,5.312,0.123,10.623,0.152,15.936c0.027,4.771-0.632,10.012,0.853,14.592c0.735,2.266,3.978,2.345,4.682,0
		c1.386-4.618,0.6-9.818,0.457-14.592c-0.16-5.313-0.341-10.625-0.544-15.936c-0.381-9.961-0.838-19.918-1.371-29.869
		C7.903,88.816,6.464,68.261,4.721,47.729C4.541,45.606,1.238,45.559,1.369,47.729"/>
	<path fill="#010101" d="M4.436,46.286c16.141,0.925,32.553,1.678,48.702,0.611c1.912-0.126,1.954-2.988,0-3.005
		C36.88,43.76,20.69,44.107,4.436,43.28C2.501,43.182,2.512,46.176,4.436,46.286"/>
	<path fill="#010101" d="M50.923,46.728c16.481-1.245,33.009-1.049,49.476-2.155c2.33-0.156,2.355-3.524,0-3.641
		c-16.394-0.811-33.165,0.967-49.476,2.559C48.88,43.69,48.829,46.886,50.923,46.728"/>
	<path fill="#010101" d="M135.531,193.899c-26.502-2.804-52.704-6.967-79.162-9.905c-3.386-0.377-4.985,3.446-1.459,4.122
		c26.114,4.997,53.209,7.523,79.868,10.118C137.918,198.54,138.693,194.236,135.531,193.899"/>
	<path fill="#010101" d="M110.594,154.328c0.533,2.354,0.549,4.674,0.596,7.068c0.009,0.467,0.752,0.608,0.846,0.115
		c0.466-2.482,0.134-5.019-0.471-7.451C111.406,153.434,110.452,153.699,110.594,154.328"/>
	<path fill="#010101" d="M111.299,154.73c3.184-1.778,6.727-3.615,9.415-6.104c0.418-0.388-0.116-1.05-0.599-0.776
		c-3.203,1.812-6.119,4.17-9.315,6.027C110.25,154.195,110.742,155.041,111.299,154.73"/>
	<path fill="#010101" d="M119.605,149.13c3.029,0.496,6.141,1.251,9.207,1.406c0.533,0.026,0.637-0.792,0.125-0.925
		c-2.933-0.76-6.084-0.963-9.082-1.389C119.268,148.139,119.004,149.031,119.605,149.13"/>
	<path fill="#010101" d="M127.223,150.779c0.008,1.464,0.213,2.832,0.664,4.227c0.221,0.686,1.225,0.405,1.075-0.297
		c-0.274-1.288-0.433-2.611-0.448-3.93C128.503,149.949,127.217,149.945,127.223,150.779"/>
	<path fill="#010101" d="M113.025,160.7c4.891-1.103,9.859-2.039,14.664-3.483c0.649-0.195,0.371-1.107-0.275-1
		c-4.948,0.836-9.82,2.195-14.693,3.376C112,159.768,112.305,160.861,113.025,160.7"/>
	<path fill="#010101" d="M110.16,153.551c-3.613-0.938-7.29-1.48-11.029-1.345c-0.543,0.021-0.544,0.823,0,0.845
		c3.652,0.131,7.237,0.484,10.797,1.346C110.475,154.527,110.708,153.691,110.16,153.551"/>
	<path fill="#010101" d="M95.081,152.65c3.017,0.236,6.034,0.473,9.044,0.776c0.555,0.058,0.54-0.794,0-0.86
		c-3.01-0.368-6.016-0.666-9.044-0.824C94.493,151.711,94.503,152.605,95.081,152.65"/>
	<path fill="#010101" d="M104.006,145.911c4.863,1.278,9.784,2.226,14.799,2.63c0.725,0.059,0.698-1.033,0-1.116
		c-4.894-0.579-9.729-1.354-14.515-2.544C103.623,144.715,103.34,145.736,104.006,145.911"/>
	<path fill="#010101" d="M102.85,145.516c-2.711,1.769-5.401,3.555-8.065,5.396c-0.582,0.403-0.054,1.351,0.563,0.965
		c2.74-1.718,5.443-3.481,8.139-5.272C104.156,146.156,103.533,145.068,102.85,145.516"/>
	<path fill="#010101" d="M94.27,153.714c0.537,1.675,0.898,3.437,1.06,5.188c0.065,0.744,1.173,0.772,1.18,0
		c0.017-1.935-0.272-3.726-0.887-5.562C95.338,152.488,93.99,152.85,94.27,153.714"/>
	<path fill="#010101" d="M37.943,30.829c-0.403,3.639-0.675,7.27-0.66,10.933c0.002,0.577,0.87,0.573,0.893,0
		c0.147-3.647,0.299-7.295,0.612-10.933C38.835,30.283,38.002,30.297,37.943,30.829"/>
	<path fill="#010101" d="M61.691,31.683c0.136,3.297-0.114,6.557-0.593,9.82c-0.094,0.642,0.854,0.941,0.999,0.275
		c0.73-3.335,0.929-6.686,0.774-10.095C62.836,30.927,61.66,30.922,61.691,31.683"/>
	<path fill="#010101" d="M39.765,30.592c6.908,0.364,13.829,0.624,20.747,0.536c0.544-0.007,0.544-0.835,0-0.845
		c-6.92-0.125-13.833-0.238-20.747-0.584C39.189,29.67,39.192,30.562,39.765,30.592"/>
	<path fill="#010101" d="M62.721,31.284c3.232-0.328,6.465-0.63,9.685-1.055c0.554-0.073,0.584-0.942,0-0.893
		c-3.236,0.272-6.459,0.669-9.685,1.039C62.149,30.441,62.136,31.343,62.721,31.284"/>
	<path fill="#010101" d="M69.336,32.521c-0.371,2.936-0.611,5.886-0.482,8.847c0.027,0.637,0.952,0.635,0.988,0
		c0.167-2.958,0.318-5.906,0.69-8.847C70.628,31.76,69.431,31.767,69.336,32.521"/>
	<path fill="#010101" d="M39.222,30.211c9.217-0.307,18.435-0.596,27.65-0.954c0.439-0.017,0.442-0.7,0-0.686
		c-9.218,0.283-18.434,0.636-27.65,0.97C38.792,29.557,38.79,30.225,39.222,30.211"/>
	<path fill="#010101" d="M69.327,32.795c0.098,0.922,0.195,1.844,0.292,2.765c0.04,0.373,0.626,0.38,0.59,0l-0.26-2.765
		C69.911,32.399,69.285,32.398,69.327,32.795"/>
	<path fill="#010101" d="M68.765,31.301c0.196,0.734,0.388,1.47,0.604,2.198c0.221,0.742,1.31,0.433,1.153-0.318
		c-0.155-0.744-0.336-1.483-0.512-2.223C69.819,30.151,68.549,30.495,68.765,31.301"/>
	<path fill="#010101" d="M60.551,28.841c0.043-9.217,0.002-18.432-0.121-27.648c-0.009-0.659-1.102-0.867-1.2-0.162
		c-1.374,9.822-1.571,19.847,0.045,29.655c0.091,0.552,1.046,0.43,0.986-0.134c-1.035-9.827-1.21-19.382,0.147-29.197l-1.2-0.162
		c0.138,9.216,0.192,18.431,0.163,27.648C59.37,29.6,60.547,29.601,60.551,28.841"/>
	<path fill="#010101" d="M19.938,32.297c-2.633-0.034-5.46,0.962-7.097,3.138c-1.516,2.016-0.538,3.695,1.782,4.128
		c2.329,0.434,6.72,0.705,8.459-1.366c1.644-1.958,0.056-3.836-1.712-4.903c-0.495-0.299-0.93,0.46-0.451,0.771
		c1.305,0.848,3.12,2.368,0.742,4.128c-0.617,0.457-1.728,0.54-2.463,0.61c-1.417,0.135-3.013,0.216-4.417-0.051
		c-1.552-0.295-2.695-0.693-0.929-3.343c0.379-0.568,1.119-0.989,1.68-1.322c1.374-0.818,2.816-1.137,4.406-1.136
		C20.359,32.951,20.359,32.302,19.938,32.297"/>
	<path fill="#010101" d="M16.607,39.927c1.047,0.722,2.007,1.565,2.881,2.489c0.349,0.37,0.875-0.174,0.552-0.552
		c-0.881-1.033-1.879-1.916-2.99-2.694C16.587,38.846,16.144,39.608,16.607,39.927"/>
	<path fill="#010101" d="M20.741,38.793c-0.651,1.161-1.038,2.37-1.162,3.693c-0.039,0.418,0.66,0.516,0.736,0.101
		c0.215-1.174,0.605-2.305,1.197-3.342C21.796,38.745,21.021,38.292,20.741,38.793"/>
	<path fill="#010101" stroke="#000000" stroke-miterlimit="10" d="M9.229,167.968c11.928,5.965,24.126,11.866,36.792,16.096
		c1.499,0.502,2.581-1.982,1.103-2.622c-12.309-5.311-24.742-10.182-36.791-16.098C8.896,164.64,7.806,167.256,9.229,167.968"/>
</g>
</svg>
