<?xml version="1.0" encoding="utf-8"?>
<!-- Generator: Adobe Illustrator 16.0.0, SVG Export Plug-In . SVG Version: 6.00 Build 0)  -->
<!DOCTYPE svg PUBLIC "-//W3C//DTD SVG 1.1//EN" "http://www.w3.org/Graphics/SVG/1.1/DTD/svg11.dtd">
<svg version="1.1" id="Layer_1" xmlns="http://www.w3.org/2000/svg" xmlns:xlink="http://www.w3.org/1999/xlink" x="0px" y="0px"
	 width="155px" height="205px" viewBox="0 0 155 205" enable-background="new 0 0 155 205" xml:space="preserve">
<g>
	<path fill="#010101" d="M46.434,47.006c-0.034,20.08-0.068,40.159-0.101,60.239c-0.017,9.875-0.036,19.75-0.019,29.625
		c0.009,4.938,0.017,9.875,0.025,14.813c0.009,4.745-0.468,9.723,0.717,14.349c0.477,1.859,3.325,1.884,3.79,0
		c1.144-4.639,0.628-9.603,0.595-14.349c-0.033-4.607-0.066-9.217-0.099-13.825c-0.073-10.205-0.18-20.408-0.287-30.612
		c-0.211-20.08-0.422-40.159-0.633-60.239C50.395,44.44,46.438,44.435,46.434,47.006"/>
	<path fill="#010101" d="M97.176,45.522c1.139,16.941,1.693,33.918,1.584,50.898c-0.054,8.493-0.291,16.983-0.595,25.472
		c-0.298,8.31-1.776,17.172-0.951,25.438c0.177,1.765,2.808,2.412,3.292,0.445c1.877-7.614,1.477-16.115,1.762-23.926
		c0.322-8.813,0.391-17.631,0.301-26.448c-0.176-17.32-1.034-34.622-2.502-51.879C99.91,43.69,97.051,43.654,97.176,45.522"/>
	<path fill="#010101" d="M134.041,169.144c-0.045,9.39,0.031,18.876,1.482,28.169c0.358,2.3,4.093,1.733,4.029-0.545
		c-0.252-9.219-1.111-18.394-1.234-27.624C138.281,166.394,134.055,166.386,134.041,169.144"/>
	<path fill="#010101" d="M138.615,169.642c4.953-2.266,10.031-4.814,13.91-8.715c1.461-1.471-0.381-3.636-2.137-2.77
		c-4.785,2.362-9.183,5.365-14.049,7.591C133.705,166.954,135.993,170.842,138.615,169.642"/>
	<path fill="#010101" d="M147.704,163.326c0.203,8.474,0.087,17.016,1.067,25.443c0.279,2.395,3.683,2.507,3.814,0
		c0.447-8.466-0.213-16.98-0.547-25.443C151.93,160.55,147.637,160.526,147.704,163.326"/>
	<path fill="#010101" d="M94.997,161.454c14.15,2.237,28.298,4.83,42.513,6.618c1.476,0.186,1.822-2.34,0.353-2.612
		c-13.972-2.583-28.126-4.376-42.174-6.514C94.055,158.697,93.342,161.192,94.997,161.454"/>
	<path fill="#010101" d="M127.311,158.701c6.77,0.297,13.396,1.432,19.932,3.205c1.874,0.508,2.64-2.322,0.799-2.898
		c-6.77-2.119-13.648-3.202-20.73-3.485C125.264,155.44,125.27,158.611,127.311,158.701"/>
	<path fill="#010101" d="M146.996,188.838c-3.084,3.717-6.049,7.488-8.963,11.34c-1.261,1.665,1.539,3.827,2.904,2.241
		c3.042-3.53,5.997-7.1,8.878-10.762C151.373,189.679,148.651,186.842,146.996,188.838"/>
	<path fill="#010101" d="M1.369,47.729c1.239,20.539,2.172,41.095,2.77,61.663c0.289,9.954,0.501,19.911,0.638,29.869
		c0.072,5.312,0.123,10.624,0.152,15.936c0.027,4.771-0.632,10.012,0.853,14.592c0.735,2.266,3.978,2.345,4.682,0
		c1.386-4.618,0.6-9.819,0.457-14.592c-0.16-5.313-0.341-10.625-0.544-15.936c-0.381-9.96-0.838-19.917-1.371-29.869
		C7.903,88.816,6.464,68.261,4.721,47.729C4.541,45.606,1.238,45.559,1.369,47.729"/>
	<path fill="#010101" d="M4.436,46.286c16.141,0.925,32.553,1.678,48.702,0.611c1.912-0.126,1.954-2.988,0-3.005
		C36.88,43.76,20.69,44.107,4.436,43.28C2.501,43.182,2.512,46.176,4.436,46.286"/>
	<path fill="#010101" d="M50.923,46.728c16.481-1.245,33.009-1.049,49.476-2.155c2.33-0.156,2.355-3.524,0-3.641
		c-16.394-0.811-33.165,0.967-49.476,2.559C48.88,43.69,48.829,46.886,50.923,46.728"/>
	<path fill="#010101" d="M133.588,197.994c-17.029-2.313-33.865-5.747-50.865-8.172c-2.176-0.31-3.204,2.844-0.938,3.4
		c16.779,4.124,34.189,6.208,51.318,8.348C135.121,201.822,135.619,198.271,133.588,197.994"/>
	<path fill="#010101" d="M110.594,154.328c0.533,2.353,0.549,4.674,0.595,7.069c0.009,0.466,0.753,0.608,0.846,0.114
		c0.466-2.482,0.134-5.018-0.471-7.45C111.406,153.433,110.452,153.699,110.594,154.328"/>
	<path fill="#010101" d="M111.299,154.73c3.184-1.778,6.727-3.615,9.415-6.104c0.418-0.388-0.117-1.05-0.599-0.776
		c-3.203,1.811-6.119,4.169-9.315,6.027C110.25,154.196,110.742,155.041,111.299,154.73"/>
	<path fill="#010101" d="M119.605,149.13c3.03,0.496,6.141,1.251,9.208,1.406c0.533,0.026,0.636-0.792,0.125-0.924
		c-2.933-0.76-6.084-0.964-9.083-1.39C119.268,148.139,119.004,149.031,119.605,149.13"/>
	<path fill="#010101" d="M127.222,150.779c0.008,1.464,0.213,2.833,0.664,4.227c0.222,0.685,1.226,0.405,1.076-0.297
		c-0.275-1.288-0.433-2.612-0.449-3.93C128.503,149.949,127.217,149.946,127.222,150.779"/>
	<path fill="#010101" d="M113.025,160.7c4.891-1.102,9.86-2.039,14.664-3.483c0.65-0.195,0.371-1.108-0.275-1
		c-4.948,0.836-9.82,2.195-14.694,3.376C112,159.767,112.305,160.862,113.025,160.7"/>
	<path fill="#010101" d="M110.16,153.551c-3.613-0.937-7.29-1.481-11.029-1.345c-0.543,0.02-0.544,0.824,0,0.845
		c3.652,0.131,7.237,0.484,10.797,1.346C110.475,154.528,110.708,153.692,110.16,153.551"/>
	<path fill="#010101" d="M95.081,152.651c3.017,0.235,6.034,0.472,9.044,0.776c0.555,0.057,0.54-0.794,0-0.86
		c-3.01-0.369-6.016-0.666-9.044-0.825C94.493,151.711,94.503,152.606,95.081,152.651"/>
	<path fill="#010101" d="M104.006,145.911c4.863,1.278,9.784,2.226,14.799,2.63c0.725,0.059,0.698-1.033,0-1.116
		c-4.894-0.579-9.729-1.354-14.515-2.544C103.623,144.715,103.34,145.736,104.006,145.911"/>
	<path fill="#010101" d="M102.85,145.515c-2.712,1.769-5.402,3.555-8.066,5.396c-0.582,0.403-0.054,1.351,0.563,0.965
		c2.741-1.718,5.444-3.482,8.139-5.273C104.156,146.156,103.533,145.069,102.85,145.515"/>
	<path fill="#010101" d="M94.269,153.714c0.538,1.675,0.899,3.436,1.06,5.188c0.066,0.744,1.173,0.773,1.18,0
		c0.016-1.934-0.273-3.725-0.887-5.561C95.338,152.489,93.99,152.849,94.269,153.714"/>
	<path fill="#010101" d="M37.943,30.829c-0.403,3.639-0.675,7.27-0.66,10.933c0.002,0.577,0.87,0.573,0.893,0
		c0.147-3.647,0.299-7.295,0.612-10.933C38.835,30.283,38.002,30.297,37.943,30.829"/>
	<path fill="#010101" d="M61.691,31.683c0.136,3.297-0.114,6.557-0.593,9.82c-0.094,0.642,0.854,0.941,0.999,0.275
		c0.73-3.335,0.929-6.686,0.774-10.095C62.836,30.927,61.66,30.922,61.691,31.683"/>
	<path fill="#010101" d="M39.765,30.592c6.908,0.364,13.829,0.624,20.747,0.536c0.544-0.007,0.544-0.835,0-0.845
		c-6.92-0.125-13.833-0.238-20.747-0.584C39.189,29.67,39.192,30.562,39.765,30.592"/>
	<path fill="#010101" d="M62.721,31.284c3.232-0.328,6.465-0.63,9.685-1.055c0.554-0.073,0.584-0.942,0-0.893
		c-3.236,0.272-6.459,0.669-9.685,1.039C62.149,30.441,62.136,31.343,62.721,31.284"/>
	<path fill="#010101" d="M69.336,32.521c-0.371,2.936-0.611,5.886-0.482,8.847c0.027,0.637,0.952,0.635,0.988,0
		c0.167-2.958,0.318-5.906,0.69-8.847C70.628,31.76,69.431,31.767,69.336,32.521"/>
	<path fill="#010101" d="M39.222,30.211c9.217-0.307,18.435-0.596,27.65-0.954c0.439-0.017,0.442-0.7,0-0.686
		c-9.218,0.283-18.434,0.636-27.65,0.97C38.792,29.557,38.79,30.225,39.222,30.211"/>
	<path fill="#010101" d="M69.327,32.795c0.098,0.922,0.195,1.844,0.292,2.765c0.04,0.373,0.626,0.38,0.59,0l-0.26-2.765
		C69.911,32.399,69.285,32.398,69.327,32.795"/>
	<path fill="#010101" d="M68.765,31.301c0.196,0.734,0.388,1.47,0.604,2.198c0.221,0.742,1.31,0.433,1.153-0.318
		c-0.155-0.744-0.336-1.483-0.512-2.223C69.819,30.151,68.549,30.495,68.765,31.301"/>
	<path fill="#010101" d="M60.551,28.841c0.043-9.217,0.002-18.432-0.121-27.648c-0.009-0.659-1.102-0.867-1.2-0.162
		c-1.374,9.822-1.571,19.847,0.045,29.655c0.091,0.552,1.046,0.43,0.986-0.134c-1.035-9.827-1.21-19.382,0.147-29.197l-1.2-0.162
		c0.138,9.216,0.192,18.431,0.163,27.648C59.37,29.6,60.547,29.601,60.551,28.841"/>
	<path fill="#010101" d="M19.938,32.297c-2.633-0.034-5.46,0.962-7.097,3.138c-1.516,2.016-0.538,3.695,1.782,4.128
		c2.329,0.434,6.72,0.705,8.459-1.366c1.644-1.958,0.056-3.836-1.712-4.903c-0.495-0.299-0.93,0.46-0.451,0.771
		c1.305,0.848,3.12,2.368,0.742,4.128c-0.617,0.457-1.728,0.54-2.463,0.61c-1.417,0.135-3.013,0.216-4.417-0.051
		c-1.552-0.295-2.695-0.693-0.929-3.343c0.379-0.568,1.119-0.989,1.68-1.322c1.374-0.818,2.816-1.137,4.406-1.136
		C20.359,32.951,20.359,32.302,19.938,32.297"/>
	<path fill="#010101" d="M16.607,39.927c1.047,0.722,2.007,1.565,2.881,2.489c0.349,0.37,0.875-0.174,0.552-0.552
		c-0.881-1.033-1.879-1.916-2.99-2.694C16.587,38.846,16.144,39.608,16.607,39.927"/>
	<path fill="#010101" d="M20.741,38.793c-0.651,1.161-1.038,2.37-1.162,3.693c-0.039,0.418,0.66,0.516,0.736,0.101
		c0.215-1.174,0.605-2.305,1.197-3.342C21.796,38.745,21.021,38.292,20.741,38.793"/>
</g>
</svg>
