<?xml version="1.0" encoding="utf-8"?>
<!-- Generator: Adobe Illustrator 16.0.0, SVG Export Plug-In . SVG Version: 6.00 Build 0)  -->
<!DOCTYPE svg PUBLIC "-//W3C//DTD SVG 1.1//EN" "http://www.w3.org/Graphics/SVG/1.1/DTD/svg11.dtd">
<svg version="1.1" id="Layer_1" xmlns="http://www.w3.org/2000/svg" xmlns:xlink="http://www.w3.org/1999/xlink" x="0px" y="0px"
	 width="210px" height="100px" viewBox="0 0 210 100" enable-background="new 0 0 210 100" xml:space="preserve">
<g>
	<path fill="#010101" d="M118.744,52.628c0.744,13.767,0.752,27.521,1.01,41.3c0.018,0.979,1.477,0.975,1.518,0
		c0.584-13.748-0.015-27.571-0.811-41.3C120.397,51.531,118.685,51.522,118.744,52.628"/>
	<path fill="#010101" d="M66.687,43.646c0.252,12.756,0.225,25.556,0.918,38.296c0.061,1.124,1.757,1.142,1.76,0
		c0.039-12.76-0.646-25.543-1.05-38.296C68.282,42.603,66.666,42.596,66.687,43.646"/>
	<path fill="#010101" d="M94.159,34.508c9.519,6.283,18.378,13.499,27.853,19.808c0.652,0.435,1.424-0.56,0.84-1.088
		c-8.429-7.611-18.415-13.875-27.916-20.05C94.102,32.636,93.334,33.964,94.159,34.508"/>
	<path fill="#010101" d="M70.12,42.5c8.107-3.562,16.404-6.255,24.79-9.044c0.882-0.293,0.528-1.63-0.386-1.4
		c-8.631,2.174-16.993,5.605-25.081,9.285C68.654,41.7,69.339,42.843,70.12,42.5"/>
	<path fill="#010101" d="M174.044,49.974c-0.111,12.938-0.64,26.057,0.34,38.966c0.075,0.995,1.518,1.014,1.562,0
		c0.562-12.948-0.14-26.004-0.163-38.966C175.779,48.854,174.054,48.854,174.044,49.974"/>
	<path fill="#010101" d="M174.982,48.66c4.908-6.621,10.126-13.339,14.116-20.565c0.546-0.985-0.843-1.744-1.481-0.866
		c-4.88,6.707-9.124,13.901-13.927,20.677C173.128,48.697,174.418,49.421,174.982,48.66"/>
	<path fill="#010101" d="M206.888,36.646c-1.211,14.825-2.997,29.751-3.438,44.621c-0.029,1.015,1.426,0.956,1.54,0
		c1.78-14.767,2.246-29.784,3.263-44.621C208.312,35.768,206.959,35.778,206.888,36.646"/>
	<path fill="#010101" d="M206.696,34.383c-5.854-3.415-11.984-6.162-18.425-8.266c-0.996-0.326-1.433,1.257-0.433,1.57
		c6.343,1.98,12.386,4.6,18.168,7.873C206.772,35.993,207.455,34.825,206.696,34.383"/>
	<path fill="#010101" d="M1.123,23.551c1.36,6.636,2.16,13.346,2.232,20.121c0.067,6.253-1.149,12.413-1.172,18.619
		c-0.005,1.149,1.632,1.334,1.966,0.266C7.943,50.449,5.724,35.172,3.011,23.03C2.736,21.797,0.871,22.322,1.123,23.551"/>
	<path fill="#010101" d="M2.828,21.959c6.299-5.902,12.847-11.572,18.989-17.635c0.698-0.69-0.328-1.659-1.058-1.059
		C14.102,8.746,7.951,14.896,1.817,20.948C1.159,21.596,2.157,22.588,2.828,21.959"/>
	<path fill="#010101" d="M122.928,53.265c5.534-1.591,11.721-3.336,16.631-6.431c0.715-0.451,0.267-1.735-0.603-1.428
		c-5.554,1.964-10.76,4.663-16.426,6.415C121.614,52.105,121.998,53.532,122.928,53.265"/>
	<path fill="#010101" d="M139.909,45.96c9.929,1.477,19.853,2.968,29.805,4.285c0.694,0.092,0.866-1.126,0.167-1.232
		c-9.877-1.489-19.774-2.804-29.674-4.135C139.505,44.784,139.191,45.853,139.909,45.96"/>
	<path fill="#010101" d="M137.375,47.311c-0.008,11.316-0.246,22.657,0.182,33.967c0.043,1.13,1.729,1.136,1.76,0
		c0.306-11.313-0.055-22.651-0.182-33.967C139.121,46.179,137.375,46.176,137.375,47.311"/>
	<path fill="#010101" d="M68.522,42.024c2.21-2.007,4.44-3.994,6.619-6.034c0.481-0.45-0.227-1.137-0.715-0.716
		c-2.263,1.951-4.479,3.957-6.713,5.941C67.163,41.704,67.978,42.52,68.522,42.024"/>
	<path fill="#010101" d="M73.879,35.326c-23.755-3.849-47.361-8.615-71.107-12.469c-1.15-0.188-1.672,1.523-0.491,1.781
		c23.483,5.117,47.484,8.496,71.265,11.896C74.33,36.648,74.681,35.456,73.879,35.326"/>
	<path fill="#010101" d="M67.71,83.659c15.911,4.706,32.112,10.268,48.416,13.389c1.024,0.196,1.435-1.233,0.433-1.57
		c-15.784-5.308-32.399-8.781-48.439-13.304C67.163,81.904,66.76,83.378,67.71,83.659"/>
	<path fill="#010101" d="M135.986,81.889c-5.541,4.014-11.121,7.975-16.557,12.127c-0.745,0.569-0.051,1.852,0.755,1.292
		c5.618-3.897,11.097-7.992,16.612-12.031C137.621,82.672,136.826,81.28,135.986,81.889"/>
	<path fill="#010101" d="M138.518,83.091c11.354,2.906,22.754,5.636,34.291,7.713c0.988,0.178,1.428-1.298,0.422-1.528
		c-11.423-2.604-22.883-5.036-34.274-7.775C137.925,81.252,137.486,82.827,138.518,83.091"/>
	<path fill="#010101" d="M202.256,73.905c-8.928,4.39-19.175,8.649-26.877,15.015c-0.84,0.693,0.233,1.74,1.066,1.383
		c9.22-3.953,17.784-10.188,26.743-14.801C204.25,74.955,203.316,73.384,202.256,73.905"/>
	<path fill="#010101" d="M4.883,62.939c21.484,1.375,41.745,6.224,62.202,12.633c1.074,0.338,1.462-1.261,0.456-1.653
		c-19.78-7.74-41.53-11.408-62.658-12.629C3.821,61.228,3.828,62.872,4.883,62.939"/>
	<path fill="#010101" d="M95.997,33.029c16.833-7.343,34.258-14.696,50.211-23.821c0.685-0.391,0.083-1.316-0.599-1.026
		c-17.002,7.213-33.537,15.894-50.313,23.65C94.482,32.209,95.192,33.38,95.997,33.029"/>
	<path fill="#010101" d="M185.298,27.799C130.433,20.974,75.97,11.218,21.125,4.359c-0.781-0.098-0.969,1.25-0.187,1.383
		c27.68,4.714,55.628,8.353,83.435,12.245c26.943,3.771,53.912,7.353,80.925,10.582C185.789,28.628,185.782,27.859,185.298,27.799"
		/>
	<path fill="#010101" d="M147.571,9.618c7.413,4.272,14.736,8.941,22.381,12.784c0.694,0.349,1.272-0.626,0.61-1.045
		c-7.229-4.577-15.003-8.454-22.48-12.613C147.512,8.428,147.006,9.292,147.571,9.618"/>
	<path fill="#010101" d="M168.908,22.395c-0.797,1.209-1.865,2.113-3.141,2.787c-0.621,0.327-0.076,1.221,0.544,0.931
		c1.471-0.688,2.681-1.799,3.585-3.141C170.309,22.362,169.313,21.781,168.908,22.395"/>
	<path fill="#010101" d="M113.609,17.972c10.213-3,20.414-6.023,30.551-9.271c0.711-0.228,0.416-1.334-0.31-1.125
		c-10.231,2.94-20.39,6.104-30.546,9.293C112.605,17.088,112.899,18.181,113.609,17.972"/>
	<path fill="#010101" d="M126.092,25.145c4.38,6.436,8.527,13.034,12.527,19.71c0.073,0.122,0.26,0.013,0.19-0.111
		c-3.834-6.795-8.015-13.339-12.472-19.742C126.234,24.851,125.988,24.991,126.092,25.145"/>
	<path fill="#010101" d="M76.497,34.745c11.825-4.352,23.756-8.389,35.629-12.602c0.343-0.122,0.2-0.667-0.152-0.552
		c-11.982,3.911-23.786,8.362-35.559,12.856C76.232,34.518,76.31,34.813,76.497,34.745"/>
</g>
</svg>
