<?xml version="1.0" encoding="utf-8"?>
<!-- Generator: Adobe Illustrator 16.0.0, SVG Export Plug-In . SVG Version: 6.00 Build 0)  -->
<!DOCTYPE svg PUBLIC "-//W3C//DTD SVG 1.1//EN" "http://www.w3.org/Graphics/SVG/1.1/DTD/svg11.dtd">
<svg version="1.1" id="Layer_1" xmlns="http://www.w3.org/2000/svg" xmlns:xlink="http://www.w3.org/1999/xlink" x="0px" y="0px"
	 width="115px" height="60px" viewBox="0 0 115 60" enable-background="new 0 0 115 60" xml:space="preserve">
<g>
	<path fill="#010101" d="M96.208,38.692c-1.335,6.157-2.419,12.258-1.359,18.525c0.321,1.896,3.395,1.83,3.766,0
		c1.159-5.706,1.236-11.524,2.131-17.273C101.201,37.021,96.86,35.678,96.208,38.692"/>
	<path fill="#010101" d="M99.374,39.156c4.769-4.17,10.039-8.115,14.309-12.798c0.946-1.037-0.331-2.987-1.588-2.058
		c-5.188,3.836-9.741,8.722-14.461,13.116C96.464,38.504,98.19,40.19,99.374,39.156"/>
	<path fill="#010101" d="M110.45,27.764c-1.161,5.712-1.714,11.299-1.245,17.12c0.151,1.865,2.893,1.918,2.942,0
		c0.139-5.431,0.493-10.901,1.449-16.253C113.963,26.589,110.872,25.691,110.45,27.764"/>
	<path fill="#010101" d="M98.529,57.268c4.243-3.107,8.387-6.306,12.499-9.585c1.316-1.049-0.437-3.353-1.815-2.352
		c-4.255,3.091-8.438,6.235-12.564,9.5C95.282,55.912,97.104,58.31,98.529,57.268"/>
	<path fill="#010101" d="M43.605,32.778c16.468,1.758,32.887,3.882,49.321,5.919c1.126,0.14,1.403-1.837,0.271-1.996
		c-16.476-2.316-33.036-4.063-49.592-5.688C42.472,30.902,42.489,32.658,43.605,32.778"/>
	<path fill="#010101" d="M30.04,50.693c22.688,0.22,44.396,3.988,66.654,7.884c1.798,0.315,2.59-2.274,0.767-2.784
		c-21.566-6.037-45.137-7.271-67.421-6.918C28.87,48.893,28.867,50.683,30.04,50.693"/>
	<path fill="#010101" d="M45.671,32.163c12.397-6.698,25.214-12.344,37.923-18.39c1.621-0.771,0.463-3.601-1.235-2.933
		c-13.16,5.182-25.751,12.046-38.012,19.06C42.881,30.74,44.186,32.964,45.671,32.163"/>
	<path fill="#010101" d="M68.636,22.838c12.92,2.574,26.39,4.715,39.598,4.249c1.565-0.057,1.532-2.286,0-2.408
		c-13.098-1.055-26.039-1.673-39.016-3.956C67.845,20.482,67.241,22.561,68.636,22.838"/>
	<path fill="#010101" d="M37.651,33.183c-1.215,4.819-1.949,9.502-1.812,14.482c0.069,2.483,3.436,2.319,3.744,0
		c0.595-4.459,1.197-8.96,2.143-13.359C42.295,31.662,38.321,30.529,37.651,33.183"/>
	<path fill="#010101" d="M4.203,23.532C16.489,16.846,29.347,11.82,41.978,5.909c1.812-0.849,0.533-3.833-1.36-3.227
		C27.386,6.917,14.637,13.955,2.61,20.807C0.842,21.814,2.417,24.504,4.203,23.532"/>
	<path fill="#010101" d="M43.942,8.51c11.579,1.104,23.151,2.316,34.751,3.167c1.596,0.116,1.548-2.297,0-2.462
		C67.131,7.993,55.529,7.128,43.942,6.156C42.427,6.029,42.449,8.368,43.942,8.51"/>
	<path fill="#010101" d="M3.993,24.167c10.65,5.656,22.307,8.68,34.387,8.417c1.582-0.033,1.588-2.453,0-2.461
		c-11.69-0.058-22.842-2.538-33.253-7.896C3.845,21.567,2.712,23.487,3.993,24.167"/>
	<path fill="#010101" d="M1.287,26.465c0.029,5.721,0.45,11.443,1.892,16.992c0.308,1.187,2.371,0.985,2.206-0.298
		C4.674,37.597,3.99,32.083,3.961,26.465C3.953,24.744,1.277,24.741,1.287,26.465"/>
	<path fill="#010101" d="M3.32,42.819c2.309,5.514,8.39,7.012,13.805,8.001c6.795,1.24,14.068,1.2,19.908-2.929
		c1.59-1.124,0.245-3.371-1.512-2.587c-4.961,2.213-10.086,3.078-15.513,2.534c-4.686-0.47-11.889-1.285-14.097-6.112
		C5.251,40.285,2.697,41.333,3.32,42.819"/>
</g>
</svg>
