<?xml version="1.0" encoding="utf-8"?>
<!-- Generator: Adobe Illustrator 16.0.0, SVG Export Plug-In . SVG Version: 6.00 Build 0)  -->
<!DOCTYPE svg PUBLIC "-//W3C//DTD SVG 1.1//EN" "http://www.w3.org/Graphics/SVG/1.1/DTD/svg11.dtd">
<svg version="1.1" id="Layer_1" xmlns="http://www.w3.org/2000/svg" xmlns:xlink="http://www.w3.org/1999/xlink" x="0px" y="0px"
	 width="35px" height="125px" viewBox="0 0 35 125" enable-background="new 0 0 35 125" xml:space="preserve">
<g>
	<path fill="#010101" d="M3.429,46.783C4.873,59.359,2.443,72.2,1.984,84.795c-0.229,6.29-0.29,12.586-0.271,18.88
		c0.019,6.033-0.605,12.612,0.751,18.514c0.499,2.166,4.146,2.317,4.537,0c1.01-6.004,0.036-12.448-0.15-18.514
		c-0.203-6.622-0.319-13.248-0.241-19.873c0.145-12.47,1.997-25.048-0.176-37.425C6.138,44.7,3.231,45.066,3.429,46.783"/>
	<path fill="#010101" d="M24.479,48.581c0.825,12.122-1.592,24.013-2.582,36.046c-0.962,11.694-1.157,23.864,0.937,35.442
		c0.225,1.248,2.229,0.948,2.194-0.296c-0.339-12.093-1.086-24.019-0.168-36.121c0.889-11.708,3.027-23.293,2.088-35.072
		C26.822,47.011,24.369,46.987,24.479,48.581"/>
	<path fill="#010101" d="M6.305,48.072c5.914,0.572,12.131,1.655,18.056,0.942c2.338-0.281,3.378-3.928,0.61-4.505
		c-6.063-1.264-12.508-0.744-18.666-0.67C3.534,43.871,3.638,47.814,6.305,48.072"/>
	<path fill="#010101" d="M29.941,40.761c-1.761,1.431-3.344,3.004-4.774,4.767c-1.122,1.38,0.719,3.34,1.995,1.996
		c1.454-1.532,3.023-2.989,4.704-4.271C33.674,41.877,31.738,39.301,29.941,40.761"/>
	<path fill="#010101" d="M31.541,42.858c0.708,5.707-0.267,11.748-0.63,17.472c-0.403,6.37-0.808,12.741-1.21,19.111
		c-0.384,6.033-0.756,12.068-1.1,18.105c-0.356,6.25-1.358,12.879-0.761,19.11c0.154,1.613,2.695,2.273,3.061,0.415
		c1.18-6.003,0.879-12.416,1.128-18.521c0.263-6.368,0.497-12.739,0.717-19.11c0.223-6.37,0.443-12.741,0.665-19.111
		c0.203-5.836,0.979-11.945,0.094-17.737C33.337,41.491,31.403,41.739,31.541,42.858"/>
	<path fill="#010101" d="M8.896,20.734c0.093,7.891-0.758,15.617-1.275,23.47c-0.072,1.111,1.773,1.383,1.963,0.266
		c1.333-7.786,1.188-15.875,0.782-23.736C10.317,19.795,8.885,19.781,8.896,20.734"/>
	<path fill="#010101" d="M16.757,23.567c-0.657,5.762-0.834,11.511-0.242,17.284c0.114,1.113,1.863,1.138,1.765,0
		c-0.503-5.767-0.694-11.505-0.287-17.284C18.049,22.765,16.846,22.794,16.757,23.567"/>
	<path fill="#010101" d="M24.879,21.212c-1.443,8.496-2.888,17.124-0.983,25.657c0.354,1.581,2.619,0.878,2.382-0.656
		c-1.271-8.242-0.418-16.199,0.813-24.392C27.305,20.387,25.126,19.748,24.879,21.212"/>
	<path fill="#010101" d="M30.668,39.578c0.734-7.319,1.483-14.836,1.181-22.197c-0.035-0.829-1.28-0.835-1.295,0
		c-0.129,7.409,0.143,14.785-0.239,22.197C30.304,39.807,30.646,39.799,30.668,39.578"/>
	<path fill="#010101" d="M28.866,20.084c1.04-1.229,2.112-2.392,2.89-3.807c0.337-0.612,0.205-1.396-0.362-1.82
		c-0.605-0.452-1.286-0.34-1.854,0.11c-1.16,0.922-2.046,2.059-3.001,3.188c-0.572,0.679-0.665,1.664,0,2.329
		C27.127,20.673,28.29,20.767,28.866,20.084"/>
	<path fill="#010101" d="M9.395,19.745c5.583,0.628,11.167,1.382,16.772,1.755c2.065,0.136,1.994-2.961,0-3.176
		c-5.568-0.601-11.182-0.821-16.772-1.166C7.708,17.055,7.776,19.563,9.395,19.745"/>
	<path fill="#010101" d="M12.825,10.228c-1.65,1.334-3.03,2.833-4.275,4.55c-1.053,1.453,1.315,3.282,2.494,1.924
		c1.272-1.467,2.683-2.843,4.193-4.063c0.717-0.579,0.603-1.809,0-2.411C14.527,9.519,13.543,9.647,12.825,10.228"/>
	<path fill="#010101" d="M17.24,8.352c-0.075,0.859-0.152,1.719-0.229,2.578c-0.043,0.494,0.711,0.482,0.765,0
		c0.096-0.859,0.192-1.719,0.287-2.578C18.121,7.83,17.288,7.823,17.24,8.352"/>
	<path fill="#010101" d="M17.897,13.406c2.124,0.64,3.665-1.253,5.718-0.979c0.436,0.058,0.818-0.421,0.815-0.815
		c-0.026-3.235,0.168-6.477,0.282-9.71c0.027-0.799-1.186-0.788-1.235,0c-0.206,3.235-0.333,6.487-0.677,9.71l1.031-0.786
		c-1.9-0.363-3.708,1.408-5.45,0.821C17.273,11.276,16.771,13.067,17.897,13.406"/>
	<path fill="#010101" d="M25.076,12.987c1.998,0.417,3.971,0.815,5.996,1.078c1.415,0.183,1.712-2.173,0.336-2.483
		c-1.88-0.424-3.77-0.698-5.676-0.978C24.202,10.381,23.488,12.655,25.076,12.987"/>
	<path fill="#010101" d="M18.321,8.483c3.107,0.48,5.962-2.059,5.215-5.272c-0.186-0.798-1.51-0.643-1.449,0.197
		c0.155,2.164-1.333,3.947-3.58,3.703C17.733,7.027,17.543,8.364,18.321,8.483"/>
	<path fill="#010101" d="M11.325,72.884c-4.407,3.778-1.271,12.3,4.595,12.126c2.603-0.076,4.571-2.068,5.207-4.504
		c0.807-3.094-0.708-6.166-2.95-8.23c-0.582-0.535-1.691,0.196-1.159,0.895c1.96,2.58,4.597,8.684-0.404,9.986
		c-4.87,1.271-7.537-6.263-4.245-9.229C13.08,73.286,12.04,72.271,11.325,72.884"/>
	<path fill="#010101" d="M9.133,73.212c2.203,0.028,4.405,0.054,6.607,0.082c1.114,0.013,3.06,0.453,3.981-0.461
		c0.688-0.685,0.603-2.158,0.673-3.006c0.094-1.148,0.638-2.969-0.462-3.784c-1.111-0.825-3.328-0.772-4.667-1.01
		c-1.361-0.24-2.932-0.786-4.318-0.64c-2.975,0.315-1.877,4.842-1.758,6.8c0.055,0.88,1.318,0.882,1.371,0
		c0.059-0.984,0.104-1.971,0.137-2.955c0.011-0.333-0.123-1.198,0.024-1.478c0.377-0.714,1.204-0.553,1.797-0.527
		c1.004,0.04,2.078,0.374,3.067,0.554c0.577,0.103,2.792,0.185,3.133,0.583c0.275,0.322-0.183,2.359-0.259,2.862
		c-0.117,0.776-0.041,0.951-0.656,1.214c-0.38,0.16-1.233-0.009-1.652-0.011c-2.339-0.014-4.68-0.027-7.02-0.043
		C7.963,71.386,7.963,73.198,9.133,73.212"/>
	<path fill="#010101" d="M10.758,58.867c0.008,1.322,0.025,2.626,0.135,3.944c0.077,0.925,1.319,0.904,1.423,0
		c0.152-1.316,0.211-2.62,0.261-3.944C12.62,57.7,10.752,57.693,10.758,58.867"/>
	<path fill="#010101" d="M13.039,58.161c1.066-0.501,2.115-1.013,3.152-1.571c0.773-0.415,0.239-1.776-0.608-1.445
		c-1.168,0.455-2.307,0.95-3.448,1.468C11.09,57.087,11.996,58.65,13.039,58.161"/>
	<path fill="#010101" d="M15.36,57.633c1.059,0.513,2.104,1.001,3.202,1.427c0.776,0.3,1.208-0.89,0.548-1.301
		c-0.938-0.587-1.901-1.097-2.885-1.605C15.242,55.646,14.373,57.155,15.36,57.633"/>
	<path fill="#010101" d="M18.193,60.325c0.205,0.973,0.268,1.986,0.216,2.978c-0.048,0.904,1.448,1.133,1.604,0.216
		c0.217-1.254,0.197-2.43-0.066-3.677C19.705,58.697,17.951,59.181,18.193,60.325"/>
	<path fill="#010101" d="M15.208,79.367c1.556-0.506,3.077-1.076,4.604-1.659c0.946-0.361,0.588-1.841-0.428-1.551
		c-1.567,0.449-3.124,0.904-4.667,1.431C13.603,77.969,14.071,79.737,15.208,79.367"/>
	<path fill="#010101" d="M14.823,77.976c-0.116-0.422-0.231-0.843-0.347-1.264c-0.238-0.87-1.753-0.733-1.631,0.22
		c0.056,0.43,0.111,0.858,0.166,1.288c0.071,0.547,0.44,0.988,1.045,0.907C14.599,79.053,14.971,78.515,14.823,77.976"/>
</g>
</svg>
