<?xml version="1.0" encoding="utf-8"?>
<!-- Generator: Adobe Illustrator 16.0.0, SVG Export Plug-In . SVG Version: 6.00 Build 0)  -->
<!DOCTYPE svg PUBLIC "-//W3C//DTD SVG 1.1//EN" "http://www.w3.org/Graphics/SVG/1.1/DTD/svg11.dtd">
<svg version="1.1" id="Layer_1" xmlns="http://www.w3.org/2000/svg" xmlns:xlink="http://www.w3.org/1999/xlink" x="0px" y="0px"
	 width="125px" height="195px" viewBox="0 0 125 195" enable-background="new 0 0 125 195" xml:space="preserve">
<g>
	<path fill="#010101" d="M49.55,71.54c0.381,19.559,0.434,39.129-0.159,58.685c-0.291,9.616-0.732,19.226-1.138,28.836
		c-0.416,9.841-1.789,19.983-1.143,29.808c0.191,2.912,4.826,3.982,5.427,0.734c1.716-9.304,1.448-19.11,1.771-28.554
		c0.34-9.939,0.448-19.885,0.482-29.83c0.067-19.896-0.098-39.792-0.722-59.679C53.979,68.64,49.492,68.622,49.55,71.54"/>
	<path fill="#010101" d="M55.674,71.429c1.479-1.193,2.96-2.386,4.439-3.579c0.691-0.557,1.382-1.113,2.072-1.67
		c0.395-0.318,0.79-0.636,1.184-0.954c0.465-0.258,0.315-0.431-0.449-0.519l-0.632-1.524c-0.012,0.105-0.023,0.209-0.035,0.313
		c-0.291,2.488,3.44,2.701,4.165,0.563c1.051-3.102-2.826-4.105-4.967-2.91c-1.492,0.835-2.822,2.273-4.139,3.364
		c-1.559,1.292-3.118,2.584-4.677,3.877C50.494,70.165,53.548,73.142,55.674,71.429"/>
	<path fill="#010101" d="M61.011,64.873c-0.224,18.999-0.447,37.998-0.671,56.997c-0.223,18.892-1.281,38.133-0.29,56.998
		c0.16,3.05,4.577,3.053,4.743,0c1.021-18.864-0.004-38.106-0.194-56.998l-0.575-56.997C64.005,62.934,61.033,62.931,61.011,64.873"
		/>
	<path fill="#010101" d="M52.443,191.671c4.341-3.051,8.31-6.419,11.724-10.49c1.908-2.277-1.156-5.494-3.314-3.315
		c-3.396,3.429-6.969,6.753-10.859,9.613C47.516,189.299,49.861,193.484,52.443,191.671"/>
	<path fill="#010101" d="M3.666,191.994c9.087-1.742,18.252-2.624,27.504-2.662c8.82-0.036,17.372,1.288,26.124,2.064
		c2.025,0.18,2.395-3.017,0.475-3.508c-17.531-4.485-37.45-2.689-54.919,1.146C0.909,189.46,1.741,192.363,3.666,191.994"/>
	<path fill="#010101" d="M6.393,186.885c1.262-19.973,2.108-39.971,2.496-59.979c0.19-9.838,0.25-19.677,0.2-29.516
		C9.04,87.925,9.95,77.603,8.092,68.295c-0.518-2.596-3.935-1.613-4.22,0.572c-1.245,9.543,0.241,19.87,0.431,29.507
		c0.193,9.836,0.284,19.676,0.288,29.514c0.008,19.673-0.429,39.343-1.267,58.997C3.238,188.867,6.269,188.844,6.393,186.885"/>
	<path fill="#010101" d="M9.19,68.875c14.063,0.585,28.007,2.002,42.013,3.304c1.578,0.146,1.969-2.569,0.378-2.795
		C37.561,67.4,23.335,66.637,9.19,66.196C7.464,66.143,7.472,68.804,9.19,68.875"/>
	<path fill="#010101" d="M7.918,68.289c4.963-2.655,10.152-4.79,15.156-7.347c1.452-0.741,0.447-3.17-1.118-2.651
		c-5.433,1.798-10.585,4.599-15.587,7.348C4.635,66.592,6.177,69.22,7.918,68.289"/>
	<path fill="#010101" d="M24.973,61.264c10.525,0.458,21.029,1.239,31.537,1.993c1.803,0.129,1.768-2.626,0-2.79
		c-10.49-0.976-21.005-1.393-31.537-1.604C23.423,58.833,23.435,61.196,24.973,61.264"/>
	<path fill="#010101" d="M66.227,78.94c8.329,0.302,16.63,0.988,24.952,1.393c1.802,0.088,1.69-2.514,0-2.734
		c-8.277-1.076-16.611-1.377-24.952-1.561C64.355,75.997,64.363,78.872,66.227,78.94"/>
	<path fill="#010101" d="M92.709,80.259c1.724-1.716,3.574-3.306,5.408-4.9c1.512-1.314-0.499-3.979-2.164-2.805
		c-2.137,1.508-4.019,3.236-5.809,5.14C88.547,79.393,91.048,81.912,92.709,80.259"/>
	<path fill="#010101" d="M88.341,84.712c-0.821,13.957-1.411,27.926-1.928,41.898c-0.508,13.745-1.989,28.248-0.316,41.928
		c0.248,2.026,2.962,2.06,3.181,0c1.46-13.762,0.154-28.087,0.283-41.928c0.13-13.977,0.651-27.94,1.347-41.898
		C90.989,83.058,88.438,83.07,88.341,84.712"/>
	<path fill="#010101" d="M94.975,79.048c-0.536,14.013-0.859,28.038-1.031,42.06c-0.163,13.275-1.279,27.354,0.69,40.505
		c0.267,1.785,2.827,1.173,2.959-0.4c1.122-13.488-0.586-27.535-0.764-41.082c-0.178-13.698-0.006-27.39,0.377-41.082
		C97.246,77.608,95.029,77.614,94.975,79.048"/>
	<path fill="#010101" d="M92.478,162.559c-1.075,1.46-2.17,2.905-3.175,4.414c-1.099,1.647,1.438,3.635,2.76,2.131
		c1.197-1.363,2.307-2.795,3.438-4.212c0.715-0.895,0.794-2.11-0.194-2.873C94.329,161.265,93.159,161.632,92.478,162.559"/>
	<path fill="#010101" d="M67.478,170.407c7.238,0.976,14.392,1.588,21.696,1.215c1.862-0.095,1.874-2.828,0-2.902
		c-7.106-0.277-14.224-0.5-21.304-1.218C66.229,167.336,65.824,170.184,67.478,170.407"/>
	<path fill="#010101" d="M65.448,72.76c9.388,0.755,18.689,1.955,28.034,3.1c1.576,0.194,1.966-2.565,0.379-2.795
		c-9.409-1.356-18.929-2.082-28.413-2.648C63.934,70.325,63.958,72.64,65.448,72.76"/>
	<path fill="#010101" d="M96.461,79.648c8.284,0.145,16.536-0.131,24.753-1.225c1.352-0.181,1.418-2.308,0-2.178
		c-8.243,0.76-16.472,1.338-24.753,1.338C95.131,77.584,95.132,79.626,96.461,79.648"/>
	<path fill="#010101" d="M119.587,78.684c0.24,10.292,0.172,20.585-0.27,30.871c-0.222,5.146-0.542,10.286-0.96,15.42
		c-0.41,5.044-1.521,10.351-0.892,15.388c0.303,2.414,3.548,3.132,4.386,0.594c1.468-4.458,1.358-9.402,1.598-14.055
		c0.279-5.456,0.463-10.92,0.566-16.383c0.199-10.615,0.004-21.23-0.522-31.835C123.369,76.188,119.528,76.156,119.587,78.684"/>
	<path fill="#010101" d="M99.798,148.51c7.25-0.777,14.514-1.425,21.769-2.15c2.495-0.249,2.571-4.14,0-3.962
		c-7.463,0.517-14.851,1.476-22.235,2.659C97.396,145.366,97.825,148.721,99.798,148.51"/>
	<path fill="#010101" d="M121.879,76.939c0.935-1.327,1.529-2.894,1.605-4.519c0.08-1.724-2.617-2.094-3.016-0.408
		c-0.289,1.226-0.669,2.252-1.433,3.265c-0.535,0.711-0.114,1.841,0.591,2.253C120.449,78.012,121.366,77.669,121.879,76.939"/>
	<path fill="#010101" d="M112.703,74.02c2.771,0.09,5.522,0.177,8.293,0.103c1.812-0.05,1.779-2.662,0-2.79
		c-2.766-0.199-5.521-0.236-8.293-0.271C110.797,71.039,110.804,73.958,112.703,74.02"/>
	<path fill="#010101" d="M114.091,71.667c0.47-0.624,0.954-1.239,1.407-1.875c0.45-0.632,0.798-1.334,1.173-2.012
		c0.737-1.33-1.049-2.81-2.146-1.657c-1.183,1.24-2.181,2.549-3.181,3.939c-0.501,0.696-0.121,1.771,0.571,2.176
		C112.729,72.713,113.574,72.356,114.091,71.667"/>
	<path fill="#010101" d="M102.774,65.776c4.211,0.759,8.399,1.614,12.612,2.365c1.74,0.311,2.515-2.297,0.741-2.69
		c-4.193-0.93-8.416-1.575-12.672-2.15C101.864,63.085,101.121,65.478,102.774,65.776"/>
	<path fill="#010101" d="M95.857,4.422c-0.211,7.642-0.341,15.277-0.422,22.922c-0.073,6.905-1.117,14.589,0.313,21.352
		c0.322,1.523,2.736,1.512,3.067,0c1.48-6.737,0.493-14.468,0.472-21.352c-0.023-7.644-0.097-15.28-0.25-22.922
		C98.997,2.374,95.914,2.374,95.857,4.422"/>
	<path fill="#010101" d="M99.227,9.82c3.04-0.203,7.076-0.155,9.55-2.124c0.803-0.638,0.334-2.077-0.603-2.284
		c-1.424-0.314-2.718-0.024-4.123,0.237c-1.598,0.297-3.205,0.507-4.824,0.655C97.005,6.509,96.95,9.974,99.227,9.82"/>
	<path fill="#010101" d="M107.039,8.997c-0.156,10.08-0.234,20.161-0.218,30.243c0.008,4.877,0.108,9.754,0.212,14.631
		c0.096,4.536-0.535,9.705,1.153,13.971c0.426,1.076,1.929,1.196,2.313,0c1.406-4.368,0.473-9.434,0.331-13.971
		c-0.151-4.877-0.263-9.755-0.426-14.631c-0.337-10.079-0.579-20.16-0.743-30.243C109.634,7.31,107.065,7.307,107.039,8.997"/>
	<path fill="#010101" d="M70.436,4.464C79.61,4.612,88.916,5.2,98.082,4.789c1.767-0.08,1.751-2.618,0-2.734
		c-9.155-0.608-18.472-0.22-27.646-0.27C68.71,1.776,68.71,4.437,70.436,4.464"/>
	<path fill="#010101" d="M67.634,5.192c0.287,7.148,0.405,14.299,0.303,21.452c-0.101,7.085-1.071,14.397-0.54,21.453
		c0.141,1.87,3.118,2.586,3.507,0.475c1.251-6.786,0.818-14.074,0.724-20.951c-0.104-7.486-0.449-14.962-0.98-22.429
		C70.511,3.277,67.555,3.238,67.634,5.192"/>
	<path fill="#010101" d="M60.757,51.249c12.421-0.371,24.869,0.498,37.26,0.135c1-0.03,0.959-1.425,0-1.524
		c-12.212-1.275-25.008-0.461-37.26,0.015C59.876,49.908,59.869,51.276,60.757,51.249"/>
	<path fill="#010101" d="M99.237,52.941c0.091,0.012,0.183,0.024,0.272,0.036l-1.116-0.641c0.767,1.559,0.514,4.642,0.577,6.339
		c0.064,1.771,0.037,3.467,0.479,5.193c0.272,1.062,1.726,0.954,2.046,0c0.932-2.768,0.479-5.849,0.071-8.684
		c-0.24-1.676-0.115-4.654-2.33-4.814C97.555,50.248,97.644,52.732,99.237,52.941"/>
	<path fill="#010101" d="M83.786,66.815c5.809-0.118,11.693,0.024,17.479-0.521c1-0.094,1.036-1.554,0-1.584
		c-5.81-0.172-11.673,0.353-17.479,0.609C82.83,65.363,82.819,66.835,83.786,66.815"/>
	<path fill="#010101" d="M59.019,51.416c0.149,0.771,0.13,1.614,0.104,2.396c-0.036,1.049,1.404,1.124,1.732,0.235
		c0.389-1.059,0.345-2.074,0.095-3.163C60.66,49.619,58.776,50.162,59.019,51.416"/>
	<path fill="#010101" d="M80.378,57.264c0.37,2.391,0.323,4.813,0.702,7.192c0.155,0.975,1.799,0.969,1.96,0
		c0.427-2.564,0.01-5.269-0.385-7.82C82.424,55.139,80.148,55.774,80.378,57.264"/>
	<path fill="#010101" d="M80.855,65.006c-2.035,1.631-4.255,3.019-6.503,4.334c-1.117,0.653-0.139,2.221,0.996,1.703
		c2.559-1.169,4.807-2.777,6.901-4.643C83.215,65.543,81.825,64.229,80.855,65.006"/>
	<path fill="#010101" d="M57.863,56.035c7.541,0.811,15.08,1.271,22.666,1.135c0.922-0.018,0.925-1.428,0-1.436
		c-7.57-0.063-15.124-0.307-22.666-0.984C57.035,54.675,57.052,55.948,57.863,56.035"/>
	<path fill="#010101" d="M67.479,64.47c4.596-1.897,9.163-3.943,13.457-6.458c0.902-0.529,0.106-1.864-0.814-1.395
		c-4.381,2.236-8.726,4.474-13.253,6.404C66.053,63.369,66.646,64.813,67.479,64.47"/>
	<path fill="#010101" d="M56.958,55.548c-1.416,0.943-2.813,1.899-4.188,2.9c-0.808,0.586-0.09,1.909,0.799,1.368
		c1.451-0.883,2.868-1.805,4.28-2.745C58.788,56.444,57.906,54.916,56.958,55.548"/>
</g>
</svg>
