<?xml version="1.0" encoding="utf-8"?>
<!-- Generator: Adobe Illustrator 16.0.0, SVG Export Plug-In . SVG Version: 6.00 Build 0)  -->
<!DOCTYPE svg PUBLIC "-//W3C//DTD SVG 1.1//EN" "http://www.w3.org/Graphics/SVG/1.1/DTD/svg11.dtd">
<svg version="1.1" id="Layer_1" xmlns="http://www.w3.org/2000/svg" xmlns:xlink="http://www.w3.org/1999/xlink" x="0px" y="0px"
	 width="45px" height="145px" viewBox="0 0 45 145" enable-background="new 0 0 45 145" xml:space="preserve">
<g>
	<path fill="#010101" d="M10.238,5.71C18.94,5.764,27.81,5.927,36.412,4.501c1.442-0.239,1.054-2.481-0.338-2.494
		c-8.606-0.079-17.223,0.863-25.836,1.059C8.54,3.105,8.533,5.698,10.238,5.71"/>
	<path fill="#010101" d="M25.108,142.59c5.806-4.006,11.656-8.175,16.68-13.144c1.806-1.787-0.823-4.188-2.712-2.712
		c-5.33,4.162-10.396,8.623-15.852,12.635C21.325,140.765,23.107,143.971,25.108,142.59"/>
	<path fill="#010101" d="M38.551,18.232c-1.005,18.425-1.493,36.853-1.837,55.303c-0.327,17.463-0.959,35.691,1.379,53.03
		c0.185,1.365,2.315,0.979,2.341-0.317c0.184-9.14-0.627-18.32-0.731-27.468c-0.101-8.727,0.042-17.456,0.283-26.18
		c0.502-18.131,1.146-36.229,1.156-54.368C41.143,16.556,38.641,16.576,38.551,18.232"/>
	<path fill="#010101" d="M5.576,20.009C5.763,40.014,5.537,60.033,4.972,80.03C4.694,89.869,4.304,99.705,3.8,109.533
		c-0.251,4.892-0.538,9.78-0.87,14.666c-0.342,5.043-1.372,10.51-0.7,15.519c0.331,2.469,3.931,3.466,4.683,0.634
		c1.207-4.544,0.949-9.53,1.177-14.212c0.253-5.207,0.499-10.415,0.725-15.623c0.429-9.83,0.743-19.665,0.945-29.502
		c0.418-20.344,0.197-40.671-0.504-61.006C9.174,17.65,5.554,17.632,5.576,20.009"/>
	<path fill="#010101" d="M7.327,140.935c6.317-0.224,12.624,0.088,18.921,0.618c1.845,0.156,1.79-2.646,0-2.85
		c-6.316-0.719-12.59-0.665-18.921-0.153C5.818,138.672,5.775,140.989,7.327,140.935"/>
	<path fill="#010101" d="M32.746,5.313c-0.434,2.919-0.827,5.844-1.153,8.777c-0.236,2.119-1.078,5.058-0.435,7.134
		c1.407,4.533,6.514,0.134,8.34-1.442c1.635-1.41-0.446-3.726-2.197-2.849c-1.238,0.621-2.769,1.896-4.122,2.156
		c0.54,0.07,1.08,0.142,1.621,0.213c0.441,1.089,0.601,0.93,0.476-0.477c0.028-0.395,0.056-0.789,0.084-1.185
		c0.102-1.382,0.217-2.762,0.346-4.142c0.239-2.563,0.532-5.117,0.858-7.669C36.839,3.679,33.068,3.147,32.746,5.313"/>
	<path fill="#010101" d="M31.311,25.291c-0.714,19.694-1.571,39.383-2.565,59.065c-0.991,19.654-2.717,39.343-2.975,59.021
		c-0.014,0.954,1.351,0.907,1.449,0c2.147-19.561,2.562-39.368,3.37-59.021c0.811-19.684,1.435-39.372,1.912-59.065
		C32.521,24.523,31.338,24.526,31.311,25.291"/>
	<path fill="#010101" d="M5.737,5.678c0.261,4.752-0.011,9.588,0.622,14.306c0.197,1.474,2.567,2.204,2.9,0.393
		c0.887-4.828,0.475-9.831,0.156-14.698C9.263,3.331,5.607,3.303,5.737,5.678"/>
</g>
</svg>
