<?xml version="1.0" encoding="utf-8"?>
<!-- Generator: Adobe Illustrator 16.0.0, SVG Export Plug-In . SVG Version: 6.00 Build 0)  -->
<!DOCTYPE svg PUBLIC "-//W3C//DTD SVG 1.1//EN" "http://www.w3.org/Graphics/SVG/1.1/DTD/svg11.dtd">
<svg version="1.1" id="Layer_1" xmlns="http://www.w3.org/2000/svg" xmlns:xlink="http://www.w3.org/1999/xlink" x="0px" y="0px"
	 width="135px" height="215px" viewBox="0 0 135 215" enable-background="new 0 0 135 215" xml:space="preserve">
<g>
	<path fill="#010101" d="M29.908,33.941c-1.335,17.872-2.34,35.767-2.969,53.678c-0.622,17.708-2.04,36.073-0.431,53.741
		c0.222,2.433,3.641,2.472,3.814,0c1.249-17.785,0.119-35.902,0.525-53.741c0.408-17.906,1.185-35.801,2.297-53.678
		C33.274,31.855,30.063,31.878,29.908,33.941"/>
	<path fill="#010101" d="M34.253,35.817c4.323-0.067,8.672-0.307,12.947-0.979c2.357-0.37,1.832-4.438-0.568-4.2
		c-4.13,0.41-8.225,0.817-12.379,0.901C31.505,31.596,31.494,35.86,34.253,35.817"/>
	<path fill="#010101" d="M49.314,32.952c0.522-2.544,1.354-5.209,1.307-7.812c-0.032-1.727-2.695-2.736-3.501-0.948
		c-1.077,2.393-1.403,5.061-1.93,7.623C44.637,34.502,48.759,35.65,49.314,32.952"/>
	<path fill="#010101" d="M49.213,25.91c2.591-0.327,5.146-0.664,7.706-1.18c1.908-0.384,1.49-3.509-0.461-3.406
		c-2.435,0.13-4.827,0.407-7.245,0.714c-1.047,0.132-1.925,0.795-1.937,1.936C47.267,24.919,48.176,26.041,49.213,25.91"/>
	<path fill="#010101" d="M61.666,22.1c0.556-1.922,0.99-3.86,1.279-5.84c0.27-1.835,0.672-3.81,0.151-5.616
		c-0.584-2.029-3.304-1.866-3.957,0c-0.552,1.574-0.389,3.365-0.608,5.02c-0.234,1.781-0.632,3.535-1.102,5.269
		C56.688,23.665,60.88,24.814,61.666,22.1"/>
	<path fill="#010101" d="M62.656,13.905c3.25-0.347,6.498-0.644,9.72-1.204c1.764-0.307,1.355-3.209-0.422-3.121
		c-3.115,0.151-6.201,0.56-9.298,0.916C60.507,10.742,60.466,14.14,62.656,13.905"/>
	<path fill="#010101" d="M74.938,9.659c0.247-1.655,0.494-3.31,0.742-4.965C75.015,5.2,74.35,5.706,73.685,6.213
		c3.973,0.175,7.959,0.271,11.927,0.523c2.19,0.139,2.589,0.588,2.722,2.704c0.078,1.244,0.342,2.182,1.029,3.227
		c1.149,1.744,4.508,0.652,3.599-1.517c-0.755-1.804,0.25-3.801-0.593-5.676c-0.638-1.417-1.782-2.261-3.259-2.718
		c-1.971-0.61-4.282-0.407-6.304-0.458c-3.04-0.074-6.08-0.149-9.121-0.225c-1.222-0.03-1.928,0.982-2.069,2.069
		c-0.215,1.66-0.431,3.318-0.646,4.979C70.679,11.358,74.603,11.911,74.938,9.659"/>
	<path fill="#010101" d="M91.605,12.975c2.164-0.214,4.328-0.428,6.492-0.642c0.902-0.089,1.803-0.178,2.705-0.268
		c0.541-0.054,1.082-0.107,1.623-0.16c0.219-0.212,0.26-0.064,0.123,0.446c0.633,1.216-0.035,4.478-0.092,5.864
		c-0.088,2.164-0.276,4.232-0.02,6.389c0.215,1.81,2.775,2.433,3.349,0.452c0.801-2.761,0.771-5.578,0.729-8.44
		c-0.03-2.088,0.446-5.522-0.991-7.263c-1.213-1.471-2.971-1.122-4.66-0.884c-3.228,0.458-6.454,0.923-9.682,1.384
		C89.427,10.104,89.821,13.151,91.605,12.975"/>
	<path fill="#010101" d="M106.033,26.509c3.773-0.185,7.56-0.303,11.327-0.583c1.576-0.117,1.617-2.523,0-2.485
		c-3.776,0.088-7.555,0.341-11.327,0.525C104.403,24.045,104.394,26.589,106.033,26.509"/>
	<path fill="#010101" d="M117.02,27.965c0.243,1.949,0.402,3.934,0.799,5.856c0.288,1.394,2.436,1.046,2.441-0.33
		c0.009-1.841-0.212-3.691-0.351-5.526C119.769,26.095,116.793,26.149,117.02,27.965"/>
	<path fill="#010101" d="M121.228,35.575c3.11-0.356,6.271-0.405,9.394-0.189c2.095,0.145,2.045-3.038,0-3.236
		c-3.322-0.322-6.515-0.144-9.801,0.418C119.139,32.854,119.508,35.772,121.228,35.575"/>
	<path fill="#010101" d="M9.01,170.264c4.111-7.079,8.885-13.781,12.827-20.946c0.952-1.73-1.512-3.876-2.86-2.206
		c-5.232,6.483-9.235,13.956-13.211,21.257C4.61,170.49,7.793,172.361,9.01,170.264"/>
	<path fill="#010101" d="M9.02,171.572c6.954,1.705,18.628,6.245,24.68,0.448c1.015-0.972-0.376-2.896-1.541-1.997
		c-5.797,4.464-16.03,0.665-22.493-0.792C8.146,168.89,7.497,171.199,9.02,171.572"/>
	<path fill="#010101" d="M37.231,169.561c2.872-3.347,5.693-6.736,8.439-10.188c2.47-3.104,5.463-6.273,7.203-9.836
		c0.758-1.551-1.124-3.173-2.451-1.891c-2.709,2.619-4.719,6.071-6.99,9.072c-2.728,3.604-5.54,7.142-8.408,10.635
		C33.768,168.885,35.912,171.098,37.231,169.561"/>
	<path fill="#010101" d="M22.857,148.025c9.502-0.143,19.006-3.169,28.163,0.808c1.359,0.591,2.563-1.284,1.195-2.046
		c-9.161-5.104-19.571-1.261-29.358-0.843C21.525,146.002,21.511,148.046,22.857,148.025"/>
	<path fill="#010101" d="M35.735,175.599c11.276,5.42,23.591,5.929,35.888,5.872c1.19-0.006,1.191-1.834,0-1.851
		c-11.943-0.155-24.119-0.188-35.217-5.17C35.638,174.105,34.957,175.225,35.735,175.599"/>
	<path fill="#010101" d="M76.28,181.806c11.315,4.844,23.973,6.35,35.939,3.089c1.372-0.374,0.792-2.407-0.584-2.118
		c-11.851,2.497-23.399,2.03-34.71-2.503C76.052,179.924,75.408,181.433,76.28,181.806"/>
	<path fill="#010101" d="M114.698,183.34c3.044-7.597,5.339-15.336,6.409-23.457c0.248-1.875-2.879-2.268-3.292-0.445
		c-1.768,7.804-3.815,15.451-6.795,22.889C110.107,184.604,113.795,185.594,114.698,183.34"/>
	<path fill="#010101" d="M53.396,151.917c22.972,2.129,45.642,5.673,68.472,8.846c1.184,0.165,1.735-1.604,0.508-1.839
		c-22.694-4.313-45.993-6.668-68.979-8.799C52.248,150.019,52.256,151.811,53.396,151.917"/>
	<path fill="#010101" d="M119.35,162.556c0.434,4.709,0.893,9.398,1.508,14.088c0.286,2.179,3.68,2.317,3.525,0
		c-0.313-4.711-0.781-9.393-1.276-14.088C122.856,160.185,119.126,160.135,119.35,162.556"/>
	<path fill="#010101" d="M69.844,182.053c-0.307,9.745-0.367,19.495,0.38,29.222c0.134,1.757,2.81,1.807,2.774,0
		c-0.197-9.745-0.473-19.475-0.265-29.222C72.773,180.191,69.901,180.196,69.844,182.053"/>
	<path fill="#010101" d="M31.499,176.1c0.153,9.38,0.29,18.756,0.6,28.132c0.056,1.705,2.668,1.718,2.657,0
		c-0.051-9.38-0.274-18.753-0.482-28.132C34.234,174.318,31.471,174.311,31.499,176.1"/>
	<path fill="#010101" d="M3.077,179.344c-0.743,8.324-0.764,16.574,0.11,24.887c0.202,1.926,3.212,1.987,3.063,0
		c-0.623-8.298-0.679-16.592,0.005-24.887C6.424,177.301,3.257,177.322,3.077,179.344"/>
	<path fill="#010101" d="M65.83,210.939c-8.631-0.771-17.133-2.362-25.525-4.51c-2.018-0.516-2.869,2.563-0.859,3.121
		c8.662,2.413,17.418,3.763,26.385,4.337C67.736,214.01,67.697,211.106,65.83,210.939"/>
	<path fill="#010101" d="M9.032,207.894c7.392,0.615,14.774,1.217,22.18,1.651c1.983,0.116,1.94-2.893,0-3.063
		c-7.388-0.648-14.779-1.128-22.18-1.595C7.091,204.765,7.123,207.734,9.032,207.894"/>
	<path fill="#010101" d="M110.949,188.443c0.499,5.514,0.995,11.012,1.711,16.502c0.214,1.64,2.738,1.757,2.659,0
		c-0.251-5.516-0.723-11.001-1.191-16.502C113.955,186.417,110.765,186.406,110.949,188.443"/>
	<path fill="#010101" d="M77.129,212.945c12.747-0.155,25.631,0.684,38.349-0.075c1.813-0.109,1.753-2.581,0-2.775
		c-12.626-1.392-25.666-0.687-38.349-0.443C75.012,209.69,75.004,212.971,77.129,212.945"/>
	<path fill="#010101" d="M121.497,179.845c-2.742,9.129-5.384,18.321-7.225,27.68c-0.306,1.553,1.979,2.224,2.396,0.661
		c2.466-9.215,4.681-18.484,7.336-27.65C124.472,178.924,121.979,178.243,121.497,179.845"/>
</g>
</svg>
