<?xml version="1.0" encoding="utf-8"?>
<!-- Generator: Adobe Illustrator 16.0.0, SVG Export Plug-In . SVG Version: 6.00 Build 0)  -->
<!DOCTYPE svg PUBLIC "-//W3C//DTD SVG 1.1//EN" "http://www.w3.org/Graphics/SVG/1.1/DTD/svg11.dtd">
<svg version="1.1" id="Layer_1" xmlns="http://www.w3.org/2000/svg" xmlns:xlink="http://www.w3.org/1999/xlink" x="0px" y="0px"
	 width="255px" height="65px" viewBox="0 0 255 65" enable-background="new 0 0 255 65" xml:space="preserve">
<g>
	<path fill="#010101" d="M7.08,56.155c5.778,4.935,12.99,6.179,20.343,6.978c10.289,1.119,20.657,1.537,31.002,1.279
		c19.838-0.49,40.926-2.814,59.642-9.656c1.525-0.559,0.94-2.797-0.675-2.449c-18.387,3.959-36.328,8.025-55.207,8.984
		c-8.768,0.445-17.562,0.403-26.326-0.133c-9.04-0.554-19.757-0.617-27.057-6.725C7.611,53.437,5.882,55.133,7.08,56.155"/>
	<path fill="#010101" d="M115.201,55.243c16.808,9.288,38.358,8.718,56.998,8.392c21.758-0.384,43.476-3.054,64.534-8.59
		c1.816-0.478,1.046-3.185-0.771-2.798c-20.368,4.33-40.999,7.351-61.828,8.099c-18.673,0.67-40.696,1.812-57.651-7.295
		C115.043,52.278,113.767,54.451,115.201,55.243"/>
	<path fill="#010101" d="M13.254,43.658c20.453-20.906,51.229-21.736,77.5-12.844c1.588,0.538,2.248-1.945,0.689-2.498
		c-27.094-9.613-59.067-8.197-80.131,13.4C10.077,42.982,12.015,44.924,13.254,43.658"/>
	<path fill="#010101" d="M66.655,20.221C71.583,3.398,98.354,2.472,112.408,3.854c17.527,1.722,34.195,9.201,47.228,21.017
		c1.305,1.183,3.24-0.729,1.941-1.941C147.37,9.657,128.751,1.92,109.349,0.823C94.493-0.016,69.165,2.188,64.157,19.532
		C63.693,21.138,66.188,21.82,66.655,20.221"/>
	<path fill="#010101" d="M171.752,23.819c17.703-5.124,36.938-0.635,50.686,11.616c1.189,1.059,2.939-0.662,1.76-1.759
		c-14.219-13.217-34.555-17.925-53.189-12.555C169.28,21.619,170.017,24.321,171.752,23.819"/>
	<path fill="#010101" d="M228.905,33.107c5.765-1.518,19.915-3.719,22.83,3.588c3.271,8.199-6.885,13.111-12.783,15.631
		c-1.173,0.501-0.321,2.57,0.879,2.084c7.311-2.969,18.057-8.82,14.448-18.604c-3.375-9.147-18.942-7.042-26.05-5.147
		C226.652,31.079,227.321,33.523,228.905,33.107"/>
	<path fill="#010101" d="M11.808,34.978C-1.092,36.387-2.941,54.1,9.777,57.633c1.9,0.527,2.698-2.391,0.813-2.948
		c-9.007-2.659-8.382-15.546,1.218-16.702C13.697,37.756,13.739,34.767,11.808,34.978"/>
</g>
</svg>
