<?xml version="1.0" encoding="utf-8"?>
<!-- Generator: Adobe Illustrator 16.0.0, SVG Export Plug-In . SVG Version: 6.00 Build 0)  -->
<!DOCTYPE svg PUBLIC "-//W3C//DTD SVG 1.1//EN" "http://www.w3.org/Graphics/SVG/1.1/DTD/svg11.dtd">
<svg version="1.1" id="Layer_1" xmlns="http://www.w3.org/2000/svg" xmlns:xlink="http://www.w3.org/1999/xlink" x="0px" y="0px"
	 width="45px" height="30px" viewBox="0 0 45 30" enable-background="new 0 0 45 30" xml:space="preserve">
<g>
	<path fill="#010101" d="M18.849,12.88c0.879-2.785,3.933-4.328,6.729-3.658c1.369,0.328,1.904-1.656,0.578-2.099
		c-4.027-1.346-8.355,1.156-9.606,5.123C16.087,13.713,18.387,14.34,18.849,12.88"/>
	<path fill="#010101" d="M28.605,8.1c2.047-2.647,5.078-4.148,8.457-3.981c0.697,0.034,1.412,0.163,2.082,0.356
		c1.664,0.478,1.961,0.516,1.887,2.207c-0.105,2.355-2.447,3.71-4.438,4.735c-1.229,0.633-0.359,2.812,0.959,2.273
		c4.701-1.924,11.121-8.076,3.857-11.384c-5.316-2.421-11.527-0.373-14.961,4.13C25.514,7.664,27.652,9.333,28.605,8.1"/>
	<path fill="#010101" d="M34.295,15.623c0.682,2.502,0.107,3.917-1.721,4.239c-0.682,0.279-1.385,0.475-2.111,0.59
		c-2.068,0.484-4.311,0.768-6.4,1.027c-3.39,0.422-6.789,0.66-10.203,0.758c-1.496,0.043-1.505,2.336,0,2.332
		c4.102-0.014,8.168-0.24,12.226-0.842c3.07-0.455,7.074-0.693,9.637-2.709c2.822-2.219,2.576-6.347-0.795-7.692
		C33.5,12.754,32.895,15.051,34.295,15.623"/>
	<path fill="#010101" d="M11.976,12.876c-3.062,0.598-5.858,1.957-8.18,4.053c-1.842,1.662-4.165,4.33-3.747,7.012
		c0.998,6.393,11.171,4.232,14.924,2.539c1.243-0.561,0.349-2.736-0.938-2.225c-2.246,0.893-13.372,3.211-10.885-2.449
		c1.561-3.553,5.931-5.76,9.5-6.482C14.253,15,13.573,12.565,11.976,12.876"/>
</g>
</svg>
