<?xml version="1.0" encoding="utf-8"?>
<!-- Generator: Adobe Illustrator 16.0.0, SVG Export Plug-In . SVG Version: 6.00 Build 0)  -->
<!DOCTYPE svg PUBLIC "-//W3C//DTD SVG 1.1//EN" "http://www.w3.org/Graphics/SVG/1.1/DTD/svg11.dtd">
<svg version="1.1" id="Layer_1" xmlns="http://www.w3.org/2000/svg" xmlns:xlink="http://www.w3.org/1999/xlink" x="0px" y="0px"
	 width="205px" height="100px" viewBox="0 0 205 100" enable-background="new 0 0 205 100" xml:space="preserve">
<g>
	<path d="M97.75,99.873c17.5-6.676,35.656-11.14,53.767-15.793c8.908-2.29,17.814-4.6,26.633-7.221
		c8.484-2.522,17.67-4.894,25.52-9.052c1.756-0.931,0.551-3.758-1.351-3.2c-8.772,2.567-17.247,6.309-26.024,8.972
		c-8.805,2.671-17.697,5.039-26.589,7.396c-17.776,4.718-35.536,9.612-52.615,16.508C95.639,98.069,96.246,100.447,97.75,99.873"/>
	<path d="M94.454,44.548c17.955-3.247,35.88-6.579,53.732-10.357c8.914-1.887,17.819-3.834,26.68-5.955
		c8.732-2.091,18.025-3.767,26.42-6.969c1.557-0.595,0.961-2.785-0.688-2.495c-8.896,1.565-17.699,4.581-26.48,6.75
		c-8.842,2.183-17.701,4.29-26.584,6.297c-17.762,4.012-35.575,7.808-53.366,11.691C93.484,43.658,93.78,44.67,94.454,44.548"/>
	<path d="M201.732,21.896c-0.432,14.57-1.553,29.077-2.364,43.625c-0.13,2.33,3.442,2.3,3.61,0
		c1.065-14.493,1.037-29.099,0.91-43.625C203.875,20.506,201.773,20.51,201.732,21.896"/>
	<path d="M92.429,45.322c0.148,8.303,0.194,16.605,0.108,24.908c-0.085,8.272-0.744,16.659-0.104,24.913
		c0.17,2.181,3.087,2.112,3.342,0c1.962-16.247,0.191-33.52-0.651-49.821C95.035,43.602,92.398,43.577,92.429,45.322"/>
	<path d="M4.898,27.72c14.351,4.337,28.699,8.671,43.278,12.191c13.597,3.284,28.585,7.473,42.666,7.353
		c1.422-0.013,1.803-2.218,0.344-2.541c-7.096-1.57-14.497-2.045-21.669-3.323c-7.211-1.285-14.375-2.814-21.502-4.501
		c-14.274-3.379-28.43-7.266-42.573-11.154C4.168,25.395,3.638,27.339,4.898,27.72"/>
	<path d="M91.628,95.303c-29.386-6.961-58.401-15.21-86.876-25.281c-2.394-0.847-3.413,2.944-1.046,3.793
		c28.419,10.198,57.573,18.367,87.263,23.879C92.516,97.98,93.199,95.675,91.628,95.303"/>
	<path d="M177.561,16.704c6.678,2.218,13.643,4.621,20.629,5.581c2.064,0.284,3.018-2.592,0.889-3.222
		c-6.828-2.018-13.854-3.314-20.687-5.373C176.453,13.106,175.662,16.074,177.561,16.704"/>
	<path d="M119.869,30.035c9.811-2.04,19.621-4.106,29.453-6.036c9.719-1.908,19.995-2.791,29.49-5.584
		c1.54-0.453,1.294-2.907-0.387-2.858c-9.693,0.28-19.621,2.906-29.109,4.781c-10.154,2.006-20.206,4.277-30.207,6.943
		C117.32,27.757,118.08,30.407,119.869,30.035"/>
	<path d="M103.943,36.204c4.916-0.045,10.008-0.391,14.776-1.658c0.544-0.145,0.306-0.916-0.228-0.827
		c-4.86,0.806-9.607,1.584-14.549,1.693C103.434,35.423,103.432,36.209,103.943,36.204"/>
	<path d="M102.025,30.198c-0.098,2.021,0.028,4.01,0.646,5.943c0.296,0.928,1.553,0.526,1.422-0.392
		c-0.266-1.845-0.48-3.685-0.418-5.552C103.711,29.133,102.077,29.141,102.025,30.198"/>
	<path d="M116.637,28.448c-0.001,1.713,0.15,3.367,0.555,5.035c0.164,0.675,1.284,0.548,1.232-0.167
		c-0.12-1.618-0.232-3.245-0.247-4.868C118.168,27.457,116.637,27.455,116.637,28.448"/>
	<path d="M104.389,30.171c4.066-0.925,8.221-1.467,12.275-2.411c0.545-0.127,0.44-1.048-0.135-0.993
		c-4.16,0.39-8.342,1.499-12.393,2.492C103.545,29.404,103.795,30.307,104.389,30.171"/>
	<path d="M93.145,28.377c2.492,0.611,4.98,1.242,7.486,1.793c0.606,0.133,0.865-0.783,0.257-0.933
		c-2.492-0.617-5.003-1.152-7.509-1.709C92.828,27.406,92.593,28.242,93.145,28.377"/>
	<path d="M93.15,34.298c3.142,0.924,6.31,1.728,9.549,2.223c0.464,0.071,0.678-0.618,0.199-0.722
		c-3.197-0.689-6.388-1.379-9.537-2.265C92.869,33.396,92.661,34.154,93.15,34.298"/>
	<path d="M92.142,28.444c-0.109,1.391-0.104,2.761,0.117,4.139c0.097,0.601,1.083,0.458,1.059-0.144
		c-0.053-1.335-0.092-2.662,0.012-3.995C93.39,27.683,92.201,27.686,92.142,28.444"/>
	<path d="M95.076,27.117c3.899-0.563,7.791-1.188,11.634-2.062c0.513-0.117,0.294-0.89-0.216-0.785
		c-3.85,0.79-7.685,1.646-11.547,2.38C94.637,26.71,94.775,27.161,95.076,27.117"/>
	<path d="M107.863,25.407c2.553,0.882,5.106,1.747,7.678,2.571c0.503,0.161,0.707-0.613,0.217-0.784
		c-2.55-0.891-5.109-1.739-7.68-2.572C107.578,24.459,107.371,25.237,107.863,25.407"/>
	<path d="M33.769,33.444c10.265-2.497,20.625-4.271,31.004-6.191c0.541-0.1,0.424-1.04-0.132-0.973
		c-10.498,1.267-20.888,3.636-31.129,6.23C32.908,32.664,33.163,33.591,33.769,33.444"/>
	<path d="M4.056,18.81c8.854,1.072,17.533,2.786,26.306,4.328c0.85,0.149,1.23-1.111,0.362-1.315
		c-8.726-2.054-17.76-3.154-26.668-4.091C3.363,17.658,3.378,18.728,4.056,18.81"/>
	<path d="M32.131,22.243c10.184-2.389,20.416-3.665,30.776-4.971c0.585-0.074,0.625-0.972,0-0.946
		c-10.439,0.431-20.914,2.491-31.033,4.983C31.268,21.459,31.525,22.386,32.131,22.243"/>
	<path d="M62.758,17.283c0.274,2.491,0.451,4.995,0.626,7.495c0.054,0.77,1.203,0.787,1.211,0c0.024-2.513-0.143-4.997-0.407-7.495
		C64.092,16.376,62.658,16.369,62.758,17.283"/>
	<path d="M31.771,10.593c8.849,2.691,17.853,5.235,26.968,6.853c0.659,0.117,0.952-0.866,0.281-1.018
		c-9.07-2.042-18.119-3.941-27.079-6.45C31.543,9.867,31.378,10.474,31.771,10.593"/>
	<path d="M13.689,14.871c2.901-1.488,7.173-1.21,10.365-1.545c3.147-0.33,6.303-0.616,9.44-1.034c0.735-0.099,0.777-1.252,0-1.188
		c-4.203,0.344-8.395,0.882-12.587,1.344c-2.593,0.287-5.448,0.191-7.807,1.417C12.435,14.211,13.022,15.213,13.689,14.871"/>
	<path d="M12.848,8.847c0.279,1.277,0.24,2.619-0.035,3.896c-0.15,0.696,0.827,0.96,1.061,0.293
		c0.527-1.501,0.547-2.979,0.183-4.521C13.872,7.727,12.676,8.062,12.848,8.847"/>
	<path d="M14.791,8.594c5.762-1.322,11.524-2.644,17.286-3.966c-0.26-0.197-0.52-0.396-0.779-0.594
		c0.207,1.011,0.204,2.027-0.011,3.05c-0.11,0.715,0.968,1.035,1.103,0.305c0.217-1.18,0.273-2.146,0.139-3.354
		c-0.045-0.403-0.357-0.691-0.779-0.594C25.99,4.776,20.232,6.112,14.475,7.447C13.729,7.62,14.045,8.765,14.791,8.594"/>
	<path d="M3.941,5.494c2.31,0.572,4.619,1.124,6.946,1.627c0.592,0.128,0.846-0.77,0.251-0.912C8.822,5.654,6.5,5.152,4.169,4.667
		C3.633,4.555,3.401,5.36,3.941,5.494"/>
	<path d="M10.77,12.805c-2.132-0.484-4.261-0.996-6.404-1.433c-0.577-0.118-0.827,0.742-0.245,0.891
		c2.118,0.539,4.256,1.004,6.386,1.497C11.127,13.902,11.392,12.945,10.77,12.805"/>
	<path d="M6.061,1.752c8.063,1.051,16.125,2.263,24.217,3.066c0.439,0.044,0.547-0.713,0.105-0.777
		C22.309,2.856,14.166,2.073,6.061,1.136C5.666,1.09,5.675,1.702,6.061,1.752"/>
	<path d="M66.833,27.475c7.892,2.025,15.92,4.73,23.981,5.919c0.499,0.072,0.698-0.587,0.211-0.765
		c-7.651-2.797-15.996-4.236-23.9-6.215C66.439,26.242,66.146,27.299,66.833,27.475"/>
</g>
<g opacity="0.9">
	<g>
		<path fill="#787A78" d="M96.703,47.034c-0.081,0.159-0.161,0.318-0.242,0.477c-0.815,1.609-0.64,3.351,0.605,4.688
			c1.159,1.246,2.089,1.378,3.67,1.738c-0.944-0.944-1.889-1.889-2.833-2.833c0.052,0.135,0.104,0.269,0.157,0.402
			c0.138-1.051,0.275-2.103,0.413-3.154c-0.065,0.13-0.13,0.26-0.195,0.391c1.555-0.633,3.11-1.266,4.665-1.898
			c-0.101-0.016-0.202-0.031-0.304-0.046c0,2.672,0,5.345,0,8.018c1.506-0.324,3.007-0.648,4.524-0.922
			c-1.732-2.254-3.465-4.507-5.197-6.76c-2.183,3.562-3.876,7.285-5.168,11.257c-1.616,4.97,4.521,7.248,7.896,4.597
			c3.823-3.004,7.462-6.185,10.949-9.572c-2.307-2.307-4.613-4.613-6.92-6.92c-4.591,4.943-8.688,10.241-12.284,15.948
			c-3.106,4.931,3.893,10.09,7.924,6.114c7.481-7.376,14.969-14.736,22.572-21.987c-2.784-2.148-5.568-4.296-8.353-6.444
			c-7.148,9.744-13.951,19.74-20.856,29.657c-3.524,5.061,4.121,10.489,8.306,6.408c7.455-7.268,14.909-14.537,22.363-21.806
			c-2.678-2.066-5.356-4.133-8.035-6.199c-0.815,1.107-1.627,2.216-2.452,3.315c-3.553,4.734,4.03,10.181,8.013,6.183
			c2.815-2.825,5.63-5.65,8.445-8.476c-2.72-2.098-5.438-4.196-8.158-6.294c-0.718,1.169-1.435,2.338-2.152,3.507
			c-3.356,5.468,3.831,9.738,8.208,6.333c2.262-1.759,4.251-3.656,6.116-5.831c-2.771-2.137-5.541-4.275-8.312-6.413
			c-1.93,2.63-3.268,5.387-4.407,8.434c-1.577,4.221,4.163,8.818,7.867,6.047c2.538-1.899,5.076-3.799,7.615-5.697
			c-2.477-2.476-4.952-4.952-7.428-7.427c-1.841,2.689-3.17,5.505-4.293,8.558c-1.974,5.369,5.472,8.982,9.18,5.344
			c3.39-3.328,6.78-6.655,10.171-9.982c-2.933-2.263-5.865-4.526-8.798-6.789c-1.331,1.848-2.662,3.696-3.993,5.544
			c-3.82,5.302,4.487,11.357,8.882,6.853c2.062-2.114,4.124-4.229,6.186-6.343c-2.698-2.698-5.396-5.396-8.094-8.094
			c-1.999,2.079-3.283,4.275-4.054,7.059c-1.271,4.596,4.183,9.497,8.468,6.51c2.64-1.84,5.279-3.68,7.919-5.52
			c-2.663-2.663-5.326-5.326-7.989-7.989c-1.492,2.596-2.977,5.195-4.452,7.8c-2.734,4.828,3.021,11.614,8.047,8.046
			c3.736-2.653,7.318-5.484,10.732-8.543c-3.087-2.382-6.175-4.764-9.262-7.146c-1.225,2.1-2.449,4.2-3.673,6.3
			c-3.456,5.927,4.405,11.665,9.276,7.158c2.832-2.621,5.663-5.242,8.495-7.863c-3.1-2.392-6.199-4.784-9.299-7.175
			c-1.336,2.177-2.672,4.354-4.007,6.531c-3.701,6.035,4.396,11.396,9.315,7.188c2.708-2.317,5.416-4.635,8.124-6.952
			c-3.312-1.928-6.624-3.856-9.936-5.784c-0.823,2.032-1.646,4.064-2.469,6.097c-2.045,5.048,4.614,9.17,8.745,6.723
			c4.77-2.826,9.139-6.181,13.109-10.049c-3.328-1.937-6.655-3.874-9.983-5.811c-0.667,1.823-1.334,3.646-2.001,5.469
			c-1.858,5.08,4.526,9.271,8.785,6.753c2.852-1.686,5.476-3.611,8.033-5.713c-3.137-2.42-6.272-4.84-9.409-7.26
			c-0.665,1.528-1.331,3.057-1.997,4.585c-2.771,6.362,3.964,11.604,9.42,7.268c3.009-2.392,6.019-4.784,9.027-7.176
			c-3.147-2.429-6.295-4.857-9.442-7.286c-0.543,1.23-1.086,2.46-1.63,3.691c-2.686,6.083,4.168,12.186,9.451,7.292
			c1.66-1.538,3.321-3.076,4.981-4.615c-3.157-2.436-6.313-4.871-9.47-7.306c-0.4,0.69-0.801,1.38-1.202,2.069
			c-3.171,5.458,2.998,10.912,8.255,8.254c1.839-0.93,3.363-2.084,4.875-3.481c-3.162-2.44-6.325-4.88-9.487-7.32
			c-2.332,4.408-4.657,8.802-7.162,13.115c-3.014,5.188,3.048,11.525,8.3,8.3c1.572-0.965,3.145-1.93,4.716-2.894
			c-2.771-2.771-5.542-5.542-8.313-8.313c-1.406,2.166-2.813,4.332-4.219,6.498c-3.131,4.821,1.989,9.911,6.877,8.945
			c0.929-0.184,1.857-0.367,2.786-0.55c-2.294-2.984-4.588-5.969-6.883-8.953c-0.969,1.478-1.937,2.955-2.906,4.433
			c-3.009,4.588,1.924,10.32,6.893,8.966c0.973-0.266,1.945-0.53,2.918-0.795c-2.505-2.505-5.01-5.01-7.515-7.515
			c-0.404,1.016-0.954,1.944-1.649,2.788c-2.602,3.701,0.841,9.512,5.282,9.204c1.627-0.113,3.026-0.287,4.579-0.798
			c-2.305-2.998-4.609-5.995-6.914-8.993c-0.488,1.136-0.977,2.271-1.465,3.407c-1.847,4.298,1.249,11.168,6.921,9.002
			c1.004-0.383,2.007-0.766,3.011-1.148c-2.589-1.972-5.177-3.943-7.765-5.915c0.214-0.431,0.427-0.861,0.641-1.292
			c-4.039,5.021,1.243,13.911,7.44,9.644c0.756-0.521,1.511-1.04,2.267-1.561c-2.482-3.217-4.965-6.434-7.446-9.65
			c-2.231,1.937-5.323-0.305-7.927,1.294c-3.169,1.946-6.328,3.889-9.565,5.719c2.643,2.643,5.286,5.286,7.929,7.929
			c0.574-1.12,1.148-2.24,1.723-3.36c2.51-4.899-2.747-11.207-7.916-7.916c-2.249,1.433-4.497,2.865-6.746,4.298
			c2.63,2.629,5.259,5.258,7.888,7.888c1.625-2.301,3.25-4.603,4.874-6.903c3.416-4.837-3.142-10.686-7.857-7.857
			c-5.308,3.182-10.616,6.364-15.924,9.547c2.301,2.981,4.602,5.964,6.902,8.945c2.512-2.531,5.024-5.062,7.537-7.592
			c4.506-4.538-1.314-12.314-6.868-8.902c-4.682,2.877-9.395,5.704-14.094,8.551c-6.316,3.826-0.714,13.396,5.773,9.879
			c0.733-0.397,1.466-0.795,2.199-1.192c-2.314-2.999-4.629-5.999-6.943-8.999c-1.966,2.099-3.968,3.429-6.599,4.571
			c2.63,2.63,5.26,5.26,7.89,7.89c0.59-1.259,1.061-1.954,2.089-2.893c4.413-4.025-0.219-11.068-5.63-9.672
			c-4.988,1.288-9.736,3.094-14.388,5.301c2.663,2.664,5.326,5.327,7.99,7.99c0.313-0.618,0.627-1.236,0.94-1.854
			c2.588-5.1-2.716-11.064-8.001-8.001c-2.791,1.617-5.581,3.235-8.371,4.853c2.685,2.685,5.368,5.368,8.053,8.053
			c0.862-1.119,1.725-2.238,2.587-3.357c3.055-3.961-2.052-10.595-6.665-8.67c-5.296,2.211-10.497,4.571-15.575,7.25
			c2.909,2.236,5.818,4.473,8.728,6.709c0.328-0.972,0.656-1.943,0.982-2.916c1.71-5.079-4.403-9.192-8.722-6.705
			c-2.694,1.554-5.39,3.105-8.085,4.658c2.702,2.702,5.404,5.404,8.106,8.106c0.509-0.674,1.018-1.348,1.526-2.021
			c4.309-5.71-4.526-11.229-9.301-7.177c-1.968,1.67-3.936,3.34-5.903,5.01c2.787,2.787,5.574,5.574,8.361,8.361
			c2.527-2.205,4.601-4.64,6.605-7.318c4.016-5.366-3.396-10.064-8.074-8.074c-1.145,0.487-2.289,0.975-3.434,1.462
			c2.688,2.688,5.378,5.378,8.066,8.066c2.119-3.025,4.378-5.896,6.806-8.68c4.345-4.981-1.092-12.533-7.126-9.235
			c-1.99,1.087-3.681,2.439-5.093,4.218c-4.674,5.89,2.477,13.372,8.332,8.332c4.286-3.689,8.573-7.379,12.86-11.067
			c-2.852-2.852-5.703-5.703-8.555-8.555c-3.48,3.021-6.393,6.409-9.072,10.152c-4.292,5.993,4.707,11.835,9.676,7.466
			c4.346-3.821,8.504-7.818,12.516-11.988c5.654-5.878-3.223-14.783-8.947-8.947c-3.308,3.372-6.615,6.744-9.923,10.117
			c-5.971,6.088,2.832,14.41,9.18,9.18c5.87-4.836,11.665-9.785,17.663-14.462c2.939-2.293,2.388-7.267,0-9.654
			c-2.872-2.872-6.723-2.286-9.654,0c-3.813,2.974-6.813,6.483-9.387,10.571c-3.839,6.096,3.716,13.405,9.76,9.76
			c5.048-3.044,9.944-6.295,14.709-9.767c-2.948-3.82-5.896-7.641-8.844-11.461c-2.719,2.953-5.438,5.906-8.156,8.859
			c-5.556,6.035,1.614,16.255,8.979,11.637c6.808-4.269,13.229-9.034,19.364-14.222c7.437-6.289-3.25-16.775-10.639-10.638
			c-3.378,2.806-6.405,5.867-9.173,9.276c-5.067,6.24,1.414,16.8,9.14,11.846c3.504-2.246,7.007-4.493,10.51-6.74
			c-3.055-3.959-6.108-7.918-9.163-11.876c-1.883,1.676-3.765,3.351-5.647,5.027c-6.529,5.813,1.873,16.194,9.178,11.895
			c2.541-1.495,5.081-2.99,7.622-4.484c-3.064-3.973-6.129-7.944-9.194-11.917c-2.12,1.969-4.24,3.939-6.36,5.909
			c-6.489,6.026,1.792,16.007,9.21,11.937c4.306-2.361,8.222-5.171,11.992-8.312c6.812-5.675-1.921-16.16-9.234-11.968
			c-3.034,1.739-5.79,3.802-8.407,6.12c-6.608,5.852,1.887,16.29,9.25,11.988c4.704-2.747,9.407-5.495,14.111-8.242
			c-3.094-4.01-6.188-8.019-9.28-12.029c-1.091,1.299-2.181,2.599-3.271,3.898c-5.517,6.575,1.32,16.296,9.29,12.041
			c3.172-1.694,6.345-3.388,9.517-5.081c-3.104-4.021-6.207-8.044-9.311-12.066c-0.936,1.145-1.872,2.289-2.808,3.434
			c-4.407,5.389-0.498,15.644,7.481,12.853c2.124-0.742,4.248-1.485,6.371-2.228c-2.898-3.771-5.797-7.542-8.696-11.313
			c-0.428,0.805-0.856,1.61-1.285,2.415c-3.381,6.345,2.107,12.438,8.7,11.318c1.665-0.283,3.085-0.69,4.646-1.332
			c-3.162-3.162-6.324-6.324-9.486-9.487c-0.137,0.867-0.273,1.734-0.41,2.601c-0.655,4.15,0.998,8.283,5.39,9.491
			c3.696,1.018,8.848-1.227,9.491-5.39c0.134-0.867,0.269-1.734,0.402-2.603c0.773-5.005-3.403-12.009-9.486-9.486
			c-1.561,0.646-2.979,1.058-4.643,1.346c2.9,3.772,5.8,7.545,8.7,11.318c0.427-0.807,0.854-1.612,1.279-2.419
			c2.93-5.547-1.935-13.701-8.696-11.312c-2.122,0.75-4.244,1.499-6.365,2.249c2.493,4.284,4.987,8.568,7.481,12.853
			c0.933-1.147,1.865-2.295,2.798-3.443c5.368-6.609-1.248-16.402-9.311-12.067c-3.166,1.703-6.333,3.406-9.499,5.109
			c3.097,4.013,6.193,8.027,9.29,12.041c1.086-1.303,2.173-2.605,3.259-3.909c5.361-6.43-1.38-16.675-9.28-12.028
			c-4.695,2.762-9.391,5.524-14.086,8.287c3.083,3.996,6.167,7.992,9.25,11.988c1.661-1.48,3.377-2.643,5.304-3.755
			c-3.078-3.989-6.156-7.979-9.234-11.968c-2.762,2.316-5.735,4.221-8.887,5.963c3.07,3.979,6.141,7.958,9.21,11.937
			c2.114-1.976,4.229-3.951,6.343-5.927c6.361-5.946-1.828-16.281-9.194-11.917c-2.536,1.502-5.072,3.005-7.608,4.509
			c3.059,3.965,6.118,7.93,9.178,11.895c1.877-1.682,3.753-3.362,5.63-5.044c6.408-5.739-1.962-16.525-9.163-11.876
			c-3.497,2.258-6.993,4.516-10.49,6.773c3.047,3.948,6.093,7.897,9.14,11.846c2.758-3.417,5.775-6.488,9.146-9.304
			c-3.546-3.546-7.093-7.093-10.639-10.638c-5.145,4.378-10.549,8.371-16.204,12.065c2.992,3.879,5.985,7.758,8.979,11.637
			c2.666-3.006,5.332-6.012,7.998-9.018c5.19-5.853-1.9-16.718-8.844-11.461c-4.705,3.563-9.546,6.909-14.543,10.05
			c3.254,3.253,6.507,6.506,9.76,9.76c1.861-3.081,4.063-5.693,6.723-8.118c-3.218-3.218-6.437-6.437-9.654-9.654
			c-5.605,5.112-11.446,9.979-17.188,14.937c3.06,3.06,6.12,6.12,9.18,9.18c3.23-3.45,6.46-6.9,9.69-10.35
			c-2.982-2.982-5.965-5.965-8.947-8.947c-3.913,4.261-8.009,8.323-12.281,12.223c3.226,2.488,6.451,4.978,9.676,7.466
			c2.016-2.928,4.351-5.44,6.988-7.816c5.812-5.236-2.761-13.73-8.555-8.555c-4.212,3.764-8.425,7.526-12.638,11.29
			c3.085,2.38,6.169,4.76,9.253,7.14c0.49-0.544,1.082-0.944,1.775-1.203c-2.375-3.078-4.75-6.156-7.126-9.235
			c-3.092,3.527-5.972,7.21-8.671,11.045c-3.833,5.445,3.298,10.082,8.067,8.066c1.146-0.483,2.293-0.968,3.439-1.452
			c-2.691-2.691-5.383-5.383-8.074-8.074c-1.389,1.846-3.038,3.407-4.775,4.914c-5.79,5.023,2.59,13.232,8.361,8.361
			c1.972-1.665,3.944-3.331,5.917-4.996c-3.101-2.393-6.2-4.784-9.301-7.177c-0.511,0.674-1.021,1.347-1.532,2.02
			c-3.775,4.973,3.327,10.843,8.106,8.106c2.7-1.546,5.399-3.091,8.099-4.637c-2.907-2.235-5.814-4.471-8.722-6.705
			c-0.33,0.972-0.66,1.942-0.99,2.914c-1.778,5.228,4.406,8.975,8.728,6.709c4.625-2.425,9.321-4.674,14.125-6.723
			c-2.691-2.691-5.383-5.383-8.074-8.074c-0.854,1.124-1.707,2.249-2.56,3.373c-3.717,4.901,3.305,10.854,8.053,8.053
			c2.777-1.64,5.555-3.278,8.332-4.917c-2.667-2.667-5.334-5.334-8.001-8.001c-0.309,0.62-0.618,1.241-0.927,1.862
			c-2.676,5.38,2.652,10.574,7.99,7.99c3.737-1.81,7.561-3.159,11.569-4.227c-1.876-3.225-3.753-6.448-5.63-9.672
			c-1.641,1.521-2.93,3.221-3.864,5.256c-2.502,5.45,2.497,10.281,7.89,7.89c3.43-1.521,6.34-3.671,8.882-6.427
			c4.412-4.784-1.157-12.191-6.943-8.999c-0.73,0.402-1.46,0.806-2.189,1.208c1.925,3.293,3.849,6.586,5.773,9.879
			c4.679-2.884,9.345-5.787,14.041-8.641c-2.289-2.968-4.579-5.935-6.868-8.902c-2.525,2.518-5.052,5.034-7.576,7.553
			c-4.586,4.574,1.304,12.264,6.902,8.945c5.323-3.155,10.647-6.31,15.971-9.465c-2.619-2.619-5.238-5.238-7.857-7.857
			c-1.638,2.293-3.274,4.587-4.911,6.88c-3.415,4.783,3.18,10.854,7.888,7.888c2.255-1.42,4.51-2.841,6.766-4.261
			c-2.639-2.639-5.277-5.277-7.916-7.916c-0.579,1.117-1.158,2.233-1.738,3.351c-2.655,5.113,2.714,10.841,7.929,7.929
			c3.25-1.814,6.556-3.504,9.868-5.201c-1.565,0.205-3.131,0.409-4.696,0.614c5.636,1.64,10.828,0.043,15.16-3.744
			c5.234-4.575-1.707-13.631-7.446-9.65c-0.754,0.522-1.507,1.046-2.261,1.568c2.479,3.215,4.96,6.429,7.44,9.644
			c1.886-2.361,2.808-4.347,2.943-7.392c0.166-3.723-4.097-7.329-7.765-5.915c-1.002,0.387-2.005,0.773-3.007,1.16
			c2.307,3.001,4.613,6.001,6.921,9.002c0.484-1.138,0.969-2.275,1.453-3.413c1.9-4.462-1.223-10.889-6.914-8.993
			c-0.44,0.124-0.882,0.247-1.323,0.371c1.761,3.068,3.521,6.136,5.282,9.204c1.265-1.813,2.081-3.653,2.866-5.714
			c1.705-4.479-3.352-8.664-7.515-7.515c-0.972,0.269-1.943,0.537-2.914,0.805c2.297,2.988,4.595,5.977,6.893,8.965
			c0.963-1.48,1.927-2.961,2.891-4.441c3.132-4.814-1.991-9.935-6.883-8.953c-0.928,0.186-1.856,0.373-2.784,0.559
			c2.293,2.982,4.585,5.964,6.877,8.945c1.398-2.17,2.797-4.34,4.195-6.51c3.315-5.145-3.207-11.47-8.313-8.313
			c-1.569,0.97-3.138,1.94-4.706,2.911c2.767,2.767,5.533,5.534,8.3,8.3c2.49-4.322,4.801-8.724,7.117-13.141
			c3.202-6.104-4.398-12.055-9.487-7.32c-0.682,0.723-1.489,1.258-2.422,1.605c2.751,2.751,5.503,5.503,8.255,8.254
			c0.398-0.691,0.797-1.382,1.194-2.073c3.481-6.046-4.495-11.947-9.47-7.306c-1.654,1.544-3.309,3.088-4.964,4.631
			c3.15,2.431,6.301,4.861,9.451,7.292c0.54-1.232,1.08-2.464,1.62-3.696c2.79-6.368-3.985-11.646-9.442-7.286
			c-3.003,2.399-6.005,4.798-9.008,7.197c3.141,2.422,6.28,4.845,9.42,7.268c0.662-1.53,1.324-3.061,1.985-4.591
			c2.711-6.272-3.982-11.745-9.409-7.26c-1.767,1.461-3.629,2.688-5.598,3.859c2.929,2.251,5.856,4.502,8.785,6.753
			c0.662-1.824,1.324-3.648,1.987-5.473c2.121-5.845-5.938-9.771-9.983-5.811c-3.266,3.199-6.745,5.875-10.672,8.214
			c2.915,2.241,5.83,4.482,8.745,6.723c0.817-2.034,1.636-4.067,2.453-6.101c2.429-6.041-5.914-9.243-9.936-5.784
			c-2.702,2.324-5.404,4.648-8.106,6.972c3.105,2.396,6.211,4.792,9.315,7.188c1.33-2.181,2.659-4.361,3.989-6.542
			c3.599-5.897-4.465-11.672-9.299-7.175c-2.825,2.628-5.65,5.256-8.476,7.884c3.093,2.386,6.185,4.771,9.276,7.157
			c1.219-2.103,2.438-4.207,3.657-6.31c3.458-5.963-4.362-11.559-9.262-7.146c-2.664,2.4-5.41,4.643-8.33,6.727
			c2.683,2.682,5.365,5.364,8.047,8.047c1.469-2.61,2.927-5.225,4.38-7.843c2.647-4.774-2.986-11.592-7.989-7.989
			c-2.614,1.883-5.229,3.766-7.843,5.649c2.822,2.169,5.645,4.339,8.468,6.509c0.054-0.823,0.397-1.499,1.03-2.029
			c5.022-5.389-3.009-13.471-8.094-8.094c-2.03,2.146-4.06,4.292-6.09,6.439c2.961,2.284,5.921,4.568,8.882,6.853
			c1.301-1.865,2.602-3.731,3.901-5.597c3.707-5.32-4.415-11.225-8.798-6.789c-3.339,3.379-6.678,6.758-10.017,10.138
			c3.061,1.781,6.12,3.562,9.18,5.343c0.765-2.184,1.802-4.074,3.076-5.999c2.87-4.335-3.06-10.8-7.428-7.427
			c-2.514,1.941-5.026,3.883-7.541,5.824c2.622,2.016,5.245,4.032,7.867,6.048c0.782-2.197,1.873-4.046,3.218-5.939
			c3.474-4.891-4.479-11.023-8.312-6.413c-1.83,2.203-3.789,4.13-6.022,5.923c2.736,2.111,5.472,4.222,8.208,6.333
			c0.699-1.18,1.398-2.359,2.098-3.54c3.007-5.073-4.034-10.563-8.158-6.294c-2.771,2.869-5.544,5.737-8.314,8.606
			c2.671,2.061,5.342,4.122,8.013,6.183c0.818-1.106,1.649-2.203,2.478-3.302c3.61-4.791-3.987-10.061-8.035-6.2
			c-7.536,7.187-15.072,14.375-22.608,21.562c2.769,2.136,5.537,4.272,8.307,6.408c7.015-9.841,14.139-19.613,20.906-29.626
			c3.431-5.075-4.203-10.719-8.353-6.444c-7.316,7.538-14.743,14.958-22.186,22.373c2.641,2.038,5.283,4.076,7.924,6.114
			c3.118-5.007,6.578-9.707,10.491-14.122c4.153-4.687-2.461-11.458-6.92-6.92c-3.403,3.463-6.962,6.724-10.71,9.811
			c2.632,1.532,5.264,3.064,7.896,4.597c0.975-3.249,2.272-6.208,4.004-9.124c2.557-4.308-2.333-8.047-6.296-6.295
			c-1.056,0.456-2.118,0.894-3.188,1.315c-4.104,1.649-3.922,8.259,1.105,8.166c0.104-0.002,0.207-0.004,0.311-0.006
			c1.877-0.034,3.443-1.241,3.983-3.032c0.434-1.439,0.26-2.665-0.511-3.948c-0.544-0.905-1.4-1.583-2.424-1.864
			c-0.759-0.208-2.192-0.795-1.138,0.009c0.593,1.457,1.185,2.913,1.777,4.369c0.053-0.17,0.105-0.341,0.158-0.512
			C104.957,45.865,98.673,43.145,96.703,47.034L96.703,47.034z"/>
	</g>
</g>
<g opacity="0.9">
	<g>
		<path fill="#5C5C5C" d="M86.756,86.442c-0.626,0.229-1.252,0.458-1.878,0.687c1.144,1.487,2.288,2.976,3.431,4.463
			c0.943-1.347,1.494-2.628,1.854-4.223c0.54-2.396-1.545-4.776-4.057-4.057c-1.228,0.352-2.455,0.703-3.683,1.055
			c1.154,1.981,2.308,3.963,3.461,5.945c2.152-2.081,3.541-4.415,4.29-7.316c0.809-3.137-1.954-5.403-4.89-4.89
			c-3.644,0.637-6.978,1.758-10.367,3.212c2.027,2.027,4.055,4.055,6.083,6.083c1.704-2.438,3.529-4.718,5.572-6.879
			c3.152-3.333,0.072-9.29-4.589-7.883c-4.079,1.232-7.959,2.869-11.689,4.928c1.652,2.826,3.304,5.652,4.956,8.479
			c5.454-4.089,9.954-8.78,13.68-14.501c2.352-3.61-1.589-9.352-5.878-7.646c-7.54,2.998-14.648,6.639-21.376,11.185
			c2.259,2.928,4.518,5.855,6.777,8.783c6.118-5.701,12.237-11.402,18.355-17.104c5.075-4.729-1.362-11.207-6.835-8.858
			c-6.759,2.899-12.77,6.826-18.333,11.622c-4.902,4.228,1.506,12.423,6.883,8.921c6.773-4.412,13.151-9.356,19.107-14.821
			c4.964-4.554-1.354-11.923-6.936-8.989c-1.219,0.641-2.438,1.281-3.657,1.922c2.315,3.001,4.631,6.001,6.946,9.002
			c1.889-2.078,3.778-4.156,5.668-6.234c3.941-4.335,0.082-10.838-5.592-9.607c-3.034,0.658-5.823,1.712-8.637,3.012
			c2.328,3.017,4.656,6.033,6.983,9.051c1.751-1.823,2.773-3.614,3.588-5.999c1.319-3.862-3.054-8.774-7.099-7.099
			c-4.265,1.767-8.438,3.666-12.515,5.835c2.837,2.181,5.674,4.362,8.512,6.543c0.564-1.374,1.128-2.748,1.692-4.122
			c1.656-4.034-3.244-8.521-7.138-7.139c-3.324,1.18-6.647,2.36-9.971,3.54c2.192,2.852,4.384,5.703,6.576,8.555
			c1.297-1.873,2.595-3.746,3.893-5.619c2.819-4.067-1.874-10.364-6.591-8.573c-1.983,0.753-3.966,1.506-5.948,2.26
			c2.202,2.863,4.403,5.728,6.605,8.592c0.714-1.465,1.428-2.93,2.143-4.395c2.107-4.321-1.357-10.297-6.616-8.606
			c-2.786,0.896-5.572,1.792-8.357,2.688c2.409,2.409,4.818,4.818,7.228,7.227c0.406-1.168,0.812-2.336,1.217-3.504
			c1.471-4.233-3.119-8.479-7.228-7.227c-2.594,0.79-5.188,1.579-7.782,2.368c2.409,2.409,4.818,4.818,7.228,7.227
			c0.326-1.49,0.651-2.981,0.977-4.472c0.886-4.057-2.744-8.811-7.228-7.228c-2.139,0.755-4.265,1.349-6.486,1.812
			c2.409,1.368,4.818,2.736,7.228,4.104c-0.204-1.411-0.674-2.452-1.368-3.69c-1.641-2.933-5.215-3.51-8.039-2.108
			c-0.646,0.414-1.328,0.471-2.047,0.172c0.864,3.273,1.729,6.547,2.593,9.82c3.981-4.825,1.93-11.32-4.232-12.939
			c-1.61-0.423-3.083-0.009-4.657,0.331c-6.635,1.434,2.785,2.578,0.899,6.367c1.439-2.89,1.027-6.558-1.601-8.604
			c-2.191-1.706-4.545-2.28-7.12-0.918c0.807,1.6,1.614,3.201,2.421,4.801c0.695-4.063-1.632-6.971-5.666-7.438
			c-2.127-0.246-4.008-0.027-6.109,0.335c2.409,1.368,4.818,2.736,7.228,4.104c-0.453-2.564,0.227-4.037-2.035-6.224
			c-1.145-1.106-2.565-1.686-4.155-1.721c-0.313-0.007-0.626-0.014-0.939-0.021c-1.981,0.241-2.083,0.275-0.305,0.102
			c1.17,0.9,2.341,1.8,3.511,2.7c-0.157-0.233-0.313-0.467-0.47-0.7c-0.306,2.374-0.613,4.747-0.919,7.12
			c0.123-0.142,0.245-0.284,0.368-0.425c4.981-5.77-2.522-13.192-8.31-8.31c-2.124,1.792-3.77,3.937-4.932,6.462
			c-2.134,4.637,1.311,9.879,6.635,8.631c1.589-0.373,2.874-0.342,4.491-0.174c-1.385-3.343-2.77-6.687-4.155-10.03
			c-2.181,2.724-4.362,5.448-6.543,8.172c-3.436,4.291-0.417,11.609,5.717,9.821c2.044-0.596,4.087-1.192,6.131-1.788
			c-2.212-2.877-4.424-5.754-6.635-8.631c-1.733,2.327-3.466,4.655-5.198,6.982c-3.041,4.085,1.998,10.332,6.635,8.632
			c2.763-1.013,5.525-2.026,8.288-3.039c-1.906-3.273-3.811-6.547-5.717-9.821c-2.647,3.002-5.117,6.131-7.463,9.374
			c-2.956,4.083,1.954,10.387,6.635,8.632c3.045-1.143,6.09-2.284,9.135-3.427c-1.906-3.273-3.811-6.547-5.717-9.82
			c-1.847,2.087-3.693,4.174-5.54,6.262c-4.646,5.251,1.104,11.818,7.12,9.228c3.449-1.485,6.897-2.97,10.346-4.455
			c-2.373-3.076-4.747-6.152-7.12-9.228c-1.898,2.062-3.796,4.123-5.695,6.186c-4.714,5.119,1.162,11.964,7.12,9.228
			c4.082-1.874,8.163-3.747,12.244-5.621c-2.373-3.076-4.747-6.152-7.12-9.228c-1.812,2.153-3.631,4.301-5.452,6.447
			c-4.524,5.334,1.029,11.856,7.143,9.258c3.666-1.559,7.331-3.116,10.996-4.674c-2.398-3.108-4.796-6.217-7.195-9.325
			c-2.068,2.145-4.136,4.289-6.204,6.434c-4.921,5.104,1.254,12.185,7.234,9.375c3.82-1.794,7.64-3.589,11.46-5.383
			c-2.43-3.149-4.86-6.299-7.29-9.448c-2.228,2.185-4.456,4.368-6.683,6.553c-4.084,4.005,0.05,12.382,5.885,10.11
			c4.258-1.657,8.516-3.314,12.773-4.973c-1.978-3.397-3.956-6.796-5.934-10.193c-2.32,2.069-4.641,4.139-6.961,6.208
			c-5.592,4.986,1.513,12.285,7.432,9.631c3.869-1.734,7.738-3.469,11.607-5.203c-2.496-3.234-4.991-6.469-7.487-9.704
			c-1.891,1.968-3.782,3.935-5.673,5.901c-4.035,4.197-0.066,12.656,6.04,10.376c2.935-1.096,5.869-2.192,8.803-3.289
			c-2.35-3.056-4.699-6.112-7.049-9.169c-1.327,1.986-2.821,3.643-4.557,5.277c-4.377,4.121,0.12,12.771,6.103,10.484
			c2.677-1.023,5.355-2.042,8.03-3.07c-2.044-3.512-4.088-7.023-6.133-10.535c-1.369,1.341-2.738,2.683-4.107,4.023
			c-4.334,4.245,0.043,12.751,6.147,10.561c2.333-0.837,4.666-1.674,6.999-2.511c-2.056-3.531-4.111-7.063-6.167-10.595
			c-1.33,1.567-2.659,3.135-3.989,4.703c-3.628,4.276-0.29,13.303,6.183,10.621c2.208-0.915,4.416-1.829,6.623-2.744
			c-2.067-3.551-4.134-7.103-6.202-10.653c-1.259,1.305-2.518,2.61-3.776,3.915c-5.26,5.454,1.342,13.059,7.742,10.034
			c2.156-1.02,4.313-2.038,6.469-3.058c-2.156-3.688-4.313-7.378-6.469-11.066c-1.707,0.871-3.414,1.742-5.121,2.613
			c2.595,3.362,5.189,6.725,7.784,10.088c2.496-2.848,4.991-5.695,7.487-8.543c4.467-5.097,0.077-11.823-6.279-10.787
			c-2.553,0.417-4.808,1.305-7.101,2.494c2.177,3.724,4.354,7.448,6.53,11.172c2.127-1.567,4.255-3.136,6.382-4.704
			c6.668-4.915,1.068-14.98-6.552-11.209c-2.796,1.384-5.223,3.19-7.447,5.376c-3.75,3.683-1.242,11.747,4.604,11.114
			c2.661-0.288,5.214-0.286,7.875,0.003c-2.1-2.756-4.199-5.513-6.299-8.269c-0.521,2.058-1.043,4.116-1.565,6.174
			c-0.826,3.257,1.019,7.36,4.574,8.057c3.382,0.662,6.299,0.649,9.694,0.12c-1.687-4-3.373-8-5.06-12.001
			c-0.561,0.337-3.84,2.023-3.658,2.175c-1.549-1.286-2.859-2.527-4.8-3.206c-1.622-0.568-3.302-0.739-5.012-0.669
			c-0.977,0.131-1.955,0.263-2.932,0.395c-2.396,0.323-1.247-0.088-0.399,0.875c-2.079-2.364-5.45-2.257-8.044-1.038
			c-0.535,0.171-1.07,0.341-1.605,0.511c2.138,2.807,4.276,5.614,6.415,8.421c0.28-1.088,0.558-2.177,0.832-3.267
			c1.153-4.552-3.226-10.008-8.175-8.175c-2.595,0.96-5.191,1.921-7.786,2.882c2.714,2.714,5.428,5.429,8.143,8.143
			c0.34-1.576,0.68-3.152,1.019-4.729c1.01-4.685-3.063-9.729-8.123-8.124c-0.473,0.15-0.945,0.3-1.417,0.45
			c-2.37,0.135-2.025,1.465,1.036,3.991c0.875-4.848-2.916-9.417-8.077-8.077c-1.458,0.379-2.916,0.758-4.374,1.137
			c2.687,1.525,5.373,3.051,8.06,4.575c-0.053-0.609-0.105-1.22-0.158-1.83c-0.152-4.912-5.453-8.206-9.841-5.647
			c0.975,0.473,0.87,0.341-0.317-0.396c-1.108-0.776-2.964-1.487-4.321-1.384c-1.067,0.055-2.129,0.169-3.184,0.344
			c-0.518,0.219-1.036,0.438-1.555,0.656c-2.509,0.883-1.807,1.352,2.106,1.407c0.556,2.104,1.112,4.207,1.668,6.312
			c0.048-0.305,0.096-0.608,0.145-0.912c0.93-5.872-4.092-9.719-9.525-7.322c-1.083,0.478-2.167,0.956-3.25,1.434
			c2.614,3.389,5.229,6.777,7.843,10.166c3.013-3.694,4.55-6.813,3.703-11.642c-0.715-4.073-5.272-6.396-8.96-6.356
			c-8.303,0.09-8.313,12.92,0,12.885c-1.299-1.347-2.597-2.694-3.896-4.041c-4.84,5.859,1.066,13.104,7.843,10.166
			c1.087-0.472,2.175-0.942,3.262-1.414c-3.175-2.44-6.35-4.882-9.525-7.322c-1.063,6.44,4.088,11.786,10.792,9.942
			c0.517-0.219,1.035-0.437,1.552-0.655c2.266-0.843,1.84-1.179-1.276-1.01c1.218,0.593,2.251,1.601,3.653,1.874
			c3.621,0.708,6.61,0.421,9.844-1.437c-3.28-1.883-6.561-3.765-9.841-5.647c0.045,1.83,0.273,3.514,0.603,5.314
			c0.653,3.566,4.834,5.392,8.06,4.575c1.46-0.369,2.921-0.738,4.381-1.107c-2.692-2.692-5.385-5.385-8.077-8.077
			C20.77,75.238,30.625,79.28,39.276,76.598c-2.708-2.708-5.416-5.416-8.123-8.124c-0.35,1.574-0.7,3.147-1.049,4.721
			c-1.009,4.539,3.108,9.97,8.143,8.143c2.6-0.943,5.2-1.887,7.8-2.831c-2.725-2.725-5.45-5.45-8.175-8.175
			c-0.284,1.087-0.565,2.175-0.844,3.263c-0.972,3.78,1.981,8.968,6.415,8.421c3.064-0.378,5.513-1.02,8.307-2.351
			c-2.682-0.347-5.363-0.692-8.044-1.038c1.772,1.994,4.367,3.321,7.091,3.303c1.304-0.009,2.606-0.149,3.892-0.381
			c0.775-0.137,1.549-0.277,2.323-0.421c0.78,0.011,0.744,0.027-0.109,0.05c5.994,5.461,13.297,3.672,19.62-0.169
			c6.73-4.089,2.022-13.143-5.06-12.001c-0.912,0.14-1.819,0.109-2.72-0.089c1.524,2.686,3.049,5.371,4.574,8.057
			c0.511-2.062,1.021-4.122,1.532-6.184c1.1-4.438-2.055-7.83-6.299-8.269c-2.663-0.275-5.215-0.263-7.875,0.04
			c1.535,3.705,3.069,7.41,4.604,11.114c1.474-1.463,2.936-2.443,4.791-3.374c-2.184-3.736-4.368-7.473-6.552-11.209
			c-2.121,1.58-4.241,3.16-6.361,4.741c-6.564,4.893-1.021,15.141,6.53,11.172c1.323-0.694,2.534-0.972,4.002-1.219
			c-2.093-3.596-4.186-7.191-6.279-10.787c-2.481,2.862-4.962,5.724-7.444,8.586c-4.785,5.519,1.159,13.513,7.784,10.088
			c1.702-0.879,3.403-1.759,5.105-2.639c7.394-3.824,0.906-14.602-6.469-11.066c-2.149,1.03-4.299,2.061-6.449,3.091
			c2.581,3.345,5.162,6.689,7.742,10.034c1.252-1.313,2.504-2.624,3.756-3.937c4.025-4.219,0.045-13.281-6.202-10.653
			c-2.205,0.927-4.409,1.854-6.613,2.781c2.061,3.54,4.122,7.081,6.183,10.621c1.322-1.574,2.644-3.149,3.965-4.725
			c3.684-4.391,0.351-12.973-6.167-10.595c-2.33,0.851-4.659,1.7-6.988,2.55c2.049,3.521,4.098,7.04,6.147,10.561
			c1.362-1.349,2.724-2.696,4.085-4.045c4.226-4.186-0.034-12.903-6.133-10.535c-2.673,1.038-5.342,2.086-8.013,3.129
			c2.034,3.495,4.069,6.989,6.103,10.484c2.482-2.371,4.581-4.981,6.465-7.848c2.873-4.368-1.92-11.128-7.049-9.169
			c-2.928,1.118-5.856,2.236-8.785,3.354c2.013,3.459,4.027,6.917,6.04,10.376c1.877-1.98,3.754-3.962,5.631-5.942
			c5.064-5.346-1.273-12.544-7.487-9.704c-3.854,1.761-7.708,3.521-11.561,5.283c2.477,3.21,4.955,6.421,7.432,9.631
			c2.304-2.085,4.609-4.17,6.914-6.255c4.345-3.932-0.19-12.478-5.934-10.193c-4.249,1.689-8.499,3.379-12.747,5.068
			c1.961,3.37,3.923,6.74,5.885,10.11c2.212-2.2,4.424-4.4,6.635-6.6c5.076-5.05-1.325-12.303-7.29-9.448
			c-3.805,1.821-7.609,3.642-11.415,5.463c2.412,3.125,4.823,6.25,7.234,9.375c2.052-2.159,4.105-4.319,6.158-6.479
			c4.938-5.195-1.244-11.905-7.195-9.325c-3.651,1.583-7.301,3.166-10.952,4.748c2.381,3.086,4.762,6.172,7.143,9.258
			c1.806-2.16,3.612-4.319,5.425-6.475c4.397-5.226-0.996-12.04-7.12-9.228c-4.082,1.874-8.163,3.747-12.244,5.621
			c2.373,3.076,4.747,6.152,7.12,9.228c1.898-2.062,3.797-4.123,5.695-6.186c4.785-5.197-1.177-11.787-7.12-9.228
			c-3.449,1.485-6.897,2.97-10.346,4.455c2.373,3.076,4.747,6.152,7.12,9.228c1.847-2.087,3.693-4.174,5.54-6.262
			c3.559-4.021,0.217-12.047-5.717-9.82c-3.045,1.142-6.09,2.285-9.135,3.426c2.212,2.877,4.424,5.755,6.635,8.632
			c1.762-2.435,3.64-4.742,5.626-6.996c3.564-4.043,0.228-12-5.717-9.82c-2.763,1.013-5.525,2.026-8.288,3.039
			c2.212,2.876,4.424,5.754,6.635,8.631c1.733-2.328,3.465-4.655,5.198-6.983c3.186-4.278-2.045-9.969-6.635-8.631
			c-2.044,0.596-4.087,1.192-6.131,1.788c1.906,3.273,3.811,6.547,5.717,9.82c2.181-2.724,4.362-5.448,6.543-8.171
			c3.326-4.154,1.168-9.476-4.155-10.03c-2.612-0.272-5.062-0.005-7.615,0.594c2.212,2.877,4.424,5.754,6.635,8.631
			c0.806-1.751,1.625-2.843,3.095-4.083c-2.77-2.77-5.54-5.54-8.31-8.31c-0.123,0.142-0.245,0.284-0.367,0.426
			c-1.658,1.919-2.458,4.829-0.919,7.12c2.276,3.388,4.583,3.656,8.35,3.74c-1.385-0.574-2.77-1.147-4.155-1.721
			c0.185,0.178,0.369,0.357,0.553,0.535c-0.503-1.906-1.007-3.811-1.511-5.717c-0.446,2.274-0.432,3.941-0.029,6.22
			c0.595,3.372,4.315,4.604,7.228,4.104c1-0.148,1.995-0.12,2.985,0.085c-1.889-2.479-3.777-4.958-5.666-7.438
			c-1.63,9.532,7.63,12.282,14.84,8.469c-2.373-0.306-4.747-0.612-7.12-0.918c0.22,0.171,0.44,0.342,0.66,0.514
			c-0.574-1.385-1.147-2.77-1.721-4.155c0.586-1.604,0.521-1.513-0.197,0.271c-0.365,0.77-0.545,1.585-0.542,2.447
			c0,2.28,0.949,4.006,2.446,5.643c1.529,1.671,3.924,1.971,6.017,2.249c0.848-0.103,1.694-0.224,2.537-0.361
			c0.468-0.197,0.936-0.396,1.403-0.593c2.945-0.757,2.207-2.178-2.213-4.263c0.574-1.385,1.147-2.77,1.721-4.155
			c-0.173,0.21-0.346,0.419-0.52,0.629c-2.644,3.205-2.066,8.735,2.593,9.821c4.021,0.937,7.417,0.472,11.102-1.357
			c-2.68-0.702-5.359-1.405-8.039-2.107c0.061,0.294,0.122,0.589,0.183,0.883c0.478,3.312,4.407,4.69,7.228,4.104
			c2.221-0.462,4.347-1.057,6.486-1.812c-2.409-2.409-4.818-4.819-7.228-7.228c-0.326,1.491-0.651,2.982-0.977,4.473
			c-0.92,4.21,2.732,8.595,7.228,7.228c2.594-0.789,5.188-1.579,7.782-2.368c-2.409-2.409-4.818-4.818-7.228-7.228
			c-0.406,1.168-0.812,2.336-1.217,3.504c-1.449,4.171,3.115,8.57,7.228,7.228c2.782-0.908,5.565-1.815,8.348-2.722
			c-2.205-2.869-4.41-5.737-6.616-8.606c-0.709,1.468-1.417,2.936-2.126,4.404c-1.986,4.113,1.347,10.614,6.605,8.592
			c1.98-0.762,3.961-1.522,5.942-2.283c-2.197-2.857-4.395-5.716-6.591-8.574c-1.29,1.877-2.58,3.754-3.87,5.631
			c-2.827,4.114,1.861,10.249,6.576,8.555c3.32-1.193,6.64-2.386,9.96-3.579c-2.379-2.38-4.759-4.759-7.138-7.139
			c-0.559,1.376-1.117,2.752-1.675,4.128c-2.051,5.055,4.49,8.702,8.512,6.543c3.179-1.706,6.404-3.318,9.734-4.712
			c-2.366-2.366-4.732-4.732-7.099-7.099c-0.203,0.306-0.406,0.611-0.608,0.917c-4.721,4.952,1.194,11.752,6.983,9.051
			c1.898-0.886,3.835-1.428,5.875-1.878c-1.864-3.203-3.728-6.405-5.592-9.607c-1.882,2.086-3.763,4.172-5.645,6.258
			c-4.378,4.854,1.108,12.098,6.946,9.002c1.216-0.646,2.432-1.29,3.648-1.936c-2.312-2.997-4.624-5.993-6.936-8.989
			c-5.236,4.842-10.785,9.19-16.746,13.106c2.294,2.974,4.588,5.947,6.883,8.921c4.807-4.177,10.16-7.385,15.994-9.915
			c-2.278-2.953-4.557-5.905-6.835-8.858c-6.096,5.724-12.191,11.449-18.288,17.172c-4.562,4.281,1.59,12.572,6.777,8.783
			c6.173-4.51,12.737-8.269,19.742-11.33c-2.374-2.374-4.748-4.747-7.121-7.121c-2.844,4.707-6.359,8.603-10.641,12.044
			c-4.423,3.555,1.265,10.507,5.95,7.711c2.963-1.769,5.971-3.201,9.241-4.311c-1.53-2.628-3.059-5.255-4.589-7.883
			c-2.499,2.827-4.724,5.771-6.58,9.061c-2.222,3.937,2.177,8.223,6.083,6.083c2.573-1.41,5.166-2.442,7.993-3.224
			c-1.63-1.63-3.26-3.26-4.89-4.89c-0.262,1.663-0.58,3.037-1.653,4.398c-2.549,3.234,0.526,7.247,4.311,5.587
			c1.161-0.509,2.322-1.019,3.483-1.528c-1.654-0.949-3.308-1.898-4.962-2.848c-0.208,0.678-0.415,1.355-0.623,2.033
			c-1.407,2.729,1.412,5.604,4.157,4.157c0.591-0.312,1.182-0.624,1.773-0.936C91.874,90.229,89.868,85.305,86.756,86.442
			L86.756,86.442z"/>
	</g>
</g>
<g opacity="0.9">
	<g>
		<path fill="#929292" d="M41.922,33.76c2.183,0.432,4.169,0.526,6.395,0.246c-0.259-0.625-0.518-1.25-0.776-1.875
			c-0.611,0.65-0.725,0.936-0.793,1.821c-0.033,0.425,0.263,0.91,0.634,1.105c0.16,0.084,0.321,0.169,0.481,0.253
			c0.612,0.322,1.174,0.19,1.694-0.218c0.136-0.107,0.272-0.214,0.408-0.321c0.613-0.481,0.571-1.64,0-2.13
			c-0.115-0.099-0.231-0.198-0.347-0.297c-0.689-0.591-1.584-0.622-2.271,0c-0.105,0.095-0.209,0.19-0.314,0.285
			c-1.206,1.092,0.053,3.476,1.65,2.835c0.83-0.333,1.645-0.676,2.464-1.033c-1.024-0.787-2.047-1.574-3.071-2.361
			c-0.061,0.409-0.122,0.819-0.182,1.228c-0.276,1.859,0.987,3.085,2.83,2.83c1.547-0.213,2.021-0.429,3.428-1.097
			c-1.264-1.264-2.528-2.528-3.792-3.792c-0.31,0.706-0.621,1.412-0.931,2.117c-1.209,2.747,1.238,5.305,4.022,4.022
			c1.713-0.789,3.073-1.722,4.551-2.871c-1.861-0.771-3.722-1.542-5.583-2.313c-0.01,0.487-0.021,0.973-0.03,1.46
			c-0.035,1.646,1.547,3.545,3.325,3.325c2.259-0.279,3.781-0.806,5.357-2.521c-1.847-1.075-3.695-2.151-5.542-3.226
			c-0.349,0.903-0.698,1.806-1.047,2.709c-1.188,3.071,2.551,4.714,4.86,3.736c2.025-0.858,3.66-1.979,5.312-3.413
			c-1.835-1.068-3.67-2.137-5.505-3.205c-0.677,1.666-0.772,2.45-0.933,4.238c-0.232,2.575,2.934,3.97,4.942,2.836
			c1.506-0.85,2.806-1.807,4.119-2.924c-1.824-1.062-3.648-2.124-5.472-3.185c-0.405,1.123-0.811,2.245-1.216,3.368
			c-1.029,2.848,2.458,4.949,4.795,3.687c1.695-0.915,3.037-1.943,4.37-3.318c-1.851-0.767-3.701-1.533-5.552-2.3
			c-0.051,1.089-0.102,2.178-0.152,3.268c-0.117,2.518,2.825,3.962,4.881,2.801c1.877-1.061,3.429-2.281,4.88-3.876
			c-1.837-0.761-3.675-1.522-5.512-2.283c-0.037,1.223-0.074,2.447-0.112,3.67c-0.08,2.609,2.751,3.786,4.845,2.78
			c1.429-0.687,2.547-1.507,3.71-2.573c-1.788-0.472-3.577-0.944-5.365-1.416c0.306,0.761,0.611,1.522,0.917,2.284
			c0.813,2.029,2.685,2.861,4.706,1.915c1.206-0.565,2.273-1.178,3.368-1.935c-1.564-0.636-3.127-1.272-4.691-1.909
			c0.165,0.938,0.329,1.877,0.494,2.815c0.365,2.079,3.023,2.841,4.68,1.904c1.4-0.792,2.124-1.348,3.302-2.442
			c-1.667-0.215-3.335-0.43-5.003-0.645c0.206,0.485,0.413,0.971,0.619,1.457c0.648,1.526,3.053,2.031,4.358,1.143
			c1.159-0.789,1.821-1.459,2.63-2.603c-1.979-0.536-3.958-1.072-5.936-1.608c-0.026,0.63-0.053,1.261-0.079,1.892
			c-0.11,2.631,2.736,3.677,4.793,2.75c1.413-0.636,2.031-1.119,3.207-2.123c-1.818-1.058-3.635-2.116-5.453-3.174
			c-0.226,0.993-0.452,1.986-0.678,2.979c-0.682,2.994,2.26,5.042,4.91,3.775c1.255-0.6,2.331-1.247,3.448-2.076
			c-1.573-0.413-3.146-0.825-4.719-1.237c0.262,0.591,0.525,1.182,0.787,1.773c0.748,1.687,3.32,2.214,4.788,1.255
			c0.939-0.613,1.69-1.194,2.494-1.976c-2-0.829-4.001-1.657-6.001-2.486c0.011,0.405,0.022,0.81,0.033,1.215
			c0.047,1.765,1.55,3.647,3.477,3.477c3.78-0.334,7.263,0.079,10.829-1.374c1.492-0.608,1.694-2.262,0.423-3.235
			c-3.425-2.621-7.063-2.452-11.252-2.345c1.159,1.159,2.318,2.318,3.477,3.477c0.015-0.405,0.03-0.81,0.044-1.215
			c0.116-3.195-3.85-4.479-6.001-2.486c-0.352,0.302-0.703,0.603-1.054,0.905c1.596,0.418,3.192,0.837,4.788,1.255
			c-0.292-0.574-0.583-1.148-0.874-1.723c-1.084-2.136-3.809-2.027-5.417-0.698c-0.804,0.695-1.685,1.269-2.643,1.72
			c1.637,1.258,3.273,2.517,4.91,3.775c0.174-1.007,0.349-2.014,0.523-3.021c0.542-3.127-2.943-5.557-5.453-3.174
			c-0.603,0.412-1.206,0.824-1.809,1.236c1.598,0.917,3.196,1.833,4.793,2.75c0.026-0.63,0.053-1.261,0.079-1.892
			c0.143-3.415-4.234-4.011-5.936-1.608c-0.115,0.106-0.23,0.211-0.345,0.317c1.453,0.381,2.906,0.762,4.358,1.143
			c-0.206-0.485-0.413-0.971-0.619-1.457c-0.84-1.977-3.655-1.896-5.003-0.645c-0.671,0.482-1.342,0.964-2.013,1.446
			c1.56,0.634,3.12,1.269,4.68,1.904c-0.16-0.94-0.32-1.88-0.479-2.819c-0.334-1.967-3.092-3.001-4.691-1.909
			c-1.099,0.751-2.17,1.359-3.378,1.917c1.568,0.638,3.137,1.276,4.706,1.915c-0.301-0.763-0.603-1.525-0.904-2.288
			c-0.895-2.264-3.449-3.153-5.365-1.416c-0.694,0.7-1.501,1.217-2.421,1.552c1.615,0.927,3.23,1.854,4.845,2.78
			c0.043-1.223,0.087-2.447,0.13-3.67c0.099-2.771-3.622-4.338-5.512-2.283c-1.087,1.181-2.186,2.059-3.588,2.841
			c1.627,0.934,3.254,1.867,4.881,2.801c0.056-1.089,0.112-2.178,0.169-3.268c0.149-2.872-3.633-4.257-5.552-2.3
			c-0.835,1.023-1.857,1.783-3.065,2.28c1.598,1.229,3.197,2.458,4.795,3.687c0.412-1.121,0.823-2.242,1.234-3.363
			c1.234-3.362-3.208-5.091-5.472-3.185c-0.848,0.76-1.783,1.387-2.805,1.881c1.647,0.945,3.295,1.891,4.942,2.836
			c0.239-0.829,0.478-1.658,0.716-2.487c1.379-3.344-3.289-5.107-5.505-3.205c-0.941,0.875-2.009,1.549-3.203,2.023
			c1.356,1.357,2.713,2.713,4.07,4.07c0.354-0.901,0.708-1.803,1.062-2.705c1.236-3.147-3.383-5.552-5.542-3.226
			c-0.223,0.187-0.445,0.374-0.668,0.561c1.108,1.108,2.217,2.217,3.325,3.325c-0.026-0.487-0.053-0.973-0.08-1.46
			c-0.15-2.741-3.505-4.468-5.583-2.313c-0.815,0.979-1.78,1.785-2.894,2.418c1.439,1.106,2.879,2.213,4.319,3.32
			c0.208-0.749,0.417-1.498,0.624-2.247c0.761-2.741-2.639-4.563-4.633-2.697c-0.614,0.415-1.228,0.831-1.842,1.246
			c1.126,0.458,2.253,0.917,3.379,1.375c-0.074-0.409-0.148-0.819-0.223-1.228c-0.298-1.641-2.428-1.892-3.494-0.922
			c-0.542,0.478-1.069,0.972-1.581,1.481c0.888,0.685,1.776,1.37,2.664,2.055c0.058-0.131,0.116-0.263,0.173-0.395
			c-0.604,0.246-1.209,0.492-1.814,0.738c0.148,0.043,0.296,0.087,0.444,0.131c-0.3-0.738-0.6-1.475-0.9-2.213
			c0.556,0.172,1.112,0.344,1.667,0.516c0.505-0.828-0.323-1.869-1.24-1.613c-1.979,0.552-3.881,0.759-5.933,0.66
			C41.378,32.474,41.215,33.62,41.922,33.76L41.922,33.76z"/>
	</g>
</g>
<g opacity="0.9">
	<g>
		<path fill="#929292" d="M104.678,39.839c5.045-0.081,13.71,1.355,17.781-2.735c2.155-2.166,2.752-1.192,5.311-1.687
			c4.563-0.882,9.091-1.379,13.659-2.413c8.045-1.82,16.041-4.104,24.142-5.637c6.518-1.233,14.483,0.553,19.871-3.875
			c2.749-2.258,0.383-6.607-2.753-6.646c-3.168-0.04-6.07,1.264-9.161,1.908c-3.292,0.686-6.687,0.638-10,1.202
			c-7.492,1.275-14.848,3.359-22.188,5.302c-3.366,0.892-7.237,1.423-10.398,2.889c-1.578,0.732-2.75,1.704-4.279,1.284
			c-0.849-0.234-1.819-0.25-2.682-0.108c-2.981,0.492-3.608,2.291-5.952,3.846c-3.006,1.993-9.994,3.36-13.351,3.414
			C102.58,36.616,102.577,39.873,104.678,39.839L104.678,39.839z"/>
	</g>
</g>
<g opacity="0.9">
	<g>
		<path fill="#929292" d="M100.586,28.256c1.35-0.282,2.7-0.565,4.05-0.847c-0.152-0.198-0.304-0.395-0.456-0.593
			c-0.107,0.107-0.215,0.214-0.322,0.321c-0.408,0.26-0.127,0.8,0.311,0.736c0.211-0.031,0.423-0.062,0.635-0.093
			c-0.071-0.258-0.142-0.516-0.213-0.774c-0.521,0.141-1.043,0.277-1.566,0.409c-0.513,0.131-0.291,0.873,0.215,0.781
			c0.892-0.161,1.782-0.321,2.674-0.483c-0.137-0.235-0.273-0.47-0.41-0.705c-0.323,0.195-0.646,0.39-0.969,0.585
			c-0.414,0.163-0.406,0.905,0.114,0.845c0.725-0.083,1.292-0.239,1.955-0.543c0.254-0.116,0.287-0.515,0.09-0.694
			c-0.036-0.032-0.071-0.064-0.107-0.096c-0.15-0.135-0.355-0.171-0.536-0.069c-0.267,0.15-0.359,0.241-0.402,0.549
			c-0.028,0.199,0.015,0.395,0.204,0.502c1.045,0.591,2.703-0.177,3.785-0.396c0.512-0.104,0.399-0.981-0.124-0.917
			c-0.385,0.047-0.769,0.094-1.153,0.141c0.137,0.238,0.272,0.476,0.409,0.713c0.106-0.217,0.212-0.434,0.318-0.65
			c0.146-0.296-0.023-0.754-0.413-0.72c-0.505,0.044-1.01,0.087-1.515,0.131c-0.688-0.092-1.218,0.178-1.591,0.812
			c0.637-0.115,0.36-1.063-0.266-0.962c-1.915,0.307-3.831,0.612-5.746,0.918c-0.515,0.082-0.494,0.915,0,1.015
			c1.109,0.224,2.178,0.518,3.246,0.893c0.096-0.348,0.192-0.697,0.288-1.045c-1.422-0.387-2.849-0.697-4.305-0.927
			c0,0.36,0,0.72,0,1.08c1.605-0.427,3.209-0.854,4.814-1.281c0.991-0.264,2.074-0.688,3.121-0.489
			c0.888,0.168,1.83,0.729,2.664,1.071c-0.111-0.274-0.223-0.548-0.334-0.823c-0.135,0.22-0.269,0.441-0.402,0.661
			c-0.291,0.478,0.414,1.046,0.785,0.606c0.166-0.196,0.331-0.392,0.497-0.588c0.291-0.345,0.155-0.771-0.247-0.936
			c-1.259-0.516-2.783-1.486-4.201-1.146c-2.344,0.561-4.666,1.226-6.995,1.846c-0.502,0.133-0.568,0.993,0,1.08
			c1.458,0.225,2.889,0.518,4.315,0.892c0.682,0.179,0.944-0.821,0.288-1.045c-1.071-0.365-2.143-0.649-3.254-0.863
			c0,0.338,0,0.676,0,1.015c1.911-0.323,3.822-0.646,5.732-0.971c-0.089-0.321-0.177-0.641-0.266-0.962
			c-0.048,0.009-0.097,0.018-0.145,0.027c-0.229,0.044-0.347,0.271-0.365,0.48c-0.006,0.06-0.012,0.12-0.017,0.179
			c-0.02,0.213,0.165,0.431,0.365,0.479c1.109,0.269,2.406-0.079,3.532-0.19c-0.138-0.24-0.275-0.48-0.413-0.72
			c-0.104,0.218-0.207,0.437-0.311,0.655c-0.191,0.403,0.117,0.753,0.535,0.696c0.384-0.052,0.768-0.104,1.151-0.155
			c-0.083-0.3-0.165-0.6-0.248-0.9c-0.295,0.063-3.473,0.9-3.32,1.035c0.03-0.231,0.06-0.462,0.09-0.694
			c-0.503,0.148-1.007,0.297-1.51,0.445c0.038,0.282,0.076,0.563,0.114,0.845c0.768-0.313,0.714-0.272,1.336-0.819
			c0.344-0.301-0.028-0.779-0.41-0.705c-0.888,0.172-1.776,0.344-2.664,0.515c0.071,0.26,0.144,0.521,0.215,0.781
			c0.521-0.142,1.042-0.28,1.564-0.416c0.515-0.135,0.284-0.845-0.213-0.774c-0.212,0.03-0.424,0.061-0.637,0.091
			c0.104,0.245,0.207,0.491,0.311,0.736c0.346-0.218,0.392-0.266,0.613-0.609c0.205-0.318-0.131-0.66-0.456-0.593
			c-1.351,0.278-2.702,0.556-4.053,0.834C99.851,27.571,100.07,28.364,100.586,28.256L100.586,28.256z"/>
	</g>
</g>
<g opacity="0.9">
	<g>
		<path fill="#929292" d="M5.426,14.564c-0.108,0.244-0.215,0.488-0.323,0.733c-0.265,0.292-0.082,0.747,0.316,0.763
			c0.416-0.282,0.833-0.564,1.249-0.847c-0.198,0.014-0.414,0.133-0.455,0.347c-0.025,0.133-0.051,0.267-0.077,0.4
			c-0.05,0.263,0.071,0.504,0.333,0.587c1.007,0.318,2.269,0.575,3.068-0.259c0.186-0.193,0.211-0.536,0-0.726
			c-0.078-0.07-0.156-0.14-0.233-0.209c-0.202-0.181-0.534-0.217-0.731,0c-0.051,0.056-0.102,0.112-0.152,0.168
			c-0.326,0.358-0.016,1.056,0.506,0.869c0.584-0.208,1.168-0.417,1.752-0.626c-0.14-0.332-0.279-0.663-0.419-0.995
			c-0.411,0.305-0.822,0.61-1.232,0.915c-0.391,0.29-0.339,1.129,0.285,1.052c1.478-0.183,2.957-0.355,4.437-0.521
			c-0.153-0.37-0.307-0.74-0.46-1.11c-0.088,0.098-0.176,0.195-0.264,0.293c-0.144,0.16-0.255,0.417-0.168,0.634
			c0.057,0.141,0.113,0.281,0.169,0.421c0.114,0.285,0.313,0.466,0.631,0.48c1.552,0.069,2.938-0.44,4.438-0.835
			c-0.174-0.413-0.348-0.826-0.522-1.238c-0.58,0.316-1.161,0.632-1.741,0.948c-0.582,0.317-0.343,1.335,0.348,1.283
			c1.949-0.148,1.862-0.136,3.781-0.512c-0.125-0.455-0.25-0.91-0.376-1.365c-1.352,0.38-1.18,0.312-2.27,1.195
			c-0.576,0.467,0.044,1.397,0.701,1.204c1.961-0.578,3.921-1.156,5.882-1.734c0.929-0.274,0.534-1.724-0.4-1.452
			c-1.639,0.478-3.119,1.047-4.654,1.774c-0.866,0.41-0.199,1.544,0.6,1.423c2.957-0.448,5.894-0.95,8.823-1.555
			c-0.159-0.575-0.317-1.15-0.476-1.725c-1.354,0.485-2.706,0.975-4.058,1.464c-1.146,0.415-0.701,2.078,0.504,1.828
			c2.743-0.569,5.485-1.143,8.225-1.727c-0.181-0.658-0.363-1.316-0.544-1.975c-1.972,0.826-3.944,1.653-5.917,2.479
			c-1.239,0.519-0.811,2.336,0.565,2.051c3.383-0.702,6.765-1.286,10.194-1.716c-0.183-0.676-0.366-1.352-0.549-2.027
			c-1.613,0.778-3.227,1.556-4.841,2.334c-0.958,0.462-0.521,2.139,0.552,2.037c1.982-0.188,3.61-0.533,5.498-1.241
			c1.304-0.489,0.777-2.568-0.584-2.118c-1.665,0.55-3.112,1.191-4.641,2.074c-1.062,0.613-0.351,2.442,0.85,2.016
			c1.862-0.662,3.725-1.325,5.587-1.988c1.336-0.476,0.764-2.614-0.59-2.138c-2.06,0.725-4.118,1.456-6.176,2.186
			c-1.329,0.472-0.81,2.475,0.587,2.129c5.517-1.366,11.058-2.159,16.737-2.411c1.156-0.051,1.535-1.911,0.286-2.113
			c-6.375-1.029-13.433-3.422-19.777-1.547c0.248,0.587,0.495,1.175,0.743,1.762c0.431-0.239,0.862-0.478,1.293-0.717
			c1.107-0.614,0.136-2.163-0.972-1.663c-1.18,0.532-2.361,1.064-3.541,1.597c-0.734,0.331-0.565,1.623,0.229,1.754
			c-1.237-0.205-1.661,0.083-2.131,1.374c-0.222,0.608,0.344,1.188,0.922,1.21c1.191,0.128,2.377,0.092,3.559-0.108
			c-0.225-0.542-0.449-1.084-0.674-1.627c-0.362,0.344-0.724,0.688-1.085,1.032c-0.608,0.578-0.142,1.625,0.673,1.625
			c0.788-0.001,1.577,0,2.365,0.002c1.253,0.003,1.197-1.783,0-1.906c-3.72-0.385-7.44-0.777-11.162-1.147
			c0.087,0.64,0.173,1.281,0.26,1.921c1.46-0.812,3.028-0.865,4.704-0.161c-0.077-0.592-0.155-1.184-0.232-1.775
			c-0.732,0.272-1.465,0.545-2.197,0.817c0.314,0.54,0.628,1.079,0.942,1.618c0.417-0.469,0.835-0.938,1.253-1.407
			c0.566-0.635,0.181-1.611-0.683-1.648c-2.303-0.099-7.09-1.463-8.946,0.299c-0.354,0.337-0.39,1.02,0,1.351
			c0.084,0.071,0.168,0.143,0.252,0.214c0.361,0.306,1.006,0.43,1.35,0c0.048-0.061,0.097-0.122,0.146-0.182
			c0.393-0.492,0.366-1.469-0.421-1.595c-3.119-0.498-6.239-0.995-9.358-1.492c0.075,0.574,0.15,1.147,0.225,1.722
			c0.52-0.251,1.04-0.502,1.56-0.753c0.731-0.353,0.54-1.545-0.224-1.718c-1.324-0.299-1.251-0.336-2.529,0.129
			c0.241,0.571,0.481,1.142,0.722,1.713c0.404-0.287,0.808-0.575,1.211-0.862c0.763-0.543,0.488-1.679-0.472-1.743
			c-1.435-0.095-2.36,0.127-3.637,0.779c-0.735,0.375-0.522,1.495,0.222,1.701c5.303,1.469,10.488,1.707,15.921,0.834
			c2.582-0.415,4.956-1.788,7.628-1.445c2.23,0.286,3.713-0.097,5.479-1.433c-0.414-0.414-0.827-0.827-1.241-1.241
			c-1.174,2.591-1.643,5.184-4.974,5.46c-1.15,0.096-1.169,1.886,0,1.809c1.122-0.075,1.259-0.119,2.285-0.577
			c-0.412-0.412-0.824-0.824-1.236-1.236c-0.221,0.331-0.441,0.661-0.661,0.991c-0.379,0.569,0.12,1.378,0.78,1.359
			c3.686-0.104,7.192-0.579,10.773-1.458c1.127-0.277,0.649-2.013-0.479-1.736c-3.403,0.833-6.792,1.291-10.294,1.388
			c0.26,0.453,0.52,0.906,0.78,1.359c0.221-0.331,0.441-0.661,0.662-0.991c0.555-0.832-0.488-1.57-1.236-1.236
			c-0.458,0.11-0.915,0.219-1.373,0.329c0,0.603,0,1.206,0,1.809c1.815-0.15,3.347-0.418,4.841-1.503
			c1.511-1.097,1.015-3.343,1.699-4.851c0.327-0.722-0.431-1.853-1.241-1.241c-3.788,2.863-2.386,0.658-5.809,0.658
			c-1.439,0-3.73,1.274-5.173,1.666c-5.455,1.481-11.265,0.993-16.637-0.509c0.074,0.567,0.148,1.134,0.222,1.701
			c0.899-0.172,1.798-0.344,2.698-0.516c-0.157-0.581-0.314-1.162-0.472-1.743C6.6,13.993,6.196,14.28,5.791,14.566
			c-0.811,0.574-0.343,2.098,0.722,1.713c0.51-0.042,1.021-0.083,1.531-0.125c-0.075-0.573-0.149-1.145-0.224-1.718
			c-0.521,0.25-1.042,0.5-1.563,0.749c-0.704,0.338-0.568,1.593,0.225,1.722c3.118,0.505,6.235,1.01,9.353,1.516
			c-0.141-0.531-0.281-1.063-0.421-1.595c-0.966,1.204,7.922,1.571,8.548,1.6c-0.228-0.55-0.455-1.099-0.683-1.648
			c-0.419,0.468-0.838,0.936-1.257,1.403c-0.646,0.723-0.023,1.846,0.942,1.618c1.453-0.344,1.341-0.313,2.663-1.007
			c0.788-0.414,0.52-1.523-0.232-1.775c-2.092-0.701-3.66-0.683-5.741,0.147c-1.039,0.415-0.865,1.807,0.26,1.921
			c3.719,0.378,7.441,0.734,11.162,1.097c0-0.635,0-1.271,0-1.906c-0.788,0.003-1.577,0.003-2.365,0
			c0.224,0.542,0.449,1.083,0.673,1.625c0.362-0.343,0.725-0.687,1.087-1.03c0.567-0.538,0.169-1.709-0.674-1.627
			c-1.182,0.199-2.368,0.233-3.559,0.103c0.307,0.403,0.615,0.807,0.922,1.21c0.589-1.607,2.422-0.675,2.029-2.968
			c-0.051-0.295-0.374-0.62-0.67-0.669c-0.188-0.032-0.375-0.063-0.562-0.094c0.077,0.584,0.153,1.169,0.229,1.754
			c1.181-0.53,2.363-1.061,3.544-1.591c-0.324-0.554-0.648-1.109-0.972-1.663c-0.432,0.238-0.863,0.477-1.295,0.715
			c-0.959,0.53-0.306,2.07,0.743,1.762c5.734-1.684,12.912,0.769,18.692,1.762c0.096-0.704,0.191-1.409,0.286-2.113
			c-5.88,0.223-11.607,1.035-17.324,2.433c0.196,0.709,0.391,1.419,0.587,2.129c2.06-0.724,4.121-1.448,6.179-2.177
			c-0.197-0.712-0.393-1.425-0.59-2.138c-1.861,0.667-3.722,1.333-5.583,1.999c0.283,0.672,0.566,1.344,0.85,2.016
			c1.269-0.832,2.639-1.451,4.111-1.86c-0.195-0.706-0.389-1.412-0.584-2.118c-1.552,0.71-3.19,1.101-4.914,1.173
			c0.184,0.679,0.368,1.358,0.552,2.037c1.612-0.781,3.224-1.562,4.836-2.343c0.938-0.455,0.526-2.164-0.549-2.027
			c-3.618,0.46-7.196,1.056-10.76,1.841c0.273,0.648,0.546,1.296,0.819,1.943c1.962-0.85,3.924-1.701,5.886-2.551
			c1.11-0.481,0.29-2.115-0.789-1.872c-2.73,0.616-5.458,1.242-8.185,1.873c0.168,0.609,0.336,1.219,0.504,1.828
			c1.344-0.521,2.687-1.042,4.029-1.567c1.054-0.413,0.668-1.998-0.476-1.725c-2.905,0.693-5.813,1.299-8.761,1.777
			c0.2,0.475,0.4,0.949,0.6,1.423c1.359-0.728,2.782-1.283,4.269-1.667c-0.133-0.484-0.267-0.968-0.4-1.452
			c-1.955,0.599-3.91,1.198-5.865,1.797c0.233,0.401,0.467,0.802,0.701,1.204c0.542-0.283,1.084-0.565,1.627-0.848
			c0.882-0.258,0.512-1.549-0.376-1.365c-1.135,0.167-2.27,0.333-3.405,0.5c0.116,0.428,0.231,0.855,0.348,1.283
			c0.577-0.322,1.153-0.644,1.73-0.966c0.677-0.378,0.216-1.441-0.522-1.238c-1.227,0.261-2.402,0.672-3.525,1.232
			c0.455-0.513,0.004-1.19-0.633-1.087c-1.47,0.238-2.941,0.468-4.414,0.689c0.183,0.314,0.366,0.629,0.549,0.943
			c0.403-0.315,0.806-0.63,1.208-0.946c0.425-0.332-0.034-1.102-0.529-0.91c-1.13,0.47-2.259,0.94-3.389,1.411
			c0.59-0.056,0.613-0.926,0-0.936c-0.834-0.013-0.276-1.087-1.35-1.437C5.13,13.585,4.921,14.385,5.426,14.564L5.426,14.564z"/>
	</g>
</g>
<g opacity="0.9">
	<g>
		<path fill="#929292" d="M7.589,3.46c0.216,0.023,0.431,0.047,0.647,0.07C8.163,3.26,8.089,2.99,8.016,2.72
			C7.36,3.178,6.704,3.636,6.048,4.094c0.165,0.282,0.33,0.564,0.494,0.846c0.491-0.355,0.983-0.71,1.475-1.065
			C7.802,3.597,7.587,3.318,7.373,3.041C6.998,3.35,6.625,3.664,6.257,3.982c-0.423,0.361,0.024,1.1,0.54,0.928
			c1.017-0.398,2.074-0.638,3.171-0.717C9.781,3.947,9.593,3.701,9.406,3.456C9.249,3.729,9.092,4.004,8.935,4.278
			c-0.353,0.459,0.227,0.95,0.668,0.87c0.637-0.064,1.247-0.227,1.831-0.49c-0.197-0.338-0.394-0.677-0.591-1.016
			c-0.335,0.333-0.67,0.667-1.005,1C9.399,5.079,9.842,5.846,10.44,5.677c0.851-0.24,1.01-0.307,1.817-0.668
			c-0.29-0.29-0.58-0.58-0.87-0.87c-0.108,0.185-0.216,0.37-0.324,0.554c-0.334,0.572,0.321,1.184,0.881,0.881
			c0.729-0.394,1.457-0.788,2.186-1.181c-0.228-0.39-0.456-0.78-0.684-1.17c-0.797,0.609-0.867,0.673-1.454,1.488
			c-0.462,0.642,0.396,1.2,0.958,0.958c0.803-0.344,1.606-0.688,2.41-1.032c-0.248-0.423-0.495-0.847-0.742-1.271
			c-0.727,0.501-1.45,1.008-2.172,1.517c-0.791,0.558-0.115,1.749,0.763,1.305c0.713-0.361,1.426-0.722,2.139-1.082
			c-0.257-0.439-0.514-0.879-0.771-1.318c-0.781,0.44-1.456,0.916-2.146,1.481c-0.638,0.523,0.06,1.445,0.75,1.289
			c1.042-0.236,2.041-0.517,3.053-0.857c-0.253-0.435-0.507-0.871-0.76-1.306C15.068,4.74,14.66,5.085,14.251,5.43
			c-0.632,0.533,0.048,1.494,0.765,1.314c1.28-0.319,2.482-0.737,3.694-1.249c-0.269-0.459-0.538-0.919-0.807-1.379
			c-1.729,0.763-3.458,1.526-5.186,2.291c-0.854,0.377-0.242,1.77,0.63,1.494c3.126-0.992,6.251-1.986,9.375-2.983
			c-0.149-0.54-0.297-1.08-0.446-1.62c-2.896,1.124-5.661,1.183-8.596,0.165c0,0.55,0,1.1,0,1.649
			c1.902-0.525,3.69-0.684,5.645-0.526c0-0.575,0-1.15,0-1.725C15.355,3.36,11.793,2.851,7.86,2.317
			C6.927,2.19,6.553,3.407,7.467,3.745c3.724,1.379,7.969,1.336,11.857,0.842c1.088-0.138,1.131-1.635,0-1.725
			c-2.141-0.17-4.039,0.024-6.1,0.601c-0.85,0.238-0.78,1.382,0,1.649c3.207,1.101,6.34,1.043,9.498-0.194
			c0.985-0.386,0.604-1.959-0.446-1.62c-3.122,1.007-6.243,2.015-9.363,3.027c0.21,0.498,0.42,0.996,0.63,1.494
			c1.722-0.774,3.445-1.549,5.167-2.323c0.944-0.424,0.124-1.779-0.807-1.379c-1.099,0.472-2.156,0.816-3.305,1.111
			c0.255,0.438,0.51,0.876,0.765,1.314c0.406-0.348,0.813-0.695,1.219-1.042c0.591-0.505-0.035-1.556-0.76-1.306
			c-1.011,0.347-2.007,0.634-3.048,0.877c0.25,0.43,0.5,0.859,0.75,1.289c0.556-0.497,1.165-0.915,1.825-1.253
			c0.859-0.492,0.101-1.766-0.771-1.318c-0.71,0.365-1.421,0.73-2.131,1.096c0.254,0.435,0.508,0.87,0.763,1.305
			c0.719-0.514,1.437-1.03,2.151-1.551c0.767-0.56,0.125-1.669-0.742-1.271c-0.792,0.364-1.583,0.729-2.375,1.093
			c0.319,0.319,0.639,0.639,0.958,0.958c0.355-0.377,0.709-0.754,1.064-1.131c0.613-0.495-0.172-1.437-0.821-1.064
			c-0.717,0.413-1.435,0.826-2.152,1.239c0.294,0.293,0.588,0.587,0.881,0.881c0.103-0.188,0.206-0.375,0.309-0.563
			c0.323-0.587-0.306-1.136-0.87-0.87c-0.501,0.19-1.003,0.381-1.505,0.572c0.201,0.345,0.401,0.69,0.603,1.035
			c0.329-0.339,0.659-0.678,0.988-1.016c0.398-0.409,0.004-1.239-0.591-1.016c-0.579,0.272-1.187,0.445-1.822,0.52
			c0.223,0.29,0.446,0.58,0.668,0.87c0.371-0.5,0.368-0.523,0.573-1.111c0.115-0.328-0.195-0.787-0.562-0.738
			c-1.223,0.162-2.292,0.4-3.466,0.813c0.18,0.309,0.36,0.619,0.54,0.928c0.364-0.321,0.725-0.646,1.082-0.976
			C8.64,3.32,7.896,2.626,7.373,3.041c-0.475,0.376-0.95,0.753-1.424,1.13C5.515,4.515,6.102,5.277,6.542,4.939
			C7.18,4.45,7.817,3.96,8.456,3.471c0.338-0.26,0.239-0.781-0.22-0.811C8.02,2.647,7.805,2.633,7.589,2.62
			C7.041,2.585,7.062,3.403,7.589,3.46L7.589,3.46z"/>
	</g>
</g>
<g opacity="0.9">
	<g>
		<path fill="#737272" d="M105.347,30.859c-0.24,0.287-0.481,0.574-0.723,0.861c-0.359,0.427-0.033,1.184,0.579,0.995
			c0.672-0.208,1.343-0.415,2.015-0.622c-0.173-0.41-0.346-0.82-0.519-1.23c-0.644,0.344-1.275,0.704-1.909,1.065
			c-0.688,0.392-0.212,1.622,0.551,1.307c1.021-0.422,1.974-0.896,2.912-1.483c0.701-0.438,0.255-1.627-0.574-1.363
			c-0.814,0.259-1.437,0.556-2.139,1.063c-0.654,0.473-0.284,1.728,0.592,1.404c1.095-0.405,2.135-0.873,3.161-1.432
			c0.925-0.504,0.113-1.793-0.809-1.383c-1.21,0.538-2.191,1.212-3.146,2.123c-0.727,0.692,0.192,1.706,1.015,1.314
			c1.729-0.824,3.249-1.862,4.673-3.139c0.716-0.642-0.223-1.857-1.026-1.33c-1.555,1.021-2.959,2.165-4.265,3.491
			c-0.697,0.708,0.184,1.782,1.034,1.34c1.866-0.969,3.663-2.034,5.411-3.203c0.914-0.611,0.087-2.071-0.869-1.486
			c-1.4,0.856-2.616,1.834-3.743,3.027c-0.586,0.62-0.012,1.69,0.843,1.448c1.29-0.366,2.396-0.88,3.496-1.655
			c0.929-0.653,0.143-1.96-0.879-1.504c-1.322,0.59-2.565,1.261-3.784,2.043c-0.949,0.609-0.112,2.056,0.885,1.514
			c1.466-0.798,2.955-1.532,4.481-2.208c-0.356-0.462-0.713-0.924-1.069-1.386c-0.364,0.445-0.785,0.832-1.262,1.159
			c-0.791,0.583-0.343,1.851,0.682,1.617c0.817-0.187,1.62-0.395,2.425-0.63c-0.229-0.541-0.456-1.082-0.685-1.623
			c-0.289,0.21-0.578,0.421-0.868,0.631c-0.782,0.568-0.343,1.907,0.686,1.625c0.668-0.183,1.337-0.356,2.01-0.521
			c-0.299-0.513-0.598-1.027-0.896-1.541c-0.327,0.307-0.504,0.532-0.76,0.9c-0.47,0.676,0.307,1.662,1.073,1.396
			c0.5-0.173,1-0.347,1.5-0.52c-0.405-0.405-0.81-0.81-1.215-1.215c-0.038,0.141-0.077,0.281-0.115,0.421
			c-0.216,0.787,0.499,1.355,1.228,1.227c0.387-0.025,0.749-0.131,1.089-0.318c-0.263-0.622-0.524-1.244-0.787-1.866
			c-0.237,0.155-0.476,0.31-0.714,0.465c-0.94,0.611-0.358,2.234,0.787,1.868c0.495-0.158,0.741-0.299,1.116-0.658
			c0.718-0.688-0.014-2.05-0.996-1.71c-0.322,0.156-0.658,0.256-1.01,0.299c0.332,0.087,0.665,0.175,0.997,0.263
			c-0.084-0.092-0.167-0.183-0.251-0.275c0.088,0.333,0.176,0.665,0.264,0.997c0.12-0.848,0.947-1.43,0.4-2.363
			c-0.502-0.856-1.358-1.119-2.251-0.743c0.388,0.504,0.774,1.008,1.162,1.512c0.093-0.206,0.185-0.411,0.276-0.617
			c0.349-0.777-0.219-1.79-1.164-1.514c-0.252,0.074-0.504,0.147-0.757,0.221c0.266,0.628,0.53,1.257,0.795,1.886
			c0.43-0.218,0.857-0.437,1.286-0.655c1.194-0.609,0.146-2.373-1.045-1.788c-0.663,0.325-1.326,0.65-1.989,0.976
			c-1.109,0.545-0.299,2.134,0.802,1.902c0.421-0.089,0.842-0.178,1.263-0.267c-0.338-0.582-0.677-1.163-1.016-1.744
			c-0.667,0.544-1.334,1.088-2.002,1.632c-0.751,0.613-0.094,1.769,0.742,1.792c0.729,0.02,1.457,0.04,2.186,0.06
			c-0.178-0.655-0.354-1.31-0.532-1.965c-1.331,0.843-2.677,1.662-4.023,2.48c0.486,0.486,0.972,0.972,1.458,1.458
			c0.028-0.037,0.057-0.075,0.084-0.112c-0.307,0.176-0.613,0.352-0.92,0.528c0.047,0.004,0.093,0.009,0.14,0.014
			c-0.343-0.261-0.686-0.522-1.027-0.783c0.012,0.045,0.023,0.09,0.035,0.136c0.092-0.346,0.183-0.691,0.274-1.037
			c-0.032,0.034-0.064,0.067-0.097,0.102c0.503,0.502,1.005,1.005,1.508,1.508c0.267-0.283,0.467-0.541,0.684-0.864
			c0.488-0.73-0.178-1.541-0.923-1.607c-1.979-0.176-3.821,0.046-5.701,0.68c0.277,0.658,0.555,1.316,0.832,1.974
			c0.597-0.378,0.8-0.581,1.178-1.178c0.4-0.633-0.109-1.723-0.93-1.62c-0.801,0.1-1.535,0.234-2.309,0.474
			c0.438,0.439,0.878,0.878,1.316,1.317c0.234-0.831,0.97-1.422,0.816-2.349c-0.174-1.047-0.71-1.509-1.667-1.884
			c-1.278-0.5-1.817,1.546-0.564,2.045c0,0-0.601,1.449-0.649,1.619c-0.223,0.772,0.536,1.554,1.316,1.317
			c0.563-0.201,1.144-0.329,1.74-0.386c-0.31-0.54-0.62-1.08-0.93-1.62c-0.136,0.133-0.272,0.267-0.408,0.4
			c-1.007,0.63-0.365,2.381,0.832,1.974c1.705-0.58,3.337-0.778,5.127-0.626c-0.308-0.536-0.615-1.072-0.923-1.607
			c-0.115,0.145-0.23,0.29-0.346,0.435c-0.937,1.003,0.562,2.511,1.508,1.508c0.363-0.384,0.473-0.759,0.334-1.274
			c-0.131-0.49-0.552-0.738-1.027-0.783c-0.539-0.05-0.841,0.224-1.144,0.627c-0.66,0.88,0.597,1.986,1.458,1.458
			c1.342-0.825,2.684-1.65,4.012-2.499c0.882-0.564,0.535-1.94-0.532-1.965c-0.729-0.017-1.457-0.033-2.186-0.05
			c0.247,0.597,0.495,1.194,0.742,1.792c0.664-0.547,1.329-1.094,1.994-1.641c0.867-0.714-0.083-1.945-1.016-1.744
			c-0.42,0.091-0.841,0.182-1.261,0.272c0.267,0.634,0.534,1.268,0.802,1.902c0.661-0.328,1.322-0.656,1.983-0.985
			c-0.349-0.596-0.696-1.192-1.045-1.788c-0.428,0.221-0.854,0.441-1.282,0.661c-1.05,0.54-0.318,2.216,0.795,1.886
			c0.252-0.075,0.504-0.149,0.757-0.224c-0.389-0.504-0.776-1.009-1.164-1.514c-0.092,0.206-0.184,0.412-0.274,0.618
			c-0.438,0.984,0.437,1.821,1.408,1.408c-0.284,0.121-0.727-0.707-0.86,0.254c-0.058,0.412-0.182,0.831,0.044,1.216
			c0.604,1.03,1.468,0.775,2.419,0.443c-0.332-0.57-0.664-1.14-0.996-1.71c-0.07,0.045-0.142,0.09-0.212,0.135
			c0.263,0.623,0.524,1.245,0.787,1.868c0.238-0.156,0.476-0.311,0.714-0.467c1.116-0.731,0.153-2.305-1.031-1.763
			c-0.277,0.087-0.555,0.173-0.833,0.26c0.409,0.409,0.818,0.818,1.228,1.227c0.032-0.142,0.063-0.284,0.096-0.426
			c0.147-0.659-0.468-1.514-1.215-1.215c-0.493,0.197-0.986,0.395-1.48,0.591c0.358,0.465,0.716,0.931,1.073,1.396
			c0.141-0.185,0.281-0.37,0.422-0.555c0.613-0.649,0.016-1.822-0.896-1.541c-0.662,0.204-1.324,0.398-1.992,0.583
			c0.229,0.542,0.457,1.083,0.686,1.625c0.289-0.21,0.577-0.421,0.866-0.633c0.771-0.563,0.344-1.925-0.685-1.623
			c-0.804,0.236-1.606,0.447-2.423,0.636c0.228,0.539,0.455,1.078,0.682,1.617c0.599-0.443,1.113-0.884,1.617-1.439
			c0.705-0.777-0.172-1.786-1.069-1.386c-1.524,0.68-3.012,1.417-4.476,2.218c0.295,0.504,0.59,1.009,0.885,1.514
			c1.216-0.785,2.458-1.459,3.778-2.053c-0.293-0.501-0.586-1.002-0.879-1.504c-0.966,0.683-1.935,1.161-3.078,1.488
			c0.281,0.482,0.563,0.965,0.843,1.448c1.02-1.083,2.121-1.987,3.388-2.766c-0.29-0.496-0.579-0.991-0.869-1.486
			c-1.745,1.173-3.54,2.242-5.403,3.215c0.345,0.447,0.689,0.894,1.034,1.34c1.198-1.224,2.482-2.292,3.913-3.236
			c-0.343-0.443-0.685-0.886-1.026-1.33c-1.323,1.191-2.728,2.112-4.321,2.891c0.339,0.438,0.677,0.876,1.015,1.314
			c0.834-0.827,1.715-1.428,2.771-1.924c-0.27-0.461-0.539-0.922-0.809-1.383c-0.905,0.517-1.784,0.95-2.761,1.333
			c0.197,0.468,0.395,0.936,0.592,1.404c0.507-0.454,1.094-0.771,1.76-0.951c-0.191-0.455-0.383-0.909-0.574-1.363
			c-0.874,0.57-1.755,1.046-2.711,1.464c0.24,0.412,0.48,0.823,0.721,1.234c0.627-0.374,1.252-0.747,1.868-1.138
			s0.22-1.519-0.519-1.23c-0.658,0.257-1.315,0.515-1.974,0.772c0.224,0.292,0.448,0.583,0.672,0.874
			c0.223-0.301,0.445-0.603,0.668-0.903C106.605,31.026,105.754,30.373,105.347,30.859L105.347,30.859z"/>
	</g>
</g>
<g opacity="0.9">
	<g>
		<path fill="#737272" d="M6.689,21.122c-0.015,0.117-0.03,0.234-0.045,0.352c0.291-0.451-0.291-1.046-0.744-0.744
			c-0.414,0.276-0.827,0.553-1.24,0.829c-0.621,0.415-0.086,1.319,0.581,0.995c0.973-0.471,1.945-0.945,2.915-1.421
			c-0.259-0.336-0.519-0.672-0.778-1.009c-0.817,0.869-1.633,1.737-2.45,2.606c-0.58,0.617,0.146,1.396,0.848,1.099
			c1.192-0.492,2.375-1.007,3.548-1.543c-0.34-0.34-0.68-0.68-1.021-1.021c-0.418,0.444-0.836,0.888-1.254,1.332
			c-0.701,0.599,0.191,1.511,0.914,1.184c1.141-0.515,2.282-1.03,3.422-1.546c-0.311-0.402-0.622-0.805-0.932-1.208
			c-0.762,0.637-1.524,1.274-2.286,1.912c-0.674,0.48-0.287,1.752,0.603,1.43c1.65-0.599,3.301-1.198,4.952-1.797
			c-0.261-0.448-0.521-0.896-0.782-1.343c-0.906,0.879-1.812,1.758-2.718,2.637c-0.567,0.549,0.008,1.65,0.797,1.369
			c1.504-0.536,3.009-1.071,4.514-1.607c-0.272-0.467-0.544-0.935-0.816-1.401c-0.538,0.601-1.075,1.201-1.613,1.801
			c-0.542,0.605-0.028,1.677,0.826,1.418c1.509-0.458,2.912-0.994,4.345-1.639c-0.35-0.454-0.7-0.907-1.05-1.361
			c-0.852,0.882-1.703,1.765-2.553,2.647c-0.563,0.584-0.005,1.827,0.856,1.472c1.699-0.7,3.398-1.399,5.097-2.099
			c-0.288-0.495-0.576-0.989-0.864-1.484c-1.035,0.843-2.069,1.686-3.104,2.529c-0.837,0.682,0.228,1.809,1.082,1.402
			c1.871-0.891,3.741-1.782,5.612-2.672c-0.364-0.472-0.728-0.943-1.091-1.415c-1.148,1.14-2.38,2.182-3.698,3.126
			c-0.747,0.563-0.339,2.069,0.699,1.658c2.127-0.841,4.253-1.683,6.38-2.524c-0.297-0.51-0.594-1.021-0.891-1.531
			c-0.959,1.001-2.024,1.879-3.193,2.634c-0.975,0.682-0.145,2.11,0.93,1.592c2.271-1.096,4.543-2.191,6.814-3.287
			c-0.313-0.536-0.626-1.072-0.939-1.608c-1.53,0.977-3.061,1.953-4.591,2.93c-1.021,0.652-0.127,2.178,0.947,1.62
			c1.7-0.884,3.371-1.644,5.167-2.335c-0.243-0.576-0.486-1.152-0.729-1.728c-1.694,1.211-3.243,2.505-4.722,3.977
			c-0.806,0.802,0.21,1.932,1.151,1.492c2.69-1.258,5.38-2.516,8.069-3.774c-0.382-0.496-0.765-0.992-1.148-1.488
			c-1.57,1.32-3.044,2.697-4.468,4.173c-0.774,0.803,0.198,1.945,1.146,1.486c2.337-1.133,4.398-2.492,6.383-4.156
			c0.845-0.708-0.236-1.99-1.144-1.482c-2.171,1.213-3.827,2.61-5.372,4.573c-0.609,0.774,0.179,2.129,1.142,1.479
			c2.406-1.624,4.765-3.302,7.087-5.044c-0.379-0.492-0.759-0.984-1.139-1.476c-1.922,1.864-3.899,3.584-6.033,5.21
			c-0.943,0.719-0.037,2.341,0.946,1.619c2.768-2.032,5.535-4.064,8.302-6.096c0.954-0.7,0.062-2.306-0.943-1.614
			c-2.223,1.528-3.938,3.286-5.401,5.553c-0.522,0.81,0.489,1.721,1.276,1.276c3.047-1.719,6.094-3.438,9.142-5.156
			c-0.313-0.536-0.626-1.072-0.939-1.607c-2.562,1.794-5.048,3.393-8.09,4.272c0.304,0.522,0.608,1.045,0.913,1.567
			c1.44-1.582,2.879-3.164,4.319-4.747c0.625-0.688,0.022-1.825-0.917-1.575c-1.698,0.451-3.396,0.903-5.093,1.354
			c0.243,0.577,0.486,1.153,0.729,1.729c0.975-0.907,2.141-1.448,3.497-1.625c-0.244-0.579-0.488-1.157-0.731-1.735
			c-1.436,1.101-2.617,2.183-3.804,3.569c-0.582,0.679-0.047,1.901,0.927,1.593c2.257-0.715,4.515-1.43,6.773-2.146
			c-0.246-0.583-0.492-1.167-0.738-1.751c-2.752,2.088-5.504,4.176-8.257,6.264c-0.794,0.603-0.37,2.187,0.744,1.765
			c1.708-0.647,3.416-1.293,5.123-1.94c-0.249-0.591-0.498-1.182-0.747-1.772c-0.84,0.701-1.748,1.297-2.724,1.791
			c-0.937,0.542-0.293,2.225,0.756,1.792c0.883-0.364,1.767-0.728,2.65-1.093c-0.323-0.554-0.646-1.108-0.968-1.662
			c-0.636,0.505-1.272,1.01-1.908,1.515c-1.061,0.762-0.168,2.279,1.018,1.74c0.664-0.302,1.328-0.604,1.993-0.905
			c-0.343-0.586-0.686-1.172-1.028-1.759c-0.425,0.209-0.851,0.418-1.277,0.628c0.345,0.59,0.69,1.18,1.035,1.771
			c2.059-1.234,4.118-2.468,6.178-3.702c-0.357-0.61-0.713-1.221-1.07-1.831c-0.717,0.524-1.483,0.964-2.297,1.319
			c0.36,0.616,0.721,1.232,1.081,1.849c1.849-1.049,3.519-2.222,5.149-3.577c0.938-0.78-0.292-2.356-1.299-1.683
			c-1.813,1.212-3.564,2.487-5.285,3.826c0.506,0.506,1.012,1.012,1.518,1.518c2.248-1.827,4.378-3.742,6.433-5.784
			c0.714-0.71-0.006-2.214-1.046-1.797c-2.115,0.849-4.146,1.792-6.149,2.885c0.435,0.563,0.87,1.127,1.305,1.69
			c1.232-1.056,2.571-1.942,4.018-2.661c1.221-0.674,0.141-2.498-1.088-1.86c-1.09,0.565-2.18,1.131-3.269,1.697
			c0.363,0.621,0.725,1.242,1.088,1.862c1.702-1.171,3.412-2.121,5.305-2.947c-0.436-0.565-0.872-1.13-1.308-1.695
			c-2.274,1.961-4.548,3.923-6.822,5.884c-0.974,0.841,0.266,2.229,1.31,1.698c3.767-1.915,7.292-4.103,10.679-6.628
			c-0.438-0.567-0.875-1.134-1.312-1.701c-2.856,2.251-5.712,4.502-8.567,6.754c-0.981,0.773,0.282,2.331,1.314,1.703
			c3.268-1.988,6.488-4.043,9.667-6.169c-0.366-0.625-0.731-1.25-1.097-1.876c-3.024,2.092-5.849,4.184-8.142,7.095
			c-0.702,0.891,0.211,2.466,1.318,1.708c3.528-2.415,7.055-4.831,10.583-7.246c-0.367-0.627-0.733-1.254-1.1-1.882
			c-3.22,2.314-6.316,4.75-9.314,7.345c-0.915,0.792,0.331,2.427,1.3,1.686c3.724-2.846,7.571-5.456,11.6-7.85
			c-0.35-0.599-0.701-1.199-1.051-1.798c-3.662,2.197-7.136,4.609-10.491,7.248c-0.871,0.685,0.084,1.97,1.014,1.742
			c5.021-1.232,9.531-5.211,13.758-8.062c1.104-0.745,0.115-2.498-1.054-1.803c-3.186,1.895-5.995,4.088-8.606,6.722
			c-0.823,0.83,0.252,2.298,1.266,1.641c2.877-1.866,5.755-3.731,8.633-5.597c-0.352-0.602-0.704-1.204-1.056-1.806
			c-3.08,2.11-6.038,4.348-8.91,6.732c-0.938,0.779,0.264,2.218,1.269,1.644c2.755-1.573,5.51-3.146,8.265-4.719
			c-0.353-0.603-0.705-1.207-1.058-1.81c-1.596,1.12-3.192,2.24-4.788,3.36c-1.102,0.773-0.161,2.42,1.059,1.811
			c1.58-0.79,3.16-1.58,4.74-2.37c-0.353-0.604-0.706-1.208-1.059-1.812c-1.447,0.815-2.793,1.679-4.137,2.655
			c-0.888,0.646-0.384,2.377,0.809,1.918c1.811-0.697,3.473-1.512,5.119-2.552c1.159-0.732,0.153-2.384-1.06-1.813
			c-1.182,0.557-2.021,1.155-2.951,2.046c-0.826,0.792,0.055,1.91,1.022,1.755c1.01-0.093,1.989-0.319,2.937-0.678
			c-0.341-0.585-0.681-1.17-1.022-1.755c-0.229,0.284-0.458,0.568-0.687,0.852c0.55,0.071,1.1,0.142,1.649,0.213
			c-0.441-0.046-0.882-0.092-1.323-0.137c-0.667,0.774-0.044,2.027,1.019,1.75c0.472-0.123,0.944-0.246,1.416-0.369
			c0.734-0.191,1.05-1.219,0.461-1.748c0.739,0.664,0.527-1.447,0.523-1.465c-0.068-0.342-0.397-0.647-0.729-0.729
			c-0.121-0.03-0.242-0.06-0.363-0.089c0.153,0.581,0.307,1.162,0.46,1.744c0.302-0.345,0.605-0.689,0.908-1.033
			c0.558-0.635,0.277-1.438-0.46-1.741c-0.363-0.15-0.726-0.3-1.088-0.449c0.207,0.509,0.415,1.019,0.622,1.529
			c0.232-0.385,0.465-0.771,0.697-1.156c0.354-0.587,0.013-1.335-0.621-1.527c-0.277-0.083-0.555-0.167-0.833-0.251
			c0.242,0.426,0.484,0.852,0.726,1.277c0.08-0.24,0.16-0.48,0.239-0.721c0.316-0.951-0.766-1.514-1.524-1.172
			c-2.86,1.292-5.047,0.932-8.286,1.322c-4.687,0.565-9.312,1.423-13.899,2.534c0.262,0.622,0.524,1.243,0.787,1.865
			c0.311-0.212,0.622-0.424,0.933-0.636c1.092-0.744,0.156-2.333-1.03-1.763c-1.799,0.866-3.058,1.832-4.369,3.338
			c-0.53,0.609-0.24,1.832,0.724,1.748c1.862-0.162,3.671-0.224,5.54-0.19c-0.244-0.59-0.489-1.18-0.733-1.77
			c-0.915,1.173-1.837,2.143-2.961,3.117c-0.85,0.735,0.07,1.949,1.019,1.75c1.241-0.26,2.481-0.52,3.723-0.78
			c-0.342-0.588-0.685-1.176-1.027-1.765c-0.426,0.462-0.853,0.924-1.279,1.387c-0.697,0.755-0.024,2.086,1.031,1.771
			c6.13-1.824,12.321-3.206,18.631-4.242c-0.194-0.704-0.388-1.408-0.582-2.111c-4.393,1.605-9.457,0.044-14.071,0.817
			c-4.572,0.767-8.673,2.253-12.703,4.524c-0.931,0.524-0.452,1.826,0.513,1.894c0.453,0.032,0.906,0.064,1.359,0.096
			c-0.241-0.581-0.481-1.162-0.722-1.743c-0.298,0.379-0.596,0.758-0.893,1.137c-0.694,0.883,0.156,2.202,1.243,1.611
			c0.312-0.169,0.623-0.339,0.935-0.509c1.013-0.551,0.317-2.276-0.793-1.881c-0.519,0.185-1.037,0.369-1.555,0.553
			c0.424,0.241,0.849,0.482,1.273,0.723c-0.112-0.355-0.224-0.71-0.335-1.065c-0.179-0.567-0.707-0.841-1.278-0.725
			c-0.96,0.119-1.921,0.237-2.881,0.356c0.337,0.443,0.675,0.886,1.012,1.329c0.125-0.313,0.251-0.625,0.376-0.938
			c0.317-0.79-0.592-1.463-1.295-1.295c-0.517,0.123-1.034,0.246-1.551,0.37c0.343,0.589,0.687,1.179,1.03,1.769
			c0.325-0.406,0.649-0.812,0.974-1.217c0.592-0.739,0.076-2.183-1.035-1.778c-0.637,0.232-1.274,0.465-1.911,0.698
			c0.403,0.524,0.806,1.048,1.209,1.573c0.231-0.362,0.462-0.724,0.693-1.086c0.631-0.989-0.565-1.886-1.471-1.471
			c-1.269,0.582-3.444-0.128-4.946,0.433c0.442,0.442,0.885,0.885,1.327,1.327c0.171-0.311,0.342-0.622,0.514-0.932
			c0.506-0.648,0.29-1.938-0.763-1.841c-0.4,0.037-0.8,0.073-1.201,0.11c0.346,0.455,0.693,0.909,1.039,1.364
			c0.117-0.33,0.233-0.66,0.35-0.99c0.253-0.72-0.576-1.638-1.326-1.326c-0.175,0.073-5.549-0.086-5.531-0.258
			c0.058-0.53-0.535-1.145-1.074-1.074c-0.744,0.134-1.494,0.196-2.25,0.184c0.345,0.453,0.689,0.905,1.035,1.358
			c0.086-0.264,0.173-0.527,0.26-0.791c0.303-0.919-0.791-1.66-1.576-1.211c-0.354,0.203-2.134,0.17-2.538,0.273
			c0.439,0.439,0.878,0.878,1.317,1.317c0.058-0.404,0.115-0.808,0.173-1.212c0.111-0.775-0.454-1.557-1.317-1.317
			c-0.7,0.194-1.399,0.388-2.099,0.582c0.402,0.524,0.805,1.048,1.208,1.572c0.162-0.329,0.324-0.659,0.486-0.988
			c0.488-0.993-0.482-1.925-1.463-1.463c-0.52,0.245-1.039,0.49-1.558,0.735c0.536,0.308,1.072,0.615,1.608,0.923
			c-0.045-0.416-0.09-0.832-0.136-1.248c-0.092-0.853-0.825-1.267-1.607-0.922c-1.893,0.834-1.737-0.227-3.004,1.136
			c-0.826,0.888,0.218,2.271,1.293,1.675c0.42-0.233,0.841-0.466,1.262-0.7c-0.535-0.307-1.069-0.614-1.604-0.92
			c0,0.38-0.001,0.76-0.002,1.141c-0.001,0.534,0.488,1.127,1.066,1.066c1.614-0.173,1.525-0.075,2.839-1.035
			c-0.43-0.558-0.86-1.115-1.29-1.672c-0.204,0.164-0.409,0.329-0.613,0.493c0.501,0.501,1.003,1.003,1.505,1.505
			c0.215-0.241,0.431-0.481,0.646-0.722c0.922-1.031-0.465-2.391-1.505-1.505c-0.207,0.177-0.415,0.353-0.622,0.53
			c0.592,0.345,1.185,0.69,1.777,1.035c0.039-0.225,0.078-0.45,0.116-0.675c0.12-0.7-0.477-1.643-1.308-1.308
			c-0.28,0.113-0.56,0.226-0.84,0.338c0.449,0.342,0.897,0.683,1.346,1.025c0.018-0.24,0.035-0.48,0.052-0.721
			c0.053-0.72-0.714-1.168-1.345-1.025c-0.403,0.092-0.807,0.184-1.21,0.275c0.4,0.521,0.799,1.041,1.199,1.561
			c0.13-0.254,0.26-0.508,0.39-0.762c0.277-0.542,0.085-1.461-0.635-1.56c-0.21-0.029-0.419-0.058-0.629-0.086
			c0.211,0.52,0.423,1.04,0.634,1.559c0.161-0.299,0.321-0.599,0.482-0.898c0.306-0.571,0.062-1.414-0.634-1.559
			c-0.568,1.154-0.275,1.695,0.879,1.623c1.655,0.404,3.31,0.807,4.965,1.21c1.264,0.308,4.158,1.65,5.543,0.919
			c1.479-0.78,6.096,1.153,7.654,1.496c2.424,0.533,4.818,0.02,7.108-0.749c1.314-0.441,0.75-2.53-0.574-2.084
			c-5.316,1.792-8.958-1.039-14.003-1.039c-4.095,0-8.139-1.319-12.151-2.291C5.715,19.149,5.2,19.32,4.97,19.746
			c-0.067,0.124-0.134,0.248-0.202,0.372c-0.177,0.328-0.206,0.745,0,1.07c0.423,0.67,0.629,0.868,1.413,1.031
			C5.97,21.7,5.759,21.18,5.547,20.661c-0.161,0.299-0.322,0.599-0.483,0.898c-0.29,0.539-0.076,1.461,0.634,1.559
			c0.21,0.029,0.419,0.058,0.629,0.087c-0.211-0.52-0.423-1.04-0.635-1.56c-0.13,0.254-0.26,0.508-0.39,0.762
			c-0.431,0.841,0.268,1.771,1.199,1.561c0.404-0.091,0.808-0.183,1.211-0.274c-0.449-0.342-0.897-0.683-1.345-1.025
			c-0.018,0.24-0.036,0.48-0.053,0.721c-0.047,0.642,0.725,1.274,1.346,1.025c0.28-0.112,0.56-0.225,0.84-0.337
			c-0.436-0.436-0.872-0.872-1.308-1.308c-0.039,0.225-0.078,0.45-0.116,0.675c-0.184,1.063,0.938,1.749,1.777,1.035
			c0.208-0.176,0.415-0.353,0.623-0.529c-0.501-0.501-1.003-1.003-1.505-1.505c-0.215,0.241-0.431,0.481-0.646,0.722
			c-0.934,1.042,0.45,2.352,1.505,1.505c0.205-0.164,0.409-0.328,0.614-0.492c0.94-0.754-0.316-2.383-1.29-1.672
			c-0.588,0.248-1.177,0.495-1.765,0.742c0.355,0.355,0.71,0.71,1.066,1.066c0.001-0.38,0.002-0.76,0.003-1.141
			c0.002-0.823-0.903-1.309-1.604-0.92c-0.421,0.233-0.842,0.466-1.263,0.699c0.431,0.558,0.862,1.117,1.293,1.675
			c-0.15,0.161,2.781-0.891,2.574-0.8c-0.536-0.308-1.071-0.615-1.607-0.922c0.044,0.416,0.089,0.832,0.134,1.248
			c0.09,0.837,0.831,1.289,1.608,0.923c0.52-0.245,1.039-0.489,1.558-0.734c-0.487-0.488-0.975-0.976-1.463-1.463
			c-0.162,0.329-0.325,0.658-0.487,0.987C7.8,24.684,8.456,25.703,9.41,25.439c0.7-0.193,1.4-0.387,2.1-0.581
			c-0.439-0.439-0.878-0.878-1.317-1.317c-0.058,0.404-0.116,0.808-0.174,1.212c-0.114,0.79,0.454,1.537,1.317,1.317
			c0.313,0.034,0.626,0.067,0.939,0.101c0.313,0.213,0.766,0.18,1.082,0c0.343-0.196,0.687-0.392,1.03-0.587
			c-0.525-0.404-1.05-0.808-1.576-1.211c-0.087,0.264-0.174,0.527-0.261,0.791c-0.215,0.653,0.36,1.379,1.035,1.358
			c0.756,0.013,1.506-0.048,2.25-0.182c-0.358-0.358-0.716-0.716-1.074-1.074c-0.046,0.421-0.093,0.842-0.139,1.264
			c-0.05,0.454,0.363,0.938,0.789,1.036c2.213,0.509,5.474,0.922,7.602,0.036c-0.442-0.442-0.884-0.884-1.326-1.326
			c-0.117,0.33-0.233,0.66-0.35,0.99c-0.221,0.625,0.366,1.425,1.039,1.364c0.4-0.036,0.8-0.072,1.201-0.109
			c-0.254-0.613-0.508-1.227-0.763-1.841c-0.565,0.722-0.745,1.025-1.069,1.884c-0.28,0.742,0.587,1.603,1.327,1.327
			c2.01-0.749,3.598,0.21,5.458-0.657c-0.49-0.49-0.98-0.98-1.471-1.471c-0.229,0.363-0.457,0.727-0.685,1.09
			c-0.476,0.756,0.317,1.906,1.209,1.573c0.636-0.237,1.271-0.474,1.907-0.71c-0.345-0.593-0.69-1.186-1.035-1.778
			c-0.322,0.408-0.645,0.816-0.967,1.224c-0.632,0.8-0.075,2.041,1.03,1.769c0.516-0.126,1.032-0.253,1.548-0.38
			c-0.432-0.432-0.863-0.863-1.295-1.295c-0.124,0.313-0.247,0.627-0.371,0.94c-0.245,0.622,0.378,1.363,1.012,1.329
			c1.621-0.088,1.846-0.119,3.434-0.453c-0.426-0.242-0.852-0.483-1.278-0.725c0.114,0.354,0.228,0.708,0.342,1.062
			c0.162,0.503,0.726,0.922,1.273,0.723c0.518-0.188,1.035-0.376,1.552-0.564c-0.264-0.627-0.529-1.254-0.793-1.881
			c-0.31,0.171-0.621,0.343-0.931,0.515c0.414,0.537,0.829,1.074,1.243,1.611c0.295-0.381,0.591-0.763,0.886-1.144
			c0.545-0.703,0.231-1.682-0.722-1.743c-0.453-0.029-0.906-0.057-1.359-0.086c0.171,0.631,0.342,1.262,0.513,1.894
			c4.788-2.74,9.768-4.179,15.269-4.501c3.809-0.223,7.375,0.836,11.062-0.483c1.348-0.482,0.8-2.33-0.582-2.111
			c-6.312,0.998-12.499,2.458-18.613,4.309c0.344,0.59,0.688,1.181,1.031,1.771c0.424-0.464,0.849-0.928,1.273-1.393
			c0.728-0.796,0.012-1.987-1.027-1.765c-1.239,0.266-2.479,0.532-3.718,0.798c0.339,0.583,0.679,1.167,1.019,1.75
			c1.195-1.044,2.146-2.094,3.109-3.341c0.504-0.653-0.189-1.551-0.895-1.56c-1.869-0.025-3.679,0.045-5.54,0.216
			c0.241,0.583,0.482,1.166,0.724,1.748c1.141-1.324,2.376-2.266,3.951-3.023c-0.343-0.587-0.687-1.175-1.03-1.763
			c-0.311,0.212-0.622,0.424-0.933,0.636c-0.947,0.645-0.371,2.146,0.787,1.865c2.753-0.667,5.515-1.238,8.305-1.725
			c1.733-0.302,7.983-2.177,9.63-0.896c0.405,0.315,0.779,0.375,1.253,0.162c1.167-0.524,2.335-1.049,3.502-1.573
			c-0.508-0.391-1.017-0.781-1.524-1.172c-0.081,0.24-0.161,0.48-0.241,0.721c-0.183,0.547,0.207,1.12,0.726,1.277
			c0.277,0.084,0.554,0.168,0.832,0.253c-0.207-0.509-0.414-1.018-0.621-1.527c-0.233,0.385-0.466,0.77-0.699,1.154
			c-0.382,0.631,0.021,1.279,0.622,1.529c0.363,0.15,0.725,0.301,1.088,0.451c-0.153-0.58-0.307-1.161-0.46-1.741
			c-0.303,0.344-0.606,0.688-0.91,1.031c-0.499,0.566-0.343,1.544,0.46,1.744c-1.139-0.283-1.373,0.833-0.355,1.75
			c0.154-0.583,0.308-1.165,0.461-1.748c-0.473,0.122-0.945,0.244-1.417,0.366c0.339,0.583,0.679,1.167,1.019,1.75
			c0.166-0.192,0.332-0.383,0.498-0.575c0.31-0.359,0.417-0.842,0.164-1.27c-0.129-0.218-0.258-0.437-0.387-0.655
			c-0.225-0.38-0.746-0.642-1.184-0.482c-1.298,0.473-1.75,1.447-1.062,2.698c0.302,0.55,1.225,0.739,1.649,0.213
			c0.229-0.284,0.458-0.568,0.687-0.852c0.614-0.76,0.073-2.088-1.022-1.755c-0.948,0.358-1.927,0.584-2.937,0.678
			c0.341,0.585,0.681,1.17,1.022,1.755c0.707-0.786,1.548-1.359,2.525-1.719c-0.353-0.604-0.707-1.208-1.06-1.813
			c-1.51,0.955-2.929,1.69-4.617,2.341c0.27,0.639,0.539,1.278,0.809,1.918c1.344-0.977,2.689-1.84,4.136-2.656
			c1.187-0.669,0.142-2.412-1.059-1.812c-1.58,0.791-3.16,1.581-4.74,2.371c0.353,0.604,0.706,1.207,1.059,1.811
			c1.596-1.121,3.191-2.241,4.787-3.361c1.09-0.765,0.134-2.49-1.058-1.81c-2.754,1.574-5.509,3.147-8.264,4.721
			c0.423,0.548,0.846,1.096,1.269,1.644c2.736-2.272,5.553-4.397,8.485-6.407c1.101-0.754,0.085-2.546-1.056-1.806
			c-2.877,1.866-5.754,3.732-8.632,5.598c0.422,0.547,0.844,1.094,1.266,1.641c2.475-2.498,5.157-4.597,8.182-6.397
			c-0.351-0.601-0.703-1.202-1.054-1.803c-4.017,2.71-8.486,6.683-13.258,7.854c0.338,0.581,0.676,1.161,1.014,1.742
			c3.219-2.532,6.559-4.817,10.068-6.924c1.149-0.69,0.106-2.486-1.051-1.798c-4.023,2.392-7.893,4.979-11.632,7.794
			c0.433,0.562,0.867,1.124,1.3,1.686c2.873-2.45,5.831-4.776,8.896-6.981c1.124-0.808,0.07-2.683-1.1-1.882
			c-3.527,2.417-7.054,4.833-10.581,7.25c0.439,0.569,0.878,1.139,1.318,1.708c2.167-2.752,4.833-4.772,7.701-6.757
			c1.14-0.789,0.076-2.66-1.097-1.876c-3.179,2.128-6.398,4.183-9.666,6.172c0.438,0.568,0.876,1.136,1.314,1.703
			c2.855-2.252,5.71-4.504,8.565-6.756c0.962-0.759-0.329-2.435-1.312-1.701c-3.387,2.527-6.911,4.716-10.677,6.631
			c0.437,0.566,0.873,1.132,1.31,1.698c2.273-1.962,4.546-3.925,6.819-5.887c1.006-0.868-0.274-2.147-1.308-1.695
			c-1.892,0.827-3.602,1.778-5.303,2.949c-1.139,0.784-0.156,2.509,1.088,1.862c1.09-0.566,2.179-1.133,3.269-1.699
			c-0.363-0.62-0.725-1.24-1.088-1.86c-1.617,0.894-3.016,1.853-4.452,2.999c-0.988,0.789,0.272,2.254,1.305,1.69
			c1.849-1.009,3.668-1.881,5.634-2.67c-0.349-0.599-0.697-1.198-1.046-1.797c-2.053,2.042-4.183,3.959-6.43,5.787
			c-1.083,0.881,0.447,2.351,1.518,1.518c1.583-1.232,3.186-2.379,4.85-3.493c-0.433-0.561-0.866-1.122-1.299-1.683
			c-1.528,1.271-3.006,2.273-4.715,3.244c-1.207,0.686-0.142,2.474,1.081,1.849c0.813-0.359,1.575-0.805,2.286-1.337
			c1.129-0.75,0.105-2.551-1.07-1.831c-2.047,1.254-4.095,2.508-6.143,3.763c-1.135,0.695-0.14,2.362,1.035,1.771
			c0.423-0.213,0.847-0.426,1.27-0.64c1.183-0.596,0.147-2.306-1.028-1.759c-0.661,0.308-1.321,0.615-1.982,0.923
			c0.339,0.58,0.678,1.16,1.018,1.74c0.945-0.693,1.421-1.069,2.296-1.849c0.92-0.818-0.25-1.967-1.205-1.562
			c-0.879,0.374-1.759,0.746-2.639,1.119c0.33,0.564,0.66,1.129,0.99,1.693c0.97-0.505,1.874-1.108,2.712-1.809
			c0.805-0.603,0.367-2.196-0.747-1.772c-1.707,0.649-3.414,1.299-5.121,1.948c0.248,0.588,0.496,1.177,0.744,1.765
			c2.75-2.092,5.5-4.185,8.249-6.277c0.802-0.61,0.382-2.108-0.738-1.751c-2.256,0.718-4.513,1.437-6.77,2.155
			c0.309,0.531,0.618,1.062,0.927,1.593c0.968-1.262,2.106-2.354,3.415-3.277c0.825-0.634,0.382-1.993-0.731-1.735
			c-1.576,0.364-2.624,0.833-3.947,1.822c-0.821,0.613-0.375,2.024,0.729,1.729c1.697-0.454,3.395-0.907,5.091-1.361
			c-0.306-0.525-0.611-1.05-0.917-1.575c-1.437,1.584-2.875,3.169-4.312,4.753c-0.611,0.673-0.026,1.84,0.913,1.567
			c3.204-0.932,5.81-2.562,8.53-4.474c0.969-0.68,0.122-2.206-0.939-1.607c-3.048,1.718-6.096,3.435-9.144,5.152
			c0.425,0.426,0.851,0.851,1.276,1.276c1.38-2.138,2.634-3.438,4.733-4.88c-0.314-0.538-0.629-1.076-0.943-1.614
			c-2.769,2.03-5.537,4.061-8.305,6.091c0.315,0.54,0.631,1.08,0.946,1.619c2.252-1.715,4.38-3.529,6.416-5.5
			c0.75-0.727-0.271-2.126-1.139-1.476c-2.323,1.74-4.683,3.417-7.09,5.04c0.381,0.493,0.761,0.986,1.142,1.479
			c1.418-1.799,2.976-3.148,4.993-4.275c-0.381-0.494-0.763-0.988-1.144-1.482c-1.895,1.587-3.794,2.788-6.003,3.857
			c0.382,0.495,0.764,0.991,1.146,1.486c1.425-1.476,2.9-2.852,4.47-4.171c0.881-0.74-0.239-1.913-1.148-1.488
			c-2.691,1.257-5.381,2.514-8.072,3.771c0.384,0.498,0.768,0.995,1.151,1.492c1.379-1.371,2.74-2.542,4.333-3.688
			c0.806-0.579,0.343-2.143-0.729-1.728c-1.925,0.746-3.78,1.58-5.612,2.538c0.316,0.54,0.631,1.08,0.947,1.62
			c1.528-0.98,3.056-1.961,4.583-2.941c1.019-0.654,0.135-2.13-0.939-1.608c-2.268,1.102-4.536,2.203-6.804,3.303
			c0.31,0.531,0.62,1.061,0.93,1.592c1.284-0.903,2.425-1.835,3.559-2.931c0.623-0.602-0.012-1.881-0.891-1.531
			c-2.125,0.847-4.25,1.694-6.375,2.541c0.233,0.553,0.466,1.105,0.699,1.658c1.425-1.08,2.751-2.188,4.055-3.419
			c0.785-0.74-0.209-1.837-1.091-1.415c-1.868,0.895-3.736,1.79-5.604,2.686c0.361,0.467,0.721,0.935,1.082,1.402
			c1.032-0.846,2.064-1.691,3.097-2.536c0.668-0.547-0.05-1.822-0.864-1.484c-1.698,0.704-3.396,1.408-5.093,2.112
			c0.285,0.491,0.571,0.981,0.856,1.472c0.845-0.889,1.689-1.778,2.534-2.667c0.71-0.748-0.179-1.762-1.05-1.361
			c-1.261,0.626-2.568,1.126-3.921,1.5c0.275,0.473,0.55,0.945,0.826,1.418c0.533-0.605,1.066-1.21,1.599-1.816
			c0.509-0.578,0.033-1.711-0.816-1.401c-1.501,0.548-3.002,1.097-4.503,1.645c0.266,0.456,0.531,0.913,0.797,1.369
			c0.899-0.886,1.798-1.772,2.696-2.658c0.544-0.538-0.004-1.632-0.782-1.343c-1.646,0.613-3.293,1.226-4.94,1.838
			c0.201,0.477,0.402,0.953,0.603,1.43c1.422-1.029,1.333-0.942,2.584-2.174c0.658-0.648-0.172-1.559-0.932-1.208
			c-1.135,0.524-2.271,1.049-3.407,1.573c0.304,0.395,0.609,0.789,0.914,1.184c0.867-0.752,0.809-0.711,1.476-1.645
			c0.482-0.675-0.416-1.294-1.021-1.021c-1.177,0.52-2.344,1.061-3.501,1.623c0.283,0.366,0.565,0.732,0.848,1.099
			c0.79-0.896,1.58-1.792,2.369-2.687c0.48-0.545-0.121-1.362-0.778-1.009c-0.951,0.509-1.9,1.021-2.848,1.536
			c0.194,0.332,0.387,0.664,0.581,0.995c0.403-0.295,0.805-0.591,1.208-0.886c-0.248-0.248-0.496-0.496-0.744-0.744
			c-0.216,0.369-0.432,0.738-0.647,1.107c-0.265,0.453,0.257,0.955,0.705,0.705c0.47-0.262,0.94-0.524,1.41-0.786
			C7.718,21.647,7.238,20.846,6.689,21.122L6.689,21.122z"/>
	</g>
</g>
<g opacity="0.9">
	<g>
		<path fill="#777575" d="M15.154,9.978c0.346-0.064,0.692-0.127,1.039-0.191c-0.188-0.244-0.375-0.488-0.563-0.732
			c-0.217,0.234-0.434,0.467-0.651,0.701c-0.527,0.37-0.06,1.214,0.513,0.876c0.487-0.331,1.007-0.595,1.562-0.792
			c-0.175-0.3-0.35-0.6-0.525-0.899c-0.282,0.217-0.563,0.434-0.845,0.65c-0.539,0.415-0.098,1.194,0.533,0.913
			c0.716-0.351,1.462-0.607,2.239-0.769c-0.141-0.333-0.281-0.667-0.422-1c-0.905,0.527-1.61,1.069-2.346,1.8
			c-0.394,0.391,0.005,1.238,0.581,0.997c1.463-0.611,2.817-1.302,4.151-2.169c0.6-0.39,0.22-1.499-0.511-1.211
			c-1.968,0.775-3.789,1.718-5.543,2.906c-0.75,0.509-0.092,1.672,0.716,1.225c1.621-0.899,3.118-1.936,4.608-3.035
			c0.755-0.557,0.066-1.821-0.752-1.286c-1.241,0.813-2.415,1.683-3.558,2.626c-0.718,0.592,0.196,1.512,0.918,1.19
			c2.225-0.991,4.405-2.053,6.556-3.195c-0.263-0.449-0.525-0.898-0.788-1.348c-1.536,0.859-2.977,1.804-4.376,2.87
			c-0.819,0.624-0.145,1.792,0.805,1.377c2.195-0.96,4.258-2.086,6.252-3.415c0.881-0.587,0.12-1.888-0.827-1.415
			c-1.622,0.81-3.244,1.619-4.866,2.429c-0.981,0.49-0.122,1.865,0.845,1.444c2.109-0.918,4.219-1.836,6.328-2.755
			c-0.289-0.494-0.578-0.988-0.866-1.481c-2.245,1.222-4.426,2.531-6.56,3.937c-0.974,0.642-0.135,1.958,0.891,1.523
			c2.928-1.241,5.729-2.712,8.526-4.22c-0.301-0.515-0.602-1.029-0.902-1.544c-1.499,0.865-2.999,1.73-4.498,2.595
			c-1.006,0.581-0.116,2.083,0.905,1.549c1.859-0.972,3.718-1.942,5.577-2.914c-0.303-0.518-0.606-1.037-0.909-1.555
			c-1.627,1.096-3.255,2.192-4.883,3.288c-0.969,0.652-0.134,2.077,0.912,1.561c1.391-0.687,2.782-1.373,4.173-2.06
			c-0.305-0.521-0.609-1.043-0.914-1.564c-1.525,0.947-3.05,1.894-4.574,2.841c-1.003,0.623-0.127,2.089,0.917,1.569
			c1.631-0.812,3.273-1.551,4.968-2.225c-0.295-0.508-0.591-1.016-0.887-1.524c-0.572,0.688-1.255,1.246-2.049,1.676
			c-0.847,0.528-0.301,2.041,0.704,1.669c0.903-0.334,1.802-0.625,2.729-0.883c-0.297-0.51-0.593-1.02-0.89-1.529
			c-0.421,0.372-0.843,0.743-1.264,1.115c-0.663,0.584,0.035,1.874,0.891,1.531c0.582-0.26,1.18-0.474,1.795-0.641
			c-0.345-0.449-0.69-0.898-1.035-1.347c-0.133,0.186-0.266,0.372-0.398,0.558c-0.594,0.832,0.512,1.589,1.255,1.255
			c0.248-0.111,0.496-0.223,0.744-0.334c-0.309-0.528-0.618-1.057-0.927-1.585c-0.382,0.18-0.765,0.36-1.148,0.541
			c0.418,0.419,0.837,0.838,1.256,1.256c0.46-0.577,0.88-1.182,1.26-1.813c0.414-0.64-0.148-1.316-0.794-1.384
			c-0.438-0.046-0.876-0.092-1.314-0.139c0.265,0.462,0.53,0.923,0.794,1.385c0.37-0.696,0.805-1.349,1.305-1.959
			c0.74-0.569,0.358-1.981-0.689-1.635c-0.297,0.098-0.594,0.196-0.891,0.294c-1.077,0.356-0.641,2.002,0.471,1.708
			c0.161-0.043,0.321-0.085,0.482-0.128c1.099-0.292,0.634-1.967-0.468-1.698c-0.162,0.04-0.323,0.079-0.485,0.118
			c0.157,0.569,0.314,1.139,0.471,1.708c0.298-0.092,0.597-0.184,0.896-0.276C30.57,6.46,30.34,5.915,30.11,5.37
			c-0.95,0.701-1.365,1.552-1.991,2.576c-0.396,0.646,0.134,1.316,0.794,1.385c0.438,0.045,0.876,0.091,1.314,0.137
			c-0.265-0.461-0.529-0.922-0.794-1.384c-0.379,0.633-0.799,1.238-1.258,1.815c-0.606,0.815,0.519,1.604,1.256,1.256
			c0.383-0.181,0.765-0.361,1.148-0.542c1.076-0.508,0.138-2.065-0.927-1.585c-0.248,0.112-0.496,0.224-0.743,0.335
			c0.418,0.418,0.836,0.836,1.255,1.255c0.133-0.186,0.265-0.372,0.397-0.558c0.473-0.663-0.305-1.577-1.035-1.347
			c-0.615,0.168-1.213,0.382-1.795,0.643c0.297,0.51,0.594,1.021,0.891,1.531c0.421-0.372,0.842-0.744,1.263-1.116
			c0.703-0.621-0.039-1.768-0.89-1.529c-0.928,0.26-1.826,0.551-2.729,0.886c0.234,0.557,0.469,1.113,0.704,1.669
			c0.922-0.577,1.661-1.17,2.417-1.963c0.581-0.61,0.009-1.882-0.887-1.524c-1.836,0.732-3.632,1.531-5.4,2.414
			c0.306,0.523,0.611,1.046,0.917,1.569c1.524-0.949,3.047-1.898,4.571-2.846c1-0.622,0.127-2.08-0.914-1.564
			c-1.39,0.688-2.781,1.375-4.171,2.063c0.304,0.52,0.608,1.041,0.912,1.561c1.627-1.098,3.253-2.196,4.88-3.294
			c0.958-0.647,0.126-2.097-0.909-1.555c-1.857,0.974-3.715,1.946-5.573,2.92c0.302,0.516,0.604,1.033,0.905,1.549
			c1.498-0.867,2.997-1.733,4.495-2.6c1-0.579,0.111-2.092-0.902-1.544c-2.794,1.51-5.596,2.982-8.515,4.241
			c0.297,0.508,0.594,1.016,0.891,1.523c2.125-1.42,4.298-2.743,6.536-3.979c0.989-0.546,0.122-1.919-0.866-1.481
			c-2.102,0.931-4.204,1.861-6.307,2.792c0.282,0.481,0.563,0.963,0.845,1.444c1.616-0.819,3.232-1.639,4.849-2.458
			c-0.276-0.472-0.551-0.943-0.827-1.415c-1.986,1.34-4.041,2.479-6.23,3.453c0.268,0.459,0.537,0.918,0.805,1.377
			c1.394-1.075,2.829-2.03,4.36-2.899c0.877-0.498,0.097-1.825-0.788-1.348c-2.143,1.154-4.315,2.23-6.532,3.234
			c0.306,0.396,0.612,0.793,0.918,1.19c1.038-0.866,2.112-1.664,3.239-2.411c-0.25-0.429-0.501-0.857-0.752-1.286
			c-1.483,1.108-2.965,2.173-4.572,3.096c0.239,0.408,0.477,0.816,0.716,1.225c1.644-1.15,3.32-2.087,5.18-2.852
			c-0.17-0.404-0.341-0.808-0.511-1.211c-1.271,0.853-2.553,1.581-3.942,2.223c0.241,0.313,0.482,0.625,0.723,0.937
			c0.568-0.699,1.253-1.265,2.055-1.698c0.524-0.326,0.187-1.166-0.422-1c-0.877,0.237-1.661,0.531-2.481,0.911
			c0.213,0.277,0.427,0.554,0.641,0.831c0.278-0.221,0.557-0.442,0.835-0.663c0.5-0.397-0.137-1.039-0.631-0.818
			c-0.551,0.206-1.067,0.478-1.549,0.815c0.171,0.292,0.342,0.584,0.513,0.876c0.613-0.443,0.611-0.424,0.999-1.074
			c0.237-0.398-0.15-0.814-0.563-0.732c-0.345,0.069-0.69,0.138-1.035,0.207C14.271,9.157,14.538,10.091,15.154,9.978L15.154,9.978z
			"/>
	</g>
</g>
<g opacity="0.9">
	<g>
		<path fill="#5F5F5F" d="M4.669,6.363c-0.283,0.301-0.567,0.601-0.85,0.902c-0.473,0.332-0.2,1.182,0.415,0.983
			C4.726,8.089,5.217,7.93,5.709,7.771C5.566,7.432,5.424,7.093,5.281,6.754C4.558,7.13,4.03,7.547,3.502,8.167
			c-0.341,0.4-0.029,1.19,0.565,0.971C4.769,8.879,5.453,8.699,6.19,8.58C5.993,8.24,5.794,7.899,5.597,7.56
			C5.08,7.971,4.564,8.382,4.047,8.793c-0.51,0.406,0.04,1.245,0.62,1.065c1.04-0.323,2.03-0.716,3.011-1.187
			C7.45,8.281,7.222,7.891,6.993,7.5c-0.641,0.466-1.28,0.828-2.01,1.136c-0.716,0.303-0.196,1.535,0.53,1.258
			c0.958-0.366,1.9-0.762,2.833-1.192C8.111,8.3,7.877,7.899,7.642,7.497C6.987,7.8,6.333,8.104,5.678,8.408
			C5.916,8.814,6.153,9.221,6.39,9.627C7.241,9.198,8.092,8.769,8.943,8.34C8.703,7.929,8.462,7.517,8.222,7.105
			C7.543,7.589,6.865,8.073,6.187,8.558c-0.622,0.444-0.265,1.628,0.558,1.323c0.967-0.359,1.933-0.717,2.9-1.076
			C9.406,8.396,9.167,7.986,8.929,7.577C8.134,8.239,7.309,8.84,6.44,9.401c-0.677,0.437-0.246,1.687,0.575,1.363
			c1.214-0.479,2.428-0.957,3.643-1.436c-0.195-0.463-0.391-0.926-0.585-1.388c-0.66,0.447-1.32,0.895-1.98,1.342
			C7.404,9.75,7.815,10.97,8.684,10.686c0.723-0.237,1.446-0.473,2.169-0.708c-0.199-0.473-0.398-0.945-0.598-1.418
			C9.542,9,8.907,9.481,8.287,10.044c-0.587,0.533,0.026,1.519,0.761,1.307c0.586-0.17,1.15-0.363,1.718-0.587
			c-0.295-0.384-0.59-0.768-0.886-1.152c-0.389,0.547-0.794,1.027-1.254,1.511c-0.557,0.587,0.001,1.483,0.766,1.315
			c0.653-0.143,1.306-0.286,1.958-0.429c-0.256-0.44-0.512-0.88-0.769-1.32c-0.318,0.301-0.403,0.407-0.59,0.803
			c-0.313,0.662,0.192,1.271,0.894,1.162c0.297-0.021,0.582-0.091,0.854-0.211c-0.203-0.482-0.407-0.965-0.61-1.448
			c-0.223,0.145-0.446,0.288-0.67,0.432c-0.738,0.475-0.277,1.719,0.611,1.45c1.108-0.335,1.879-0.869,1.898-2.1
			c0.006-0.385-0.311-0.803-0.614-1.013c0.361,0.25,0.283,0.209,0.491-0.226c0.108-0.226,0.11-0.389,0.085-0.635
			c-0.049-0.473-0.33-0.745-0.799-0.799c-0.521-0.06-0.94-0.015-1.441,0.123c0.301,0.392,0.603,0.784,0.904,1.176
			c0.169-0.306,0.338-0.611,0.506-0.917c0.351-0.635-0.22-1.33-0.906-1.178C10.349,7.494,9.501,7.682,8.653,7.87
			C8.984,8.2,9.314,8.53,9.645,8.861C9.717,8.553,9.789,8.245,9.86,7.937C9.991,7.378,9.478,6.73,8.868,6.944
			C7.877,7.293,7.273,6.41,6.341,6.624c-1.093,0.251-1.164,1.163-1.65,2.062c-0.301,0.556,0.08,1.189,0.7,1.22
			c0.096-0.096,0.192-0.192,0.288-0.288c-0.218,0.453-0.058,1.062,0.484,1.19c0.133-0.138,0.266-0.276,0.399-0.414
			c0.407,0.233,0.813,0.466,1.22,0.7c-0.005-0.133-0.01-0.266-0.015-0.398c-0.018-0.47-0.357-0.772-0.811-0.811
			C6.461,9.843,5.981,9.828,5.484,9.838c0.26,0.342,0.521,0.684,0.781,1.026c0.024-0.141,0.049-0.282,0.073-0.423
			c0.068-0.392-0.1-0.927-0.566-0.997c-0.594-0.089-0.825-0.06-1.374,0.182c0.273,0.466,0.545,0.933,0.818,1.399
			c0.188-0.085,0.376-0.17,0.564-0.255c-0.325-0.324-0.649-0.648-0.973-0.973c-0.065,0.125-0.131,0.249-0.196,0.373
			c-0.4,0.554,0.372,1.264,0.917,0.917c0.272-0.172,0.4-0.269,0.601-0.521c0.478-0.599,0.053-1.521-0.77-1.322
			c-0.404,0.098-0.598,0.18-0.962,0.381c-0.934,0.518-0.115,1.811,0.818,1.399c0.042-0.006,0.083-0.013,0.125-0.019
			c-0.189-0.332-0.377-0.665-0.566-0.997c-0.024,0.141-0.049,0.282-0.073,0.423c-0.087,0.502,0.215,1.038,0.781,1.026
			c0.497-0.011,0.977,0.004,1.472,0.047c-0.27-0.271-0.54-0.541-0.811-0.811c0.005,0.133,0.01,0.266,0.015,0.398
			c0.024,0.623,0.668,0.998,1.22,0.7c1.472-0.797,0.431-2.258-0.787-2.548c0.162,0.396,0.323,0.793,0.484,1.19
			c0.641-1.328-0.434-2.09-1.688-2.151c0.233,0.407,0.466,0.813,0.7,1.22c0.451-0.833,0.353-1.321,1.359-0.878
			c0.606,0.267,1.255,0.085,1.848-0.125C8.966,8.17,8.635,7.839,8.305,7.508C8.233,7.816,8.162,8.125,8.091,8.432
			C7.949,9.046,8.472,9.56,9.082,9.423c0.847-0.19,1.694-0.38,2.541-0.57c-0.302-0.393-0.604-0.786-0.906-1.178
			c-0.168,0.306-0.336,0.612-0.504,0.918c-0.334,0.609,0.212,1.367,0.904,1.176c0.334-0.125,0.673-0.148,1.016-0.069
			c-0.266-0.266-0.533-0.533-0.799-0.799c0.033,0.315-0.521,0.721-0.521,1.144c0,0.706,0.959,0.957-0.165,1.301
			c0.204,0.483,0.408,0.966,0.611,1.45c0.223-0.145,0.446-0.289,0.669-0.434c0.724-0.47,0.274-1.752-0.61-1.448
			c-0.272,0.12-0.557,0.191-0.854,0.213c0.298,0.387,0.596,0.774,0.894,1.162c0.113-0.161,0.227-0.323,0.341-0.484
			c0.6-0.57-0.027-1.484-0.769-1.32c-0.652,0.145-1.305,0.29-1.958,0.435c0.255,0.438,0.511,0.877,0.766,1.315
			c0.546-0.579,1.036-1.184,1.495-1.833C11.616,9.864,10.978,9,10.349,9.25c-0.567,0.227-1.13,0.421-1.717,0.592
			c0.254,0.436,0.507,0.871,0.761,1.307c0.516-0.471,1.055-0.879,1.646-1.25c0.724-0.454,0.263-1.706-0.598-1.418
			C9.719,8.722,8.998,8.963,8.276,9.205c0.197,0.468,0.395,0.936,0.592,1.404c0.657-0.453,1.314-0.905,1.971-1.357
			c0.665-0.457,0.261-1.729-0.585-1.388C9.042,8.351,7.83,8.838,6.619,9.326c0.191,0.455,0.383,0.909,0.575,1.363
			c0.97-0.635,1.889-1.325,2.775-2.073C10.52,8.151,9.934,7.13,9.253,7.388c-0.965,0.366-1.93,0.73-2.894,1.096
			c0.186,0.441,0.372,0.882,0.558,1.323C7.593,9.319,8.268,8.829,8.943,8.34c0.739-0.535,0.112-1.663-0.722-1.235
			C7.374,7.54,6.526,7.974,5.678,8.408C4.862,8.827,5.578,10.011,6.39,9.627C7.042,9.318,7.694,9.01,8.346,8.702
			c0.814-0.384,0.105-1.585-0.704-1.205c-0.821,0.385-1.65,0.741-2.495,1.07c0.177,0.419,0.354,0.838,0.53,1.258
			c0.729-0.314,1.364-0.68,2.001-1.153C8.37,8.158,7.788,7.092,6.993,7.5C6.128,7.944,5.25,8.316,4.329,8.629
			c0.207,0.355,0.414,0.71,0.62,1.065C5.453,9.271,5.957,8.847,6.46,8.423c0.51-0.429-0.05-1.124-0.594-1.021
			C5.131,7.542,4.452,7.74,3.758,8.018c0.188,0.324,0.376,0.647,0.565,0.971c0.438-0.539,0.91-0.94,1.519-1.274
			c0.546-0.3,0.173-1.226-0.429-1.016C4.925,6.869,4.437,7.04,3.948,7.211c0.138,0.328,0.276,0.655,0.415,0.983
			c0.524-0.386,0.869-0.746,1.206-1.305C5.915,6.311,5.027,5.799,4.669,6.363L4.669,6.363z"/>
	</g>
</g>
<g opacity="0.9">
	<g>
		<path fill="#626060" d="M93.574,29.353c-0.047,0.099-0.094,0.198-0.141,0.297c-0.147,0.311,0.019,0.845,0.452,0.788
			c0.345-0.046,0.69-0.092,1.035-0.137c-0.125-0.303-0.251-0.606-0.376-0.909c-0.123,0.112-0.246,0.225-0.369,0.337
			c-0.438,0.402,0.04,0.969,0.522,0.898c0.274-0.041,0.548-0.081,0.822-0.122c-0.177-0.304-0.354-0.607-0.53-0.911
			c-0.297,0.291-0.594,0.581-0.891,0.871c-0.403,0.394,0.008,1.07,0.541,0.929c0.566-0.15,1.132-0.301,1.698-0.452
			c-0.146-0.348-0.293-0.697-0.44-1.045c-0.595,0.414-1.189,0.829-1.784,1.243c-0.521,0.362-0.217,1.31,0.456,1.081
			c0.77-0.262,1.506-0.572,2.231-0.939c0.719-0.364,0.088-1.357-0.618-1.057c-0.818,0.349-1.578,0.763-2.317,1.257
			c-0.571,0.382-0.223,1.424,0.491,1.166c0.91-0.329,1.819-0.658,2.729-0.987c-0.173-0.41-0.345-0.819-0.518-1.229
			c-0.748,0.381-1.497,0.763-2.245,1.145c-0.714,0.364-0.215,1.517,0.542,1.285c1.217-0.373,2.418-0.786,3.607-1.242
			c-0.192-0.456-0.384-0.911-0.576-1.366c-0.832,0.395-1.663,0.791-2.495,1.186c-0.8,0.379-0.232,1.692,0.599,1.421
			c1.09-0.355,2.181-0.711,3.271-1.067c-0.209-0.497-0.419-0.994-0.628-1.49c-0.793,0.367-1.586,0.733-2.379,1.1
			c-0.865,0.4-0.241,1.889,0.651,1.543c1.119-0.434,2.237-0.867,3.352-1.31c-0.225-0.533-0.449-1.065-0.674-1.598
			c-1.067,0.523-2.135,1.046-3.203,1.569c-0.914,0.448-0.268,1.897,0.683,1.62c1.03-0.3,2.06-0.602,3.089-0.902
			c-0.23-0.546-0.46-1.093-0.691-1.639c-0.817,0.458-1.635,0.916-2.452,1.374c-0.882,0.494-0.283,2.008,0.698,1.656
			c0.887-0.319,1.782-0.606,2.689-0.862c-0.233-0.553-0.466-1.105-0.699-1.659c-0.526,0.397-1.063,0.75-1.636,1.076
			c-0.885,0.503-0.291,1.959,0.696,1.651c0.509-0.159,1.019-0.317,1.528-0.477c-0.292-0.501-0.584-1.003-0.876-1.505
			c-0.222,0.245-0.461,0.47-0.719,0.676c-0.723,0.626,0.056,1.683,0.874,1.501c0.291-0.064,0.581-0.129,0.871-0.193
			c-0.337-0.439-0.675-0.878-1.013-1.317c-0.06,0.111-0.12,0.222-0.18,0.333c-0.321,0.593,0.078,1.346,0.773,1.348
			c0.197,0,0.394,0.001,0.591,0.001c-0.257-0.449-0.515-0.897-0.772-1.346c-0.098,0.167-0.195,0.333-0.293,0.5
			c-0.271,0.461-0.043,1.213,0.534,1.313c0.121,0.021,0.242,0.042,0.364,0.063c-0.131-0.498-0.263-0.995-0.394-1.492
			c-0.076,0.096-0.151,0.192-0.227,0.289c-0.411,0.522-0.242,1.627,0.631,1.523c0.122-0.015,0.243-0.029,0.364-0.044
			c-0.287-0.376-0.573-0.752-0.859-1.128c-0.048,0.132-0.095,0.265-0.143,0.397c-0.39,1.085,1.328,1.543,1.717,0.474
			c0.048-0.132,0.097-0.265,0.145-0.397c0.184-0.506-0.305-1.192-0.859-1.128c-0.122,0.014-0.243,0.028-0.364,0.042
			c0.21,0.508,0.42,1.015,0.631,1.523c0.076-0.096,0.152-0.192,0.228-0.288c0.371-0.468,0.339-1.363-0.394-1.492
			c-0.121-0.021-0.242-0.043-0.364-0.064c0.178,0.438,0.356,0.875,0.534,1.313c0.099-0.166,0.197-0.333,0.295-0.499
			c0.348-0.588-0.098-1.342-0.772-1.346c-0.197-0.001-0.394-0.003-0.591-0.004c0.258,0.45,0.516,0.899,0.773,1.348
			c0.061-0.11,0.121-0.221,0.182-0.332c0.389-0.712-0.244-1.484-1.013-1.317c-0.291,0.063-0.582,0.126-0.872,0.19
			c0.292,0.5,0.583,1.001,0.874,1.501c0.259-0.205,0.5-0.43,0.722-0.673c0.621-0.627,0.001-1.775-0.876-1.505
			c-0.51,0.157-1.02,0.313-1.53,0.471c0.232,0.55,0.464,1.101,0.696,1.651c0.574-0.323,1.113-0.674,1.64-1.069
			c0.782-0.585,0.36-1.953-0.699-1.659c-0.909,0.252-1.802,0.54-2.688,0.865c0.232,0.552,0.465,1.104,0.698,1.656
			c0.814-0.463,1.629-0.926,2.443-1.39c0.881-0.502,0.29-1.932-0.691-1.639c-1.028,0.307-2.056,0.615-3.083,0.922
			c0.228,0.54,0.455,1.08,0.683,1.62c1.063-0.53,2.127-1.06,3.191-1.589c0.879-0.438,0.248-1.971-0.674-1.598
			c-1.114,0.451-2.225,0.909-3.336,1.368c0.217,0.514,0.434,1.029,0.651,1.543c0.783-0.383,1.566-0.767,2.35-1.15
			c0.829-0.405,0.243-1.796-0.628-1.49c-1.083,0.38-2.167,0.76-3.25,1.14c0.2,0.474,0.399,0.948,0.599,1.421
			c0.821-0.412,1.643-0.825,2.464-1.238c0.75-0.376,0.211-1.688-0.576-1.366c-1.181,0.483-2.374,0.925-3.584,1.328
			c0.181,0.428,0.361,0.856,0.542,1.285c0.738-0.399,1.476-0.798,2.213-1.197c0.66-0.357,0.201-1.508-0.518-1.229
			c-0.904,0.351-1.807,0.703-2.71,1.054c0.164,0.388,0.328,0.777,0.491,1.166c0.728-0.512,1.479-0.938,2.292-1.302
			c-0.206-0.352-0.412-0.705-0.618-1.057c-0.626,0.332-1.261,0.615-1.928,0.855c0.152,0.36,0.304,0.721,0.456,1.081
			c0.588-0.425,1.177-0.851,1.765-1.277c0.502-0.363,0.22-1.233-0.44-1.045c-0.563,0.161-1.127,0.321-1.69,0.482
			c0.181,0.31,0.361,0.62,0.541,0.929c0.292-0.295,0.583-0.591,0.875-0.887c0.411-0.417-0.017-0.996-0.53-0.911
			c-0.272,0.045-0.545,0.091-0.817,0.136c0.174,0.299,0.348,0.599,0.522,0.898c0.121-0.115,0.241-0.229,0.362-0.344
			c0.424-0.403-0.032-0.963-0.518-0.89c-0.344,0.052-0.688,0.104-1.033,0.156c0.197,0.256,0.394,0.512,0.591,0.769
			c0.045-0.1,0.09-0.2,0.136-0.3C94.745,29.274,93.862,28.743,93.574,29.353L93.574,29.353z"/>
	</g>
</g>
</svg>
