<?xml version="1.0" encoding="utf-8"?>
<!-- Generator: Adobe Illustrator 16.0.0, SVG Export Plug-In . SVG Version: 6.00 Build 0)  -->
<!DOCTYPE svg PUBLIC "-//W3C//DTD SVG 1.1//EN" "http://www.w3.org/Graphics/SVG/1.1/DTD/svg11.dtd">
<svg version="1.1" id="Layer_1" xmlns="http://www.w3.org/2000/svg" xmlns:xlink="http://www.w3.org/1999/xlink" x="0px" y="0px"
	 width="155px" height="205px" viewBox="0 0 155 205" enable-background="new 0 0 155 205" xml:space="preserve">
<g>
	<path d="M46.177,47.338c-0.034,23.201-0.068,46.401-0.101,69.603c-0.017,11.41-0.036,22.82-0.019,34.229
		c0.009,5.705,0.017,11.41,0.025,17.115c0.009,5.482-0.468,11.234,0.717,16.579c0.477,2.148,3.325,2.177,3.79,0
		c1.144-5.359,0.628-11.095,0.595-16.579c-0.033-5.323-0.066-10.649-0.099-15.974c-0.073-11.792-0.18-23.581-0.287-35.371
		c-0.211-23.201-0.422-46.401-0.633-69.603C50.138,44.374,46.181,44.367,46.177,47.338"/>
	<path d="M96.92,45.555c1.139,16.941,1.692,33.918,1.584,50.898c-0.055,8.494-0.291,16.983-0.596,25.473
		c-0.298,8.309-1.775,17.172-0.951,25.438c0.176,1.764,2.807,2.412,3.292,0.445c1.877-7.615,1.478-16.115,1.763-23.927
		c0.321-8.813,0.39-17.631,0.299-26.447c-0.174-17.321-1.033-34.623-2.502-51.879C99.653,43.723,96.793,43.687,96.92,45.555"/>
	<path d="M133.784,169.177c-0.045,9.389,0.031,18.875,1.481,28.168c0.359,2.3,4.094,1.733,4.031-0.544
		c-0.252-9.22-1.111-18.395-1.236-27.624C138.024,166.427,133.797,166.418,133.784,169.177"/>
	<path d="M138.358,169.674c4.952-2.265,10.03-4.814,13.909-8.714c1.462-1.471-0.381-3.637-2.135-2.771
		c-4.785,2.362-9.184,5.366-14.05,7.591C133.448,166.986,135.736,170.875,138.358,169.674"/>
	<path d="M147.447,163.359c0.203,8.473,0.087,17.016,1.066,25.442c0.279,2.396,3.684,2.508,3.815,0
		c0.447-8.466-0.213-16.979-0.547-25.442C151.672,160.582,147.381,160.56,147.447,163.359"/>
	<path d="M94.74,161.486c14.15,2.237,28.299,4.831,42.512,6.619c1.477,0.185,1.824-2.341,0.354-2.612
		c-13.973-2.583-28.126-4.376-42.174-6.515C93.797,158.73,93.086,161.225,94.74,161.486"/>
	<path d="M127.053,158.734c6.771,0.296,13.397,1.431,19.933,3.204c1.874,0.509,2.64-2.321,0.799-2.898
		c-6.769-2.118-13.649-3.201-20.731-3.484C125.006,155.473,125.014,158.644,127.053,158.734"/>
	<path d="M146.738,188.871c-3.082,3.717-6.049,7.488-8.963,11.339c-1.26,1.666,1.539,3.827,2.905,2.241
		c3.042-3.529,5.997-7.1,8.878-10.762C151.115,189.711,148.395,186.875,146.738,188.871"/>
	<path d="M1.112,47.762c1.239,20.539,2.172,41.094,2.77,61.664c0.289,9.954,0.501,19.91,0.638,29.868
		c0.072,5.312,0.123,10.624,0.152,15.937c0.027,4.771-0.632,10.012,0.853,14.592c0.735,2.266,3.978,2.344,4.682,0
		c1.386-4.619,0.6-9.82,0.457-14.592c-0.16-5.313-0.341-10.625-0.544-15.937c-0.381-9.959-0.838-19.917-1.371-29.868
		C7.646,88.85,6.207,68.293,4.464,47.762C4.284,45.639,0.981,45.591,1.112,47.762"/>
	<path d="M4.179,46.319c16.141,0.925,32.553,1.678,48.702,0.611c1.912-0.126,1.954-2.988,0-3.005
		c-16.258-0.133-32.448,0.215-48.702-0.612C2.244,43.214,2.255,46.208,4.179,46.319"/>
	<path d="M50.666,46.76c16.481-1.245,33.009-1.049,49.476-2.155c2.33-0.156,2.355-3.524,0-3.641
		c-16.394-0.811-33.165,0.967-49.476,2.559C48.623,43.723,48.572,46.918,50.666,46.76"/>
	<path d="M134.984,193.35c-27.076-2.583-53.846-6.418-80.875-9.125c-3.46-0.347-5.095,3.176-1.492,3.797
		c26.679,4.605,54.362,6.933,81.597,9.322C137.422,197.625,138.215,193.659,134.984,193.35"/>
	<path d="M110.338,154.36c0.531,2.354,0.548,4.675,0.594,7.07c0.009,0.466,0.753,0.608,0.846,0.113
		c0.467-2.482,0.135-5.018-0.471-7.45C111.149,153.465,110.195,153.731,110.338,154.36"/>
	<path d="M111.042,154.764c3.185-1.779,6.726-3.616,9.415-6.104c0.418-0.388-0.117-1.05-0.6-0.777
		c-3.201,1.812-6.117,4.17-9.314,6.028C109.992,154.229,110.486,155.073,111.042,154.764"/>
	<path d="M119.349,149.163c3.03,0.496,6.142,1.251,9.208,1.405c0.533,0.026,0.635-0.792,0.125-0.924
		c-2.934-0.76-6.084-0.964-9.083-1.389C119.011,148.172,118.746,149.063,119.349,149.163"/>
	<path d="M126.965,150.812c0.008,1.465,0.213,2.833,0.664,4.228c0.223,0.684,1.227,0.404,1.076-0.297
		c-0.275-1.289-0.432-2.612-0.449-3.931C128.246,149.981,126.96,149.979,126.965,150.812"/>
	<path d="M112.768,160.732c4.892-1.102,9.861-2.039,14.664-3.482c0.651-0.195,0.373-1.109-0.274-1
		c-4.948,0.835-9.82,2.194-14.694,3.376C111.743,159.799,112.049,160.895,112.768,160.732"/>
	<path d="M109.903,153.584c-3.612-0.937-7.29-1.482-11.028-1.345c-0.543,0.019-0.545,0.823,0,0.845
		c3.651,0.13,7.236,0.484,10.795,1.346C110.219,154.561,110.451,153.725,109.903,153.584"/>
	<path d="M94.824,152.685c3.016,0.234,6.034,0.471,9.044,0.775c0.556,0.058,0.54-0.794,0-0.86c-3.01-0.369-6.017-0.665-9.044-0.824
		C94.236,151.743,94.246,152.639,94.824,152.685"/>
	<path d="M103.749,145.943c4.863,1.279,9.784,2.226,14.8,2.63c0.725,0.059,0.697-1.033,0-1.116
		c-4.895-0.579-9.73-1.354-14.516-2.543C103.366,144.747,103.083,145.769,103.749,145.943"/>
	<path d="M102.593,145.547c-2.712,1.769-5.403,3.555-8.065,5.396c-0.584,0.404-0.055,1.351,0.563,0.966
		c2.742-1.719,5.443-3.482,8.139-5.274C103.9,146.188,103.275,145.102,102.593,145.547"/>
	<path d="M94.012,153.747c0.538,1.675,0.899,3.435,1.059,5.188c0.067,0.743,1.174,0.772,1.181,0
		c0.015-1.934-0.274-3.725-0.886-5.562C95.081,152.522,93.734,152.881,94.012,153.747"/>
	<path d="M37.686,30.861c-0.403,3.639-0.675,7.27-0.66,10.933c0.002,0.577,0.87,0.573,0.893,0c0.147-3.647,0.299-7.295,0.612-10.933
		C38.578,30.315,37.745,30.33,37.686,30.861"/>
	<path d="M61.434,31.716c0.136,3.297-0.114,6.557-0.593,9.82c-0.094,0.642,0.854,0.941,0.999,0.275
		c0.73-3.335,0.929-6.686,0.774-10.095C62.579,30.96,61.403,30.955,61.434,31.716"/>
	<path d="M39.508,30.625c6.908,0.364,13.829,0.624,20.747,0.536c0.544-0.007,0.544-0.835,0-0.845
		c-6.92-0.125-13.833-0.238-20.747-0.584C38.933,29.703,38.936,30.595,39.508,30.625"/>
	<path d="M62.464,31.317c3.232-0.328,6.465-0.63,9.685-1.055c0.554-0.073,0.584-0.942,0-0.893c-3.236,0.272-6.459,0.669-9.685,1.039
		C61.892,30.474,61.879,31.376,62.464,31.317"/>
	<path d="M69.079,32.554c-0.371,2.936-0.611,5.886-0.482,8.847c0.027,0.637,0.952,0.635,0.988,0c0.167-2.958,0.318-5.906,0.69-8.847
		C70.371,31.793,69.174,31.8,69.079,32.554"/>
	<path d="M38.965,30.244c9.217-0.307,18.435-0.596,27.65-0.954c0.439-0.017,0.442-0.7,0-0.686c-9.218,0.283-18.434,0.636-27.65,0.97
		C38.535,29.589,38.533,30.257,38.965,30.244"/>
	<path d="M69.07,32.828c0.098,0.922,0.195,1.844,0.292,2.765c0.04,0.373,0.626,0.38,0.59,0l-0.26-2.765
		C69.654,32.432,69.028,32.431,69.07,32.828"/>
	<path d="M68.508,31.333c0.196,0.734,0.388,1.47,0.604,2.198c0.221,0.742,1.31,0.433,1.153-0.318
		c-0.155-0.744-0.336-1.483-0.512-2.223C69.562,30.184,68.292,30.528,68.508,31.333"/>
	<path d="M60.294,28.874c0.043-9.217,0.002-18.432-0.121-27.648c-0.009-0.659-1.102-0.867-1.2-0.162
		c-1.374,9.822-1.571,19.847,0.045,29.655c0.091,0.552,1.046,0.43,0.986-0.134c-1.035-9.827-1.21-19.382,0.147-29.197l-1.2-0.162
		c0.138,9.216,0.192,18.431,0.163,27.648C59.113,29.633,60.291,29.634,60.294,28.874"/>
	<path d="M19.682,32.33c-2.633-0.034-5.46,0.962-7.097,3.138c-1.516,2.016-0.538,3.695,1.782,4.128
		c2.329,0.434,6.72,0.705,8.459-1.366c1.644-1.958,0.056-3.836-1.712-4.903c-0.495-0.299-0.93,0.46-0.451,0.771
		c1.305,0.848,3.12,2.368,0.742,4.128c-0.617,0.457-1.728,0.54-2.463,0.61c-1.417,0.135-3.013,0.216-4.417-0.051
		c-1.552-0.295-2.695-0.693-0.929-3.343c0.379-0.568,1.119-0.989,1.68-1.322c1.374-0.818,2.816-1.137,4.406-1.136
		C20.103,32.983,20.103,32.334,19.682,32.33"/>
	<path d="M16.35,39.959c1.047,0.722,2.007,1.565,2.881,2.489c0.349,0.37,0.875-0.174,0.552-0.552
		c-0.881-1.033-1.879-1.916-2.99-2.694C16.33,38.879,15.887,39.641,16.35,39.959"/>
	<path d="M20.484,38.826c-0.651,1.161-1.038,2.37-1.162,3.693c-0.039,0.418,0.66,0.516,0.736,0.101
		c0.215-1.174,0.605-2.305,1.197-3.342C21.54,38.777,20.765,38.325,20.484,38.826"/>
	<path d="M50.479,182.163c-14.841-3.967-29.408-9.287-44.213-13.388c-1.895-0.524-3.097,3.252-1.145,4.083
		c14.453,6.158,29.652,9.871,44.598,13.633C51.479,186.935,52.25,182.637,50.479,182.163"/>
</g>
<g opacity="0.9">
	<g>
		<path fill="#626060" d="M53.374,50.188c-0.354,0.503-0.708,1.006-1.063,1.509c-1.062,1.507,1.011,3.486,2.505,2.505
			c1.131-0.742,2.262-1.484,3.394-2.226c-0.771-1-1.543-2-2.314-2.999c-0.566,0.708-1.133,1.415-1.7,2.122
			c-1.394,1.741,0.3,4.077,2.378,3.082c1.145-0.547,2.289-1.095,3.433-1.643c-0.822-1.066-1.645-2.131-2.467-3.197
			c-0.865,0.835-1.729,1.671-2.594,2.506c-1.431,1.382,0.029,4.327,2.048,3.519c1.7-0.679,2.988-1.44,4.378-2.634
			c1.875-1.612-0.611-4.846-2.647-3.43c-2.421,1.684-4.492,3.447-6.485,5.632c-1.715,1.88,0.553,5.234,2.83,3.668
			c2.981-2.051,5.963-4.102,8.944-6.153c2.652-1.825,0.225-6.133-2.551-4.363c-3.054,1.947-5.599,4.197-7.963,6.946
			c-1.638,1.905-0.131,5.563,2.664,4.576c4.371-1.543,8.105-3.741,11.452-6.962c2.691-2.591-1.33-6.545-4.072-4.072
			c-4.265,3.847-8.336,7.885-12.098,12.228c-2.161,2.495,0.786,7.115,3.758,4.871c4.895-3.697,9.79-7.393,14.685-11.089
			c3.171-2.395,0.15-7.823-3.174-5.43c-5.643,4.062-10.382,8.794-14.457,14.43c-2.29,3.167,2.418,5.955,5.008,3.864
			c5.872-4.74,11.744-9.48,17.615-14.221c2.854-2.304-0.993-7.302-3.928-5.091c-7.125,5.368-13.263,11.491-18.639,18.611
			c-2.39,3.165,2.498,6.179,5.139,3.965c7.763-6.507,15.526-13.014,23.289-19.521c3.253-2.728-1.379-7.172-4.609-4.608
			c-7.839,6.221-14.873,13.233-21.119,21.053c-2.585,3.236,1.377,7.379,4.59,4.59C67.985,64.95,76.884,58.396,86.3,52.522
			c-1.087-1.86-2.175-3.719-3.262-5.579c-10.454,7.917-20.786,15.989-27.994,27.13c-2.122,3.28,2.395,6.062,5.048,3.895
			c10.117-8.262,20.233-16.524,30.351-24.786c2.805-2.291-0.927-7.125-3.874-5.021c-11.454,8.18-21.995,17.435-31.51,27.81
			c-2.795,3.048,1.406,7.154,4.495,4.495c10.012-8.617,20.307-16.88,30.904-24.768c-1.277-1.655-2.554-3.31-3.831-4.964
			c-4.363,3.971-8.728,7.942-13.092,11.914c-2.626,2.39,0.87,7.017,3.821,4.952c4.46-3.121,8.752-6.443,12.888-9.983
			c-1.483-1.483-2.966-2.966-4.449-4.449c-2.953,2.664-5.896,5.339-8.869,7.982c-2.684,2.386,0.824,6.9,3.824,4.956
			c3.176-2.058,6.353-4.115,9.527-6.173c-1.311-1.699-2.622-3.398-3.933-5.097c-2.684,2.459-5.367,4.918-8.052,7.377
			c-2.783,2.55,0.865,7.312,4.038,5.233c2.222-1.456,4.437-2.544,6.982-3.339c-1.28-1.665-2.561-3.33-3.841-4.995
			c-1.187,1.667-2.439,3.011-3.924,4.394c-3.294,3.069,1.539,7.744,4.885,4.885c3.447-2.946,6.343-6.292,8.781-10.112
			c1.313-2.056-0.057-4.465-2.119-5.208c-1.595-0.575-3.071-0.811-4.757-0.908c1.14,0.868,2.279,1.736,3.419,2.604
			c-0.104-1.91,0.675-3.131,2.34-3.664c-1.193-2.041-2.387-4.082-3.58-6.123c-1.308,0.89-2.021,1.44-3.043,2.651
			c-1.938,2.295-0.772,6.026,2.507,6.053c0.86,0.007,1.721,0.014,2.581,0.021c-0.836-2.018-1.672-4.036-2.507-6.053
			c-2.333,2.438-4.313,5.058-6.001,7.979c-1.188,2.056-0.051,4.499,2.119,5.208c1.08,0.354,2.16,0.707,3.241,1.06
			c-0.826-1.454-1.651-2.908-2.477-4.361c-0.839,2.021-2.232,4.166-2.813,6.278c-0.694,2.522,1.28,3.572-0.445,6.273
			c-1.628,2.549,1.066,6.22,4.004,5.208c2.59-0.892,4.563-2.068,6.396-4.133c3.024-3.404-1.667-8.174-5.014-5.015
			c-1.992,1.881-3.984,3.761-5.977,5.642c-2.902,2.74,0.923,7.833,4.297,5.569c1.865-1.252,3.731-2.504,5.598-3.756
			c-1.433-1.856-2.865-3.712-4.297-5.569c-1.744,1.805-3.487,3.61-5.23,5.415c-2.285,2.366-0.024,7.31,3.449,5.926
			c1.712-0.681,3.423-1.363,5.135-2.044c-1.335-1.736-2.669-3.472-4.004-5.208c-1.506,2.704-3.012,5.407-4.519,8.11
			c-1.854,3.327,1.73,6.245,4.852,4.851c2.436-1.088,4.872-2.176,7.309-3.265c-1.433-1.856-2.865-3.712-4.297-5.569
			c-1.95,2.127-3.9,4.254-5.851,6.38c-2.793,3.044,0.694,7.349,4.3,5.573c2.275-1.121,4.223-2.476,6.164-4.093
			c3.098-2.581-0.994-7.861-4.305-5.579c-1.833,1.264-3.666,2.527-5.499,3.791c1.622,1.622,3.244,3.244,4.865,4.866
			c1.538-2.21,2.529-4.517,3.097-7.146c0.504-2.34-1.677-5.507-4.38-4.379c-6.275,2.618-12.479,5.38-18.606,8.33
			c1.629,1.629,3.258,3.258,4.887,4.887c3.205-4.917,6.41-9.833,9.614-14.75c1.815-2.785-1.153-5.91-4.045-5.262
			c-6.213,1.391-10.971,5.288-15.621,9.434c-3.483,3.107,1.588,8.047,5.08,5.08c3.667-3.117,7.335-6.233,11.003-9.35
			c3.128-2.658-0.961-7.875-4.363-5.655c-5.41,3.531-10.82,7.062-16.229,10.593c1.459,1.891,2.917,3.782,4.376,5.672
			c2.588-3.305,5.176-6.611,7.764-9.916c2.311-2.952-0.731-8.269-4.386-5.684c-3.584,2.535-7.169,5.07-10.754,7.605
			c1.465,1.899,2.93,3.798,4.395,5.696c2.704-2.366,5.407-4.732,8.11-7.099c3.117-2.729-0.95-7.927-4.402-5.706
			c-2.101,1.352-3.637,2.893-4.888,5.062c-1.853,3.213,1.799,6.707,4.97,4.97c4.938-2.704,9.508-5.847,13.876-9.393
			c3.614-2.934-1.51-7.945-5.088-5.088c-6.331,5.054-12.66,10.107-18.991,15.161c1.671,1.671,3.342,3.342,5.013,5.013
			c1.247-1.545,2.493-3.091,3.74-4.636c2.344-2.906-0.682-7.929-4.279-5.546c-1.692,1.121-3.385,2.242-5.077,3.363
			c1.604,1.604,3.208,3.209,4.813,4.813c0.502-1.206,1.166-2.318,1.989-3.338c-1.836-1.417-3.672-2.833-5.508-4.25
			c-1.018,1.841-2.037,3.683-3.055,5.524c-1.736,3.141,1.688,6.393,4.78,4.78c0.992-0.518,1.984-1.036,2.977-1.552
			c-1.408-1.825-2.816-3.65-4.224-5.475c-2.261,2.281-4.181,4.72-5.886,7.438c-1.748,2.787,1.907,6.91,4.744,4.744
			c1.482-1.132,2.96-1.999,4.672-2.74c-1.576-1.576-3.151-3.151-4.727-4.727c-1.453,2.105-2.906,4.21-4.359,6.315
			c-1.979,2.867,1.873,6.494,4.704,4.704c2.589-1.636,5.179-3.272,7.769-4.909c-1.381-1.789-2.761-3.579-4.142-5.368
			c-2.17,2.529-4.358,5.042-6.542,7.559c-2.416,2.782,0.762,7.7,4.151,5.379c3.565-2.441,7.13-4.883,10.696-7.324
			c-1.395-1.808-2.79-3.615-4.184-5.423c-3.6,3.981-7.2,7.961-10.8,11.942c-2.541,2.809,0.825,7.834,4.225,5.476
			c3.161-2.192,6.321-4.384,9.481-6.577c-1.418-1.838-2.836-3.676-4.255-5.515c-2.504,3.204-5.009,6.408-7.514,9.612
			c-2.262,2.893,0.693,8.048,4.286,5.555c2.734-1.896,5.469-3.793,8.204-5.69c-1.438-1.863-2.875-3.726-4.312-5.588
			c-3.424,4.185-6.848,8.371-10.272,12.557c-2.403,2.938,0.739,8.116,4.353,5.642c2.991-2.048,5.981-4.096,8.972-6.144
			c-1.649-1.649-3.297-3.298-4.946-4.947c-2.638,3.871-5.275,7.742-7.914,11.613c-2.029,2.979,2.006,7.041,4.987,4.987
			c2.263-1.56,4.526-3.119,6.79-4.679c-1.67-1.67-3.341-3.34-5.011-5.011c-2.325,3.289-4.48,6.661-6.48,10.158
			c-2.178,3.809,2.671,7.055,5.78,4.46c4.344-3.625,8.688-7.25,13.032-10.875c-1.735-1.735-3.47-3.47-5.205-5.205
			c-3.816,4.809-7.442,9.742-10.846,14.851c-2.012,3.02,2.006,7.113,5.035,5.035c3.638-2.495,7.277-4.989,10.916-7.483
			c-1.678-1.679-3.357-3.356-5.035-5.035c-3.508,5.108-7.015,10.218-10.521,15.327c-2.123,3.093,1.995,6.907,5.035,5.035
			c2.732-1.682,5.095-3.599,7.254-5.978c-1.735-1.735-3.47-3.47-5.205-5.205c-1.856,2.279-3.821,4.394-5.959,6.411
			c1.927,1.486,3.854,2.974,5.78,4.46c1.951-2.555,4.197-4.725,6.678-6.753c-1.735-1.735-3.47-3.47-5.205-5.205
			c-3.488,3.462-6.992,6.906-10.495,10.353c-3.445,3.388,1.731,8.485,5.268,5.268c2.647-2.408,4.83-5.087,6.716-8.123
			c1.631-2.625-1.104-6.779-4.254-5.534c-2.512,0.992-4.797,2.105-7.036,3.633c1.732,1.732,3.464,3.464,5.196,5.196
			c0.756-1.414,1.568-2.609,2.664-3.781c3.389-3.625-1.728-8.659-5.406-5.406c-1.502,1.328-2.84,2.718-4.111,4.27
			c-3.165,3.865,1.576,8.567,5.443,5.443c1.807-1.46,3.614-2.919,5.421-4.379c-1.829-1.829-3.658-3.657-5.486-5.486
			c-3.284,3.068-5.854,6.551-7.772,10.619c-1.189,2.521,0.188,5.945,3.352,5.841c2.615-0.087,5.054-0.453,7.563-1.193
			c-1.582-1.582-3.165-3.164-4.747-4.746c-0.815,2.343-1.887,4.322-3.277,6.365c-2.313,3.398,2.063,6.848,5.239,5.239
			c1.47-0.744,2.947-1.476,4.424-2.206c-1.741-1.74-3.481-3.48-5.222-5.221c-2.737,3.623-4.989,7.433-6.841,11.578
			c-1.504,3.366,1.654,7.286,5.254,5.254c2.617-1.477,5.231-2.956,7.851-4.428c-1.76-1.761-3.521-3.521-5.281-5.281
			c-2.776,5.185-5.544,10.373-8.315,15.56c-1.808,3.385,1.832,7.192,5.263,5.263c2.675-1.505,4.896-3.303,6.869-5.659
			c-2.01-1.551-4.02-3.102-6.03-4.652c-2.119,3.049-3.581,6.275-4.55,9.854c-0.767,2.832,1.888,5.468,4.712,4.712
			c2.314-0.618,4.435-1.478,6.551-2.599c-1.873-1.439-3.746-2.88-5.619-4.319c-1.345,3.911-2.688,7.823-4.036,11.733
			c-0.898,2.606,2.02,5.72,4.693,4.693c3.54-1.358,6.083-3.318,8.141-6.524c2.424-3.777-2.895-7.469-5.992-4.623
			c-2.04,1.874-4.08,3.748-6.121,5.622c2.125,1.237,4.251,2.475,6.376,3.712c0.143-1.114,0.609-2.069,1.399-2.868
			c3.191-3.699-1.765-8.786-5.396-5.395c-1.464,1.367-2.928,2.734-4.392,4.103c1.998,1.541,3.995,3.082,5.992,4.623
			c0.788-1.424,1.577-2.848,2.365-4.271c-2.196-1.284-4.392-2.567-6.588-3.852c-0.98,1.975-1.96,3.949-2.94,5.923
			c-1.538,3.1,1.858,7.659,5.219,5.22c3.143-2.281,6.286-4.562,9.43-6.841c-1.74-1.74-3.48-3.48-5.221-5.221
			c-1.602,3.141-3.205,6.281-4.807,9.421c-1.605,3.146,1.918,7.777,5.301,5.302c4.512-3.3,9.198-6.262,14.115-8.92
			c-1.81-1.811-3.62-3.62-5.429-5.43c-1.143,2.059-2.286,4.117-3.428,6.176c-2.353,4.238,2.86,7.55,6.294,4.856
			c2.995-2.35,5.989-4.699,8.984-7.048c-2.132-1.645-4.263-3.289-6.394-4.934c-1.867,2.979-3.734,5.96-5.601,8.94
			c-2.125,3.392,2.206,8.058,5.65,5.65c3.394-2.373,6.789-4.746,10.183-7.119c-1.915-1.915-3.83-3.83-5.745-5.745
			c-1.401,2.014-2.803,4.027-4.203,6.042c-2.953,4.246,3.2,7.969,6.659,5.138c3.058-2.502,6.114-5.005,9.172-7.507
			c-2.03-2.03-4.06-4.06-6.09-6.09c-2.411,2.913-4.823,5.826-7.235,8.738c-2.969,3.586,0.882,9.798,5.295,6.862
			c2.686-1.785,5.37-3.571,8.055-5.356c-2.018-2.018-4.034-4.034-6.052-6.052c-1.223,1.871-2.444,3.743-3.667,5.614
			c-2.433,3.722,2.385,8.512,6.103,6.103c2.211-1.433,4.422-2.865,6.632-4.298c-2.055-2.055-4.108-4.108-6.163-6.163
			c-0.938,2.027-1.875,4.055-2.813,6.082c-1.962,4.242,1.973,8.173,6.214,6.214c2.352-1.086,4.524-2.334,6.647-3.818
			c-2.092-2.091-4.183-4.182-6.273-6.273c-0.815,1.749-1.631,3.499-2.445,5.248c-1.981,4.253,2.015,8.4,6.316,6.316
			c2.196-1.063,4.391-2.13,6.592-3.181c-2.285-1.757-4.571-3.514-6.856-5.271c-0.259,1.064-0.513,2.13-0.761,3.196
			c-1.016,4.31,3.169,6.832,6.845,5.263c1.236-0.527,2.472-1.055,3.707-1.582c-2.271-0.924-4.542-1.848-6.813-2.771
			c0.312,0.798,0.623,1.596,0.935,2.394c1.142,2.925,3.906,4.146,6.794,2.764c0.938-0.448,1.876-0.896,2.814-1.346
			c-1.184,0.154-2.367,0.31-3.552,0.465c3.525,1.251,6.414,0.288,9.188-2.021c-2.606-1.08-5.214-2.159-7.82-3.239
			c0.063,0.851,0.124,1.702,0.186,2.553c0.228,3.151,3.813,6.088,6.873,3.944c-0.054-0.198-0.108-0.396-0.162-0.595
			c-0.694-0.903-1.389-1.807-2.083-2.709c0.094,0.298,0.188,0.596,0.281,0.894c0.788,2.504,4.229,4.581,6.659,2.709
			c1.531-1.18,3.061-2.097,4.825-2.887c-2.211-1.7-4.423-3.4-6.634-5.1c-0.173,0.734-0.346,1.469-0.518,2.203
			c-0.824,3.513,2.148,6.199,5.545,5.545c1.879-0.362,3.378-1.006,4.899-2.177c-2.254-1.293-4.507-2.586-6.76-3.879
			c-0.072,0.682-0.145,1.362-0.217,2.044c-0.313,2.958,3.092,5.028,5.678,4.325c0.55-0.086,1.101-0.172,1.65-0.259
			c-1.288-2.244-2.576-4.488-3.864-6.733c-0.328,0.604-0.655,1.209-0.982,1.814c2.571,1.503,5.144,3.007,7.715,4.51
			c3.315-6.798-4.211-11.037-9.731-7.077c2.176,1.673,4.351,3.346,6.526,5.019c0.48-2.262,1.277-3.913,2.675-5.738
			c1.438-1.877,0.338-4.999-1.586-6.047c-0.233-0.128-0.468-0.256-0.702-0.383c0.729,1.271,1.459,2.543,2.188,3.814
			c0.079-0.215,0.158-0.43,0.237-0.645c2.198-3.228-1.417-7.557-4.976-6.473c-1.399,0.426-2.799,0.853-4.197,1.278
			c1.8,1.801,3.601,3.602,5.401,5.401c0.298-0.934,0.597-1.867,0.894-2.802c1.236-3.874-3.198-6.61-6.435-4.946
			c-3.154,1.621-6.309,3.242-9.464,4.863c1.755,2.273,3.509,4.547,5.264,6.821c1.323-1.701,2.647-3.401,3.971-5.102
			c2.847-3.655-0.685-9.453-5.235-6.785c-2.589,1.518-5.178,3.035-7.767,4.554c1.732,2.245,3.465,4.49,5.197,6.735
			c1.506-1.94,3.011-3.881,4.516-5.821c2.301-2.968,0.349-8.765-4.147-7.125c-2.351,0.856-4.701,1.714-7.052,2.57
			c1.374,2.36,2.748,4.721,4.121,7.08c1.335-1.265,2.67-2.53,4.004-3.795c3.56-3.372-0.979-8.888-5.109-6.623
			c-1.184,0.649-2.367,1.298-3.55,1.946c1.917,1.917,3.833,3.833,5.75,5.75c0.653-0.906,1.306-1.813,1.959-2.719
			c2.526-3.507-2.313-7.806-5.734-5.734c-2.218,1.344-4.438,2.684-6.663,4.015c1.688,2.188,3.376,4.376,5.064,6.563
			c1.296-1.498,2.591-2.996,3.887-4.493c3.002-3.471-0.825-9.181-5.077-6.581c-2.72,1.663-5.49,3.159-8.44,4.379
			c1.365,2.344,2.73,4.688,4.095,7.033c1.325-1.593,2.65-3.187,3.975-4.78c2.852-3.431-0.927-9.585-5.113-6.627
			c-1.446,1.022-2.807,1.865-4.477,2.504c1.593,2.071,3.186,4.143,4.777,6.214c1.523-1.972,2.521-3.989,3.436-6.293
			c1.145-2.887-2.345-6.336-5.217-5.218c-1.313,0.512-2.627,1.023-3.94,1.535c1.6,2.08,3.199,4.16,4.798,6.241
			c0.445-0.698,0.89-1.396,1.335-2.094c2.207-3.458-2.312-8.355-5.818-5.818c-1.678,1.213-4.242,0.758-6.31,1.094
			c-2.55,0.413-4.876,2.267-6.598,4.064c2.433,1.008,4.866,2.016,7.3,3.023c0.3-0.64,0.6-1.28,0.899-1.92
			c3.648-3.711-0.94-8.574-5.194-6.732c-1.602,0.693-3.204,1.387-4.806,2.08c1.959,1.959,3.918,3.918,5.877,5.877
			c1.602-2.434,3.204-4.866,4.806-7.3c1.418-2.155,0.124-5.905-2.577-6.333c-1.788-0.283-2.94-0.421-4.651,0.269
			c1.399,2.404,2.799,4.809,4.198,7.212c1.081-1.019,2.161-2.037,3.241-3.057c3.772-3.559-1.005-8.804-5.238-6.789
			c-1.072,0.51-2.144,1.02-3.215,1.53c1.748,2.267,3.497,4.533,5.246,6.8c1.195-1.317,2.201-2.65,3.068-4.206
			c1.728-3.097-1.149-7.735-4.896-6.37c-1.644,0.599-3.287,1.197-4.93,1.797c1.409,2.421,2.818,4.842,4.229,7.264
			c2.503-3.119,5.006-6.238,7.51-9.356c3.174-3.954-0.674-8.896-5.292-6.858c-1.691,0.746-2.972,1.695-4.302,2.968
			c2.062,2.062,4.124,4.124,6.186,6.186c1.346-1.492,2.691-2.985,4.037-4.478c3.458-3.835-0.839-8.957-5.313-6.887
			c-0.85,0.394-1.699,0.786-2.55,1.179c1.773,2.298,3.547,4.596,5.319,6.894c1.996-2.43,3.362-4.854,4.189-7.903
			c0.958-3.536-2.214-5.929-5.434-5.434c-1.651,0.254-3.303,0.508-4.954,0.762c1.683,2.188,3.365,4.378,5.048,6.566
			c1.522-2.514,3.045-5.026,4.567-7.54c1.728-2.852-0.469-7.056-3.94-6.866c-2.327,0.127-4.455,0.488-6.631,1.344
			c1.739,2.264,3.479,4.526,5.22,6.79c1.885-2.525,3.686-5.111,5.512-7.679c1.706-2.398-0.005-6.262-2.792-6.863
			c-2.252-0.487-4.12-0.464-6.389-0.134c1.761,2.29,3.521,4.579,5.28,6.869c1.202-1.983,2.403-3.967,3.604-5.95
			c1.201-1.984,0.642-5.403-1.68-6.406c-1.802-0.777-2.951-1.26-4.938-0.996c1.349,2.35,2.696,4.699,4.045,7.049
			c0.84-1.384,1.748-2.354,2.981-3.398c3.495-2.955-0.22-9.542-4.563-7.837c-0.22,0.086-0.44,0.173-0.66,0.259
			c1.521,0.402,3.042,0.805,4.563,1.207c-0.226-0.207-0.452-0.413-0.679-0.619c0.458,1.105,0.916,2.211,1.374,3.317
			c-0.487,1.139-0.334,1.09,0.458-0.146c0.445-0.591,0.78-1.24,1.004-1.948c0.4-1.457,0.325-3.242-0.425-4.565
			c-1.712-3.023-5.019-4.729-8.409-3.434c1.927,1.926,3.854,3.853,5.779,5.779c0.828-2.247,1.655-4.494,2.484-6.74
			c0.859-2.332-0.939-5.252-3.286-5.788c-1.084-0.247-2.168-0.494-3.251-0.741c0.692,2.623,1.385,5.246,2.077,7.869
			c3.057-2.654,6.048-6.298,5.11-10.656c-0.879-4.088-3.699-6.454-7.805-6.775c1.099,2.653,2.198,5.307,3.297,7.96
			c1.468-1.67,2.678-3.353,3.612-5.377c1.297-2.808-0.156-7.38-3.994-6.96c-1.207,0.132-2.415,0.264-3.622,0.396
			c1.479,1.941,2.957,3.882,4.436,5.823c0.459-1.405,0.996-2.779,1.611-4.124c1.557-3.517-0.961-7.806-5.149-6.699
			c-5.435,1.436-10.624,3.297-15.73,5.648c2.174,1.672,4.349,3.343,6.523,5.015c0.584-1.704,1.168-3.408,1.752-5.112
			c1.038-3.025-2.322-6.562-5.409-5.41c-2.072,0.773-4.143,1.546-6.215,2.319c1.116,2.647,2.232,5.294,3.349,7.942
			c1.82-1.115,3.64-2.23,5.459-3.346c-1.735-2.249-3.469-4.497-5.204-6.745c-3.27,3.164-6.762,5.877-10.64,8.26
			c1.688,2.188,3.376,4.375,5.064,6.563c2.593-3.113,5.533-5.535,9.318-7.074c-1.562-2.031-3.123-4.063-4.684-6.094
			c-3.705,5.292-6.967,10.81-9.817,16.608c-1.875,3.813,1.893,7.691,5.74,5.741c5.474-2.775,10.697-5.906,15.725-9.425
			c-1.713-2.22-3.427-4.44-5.14-6.66c-4.118,4.505-8.546,8.677-13.405,12.38c-4.292,3.271-0.251,10.648,4.329,7.406
			c4.061-2.874,8.31-5.306,12.845-7.351c-1.747-2.264-3.494-4.528-5.241-6.792c-3.721,4.194-7.443,8.388-11.164,12.582
			c-3.33,3.754,0.814,9.121,5.291,6.858c3.17-1.603,6.341-3.205,9.512-4.807c-2.003-2.003-4.006-4.007-6.01-6.01
			c-1.963,2.76-4.052,5.374-6.289,7.915c-3.2,3.636,0.909,9.724,5.356,6.942c4.667-2.918,9.045-6.189,13.195-9.806
			c3.787-3.301-1.312-9.998-5.397-6.995c-2.526,1.856-5.069,3.32-8.033,4.371c1.684,2.19,3.367,4.38,5.051,6.569
			c2.155-3.874,4.772-7.142,8.049-10.125c4.384-3.991-1.907-9.758-6.334-6.335c-3.71,2.868-6.744,6.172-9.508,9.947
			c-2.446,3.342,1.563,7.418,5.034,6.548c2.829-0.71,5.455-1.695,8.119-2.867c-1.795-2.326-3.591-4.652-5.386-6.979
			c-3.766,4.214-7.532,8.43-11.298,12.645c-3.346,3.744,0.842,9.327,5.349,6.933c3.592-1.909,7.182-3.822,10.787-5.705
			c-1.783-2.312-3.567-4.623-5.351-6.935c-3.577,3.721-7.153,7.442-10.728,11.164c-3.644,3.793,0.938,9.325,5.45,7.064
			c4.272-2.141,8.332-4.559,12.249-7.296c-1.847-2.394-3.694-4.788-5.541-7.182c-3.741,3.851-7.664,7.473-11.802,10.894
			c2.196,2.196,4.391,4.392,6.587,6.588c2.352-2.244,4.835-4.109,7.631-5.765c-1.904-2.469-3.81-4.937-5.714-7.405
			c-4.225,4.955-8.464,9.899-12.665,14.875c-3.375,3.996,0.909,10.536,5.821,7.544c3.463-2.109,6.927-4.219,10.391-6.328
			c-1.942-2.518-3.885-5.035-5.827-7.553c-3.564,4.328-7.469,8.245-11.786,11.821c2.27,2.271,4.54,4.54,6.81,6.811
			c3.017-3.478,6.153-6.828,9.423-10.068c4.507-4.466-2.098-10.667-6.817-6.818c-3.375,2.752-6.512,5.704-9.465,8.903
			c-4.222,4.576,2.264,11.078,6.825,6.826c5.087-4.743,10.175-9.486,15.263-14.229c-2.279-2.279-4.559-4.559-6.837-6.838
			c-3.996,3.8-7.494,7.967-10.651,12.483c-2.735,3.912,2.707,9.402,6.623,6.623c3.941-2.797,7.882-5.594,11.823-8.392
			c-1.958-2.537-3.916-5.074-5.873-7.611c-5.79,6.347-11.58,12.694-17.369,19.041c-4.213,4.618,2.311,11.203,6.869,6.869
			c4.894-4.653,10.103-8.809,15.746-12.519c-1.966-2.547-3.932-5.095-5.896-7.642c-4.525,5.24-9.049,10.48-13.574,15.722
			c-3.396,3.933,1.176,11.115,5.907,7.655c4.175-3.054,8.5-5.825,13.02-8.342c-1.971-2.555-3.942-5.109-5.914-7.665
			c-5.175,5.532-10.35,11.064-15.525,16.596c-4.357,4.658,2.159,10.973,6.915,6.916c3.654-3.117,7.439-6.021,11.393-8.747
			c-2.232-2.232-4.465-4.466-6.698-6.698c-2.808,3.655-5.931,7.03-9.236,10.236c-3.917,3.802,1.355,11.02,5.94,7.7
			c2.641-1.913,5.282-3.825,7.922-5.737c-2.237-2.237-4.475-4.475-6.712-6.713c-2.707,3.523-5.414,7.047-8.121,10.571
			c-3.032,3.947,2.798,9.345,6.72,6.72c3.249-2.175,6.498-4.349,9.747-6.523c-1.986-2.574-3.972-5.147-5.958-7.722
			c-1.712,2.214-3.425,4.428-5.137,6.642c-3.412,4.412,0.692,10.188,5.962,7.727c1.46-0.682,2.921-1.364,4.381-2.046
			c-2.245-2.245-4.489-4.489-6.734-6.734c-1.345,2.124-2.691,4.248-4.036,6.373c-2.255,3.561,1.473,8.609,5.562,7.234
			c1.165-0.392,2.33-0.783,3.495-1.176c-1.598-2.744-3.196-5.489-4.793-8.233c-3.22,3.529-5.99,7.332-8.276,11.529
			c-2.283,4.191,2.411,9.482,6.748,6.747c0.822-0.518,1.645-1.036,2.467-1.555c-2.25-0.591-4.5-1.181-6.749-1.771
			c0.185,0.269,0.37,0.537,0.554,0.806c-0.166-1.268-0.332-2.534-0.497-3.802c-0.076,0.317-0.152,0.634-0.228,0.951
			c-0.812,3.385,2.36,7.425,6.069,6.069c1.718-0.628,3.169-0.869,4.997-0.881c0.141-0.001,3.987,0.763,3.052-0.046
			c-0.483-1.166-0.966-2.332-1.449-3.497c-0.011,0.244-0.021,0.489-0.032,0.734c-0.157,3.479,3.256,5.271,6.262,4.771
			c3.155-0.526,6.694,1.063,10.013,0.682c2.974-0.344,5.635-1.416,8.18-2.961c-2.271-0.595-4.541-1.19-6.811-1.785
			c0.45,0.678,0.9,1.355,1.351,2.033c1.539,2.317,4.322,3.136,6.816,1.787c5.903-3.192,11.807-6.385,17.71-9.578
			c5.126-2.771,1.556-10.506-3.866-9.17c-1.522,0.375-3.046,0.75-4.568,1.125c-5.206,1.283-4.354,8.042,0,9.693
			c4.973,1.885,10.187,2.792,14.888-0.243c-2.302-2.302-4.603-4.603-6.904-6.904c-2.276,4.833-4.03,9.747-5.1,14.988
			c-1.303,6.385,8.475,9.104,9.781,2.697c0.892-4.371,2.143-8.542,4.033-12.592c1.973-4.228-2.296-9.902-6.904-6.904
			c-2.249,1.464-4.843,0.12-7.122-0.735c0,3.231,0,6.462,0,9.693c1.521-0.381,3.043-0.762,4.564-1.143
			c-1.289-3.057-2.577-6.113-3.866-9.17c-5.892,3.213-11.783,6.426-17.675,9.639c2.272,0.596,4.544,1.191,6.816,1.787
			c-0.453-0.676-0.905-1.353-1.358-2.029c-1.483-2.216-4.391-3.267-6.811-1.785c-5.155,3.155-10.229,0.387-15.798,1.334
			c2.088,1.591,4.175,3.181,6.262,4.771c0.365-8.774-13.753-7.779-19.083-5.826c2.023,2.023,4.046,4.047,6.069,6.069
			c0.514-2.15,0.456-3.7-0.825-5.557c-1.483-2.151-4.35-3.286-6.749-1.771c-0.822,0.52-1.644,1.039-2.466,1.559
			c2.25,2.249,4.499,4.498,6.748,6.747c1.891-3.478,4.059-6.612,6.727-9.541c3.125-3.433,0.144-9.898-4.793-8.233
			c-1.165,0.393-2.329,0.785-3.493,1.178c1.854,2.412,3.708,4.823,5.562,7.234c1.343-2.125,2.687-4.25,4.031-6.375
			c2.852-4.509-2.57-8.683-6.733-6.734c-1.46,0.684-2.92,1.366-4.379,2.05c2.244,2.244,4.487,4.487,6.731,6.731
			c1.71-2.216,3.421-4.431,5.132-6.646c3.047-3.944-2.806-9.355-6.727-6.727c-3.247,2.177-6.495,4.354-9.742,6.531
			c2.24,2.24,4.48,4.48,6.72,6.72c2.704-3.524,5.407-7.05,8.111-10.575c2.969-3.872-2.839-9.523-6.713-6.713
			c-2.639,1.915-5.279,3.829-7.918,5.743c1.98,2.567,3.96,5.134,5.94,7.7c3.919-3.81,7.436-7.895,10.759-12.229
			c2.996-3.907-2.802-9.39-6.699-6.698c-4.633,3.2-9.085,6.629-13.366,10.286c2.305,2.306,4.61,4.61,6.915,6.916
			c5.171-5.537,10.341-11.073,15.512-16.609c3.784-4.053-1.006-10.402-5.914-7.665c-4.518,2.52-8.841,5.295-13.014,8.352
			c1.969,2.552,3.938,5.104,5.907,7.655c4.521-5.244,9.041-10.488,13.561-15.733c3.431-3.979-1.025-10.85-5.896-7.642
			c-6.317,4.16-12.226,8.835-17.703,14.052c2.29,2.29,4.58,4.579,6.869,6.869c5.785-6.353,11.569-12.704,17.354-19.057
			c3.542-3.889-1.19-10.941-5.873-7.611c-3.939,2.8-7.878,5.601-11.817,8.401c2.208,2.207,4.416,4.415,6.623,6.623
			c2.687-3.85,5.732-7.297,9.129-10.532c4.527-4.313-2.29-11.085-6.837-6.838c-5.083,4.747-10.167,9.494-15.25,14.24
			c2.275,2.275,4.55,4.551,6.825,6.826c2.95-3.203,6.085-6.157,9.457-8.911c-2.272-2.272-4.545-4.546-6.817-6.818
			c-3.268,3.243-6.401,6.597-9.415,10.076c-4.103,4.737,2.048,10.762,6.81,6.811c4.314-3.58,8.216-7.501,11.776-11.831
			c3.3-4.014-0.873-10.574-5.827-7.553c-3.462,2.112-6.924,4.225-10.385,6.338c1.94,2.515,3.88,5.029,5.821,7.544
			c4.2-4.982,8.363-9.997,12.54-15c3.282-3.933-0.873-10.34-5.713-7.405c-3.438,2.085-6.579,4.514-9.458,7.319
			c-4.364,4.253,2.064,10.407,6.587,6.588c4.1-3.464,7.983-7.126,11.682-11.015c3.456-3.634-1.176-10.302-5.541-7.182
			c-3.889,2.778-7.923,5.239-12.173,7.425c1.817,2.354,3.633,4.709,5.45,7.064c3.537-3.761,7.075-7.521,10.612-11.281
			c3.474-3.69-0.906-9.315-5.351-6.935c-3.586,1.92-7.187,3.811-10.786,5.707c1.783,2.311,3.566,4.622,5.349,6.933
			c3.78-4.201,7.561-8.402,11.341-12.603c3.549-3.944-0.856-8.954-5.386-6.98c-1.969,0.858-3.928,1.433-6.003,1.946
			c1.678,2.183,3.356,4.365,5.033,6.548c2.057-2.788,4.489-5.301,7.239-7.411c-1.81-2.345-3.619-4.69-5.428-7.036
			c-3.824,3.457-6.948,7.433-9.438,11.946c-1.771,3.207,1.173,7.96,5.05,6.569c3.675-1.318,7.006-2.977,10.151-5.305
			c-1.799-2.332-3.599-4.663-5.397-6.995c-3.573,3.136-7.34,5.932-11.358,8.472c1.786,2.313,3.571,4.628,5.356,6.942
			c2.715-3.116,5.245-6.354,7.624-9.733c2.721-3.864-2.403-7.854-6.01-6.01c-3.162,1.617-6.324,3.234-9.485,4.852
			c1.764,2.286,3.527,4.572,5.291,6.858c3.702-4.214,7.403-8.428,11.105-12.641c3.354-3.817-0.794-8.824-5.241-6.792
			c-4.525,2.067-8.763,4.519-12.809,7.413c1.443,2.469,2.886,4.938,4.329,7.406c5.436-4.186,10.465-8.699,15.074-13.79
			c3.085-3.408-1.029-9.568-5.14-6.66c-5.01,3.544-10.219,6.701-15.679,9.503c1.914,1.913,3.827,3.827,5.74,5.74
			c2.822-5.811,6.056-11.345,9.735-16.655c1.965-2.836-1.333-7.476-4.684-6.094c-5.087,2.098-9.415,4.969-13.023,9.164
			c-2.999,3.487,0.796,9.094,5.064,6.563c4.517-2.678,8.664-5.812,12.494-9.404c3.595-3.371-1.031-9.214-5.204-6.745
			c-1.837,1.087-3.674,2.173-5.511,3.259c-4.142,2.449-1.4,9.629,3.349,7.942c2.081-0.739,4.162-1.479,6.242-2.218
			c-1.803-1.803-3.606-3.606-5.41-5.41c-0.612,1.696-1.223,3.393-1.834,5.089c-1.474,4.089,3.352,6.415,6.523,5.015
			c4.407-1.945,8.979-3.44,13.671-4.522c-1.716-2.233-3.433-4.466-5.149-6.699c-0.95,2.067-1.819,4.147-2.607,6.282
			c-0.98,2.655,1.59,6.094,4.436,5.823c1.207-0.115,2.415-0.23,3.622-0.346c-1.331-2.32-2.663-4.64-3.994-6.96
			c-0.628,1.311-1.237,2.365-2.218,3.451c-2.868,3.174-0.758,7.586,3.297,7.96c-2.593-0.24-2.151-0.132-3.964,1.447
			c-2.634,2.295-1.252,7.116,2.077,7.868c1.085,0.245,2.169,0.49,3.253,0.736c-1.095-1.93-2.19-3.858-3.286-5.788
			c-0.823,2.248-1.647,4.496-2.471,6.744c-1.176,3.21,2.533,7.025,5.779,5.779c-1.037-4.325-2.187-5.361-3.448-3.107
			c-0.593,0.92-1.314,2.025-1.173,3.194c0.251,2.081,0.568,3.427,2.167,4.879c1.15,1.045,3,1.823,4.563,1.206
			c0.221-0.087,0.44-0.174,0.661-0.261c-1.521-2.612-3.042-5.225-4.563-7.837c-1.813,1.537-3.212,3.269-4.44,5.301
			c-2.361,3.905,1.502,7.393,5.29,6.881c0.445-0.06,0.891-0.12,1.336-0.18c-1.203-0.157-2.405-0.315-3.608-0.473
			c0.413,0.178,0.825,0.355,1.238,0.533c-0.56-2.136-1.119-4.271-1.68-6.406c-1.197,1.985-2.395,3.972-3.593,5.956
			c-2.334,3.866,1.48,7.429,5.28,6.869c0.473,0.042,0.945,0.084,1.418,0.126c-0.931-2.287-1.861-4.575-2.792-6.863
			c-1.82,2.568-3.666,5.119-5.426,7.729c-2.129,3.159,1.454,8.362,5.22,6.79c1.402-0.586,2.642-1.015,4.174-1.131
			c-1.313-2.289-2.627-4.578-3.94-6.866c-1.469,2.544-2.938,5.089-4.405,7.634c-2.103,3.643,1.322,7.219,5.048,6.566
			c1.642-0.288,3.283-0.576,4.925-0.863c-1.811-1.812-3.622-3.623-5.434-5.434c-0.38,1.529-0.863,2.8-1.877,4.044
			c-3.188,3.91,0.696,9.048,5.319,6.894c0.848-0.395,1.696-0.79,2.544-1.187c-1.771-2.296-3.542-4.591-5.313-6.887
			c-1.341,1.497-2.682,2.995-4.021,4.493c-3.744,4.184,2.096,10.125,6.186,6.186c0.695-0.772,1.537-1.31,2.524-1.612
			c-1.764-2.286-3.528-4.572-5.292-6.858c-2.493,3.129-4.987,6.257-7.48,9.386c-2.401,3.014-0.314,8.938,4.229,7.264
			c1.642-0.605,3.283-1.21,4.924-1.814c-1.632-2.123-3.265-4.247-4.896-6.37c-0.416,0.924-0.983,1.743-1.703,2.46
			c-3.382,3.752,0.826,8.925,5.246,6.8c1.069-0.515,2.14-1.028,3.209-1.542c-1.746-2.263-3.492-4.526-5.238-6.789
			c-1.077,1.022-2.153,2.045-3.229,3.068c-2.959,2.811,0.083,8.889,4.198,7.212c0.021-0.093,0.043-0.185,0.065-0.276
			c-0.859-2.111-1.718-4.222-2.577-6.333c-1.593,2.438-3.186,4.877-4.778,7.315c-2.604,3.986,2.3,7.439,5.877,5.877
			c1.599-0.698,3.197-1.397,4.796-2.096c-1.731-2.244-3.463-4.488-5.194-6.732c-2.282,2.338-3.259,4.726-3.39,7.982
			c-0.149,3.721,4.778,5.675,7.3,3.023c2.97-3.12,7.618-1.285,11.153-3.861c-1.939-1.939-3.879-3.879-5.818-5.818
			c-0.443,0.699-0.886,1.398-1.327,2.098c-1.871,2.96,1.264,7.634,4.798,6.241c1.312-0.517,2.623-1.033,3.935-1.549
			c-1.738-1.739-3.478-3.479-5.217-5.218c-0.636,1.621-1.514,2.913-2.561,4.279c-2.217,2.891,1.466,7.495,4.777,6.214
			c2.337-0.904,4.437-1.916,6.486-3.375c-1.705-2.209-3.409-4.418-5.113-6.627c-1.319,1.599-2.64,3.197-3.959,4.796
			c-2.338,2.832-0.228,8.837,4.095,7.033c3.625-1.513,7.082-3.194,10.431-5.258c-1.692-2.194-3.385-4.388-5.077-6.581
			c-1.29,1.503-2.581,3.006-3.871,4.509c-2.985,3.476,0.804,9.131,5.064,6.563c2.221-1.338,4.447-2.666,6.675-3.993
			c-1.911-1.912-3.822-3.823-5.734-5.734c-0.659,0.902-1.319,1.805-1.979,2.707c-2.645,3.617,2.33,7.594,5.75,5.75
			c1.188-0.641,2.376-1.281,3.563-1.921c-1.703-2.208-3.406-4.416-5.109-6.623c-1.345,1.255-2.688,2.511-4.031,3.768
			c-3.009,2.812,0.085,8.52,4.121,7.08c2.355-0.84,4.711-1.68,7.065-2.52c-1.382-2.375-2.765-4.75-4.147-7.125
			c-1.517,1.929-3.033,3.857-4.551,5.786c-2.864,3.64,0.685,9.339,5.197,6.735c2.599-1.5,5.198-2.999,7.798-4.499
			c-1.745-2.262-3.49-4.523-5.235-6.785c-1.335,1.689-2.669,3.379-4.004,5.068c-3.007,3.809,0.649,9.151,5.264,6.821
			c3.167-1.6,6.334-3.199,9.501-4.799c-2.145-1.648-4.29-3.298-6.435-4.946c-0.305,0.932-0.609,1.863-0.915,2.796
			c-1.041,3.182,2.288,6.325,5.401,5.401c1.402-0.417,2.804-0.833,4.205-1.249c-1.658-2.158-3.317-4.315-4.976-6.473
			c-2.18,3.152-2.203,7.282,1.426,9.293c-0.299-2.313-0.597-4.628-0.896-6.942c-2.104,2.708-3.575,5.35-4.301,8.731
			c-0.748,3.482,3.089,7.426,6.526,5.019c0.567-0.26,1.135-0.519,1.701-0.777c-1.145-0.15-2.289-0.3-3.435-0.45
			c0.293,0.171,0.585,0.342,0.877,0.513c-0.683-0.889-1.366-1.777-2.05-2.666c0.128,0.307,0.255,0.613,0.383,0.92
			c0.149-1.147,0.3-2.294,0.45-3.44c-0.132,0.265-0.264,0.53-0.395,0.795c-2.541,5.119,4.916,9.595,7.715,4.51
			c0.332-0.603,0.664-1.205,0.996-1.807c1.602-2.905-0.389-6.802-3.864-6.733c-1.461,0.028-2.622,0.185-4.035,0.558
			c1.893,1.441,3.785,2.884,5.678,4.325c0.077-0.682,0.154-1.362,0.23-2.044c0.363-3.213-4.163-5.849-6.76-3.879
			c-0.737,0.802-1.658,1.216-2.761,1.241c1.849,1.849,3.696,3.696,5.545,5.545c0.177-0.733,0.354-1.466,0.533-2.199
			c1.007-4.147-3.092-6.655-6.634-5.1c-1.771,0.778-3.307,1.683-4.843,2.857c2.22,0.903,4.439,1.806,6.659,2.709
			c-1.694-5.385-7.093-6.012-11.39-3.068c2.291,1.314,4.582,2.63,6.873,3.944c-0.052-0.851-0.104-1.702-0.158-2.553
			c-0.262-4.201-4.698-5.782-7.82-3.239c0.58-0.473-2.652-0.405-2.709-0.39c-1.341,0.369-2.676,1.198-3.931,1.783
			c2.265,0.921,4.529,1.843,6.794,2.764c-0.303-0.801-0.605-1.601-0.909-2.401c-0.806-2.127-3.214-4.271-5.706-3.239
			c-1.241,0.514-2.482,1.028-3.724,1.543c1.911,1.91,3.822,3.821,5.732,5.732c0.264-1.063,0.522-2.127,0.776-3.192
			c0.991-4.121-3.198-7.118-6.856-5.271c-2.177,1.098-4.359,2.182-6.541,3.269c2.105,2.105,4.211,4.211,6.316,6.316
			c0.797-1.76,1.593-3.52,2.391-5.279c1.682-3.713-2.125-9.243-6.273-6.273c-2.105,1.508-4.264,2.781-6.603,3.893
			c2.071,2.071,4.143,4.143,6.214,6.214c0.916-2.039,1.832-4.079,2.748-6.119c1.679-3.738-2.021-8.913-6.163-6.163
			c-2.196,1.458-4.392,2.916-6.587,4.374c2.034,2.034,4.068,4.068,6.103,6.103c1.201-1.884,2.401-3.768,3.603-5.651
			c2.328-3.652-2.364-8.563-6.052-6.052c-2.667,1.816-5.333,3.634-8,5.45c1.765,2.287,3.529,4.574,5.295,6.862
			c2.382-2.942,4.764-5.886,7.146-8.828c3.485-4.308-1.792-9.688-6.09-6.09c-3.026,2.533-6.052,5.067-9.078,7.601
			c2.22,1.713,4.439,3.426,6.659,5.138c1.377-2.027,2.755-4.056,4.133-6.083c2.311-3.4-2.33-8.189-5.745-5.745
			c-3.371,2.413-6.742,4.826-10.114,7.238c1.883,1.884,3.767,3.768,5.651,5.65c1.832-3,3.665-5.999,5.499-8.999
			c2.58-4.223-2.989-7.665-6.394-4.934c-2.965,2.379-5.93,4.759-8.894,7.138c2.098,1.619,4.196,3.238,6.294,4.856
			c1.12-2.071,2.24-4.144,3.36-6.215c1.895-3.505-1.9-7.389-5.43-5.43c-4.889,2.715-9.543,5.73-14.02,9.082
			c1.767,1.767,3.534,3.534,5.301,5.302c1.569-3.16,3.137-6.32,4.705-9.481c1.538-3.099-1.859-7.663-5.221-5.221
			c-3.143,2.282-6.287,4.562-9.429,6.843c1.74,1.739,3.479,3.479,5.219,5.22c0.98-1.975,1.96-3.949,2.94-5.923
			c2.17-4.371-4.186-8.188-6.588-3.852c-0.789,1.424-1.577,2.848-2.365,4.271c-2.125,3.839,2.819,7.587,5.992,4.623
			c1.464-1.367,2.928-2.734,4.392-4.103c-1.798-1.798-3.597-3.597-5.396-5.395c-1.639,1.899-2.732,3.793-3.361,6.233
			c-0.974,3.785,3.584,6.277,6.376,3.712c2.04-1.874,4.08-3.748,6.121-5.622c-1.998-1.541-3.995-3.082-5.992-4.623
			c-0.927,1.444-1.961,2.396-3.581,3.019c1.564,1.564,3.128,3.129,4.693,4.693c1.349-3.911,2.704-7.819,4.056-11.729
			c1.163-3.36-2.849-5.78-5.619-4.319c-1.537,0.811-3.047,1.371-4.726,1.817c1.57,1.57,3.141,3.141,4.712,4.712
			c0.816-2.994,2.025-5.481,3.792-8.016c2.489-3.568-3.229-7.984-6.03-4.652c-1.569,1.866-3.184,3.248-5.322,4.446
			c1.754,1.754,3.508,3.509,5.263,5.263c2.78-5.182,5.563-10.362,8.339-15.546c1.809-3.379-1.843-7.248-5.281-5.281
			c-2.607,1.492-5.22,2.977-7.831,4.463c1.751,1.751,3.502,3.502,5.254,5.254c1.838-4.152,4.075-7.971,6.8-11.604
			c2.503-3.337-2.152-6.745-5.222-5.221c-1.477,0.732-2.953,1.464-4.437,2.183c1.746,1.746,3.493,3.493,5.239,5.239
			c1.774-2.568,3.061-5.246,4.105-8.18c1-2.812-2.067-5.517-4.747-4.746c-1.85,0.532-3.586,0.821-5.512,0.871
			c1.117,1.947,2.234,3.895,3.352,5.841c1.67-3.479,3.754-6.387,6.555-9.051c3.689-3.509-1.696-8.603-5.486-5.486
			c-1.793,1.474-3.585,2.948-5.378,4.422c1.814,1.814,3.629,3.629,5.443,5.443c1.257-1.563,2.583-2.965,4.074-4.307
			c-1.802-1.802-3.604-3.604-5.406-5.406c-1.514,1.647-2.777,3.367-3.816,5.354c-1.64,3.133,1.868,7.51,5.196,5.196
			c1.681-1.168,3.292-2.15,5.205-2.926c-1.418-1.845-2.836-3.689-4.254-5.534c-1.537,2.523-3.311,4.651-5.478,6.658
			c1.756,1.756,3.512,3.512,5.268,5.268c3.473-3.477,6.944-6.954,10.433-10.415c3.436-3.41-1.604-8.149-5.205-5.205
			c-2.996,2.45-5.485,5.176-7.828,8.243c-2.625,3.437,2.863,7.213,5.78,4.46c2.138-2.018,4.103-4.132,5.959-6.411
			c2.938-3.608-1.964-8.775-5.205-5.205c-1.739,1.916-3.552,3.465-5.764,4.827c1.678,1.679,3.357,3.356,5.035,5.035
			c3.507-5.109,7.014-10.218,10.521-15.327c2.065-3.008-2.028-7.097-5.035-5.035c-3.639,2.494-7.277,4.988-10.916,7.483
			c1.678,1.679,3.357,3.356,5.035,5.035c3.056-4.585,6.27-9.044,9.696-13.36c2.936-3.699-1.514-8.285-5.205-5.205
			c-4.344,3.625-8.688,7.25-13.032,10.875c1.927,1.486,3.854,2.974,5.78,4.46c1.999-3.494,4.139-6.879,6.449-10.176
			c2.083-2.974-2.04-7.077-5.011-5.011c-2.257,1.569-4.515,3.139-6.772,4.708c1.663,1.662,3.325,3.325,4.987,4.987
			c2.621-3.881,5.241-7.762,7.862-11.644c1.996-2.955-1.984-6.993-4.946-4.946c-2.983,2.061-5.966,4.123-8.949,6.184
			c1.451,1.881,2.902,3.761,4.353,5.642c3.408-4.201,6.815-8.403,10.223-12.605c2.354-2.901-0.746-8.084-4.312-5.588
			c-2.727,1.909-5.455,3.818-8.182,5.727c1.429,1.852,2.857,3.704,4.286,5.555c2.493-3.216,4.985-6.432,7.478-9.648
			c2.223-2.869-0.688-8.012-4.255-5.515c-3.152,2.206-6.305,4.413-9.457,6.619c1.408,1.825,2.817,3.651,4.225,5.476
			c3.584-3.996,7.168-7.993,10.752-11.99c2.5-2.787-0.806-7.757-4.184-5.423c-3.556,2.457-7.112,4.914-10.668,7.372
			c1.384,1.793,2.768,3.586,4.151,5.379c2.174-2.525,4.345-5.055,6.533-7.568c2.451-2.816-0.693-7.527-4.142-5.368
			c-2.596,1.625-5.193,3.249-7.789,4.874c1.568,1.568,3.136,3.136,4.704,4.704c1.463-2.1,2.925-4.199,4.388-6.298
			c2.221-3.188-1.919-5.929-4.727-4.727c-1.715,0.734-3.197,1.594-4.685,2.719c1.582,1.581,3.163,3.162,4.744,4.744
			c1.407-2.221,2.974-4.154,4.829-6.009c2.883-2.883-0.763-7.26-4.224-5.475c-0.995,0.513-1.99,1.026-2.984,1.54
			c1.593,1.593,3.187,3.187,4.78,4.78c1.026-1.836,2.052-3.673,3.078-5.51c1.877-3.36-2.958-7.46-5.508-4.25
			c-1.219,1.534-2.234,2.979-3.104,4.747c-1.451,2.947,1.649,6.889,4.813,4.813c1.697-1.113,3.394-2.227,5.091-3.339
			c-1.426-1.849-2.853-3.698-4.279-5.546c-1.252,1.539-2.505,3.078-3.758,4.617c-2.914,3.58,1.431,7.846,5.013,5.013
			c6.355-5.029,12.71-10.057,19.066-15.086c-1.696-1.696-3.392-3.392-5.088-5.088c-3.9,3.138-8.057,5.824-12.455,8.207
			c1.657,1.657,3.313,3.313,4.97,4.97c0.476-1.083,1.236-1.901,2.282-2.455c-1.467-1.902-2.935-3.804-4.402-5.706
			c-2.701,2.369-5.401,4.738-8.102,7.108c-3.079,2.701,1.027,8.083,4.395,5.696c3.582-2.54,7.165-5.079,10.747-7.619
			c-1.462-1.895-2.924-3.79-4.386-5.684c-2.584,3.309-5.169,6.618-7.753,9.927c-2.331,2.984,0.65,8.11,4.376,5.672
			c5.406-3.538,10.812-7.075,16.218-10.612c-1.454-1.885-2.909-3.77-4.363-5.655c-3.664,3.121-7.328,6.242-10.992,9.362
			c1.693,1.693,3.387,3.387,5.08,5.08c3.747-3.349,7.433-6.478,12.445-7.606c-1.349-1.754-2.696-3.508-4.045-5.262
			c-3.199,4.92-6.398,9.84-9.597,14.76c-2.102,3.233,1.888,6.335,4.887,4.887c5.566-2.688,11.19-5.245,16.894-7.632
			c-1.46-1.46-2.92-2.92-4.38-4.379c-0.447,2.086-1.161,3.706-2.37,5.449c-2.01,2.896,1.971,6.866,4.865,4.866
			c1.832-1.266,3.663-2.532,5.495-3.797c-1.435-1.86-2.87-3.72-4.305-5.579c-1.503,1.255-2.985,2.13-4.723,2.989
			c1.434,1.858,2.867,3.715,4.3,5.573c1.948-2.128,3.897-4.257,5.847-6.384c2.854-3.113-0.699-7.176-4.297-5.569
			c-2.436,1.088-4.872,2.177-7.309,3.265c1.617,1.617,3.234,3.234,4.852,4.851c1.507-2.703,3.013-5.407,4.519-8.11
			c1.378-2.475-0.941-6.427-4.004-5.208c-1.712,0.681-3.424,1.362-5.135,2.044c1.149,1.975,2.3,3.951,3.449,5.926
			c1.744-1.805,3.487-3.61,5.23-5.415c2.729-2.825-0.862-7.873-4.297-5.569c-1.865,1.252-3.731,2.504-5.598,3.756
			c1.433,1.856,2.865,3.712,4.297,5.569c1.992-1.881,3.984-3.762,5.977-5.642c-1.671-1.671-3.343-3.343-5.014-5.015
			c-0.791,1.151-1.88,1.921-3.268,2.31c1.335,1.736,2.669,3.472,4.004,5.208c1.982-3.105,2.409-6.366,1.16-9.853
			c-0.119,0.911-0.238,1.821-0.357,2.732c1.131-2.346,2.173-4.72,3.171-7.125c0.767-1.847-0.818-3.819-2.477-4.361
			c-1.08-0.354-2.161-0.707-3.241-1.06c0.706,1.736,1.413,3.472,2.119,5.208c1.392-2.408,2.97-4.534,4.892-6.544
			c2.133-2.229,0.627-6.027-2.507-6.053c-0.86-0.007-1.721-0.014-2.581-0.021c0.836,2.018,1.672,4.036,2.507,6.053
			c0.536-0.514,1.072-1.028,1.609-1.542c3.775-2.568,0.522-8.194-3.58-6.123c-4.634,2.339-6.337,6.716-5.598,11.671
			c0.238,1.596,1.982,2.521,3.419,2.604c1.008,0.008,1.965,0.227,2.872,0.654c-0.706-1.736-1.413-3.472-2.119-5.208
			c-2.129,3.334-4.58,6.192-7.543,8.806c1.628,1.628,3.257,3.256,4.885,4.885c1.867-1.795,3.445-3.717,4.912-5.846
			c1.685-2.447-1.096-5.9-3.841-4.995c-3.082,1.016-5.847,2.318-8.537,4.143c1.346,1.744,2.691,3.489,4.038,5.233
			c2.643-2.499,5.286-4.999,7.929-7.499c2.653-2.51-0.844-7.169-3.933-5.097c-3.146,2.11-6.292,4.218-9.438,6.328
			c1.274,1.652,2.55,3.304,3.824,4.956c2.935-2.684,5.9-5.334,8.855-7.996c3.039-2.737-1.396-7.057-4.449-4.449
			c-3.732,3.188-7.597,6.176-11.622,8.987c1.273,1.651,2.547,3.301,3.821,4.952c4.367-3.968,8.735-7.935,13.104-11.903
			c2.626-2.386-0.93-7.12-3.831-4.964C76.23,58.44,65.487,67.012,55.058,75.972c1.499,1.499,2.997,2.997,4.495,4.495
			c9.152-9.961,19.225-18.931,30.242-26.785c-1.291-1.673-2.582-3.347-3.874-5.021c-10.125,8.253-20.25,16.507-30.374,24.761
			c1.683,1.298,3.365,2.596,5.048,3.895C67.179,67.161,76.757,59.736,86.3,52.522c3.226-2.438,0.368-7.839-3.262-5.579
			c-9.884,6.154-19.225,13.067-28.023,20.692c1.53,1.53,3.06,3.06,4.59,4.59c6.253-7.814,13.293-14.82,21.138-21.034
			c-1.536-1.536-3.073-3.072-4.609-4.608c-7.769,6.501-15.538,13.002-23.307,19.503c1.713,1.321,3.426,2.643,5.139,3.965
			c4.651-6.149,10.124-11.648,16.261-16.316c-1.31-1.697-2.619-3.394-3.928-5.091c-5.847,4.765-11.693,9.53-17.54,14.296
			c1.669,1.288,3.338,2.576,5.008,3.864c3.386-4.729,7.42-8.799,12.124-12.219c-1.058-1.81-2.116-3.62-3.174-5.43
			c-4.88,3.721-9.761,7.442-14.641,11.163c1.252,1.624,2.505,3.247,3.758,4.871c3.747-4.367,7.62-8.567,11.784-12.541
			c-1.357-1.357-2.715-2.715-4.072-4.072c-2.563,2.61-5.375,4.533-8.835,5.754c1.031,1.341,2.062,2.681,3.092,4.022
			c1.748-2.387,3.785-4.23,6.214-5.901c-0.85-1.455-1.701-2.909-2.551-4.363c-2.917,2.161-5.834,4.322-8.751,6.483
			c0.943,1.223,1.887,2.445,2.83,3.668c1.626-1.913,3.375-3.645,5.388-5.163c-0.882-1.143-1.765-2.287-2.647-3.43
			c-0.821,0.873-1.791,1.498-2.912,1.875c0.851,1.103,1.701,2.205,2.552,3.307c0.832-0.868,1.664-1.736,2.496-2.605
			c1.627-1.699-0.425-4.273-2.467-3.197c-1.12,0.59-2.239,1.18-3.359,1.77c0.895,0.895,1.79,1.79,2.685,2.685
			c0.539-0.729,1.078-1.458,1.617-2.186c1.128-1.526-1.088-3.698-2.613-2.613c-1.105,0.787-2.209,1.574-3.314,2.361
			c0.835,0.835,1.67,1.67,2.505,2.505c0.333-0.515,0.667-1.03,1.001-1.545C57.749,50.035,54.688,48.324,53.374,50.188L53.374,50.188
			z"/>
	</g>
</g>
<g opacity="0.9">
	<g>
		<path fill="#3F3F3F" d="M9.98,51.942c0.617-0.069,1.235-0.138,1.852-0.207c-0.357-0.862-0.714-1.725-1.072-2.587
			c-0.765,0.722-1.529,1.444-2.294,2.167c-1.41,1.332,0.381,3.433,1.999,2.591c1.039-0.541,2.077-1.081,3.115-1.621
			c-0.727-0.941-1.453-1.883-2.179-2.824c-1.158,1.014-2.339,1.985-3.465,3.034c-1.694,1.576,0.471,4.216,2.415,3.13
			c1.593-0.89,3.187-1.78,4.78-2.67c-0.899-1.165-1.798-2.33-2.697-3.495c-1.414,1.142-2.828,2.283-4.242,3.425
			c-2.283,1.843,0.621,5.041,2.976,3.857c2.064-1.038,4.128-2.075,6.192-3.113c-0.925-1.583-1.85-3.165-2.775-4.747
			c-2.415,1.785-4.672,3.655-6.599,5.973c-2.241,2.697,0.505,6.338,3.706,4.803c3.962-1.899,7.874-3.887,11.744-5.968
			c-1.267-1.642-2.533-3.283-3.8-4.925c-3.014,3.076-6.142,6.006-9.406,8.814c-2.781,2.392,0.843,6.999,3.892,5.044
			c2.885-1.85,5.768-3.703,8.658-5.545c3.546-2.261,0.312-7.879-3.308-5.658c-3.247,1.992-6.267,4.21-9.158,6.688
			c-2.906,2.49,0.866,7.24,4.047,5.246c4.869-3.052,9.915-5.597,15.304-7.601c-1.121-1.926-2.242-3.852-3.363-5.777
			c-1.91,1.867-3.82,3.735-5.73,5.602c-3.048,2.98,0.8,7.036,4.252,5.511c2.763-1.221,5.438-2.56,8.071-4.04
			c-1.2-2.053-2.4-4.107-3.601-6.16c-1.609,1.111-3.218,2.223-4.827,3.334c-3.774,2.607-0.415,8.626,3.64,6.226
			c2.205-1.306,4.426-2.474,6.804-3.442c-1.187-2.04-2.375-4.079-3.562-6.118c-0.857,0.969-1.714,1.938-2.571,2.907
			c-2.849,3.221,0.682,7.579,4.467,5.789c2.305-1.09,4.61-2.18,6.916-3.27c-1.257-2.15-2.514-4.301-3.771-6.451
			c-1.589,1.033-3.178,2.065-4.766,3.099c-4.157,2.705-0.571,8.452,3.808,6.514c2.011-0.891,4.022-1.781,6.034-2.671
			c-1.536-1.991-3.072-3.982-4.608-5.973c-1.833,1.867-3.667,3.734-5.5,5.601c-2.196,2.237-0.751,6.837,2.715,6.555
			c1.622-0.132,3.244-0.265,4.866-0.396c-0.911-2.198-1.821-4.396-2.731-6.594c-1.825,2.032-3.453,4.142-4.956,6.422
			c-2.028,3.08,1.29,6.337,4.4,5.724c2.228-0.439,4.455-0.879,6.683-1.319c-1.274-2.188-2.548-4.377-3.822-6.566
			c-2.135,1.968-4.271,3.937-6.406,5.905c-2.69,2.479-0.466,6.603,2.807,6.776c1.67,0.089,3.183-0.097,4.803-0.5
			c-1.293-2.221-2.586-4.443-3.879-6.664c-2.129,1.754-3.82,3.745-5.345,6.035c-1.686,2.531,0.532,6.133,3.472,6.05
			c2.145-0.06,4.185-0.31,6.29-0.71c-1.312-2.254-2.624-4.508-3.936-6.761c-2.11,2.508-4.068,5.099-5.879,7.832
			c-2.104,3.177,1.339,6.726,4.615,6.003c1.946-0.43,3.893-0.859,5.839-1.289c-1.334-2.292-2.669-4.585-4.003-6.877
			c-1.565,1.642-3.134,3.279-4.706,4.915c-2.725,2.835-0.048,8.429,4.05,6.957c1.821-0.654,3.642-1.308,5.462-1.961
			c-1.367-2.348-2.733-4.695-4.1-7.043c-2.096,2.42-4.054,4.928-5.909,7.537c-2.436,3.426,1.563,6.83,4.843,6.3
			c1.688-0.272,3.375-0.545,5.062-0.818c-1.632-2.122-3.263-4.245-4.895-6.367c-1.401,1.83-2.593,3.699-3.675,5.733
			c-1.851,3.477,1.157,7.311,4.962,6.455c1.111-0.25,2.222-0.5,3.333-0.749c-1.435-2.465-2.87-4.93-4.305-7.395
			c-2.326,2.644-4.417,5.428-6.272,8.422c-1.712,2.764,0.47,7.041,3.892,6.783c2.327-0.176,4.594-0.484,6.883-0.945
			c-1.716-2.232-3.432-4.464-5.147-6.696c-1.794,2.465-3.594,4.925-5.396,7.385c-1.646,2.246-0.054,6.481,2.794,6.867
			c2.17,0.295,3.648,0.328,5.804-0.106c-1.993-1.518-3.985-3.036-5.978-4.554c-0.003,0.328-0.007,0.656-0.01,0.984
			c0.462-1.116,0.925-2.233,1.387-3.35c-2.45,2.706-5.204,6.044-2.979,9.907c2.013,3.496,5.577,4.929,9.438,3.602
			c-1.835-2.387-3.67-4.773-5.505-7.16c-1.124,2.383-2.363,4.691-3.719,6.951c-1.947,3.245,0.563,7.418,4.271,7.442
			c2.76,0.018,5.083-0.616,7.499-1.935c-2.003-2.597-4.007-5.193-6.011-7.791c-2.426,2.521-4.577,5.233-6.521,8.142
			c-2.101,3.141,0.667,7.595,4.304,7.5c0.826-0.152,1.612-0.034,2.359,0.355c-1.163-2.048-2.326-4.097-3.488-6.145
			c-0.408,1.603-1.908,2.874-2.67,4.325c-0.98,1.867-1.048,4.046-0.4,6.012c1.198,3.63,5.023,5.268,8.538,4.288
			c-1.892-2.46-3.783-4.92-5.675-7.381c-1.056,2.066-2.113,4.133-3.169,6.199c-1.535,3.001,0.268,8.112,4.354,7.588
			c2.529-0.324,4.534-0.789,6.631-2.306c-2.042-2.646-4.084-5.293-6.125-7.939c-1.409,1.715-2.817,3.429-4.225,5.144
			c-2.517,3.065-1.273,9.042,3.587,8.659c1.368-0.107,2.737-0.215,4.105-0.321c-1.462-2.548-2.924-5.096-4.386-7.644
			c-1.423,2.492-2.52,5.037-3.391,7.771c-0.998,3.129,1.688,6.513,4.91,6.446c0.24-0.006,0.48-0.011,0.72-0.016
			c-1.201-0.497-2.401-0.994-3.602-1.491c-1.93-1.86,0.417-5.761-1.871-1.636c-0.677,1.222-0.703,2.389-0.659,3.74
			c0.081,2.497,2.277,5.479,5.105,5.105c0.203-0.027,0.406-0.055,0.608-0.081c-1.47-0.843-2.939-1.686-4.409-2.529
			c-0.112-0.864-0.225-1.728-0.337-2.592c-0.346,0.773-0.66,1.56-0.941,2.358c-0.614,1.641,0.201,3.218,0.835,4.677
			c1.089,2.503,4.678,3.167,7.033,3.119c-1.635-2.146-3.271-4.294-4.906-6.44c-1.282,5.615-2.728,12.337,2.975,15.634
			c0.391-2.994,0.782-5.987,1.174-8.981c-0.458,0.122-0.916,0.245-1.374,0.367c1.841,0.75,3.683,1.499,5.524,2.248
			c-1.452-2.403-3.639-3.891-6.535-3.557c1.615,1.614,3.23,3.229,4.845,4.845c0.666-5.941-5.531-8.396-10.203-6.372
			c2.334,0.95,4.669,1.899,7.004,2.85c-0.081-0.273-0.162-0.546-0.243-0.819c-0.041-3.225-2.978-5.186-5.992-4.564
			c-0.914,0.195-1.831,0.377-2.75,0.545c1.988,1.515,3.976,3.028,5.964,4.543c0.001-0.64,0.003-1.278,0.005-1.918
			c0.009-3.158-3.002-5.227-5.961-4.541c-1.592,0.368-2.715,0.842-4.166,1.59c2.305,0.938,4.609,1.876,6.914,2.813
			c-0.091-0.614-0.182-1.228-0.272-1.842c-0.494-3.332-4.45-3.852-6.912-2.812c2.075-0.876-3.085-1.104-3.317-1.09
			c-1.878,0.118-3.759,0.482-5.595,0.875c1.768,2.3,3.536,4.599,5.303,6.898c2.43-3.63,1.991-7.797-1.901-10.082
			c0.316,2.457,0.633,4.913,0.95,7.369c1.145-1.192,2.289-2.385,3.434-3.577c3.432-3.575-0.073-8.647-4.561-7.835
			c-0.614,0.111-1.228,0.223-1.842,0.334c1.764,2.295,3.528,4.589,5.292,6.884c0.45-1.111,1.062-2.127,1.838-3.045
			c1.947-2.362,1.777-5.629-0.948-7.353c-0.435-0.275-0.87-0.551-1.305-0.826c0.315,2.45,0.631,4.9,0.947,7.351
			c1.99-2.57,3.537-5.141,2.14-8.403c-1.329-3.104-4.287-4.224-7.446-3.409c1.917,1.917,3.833,3.834,5.75,5.751
			c0.372-1.347,0.745-2.692,1.117-4.038c0.621-2.245-0.747-5.348-3.263-5.746c-0.93-0.147-1.859-0.295-2.789-0.442
			c0.93,2.286,1.86,4.572,2.79,6.858c2.975-4.583,1.404-9.374,3.363-14.157c1.235-3.015-1.8-5.685-4.49-5.895
			c-0.936-0.073-1.873-0.146-2.809-0.22c1.339,2.335,2.679,4.669,4.019,7.003c1.22-2.308,3.631-5.863,1.752-8.52
			c-1.535-2.171-1.077-4.971,0.233-8.158c1.133-2.757-1.706-6.004-4.474-5.873c-0.485,0.023-0.97,0.046-1.455,0.069
			c1.093,2.639,2.187,5.278,3.28,7.917c1.074-1.047,2.148-2.093,3.222-3.14c4.044-3.943-1.064-9.266-5.616-7.279
			c-0.683,0.163-1.366,0.326-2.049,0.489c1.743,2.268,3.486,4.535,5.23,6.804c1.06-1.498,2.12-2.995,3.18-4.493
			c2.124-3.001-0.756-6.869-3.995-6.961c-1.444-0.042-2.821,0.01-4.259,0.154c1.33,2.318,2.661,4.637,3.991,6.955
			c1.325-1.804,2.65-3.607,3.975-5.412c2.713-3.694-1.752-7.244-5.192-6.754c-1.351,0.192-2.702,0.384-4.052,0.577
			c1.487,2.554,2.973,5.107,4.46,7.661c1.758-1.915,3.517-3.829,5.275-5.743c2.714-2.955,0.822-7.639-3.222-7.778
			c-1.553-0.053-3.107-0.107-4.66-0.16c1.307,2.277,2.613,4.554,3.92,6.831c1.076-1.956,2.245-3.772,3.595-5.551
			c1.825-2.405-0.181-5.813-2.679-6.584c-1.484-0.459-2.527-0.598-4.08-0.563c1.049,2.533,2.098,5.066,3.147,7.599
			c1.348-1.452,2.687-2.91,4.047-4.35c3.057-3.237,0.026-8.373-4.276-7.346c-1.507,0.36-3.014,0.72-4.521,1.08
			c1.648,2.144,3.296,4.288,4.945,6.432c0.796-1.17,1.593-2.339,2.389-3.51c2.123-3.12-1.388-7.621-4.928-6.41
			c-0.376,0.064-0.753,0.129-1.129,0.193c0.64,2.424,1.28,4.848,1.92,7.272c4.582-3.91,5.6-11.156-1.166-13.333
			c0.861,2.117,1.722,4.233,2.583,6.35c0.641-1.497,1.343-2.886,2.167-4.29c1.514-2.58-0.018-5.345-2.573-6.325
			c-1.433-0.55-2.385-0.667-3.917-0.681c1.236,2.155,2.473,4.31,3.709,6.464c0.685-1.465,1.428-2.734,2.371-4.048
			c1.66-2.313-0.103-5.558-2.557-6.286c-1.53-0.454-2.842-0.643-4.425-0.829c1.372,1.8,2.743,3.601,4.115,5.401
			c0.229-0.71,0.458-1.421,0.688-2.131c0.662-2.051-0.754-4.856-2.975-5.239c-0.965-0.167-1.929-0.333-2.894-0.5
			c0.847,2.081,1.693,4.161,2.54,6.242c0.688-1.105,1.538-2.063,2.55-2.873c1.984-1.839,1.467-5.35-0.856-6.646
			c-0.892-0.498-1.838-1.084-2.913-1.012c-0.076,0.005-3.16-0.026-1.824,0.592c0.646,0.839,1.291,1.679,1.937,2.519
			c-0.057,0.371-0.113,0.743-0.169,1.114c3.028-3.633-0.708-8.873-5.092-6.6c-1.394,0.723-2.124,1.499-2.92,2.842
			c-0.962,1.624-0.668,3.753,0.656,5.083c0.966,0.97,0.475,3.91,0.63,5.211c0.268,2.25,1.095,3.944,2.636,5.588
			c-0.405-0.979-0.811-1.958-1.216-2.937c-0.142,3.052-0.985,6.887,0.662,9.698c1.687,2.88,4.836,2.782,7.465,1.617
			c-1.904-1.904-3.808-3.808-5.711-5.711c-0.814,1.186-1.629,2.372-2.444,3.558c-1.471,2.142-0.062,5.759,2.536,6.233
			c0.637,0.116,1.273,0.232,1.91,0.348c-0.628-2.381-1.257-4.762-1.886-7.143c-1.302,1.685-2.224,3.157-2.587,5.288
			c-0.396,2.32,0.548,4.415,0.419,6.703c-0.258,4.583,4.143,8.723,8.551,5.788c-2.045-2.045-4.09-4.09-6.135-6.135
			c-1.248,2.143-2.176,4.308-2.891,6.682c-0.909,3.016,1.531,5.472,4.361,5.725c1.562,0.139,3.124,0.278,4.685,0.418
			c-1.448-1.901-2.896-3.803-4.345-5.704c-0.254,1.09-0.789,2.02-1.603,2.788c-3.387,3.705,0.932,9.738,5.447,7.061
			c0.667-0.396,1.333-0.791,2-1.187c-2.062-2.061-4.123-4.122-6.184-6.184c-1.536,2.08-3.071,4.16-4.607,6.241
			c-1.916,2.595,0.249,5.81,2.75,6.76c0.22,0.084,0.441,0.168,0.662,0.251c-0.918-0.706-1.836-1.412-2.755-2.118
			c-1.198-2.645-1.333,2.517-1.053,3.534c0.271,0.983,0.908,2.196,1.631,2.921c1.844,1.844,1.115-2.316,0.108,0.227
			c-1.824,4.605,0.56,10.116,6.045,9.803c-1.545-1.545-3.091-3.091-4.636-4.636c0.316,2.602-2.855,4.623-2.047,7.765
			c0.896,3.482,3.223,5.397,6.828,5.457c-1.383-2.41-2.767-4.82-4.15-7.231c-1.569,2.71-2.113,5.31-1.973,8.436
			c0.038,0.849,0.983,3.139,0.698,3.808c-0.515,1.207-1.211,2.368-1.728,3.596c-2.06,4.896,3.892,9.459,8.207,8.098
			c-1.999-1.999-3.997-3.997-5.996-5.996c-2.281,5.823-0.316,9.82,2.3,15.103c2.482,5.012,7.64,6.181,11.982,2.811
			c-2.81-1.164-5.619-2.327-8.428-3.491c-0.031,1.077-0.062,2.153-0.093,3.23c-0.099,3.473,3.204,5.251,6.243,4.755
			c0.953-0.155,1.906-0.311,2.859-0.466c-2.02-2.02-4.04-4.04-6.06-6.06c-0.152,0.812-0.304,1.624-0.456,2.436
			c-0.447,2.388,0.632,5.622,3.438,6.055c1.658,0.256,2.961,0.27,4.617-0.021c-2.075-1.58-4.151-3.161-6.226-4.742
			c0.023,0.551,0.046,1.103,0.069,1.653c0.122,2.919,3.101,5.949,6.222,4.74c1.575-0.61,2.912-1.185,4.369-2.041
			c-2.239-2.239-4.478-4.479-6.716-6.717c-0.238,0.488-0.475,0.978-0.712,1.466c-1.996,4.108,2.284,9.617,6.712,6.713
			c1.478-0.969,2.696-1.942,3.788-3.338c2.573-3.288,1.144-8.206-3.464-8.364c-0.92-0.031-1.841-0.063-2.761-0.095
			c1.573,2.065,3.146,4.131,4.72,6.195c1.039-4.044,4.348-10.711,1.963-14.781c-0.844-1.441-2.999-2.993-4.761-2.801
			c-0.668,0.068-1.334,0.151-1.998,0.252c-1.601,0.646-2.759,0.133-0.576,0.688c0.975,2.396,1.949,4.791,2.924,7.187
			c1.335-1.998,2.671-3.996,4.006-5.994c2.733-4.089-2.634-9.282-6.693-6.693c-1.772,1.131-3.546,2.257-5.326,3.375
			c2.24,2.24,4.48,4.48,6.72,6.721c0.815-1.131,1.799-2.085,2.954-2.864c-2.262-2.262-4.523-4.523-6.785-6.785
			c-0.621,0.814-1.392,1.446-2.313,1.896c2.28,2.28,4.559,4.56,6.839,6.839c1.736-2.821,3.472-5.643,5.208-8.463
			c2.52-4.094-1.596-8.183-5.724-7.446c-2.599,0.464-4.893,1.308-7.3,2.367c2.332,2.332,4.665,4.664,6.997,6.996
			c1.446-3.062,3.011-6.041,4.711-8.969c2.307-3.973-1.464-8.769-5.856-7.617c-3.739,0.98-6.822,2.752-9.657,5.365
			c-4.997,4.605,2.402,11.904,7.418,7.418c3.316-2.966,6.015-6.363,8.201-10.237c2.482-4.4-1.561-8.54-6.018-7.828
			c-2.571,0.41-5.08,0.959-7.588,1.659c2.026,2.636,4.053,5.272,6.08,7.909c2.583-3.49,4.926-7.082,7.076-10.854
			c2.25-3.947-1.468-9.504-6.114-7.953c-3.57,1.191-6.485,2.885-9.319,5.356c2.542,2.542,5.084,5.085,7.626,7.627
			c2.133-2.227,4.267-4.453,6.4-6.68c4.072-4.25-1.429-12.144-6.505-8.431c-1.569,1.147-3.139,2.295-4.708,3.442
			c2.441,2.441,4.882,4.883,7.323,7.323c1.649-2.421,3.298-4.842,4.948-7.263c2.173-3.189-0.668-8.374-4.602-8.019
			c-2.49,0.225-4.761,0.617-7.095,1.537c1.723,2.961,3.447,5.921,5.17,8.882c2.3-2.352,4.276-4.896,5.998-7.696
			c2.325-3.783-1.536-9.358-5.976-7.773c-2.703,0.965-5.197,2.104-7.614,3.662c2.13,2.761,4.26,5.521,6.389,8.281
			c3.001-2.751,5.56-5.773,7.928-9.08c2.25-3.141-0.736-8.188-4.528-7.891c-1.465,0.115-2.93,0.229-4.395,0.344
			c1.506,2.624,3.012,5.249,4.518,7.873c1.439-2.299,2.877-4.598,4.316-6.897c2.355-3.764-1.541-9.129-5.885-7.655
			c-2.868,0.973-5.653,2.092-8.432,3.293c2.097,2.717,4.193,5.435,6.29,8.152c3.009-3.392,6.018-6.785,9.028-10.176
			c3.52-3.965,0.09-9.617-5.016-8.616c-3.422,0.671-6.563,1.926-9.551,3.722c2.074,2.688,4.148,5.375,6.222,8.063
			c2.402-2.325,4.804-4.651,7.206-6.977c3.702-3.585-0.082-9.896-4.972-8.542c-1.856,0.514-3.712,1.027-5.569,1.541
			c1.653,2.839,3.306,5.679,4.959,8.519c2.285-2.937,3.958-5.837,5.232-9.342c1.483-4.08-2.824-6.714-6.246-6.246
			c-1.785,0.244-3.57,0.488-5.354,0.732c1.643,2.822,3.285,5.644,4.928,8.465c1.872-2.115,3.744-4.23,5.616-6.345
			c3.309-3.738,0.155-9.699-4.909-8.432c-2.906,0.728-5.586,1.85-8.149,3.398c2.03,2.632,4.061,5.264,6.092,7.896
			c2.249-1.921,4.499-3.842,6.748-5.764c3.736-3.192-0.218-10.109-4.871-8.367c-1.625,0.608-3.25,1.217-4.875,1.825
			c1.88,2.445,3.76,4.891,5.64,7.336c1.399-1.878,2.799-3.757,4.199-5.635c2.407-3.23-0.91-7.334-4.298-7.489
			c-1.543-0.071-3.087-0.142-4.631-0.212c1.17,2.826,2.341,5.652,3.512,8.478c1.558-1.899,3.136-3.779,4.736-5.643
			c3.38-3.938,0.091-9.051-4.815-8.271c-2.764,0.438-5.167,1.317-7.684,2.515c1.993,2.583,3.985,5.165,5.978,7.748
			c1.743-1.579,3.485-3.157,5.227-4.736c3.733-3.382-0.181-9.47-4.783-8.217c-2.72,0.741-5.344,1.635-7.951,2.709
			c1.588,2.728,3.176,5.456,4.764,8.184c1.47-1.204,2.935-2.413,4.399-3.623c4.574-3.778-1.247-9.771-5.895-7.641
			c-1.25,0.573-2.5,1.146-3.75,1.719c1.627,2.784,3.254,5.567,4.881,8.351c2.471-1.519,4.943-3.037,7.416-4.553
			c5.376-3.297,0.695-10.68-4.824-8.253c-1.573,0.692-3.146,1.384-4.719,2.076c1.598,2.733,3.195,5.467,4.793,8.2
			c3.801-1.906,7.602-3.813,11.403-5.718c-2.289-1.759-4.577-3.519-6.865-5.277c-0.104,0.943-0.364,1.84-0.781,2.692
			c-1.747,4.513,4.686,7.643,7.783,4.531c0.588-0.181,1.176-0.361,1.764-0.541c-0.368-2.812-0.735-5.624-1.103-8.436
			c-3.939,2.847-10.876,6.387-10.889,11.856c-0.005,2.209,1.444,3.668,3.372,4.429c1.07,0.422,2.033,0.506,3.178,0.56
			c-1.084-0.449-2.167-0.898-3.251-1.347c-0.101-0.389-0.202-0.778-0.303-1.167c-0.116,0.826-0.229,1.652-0.338,2.479
			c0,1.039,0.292,2.534,0.856,3.423c1.36,2.141,2.888,3.337,5.312,4.1c-1.077-1.896-2.153-3.792-3.229-5.687
			c-0.188,0.656-0.376,1.312-0.565,1.968c-1.005,3.502,2.328,6.484,5.694,5.694c-0.1-0.023-0.199-0.047-0.299-0.07
			c-0.555-2.115-1.109-4.23-1.664-6.346c-1.247,1.95-2.494,3.899-3.741,5.849c-2.24,3.501,1.433,7.897,5.258,6.84
			c0.598-0.165,1.196-0.33,1.794-0.496c-1.755-2.282-3.509-4.565-5.264-6.847c-0.641,1.008-1.038,1.968-1.414,3.101
			c-0.769,2.315,0.865,5.225,3.26,5.741c0.857,0.185,1.715,0.37,2.572,0.554c-0.688-2.604-1.375-5.208-2.063-7.812
			c-4.683,5.64-9.421,22.068,2.654,22.34c-1.358-2.367-2.716-4.733-4.075-7.101c-1.887,3.506-1.904,8.03,2.255,9.844
			c-0.566-2.157-1.131-4.314-1.697-6.471c-0.459,0.896-0.918,1.792-1.377,2.689c-1.17,2.285-0.629,5.144,1.7,6.482
			c0.477,0.274,0.953,0.549,1.43,0.822c-0.727-1.785-1.453-3.57-2.18-5.355c-1.001,3.027-2.204,4.154-0.592,7.484
			c0.715,1.478,2.53,2.347,4.104,2.354c0.208,0.001,0.417,0.002,0.625,0.003c-1.585-1.586-3.17-3.171-4.755-4.756
			c-0.253,1.983,0.179,3.138,1.099,4.878c0.248-1.924,0.497-3.847,0.745-5.771c-2.698,3.474-2.594,7.824,1.494,10.206
			c-0.322-2.498-0.644-4.996-0.966-7.494c-4.274,4.686-8.325,9.793-8.086,16.47c0.197,5.484,4.093,10.538,9.489,11.632
			c-1.126-1.983-2.252-3.968-3.379-5.951c-0.104,0.285-0.208,0.569-0.313,0.854c0.742-0.964,1.483-1.929,2.225-2.893
			c-0.251,0.17-0.503,0.339-0.754,0.509c-5.125,3.459-0.46,11.697,4.889,8.363c0.787-0.489,1.572-0.98,2.357-1.473
			c-1.958-2.538-3.917-5.076-5.875-7.615c-2.979,3.002-3.75,7.081-0.499,10.211c-0.253-1.96-0.506-3.921-0.759-5.881
			c-2.373,4.101-4.36,8.33-3.587,13.117c0.694,4.301,6.316,5.043,9.366,3.345c-1.966-2.549-3.933-5.098-5.899-7.646
			c-1.139,1.334-2.015,2.415-2.112,4.246c-0.117,0.828-0.079,1.65,0.112,2.466c0.156,0.535,0.364,2.799,0.662,1.937
			c-0.918,2.663,1.037,5.133,3.406,5.998c1.47,0.537,2.667,0.413,4.177,0.132c-1.582-2.718-3.164-5.436-4.747-8.153
			c-0.992,1.115-2.201,2.188-2.611,3.678c-0.191,0.694-0.297,4.555-0.062,4.495c-6.119,1.529-3.522,10.965,2.601,9.436
			c6.174-1.543,6.972-7.133,7.048-12.633c-0.477,1.15-0.953,2.301-1.43,3.451c0.451-0.509,0.902-1.019,1.353-1.528
			c3.34-3.774,0.08-9.064-4.747-8.153c0.336-0.043,0.673-0.085,1.01-0.128c1.135,1.999,2.271,3.999,3.406,5.998
			c0.94-2.749-0.569-4.416-0.438-6.994c-0.476,1.148-0.951,2.296-1.426,3.443c0.228-0.269,0.456-0.536,0.684-0.805
			c3.502-4.12-0.877-10.459-5.899-7.646c-0.238,0.134-0.477,0.268-0.715,0.401c1.25-0.164,2.5-0.327,3.75-0.491
			c1.285,3.059,2.095,3.423,2.43,1.096c0.486-1.476,1.283-2.823,2.053-4.161c1.071-1.861,0.819-4.369-0.759-5.881
			c-0.234-0.225-0.468-0.449-0.703-0.674c0.474,1.144,0.947,2.287,1.421,3.431c-0.075,0.251-0.15,0.502-0.226,0.753
			c3.827-3.874-1.137-10.594-5.875-7.615c-0.785,0.492-1.569,0.986-2.352,1.482c1.629,2.788,3.259,5.575,4.889,8.363
			c1.76-1.201,2.563-2.258,3.284-4.262c0.847-2.351-0.932-5.469-3.379-5.951c-6.435-1.269,0.833-9.875,2.772-12.023
			c2.035-2.255,1.805-5.898-0.966-7.494c0.39,1.269,0.78,2.537,1.17,3.805c1.029-1.339,0.733-3.438,0-4.807
			c0.063-0.024,0.125-0.048,0.187-0.071c0.315-2.578-2.401-4.757-4.755-4.756c-0.208,0.001-0.416,0.001-0.625,0.001
			c1.368,0.785,2.737,1.569,4.105,2.354c-0.121-0.247-0.242-0.493-0.363-0.74c0.16,1.221,0.319,2.441,0.479,3.662
			c-0.033,0.184,1.183-2.379,1.413-3.086c0.646-1.991-0.397-4.343-2.18-5.355c-0.478-0.272-0.956-0.543-1.434-0.815
			c0.566,2.161,1.133,4.322,1.7,6.483c0.454-0.899,0.909-1.799,1.364-2.698c1.049-2.075,0.772-5.41-1.697-6.472
			c-0.305-0.131-0.61-0.262-0.916-0.394c0.724,0.942,1.449,1.883,2.173,2.825c-0.046,0.219-0.091,0.438-0.137,0.657
			c1.683-3.167-0.406-7.037-4.075-7.101c0.569,0.335,1.138,0.67,1.707,1.005c-0.131-0.956-0.101-1.91,0.091-2.86
			c0.277-1.644,1.112-3.163,2.159-4.437c2.056-2.503,1.686-7.025-2.063-7.812c-0.859-0.181-1.717-0.361-2.576-0.542
			c1.086,1.914,2.173,3.828,3.26,5.741c0.154-0.292,0.309-0.584,0.463-0.877c2.199-3.498-1.408-7.935-5.264-6.847
			c-0.597,0.168-1.194,0.337-1.792,0.505c1.753,2.28,3.505,4.56,5.258,6.84c1.237-1.956,2.473-3.912,3.71-5.867
			c1.289-2.04,0.538-5.235-1.664-6.346c-2.34-1.18-4.285-1.462-6.844-0.847c1.898,1.898,3.796,3.796,5.694,5.694
			c0.185-0.657,0.37-1.314,0.554-1.971c0.698-2.482-0.834-4.947-3.229-5.687c1.949,0.602,0.634-3.835,0.126-4.702
			c-1.381-2.357-3.367-2.422-5.596-3.289c1.124,1.476,2.248,2.953,3.372,4.429c-0.001-0.282-0.001-0.564-0.002-0.846
			c-0.448,1.082-0.896,2.164-1.345,3.246c2.066-2.527,5.06-4.417,7.709-6.285c3.128-2.206,3.021-7.34-1.103-8.436
			c-4.155-1.104-7.739-0.151-10.804,2.856c2.595,1.51,5.189,3.021,7.783,4.531c0.427-0.847,0.698-1.742,0.813-2.684
			c0.872-4.151-3.112-7.104-6.865-5.277c-3.826,1.863-7.652,3.726-11.478,5.588c-5.599,2.726-0.697,10.54,4.793,8.2
			c1.583-0.675,3.167-1.349,4.75-2.023c-1.608-2.751-3.216-5.502-4.824-8.253c-2.49,1.487-4.98,2.971-7.472,4.455
			c-5.483,3.265-0.694,10.812,4.881,8.351c1.26-0.556,2.52-1.112,3.779-1.668c-1.965-2.547-3.93-5.094-5.895-7.641
			c-1.483,1.19-2.966,2.381-4.444,3.578c-3.72,3.014,0.28,10.008,4.764,8.184c2.61-1.062,5.238-1.944,7.961-2.671
			c-1.595-2.739-3.189-5.478-4.783-8.217c-1.75,1.571-3.501,3.141-5.251,4.711c-4.437,3.98,1.196,9.995,5.978,7.748
			c1.764-0.829,3.43-1.196,5.335-1.49c-1.605-2.757-3.21-5.514-4.815-8.271c-1.608,1.856-3.194,3.728-4.76,5.619
			c-2.768,3.341-1.036,8.248,3.512,8.478c1.543,0.078,3.087,0.156,4.631,0.234c-1.433-2.496-2.865-4.993-4.298-7.489
			c-1.409,1.873-2.818,3.746-4.227,5.619c-2.604,3.46,1.711,8.786,5.64,7.336c1.627-0.601,3.254-1.201,4.881-1.802
			c-1.624-2.789-3.248-5.578-4.871-8.367c-2.259,1.912-4.518,3.823-6.777,5.734c-4.431,3.749,1.278,10.773,6.092,7.896
			c1.875-1.121,3.64-1.832,5.757-2.351c-1.636-2.811-3.272-5.622-4.909-8.432c-1.881,2.105-3.763,4.211-5.645,6.316
			c-2.583,2.89-1.189,9.276,3.582,8.646c1.786-0.236,3.572-0.471,5.358-0.707c-1.632-2.143-3.264-4.285-4.896-6.427
			c-0.648,1.757-1.487,3.356-2.648,4.833c-2.973,3.783-0.387,9.97,4.959,8.519c1.858-0.504,3.717-1.009,5.576-1.514
			c-1.657-2.847-3.314-5.694-4.972-8.542c-2.413,2.315-4.826,4.629-7.239,6.943c-4.236,4.063,1.216,11.04,6.222,8.063
			c2.295-1.365,4.491-2.145,7.109-2.646c-1.672-2.872-3.344-5.744-5.016-8.616c-3.025,3.376-6.052,6.751-9.078,10.126
			c-4.156,4.636,1,10.405,6.29,8.151c1.958-0.834,3.946-1.534,5.963-2.207c-1.961-2.552-3.923-5.103-5.885-7.654
			c-1.451,2.292-2.902,4.584-4.353,6.876c-2.031,3.207,0.577,8.159,4.518,7.873c1.465-0.106,2.93-0.213,4.395-0.32
			c-1.509-2.63-3.019-5.261-4.528-7.891c-1.859,2.566-3.984,4.791-6.327,6.916c-4.446,4.032,1.348,11.493,6.389,8.281
			c1.677-1.068,3.217-1.9,5.105-2.563c-1.992-2.591-3.984-5.183-5.976-7.773c-1.277,2.054-2.677,3.806-4.375,5.522
			c-3.504,3.546-0.005,10.892,5.17,8.882c1.424-0.554,2.734-0.996,4.27-1.127c-1.534-2.673-3.068-5.346-4.602-8.019
			c-1.663,2.413-3.326,4.826-4.988,7.239c-2.974,4.315,2.993,10.455,7.323,7.323c1.574-1.139,3.149-2.277,4.724-3.417
			c-2.168-2.81-4.337-5.62-6.505-8.431c-2.145,2.215-4.29,4.43-6.434,6.645c-4.892,5.053,2.411,12.127,7.626,7.627
			c1.43-1.234,2.785-1.956,4.572-2.542c-2.038-2.651-4.076-5.302-6.114-7.953c-2.163,3.748-4.499,7.37-7.024,10.884
			c-2.83,3.938,1.819,9.164,6.08,7.909c2.496-0.734,4.995-1.318,7.559-1.765c-2.006-2.609-4.012-5.219-6.018-7.828
			c-1.729,3.168-3.762,5.757-6.416,8.198c2.473,2.473,4.945,4.945,7.418,7.418c1.514-1.435,2.989-2.227,4.996-2.783
			c-1.952-2.539-3.904-5.078-5.856-7.617c-1.66,2.954-3.184,5.957-4.587,9.041c-2.18,4.791,2.2,9.188,6.997,6.996
			c1.579-0.722,3.141-1.096,4.833-1.422c-1.908-2.482-3.816-4.964-5.724-7.446c-1.696,2.845-3.392,5.69-5.087,8.535
			c-2.525,4.236,2.553,9.538,6.839,6.839c2.403-1.515,4.14-3.258,5.832-5.522c2.932-3.927-2.858-9.674-6.785-6.785
			c-2.572,1.893-4.56,3.88-6.431,6.47c-2.916,4.036,2.73,9.307,6.72,6.721c1.765-1.144,3.534-2.278,5.307-3.408
			c-2.231-2.231-4.462-4.463-6.693-6.693c-1.335,1.998-2.671,3.996-4.006,5.994c-1.75,2.617-0.013,6.439,2.924,7.187
			c1.146,0.291,2.151,0.463,3.331,0.186c0.271-0.063,0.542-0.128,0.813-0.191c1.842-0.525,1.541-0.816-0.903-0.875
			c-0.75-0.975-1.499-1.949-2.248-2.924c-0.692-2.956-0.706,1.62-0.966,2.627c-0.498,1.928-0.996,3.855-1.496,5.783
			c-0.821,3.165,1.523,6.074,4.72,6.195c0.92,0.035,1.841,0.069,2.761,0.104c-1.155-2.788-2.31-5.576-3.464-8.364
			c-0.457,0.746-1.061,1.345-1.812,1.795c2.237,2.237,4.475,4.475,6.712,6.713c0.239-0.488,0.479-0.976,0.717-1.464
			c2.094-4.271-2.239-9.328-6.716-6.717c-0.676,0.347-1.352,0.693-2.027,1.039c2.074,1.58,4.148,3.16,6.222,4.74
			c-0.021-0.551-0.042-1.103-0.063-1.653c-0.13-3.421-3.023-5.291-6.226-4.742c0.205,0.004,0.411,0.009,0.616,0.013
			c1.146,2.019,2.292,4.036,3.438,6.055c0.155-0.812,0.31-1.622,0.465-2.434c0.75-3.928-2.233-6.669-6.06-6.06
			c-0.954,0.151-1.908,0.304-2.862,0.456c2.081,1.585,4.162,3.17,6.243,4.755c0.034-1.077,0.069-2.153,0.104-3.23
			c0.153-4.76-5.296-5.922-8.428-3.491c-0.257,0.2-0.515,0.399-0.772,0.6c1.164-0.481,2.327-0.964,3.491-1.446
			c1.587-0.075,0.287-1.861-0.225-2.652c-1.162-1.799-1.156-2.854-0.394-4.84c1.329-3.464-2.669-7.071-5.996-5.996
			c-0.269,0.087-0.538,0.175-0.808,0.262c1.251,0.163,2.502,0.327,3.753,0.491c0.986,2.296,1.664,2.526,2.033,0.691
			c0.457-0.786,0.689-1.634,0.698-2.542c0.043-2.806-1.465-5.998,0.01-8.587c1.813-3.183-0.488-7.194-4.15-7.231
			c-0.353-0.004-0.705-0.007-1.057-0.011c1.132,0.469,2.264,0.938,3.396,1.406c-0.063,2.015,0.228,2.241,0.873,0.68
			c0.386-0.707,0.722-1.437,1.011-2.188c0.421-1.72,0.377-2.992,0.104-4.729c-0.295-1.877-2.607-3.576-4.47-3.403
			c-0.339,0.031-0.678,0.063-1.017,0.094c1.088,0.451,2.177,0.901,3.265,1.353c0.036,0.512,0.072,1.023,0.108,1.534
			c0.302-0.715,0.604-1.431,0.906-2.146c0.269-1.297,0.433-2.289,0.241-3.608c-0.318-2.182-2.461-3.645-2.863-4.457
			c0.155,1.184,0.31,2.368,0.465,3.552c0.819-4.456,2.208-8.582-3.299-10.542c0.917,2.253,1.833,4.507,2.75,6.76
			c1.488-2.107,2.977-4.216,4.465-6.323c2.662-3.77-2.48-8.488-6.184-6.184c-0.658,0.41-1.316,0.819-1.974,1.229
			c1.815,2.353,3.631,4.707,5.447,7.06c1.846-2.06,3.064-4.122,3.935-6.75c0.996-3.002-1.595-5.439-4.345-5.704
			c-1.562-0.15-3.124-0.301-4.685-0.451c1.454,1.908,2.907,3.816,4.361,5.725c0.5-1.616,1.109-3.072,1.914-4.56
			c1.987-3.676-2.258-8.897-6.135-6.135c-0.198,0.141-0.396,0.282-0.593,0.423c1.148-0.15,2.297-0.301,3.446-0.451
			c-0.271-0.087-0.542-0.175-0.813-0.263c0.888,0.683,1.776,1.366,2.665,2.049c0.636,0.883,0.042-2.789,0.142-2.31
			c-0.369-1.786-1.13-2.728,0.009-4.303c1.506-2.082,0.048-5.889-2.554-6.278c-0.643-0.096-1.285-0.192-1.927-0.289
			c0.845,2.078,1.69,4.155,2.536,6.233c0.775-1.209,1.55-2.418,2.326-3.627c2.429-3.789-2.192-7.406-5.711-5.711
			c-0.285,0.138-0.57,0.275-0.855,0.412c1.399,0,2.799,0,4.198,0c-0.309-0.163-0.618-0.325-0.927-0.488
			c0.634,0.825,1.269,1.65,1.904,2.476c-0.69-1.856-0.03-4.565,0.074-6.506c0.1-1.867-1.493-2.992-1.562-4.875
			c-0.125-3.442-0.338-6.346-2.862-8.919c0.218,1.695,0.437,3.389,0.656,5.083c-0.028,0.06-0.055,0.12-0.083,0.181
			c-1.697-2.2-3.395-4.4-5.092-6.6c-1.992,2.355-3.33,5.106-1.591,8.076c0.69,1.178,2.058,1.973,3.351,2.329
			c0.393,0.108,4.022,0.281,2.88-0.367c-0.285-2.215-0.571-4.431-0.856-6.646c-1.531,1.399-2.728,2.869-3.904,4.568
			c-1.479,2.138-0.057,5.774,2.54,6.242c0.963,0.173,1.925,0.346,2.888,0.52c-0.992-1.746-1.983-3.493-2.975-5.239
			c-0.235,0.709-0.469,1.418-0.704,2.127c-0.958,2.899,1.531,5.078,4.115,5.401c0.716,0.183,1.433,0.365,2.149,0.547
			c-0.852-2.095-1.705-4.19-2.557-6.286c-0.952,1.308-1.704,2.571-2.399,4.032c-1.384,2.907,0.259,6.407,3.709,6.464
			c0.542,0.131,1.085,0.262,1.628,0.393c-0.858-2.108-1.716-4.217-2.573-6.325c-0.834,1.398-1.545,2.782-2.196,4.273
			c-1.145,2.621-0.289,5.403,2.583,6.35c-0.713-2.275-1.609-2.66-2.688-1.157c-2.488,2.093-1.114,6.58,1.92,7.272
			c2.047,0.467,3.757,0.501,5.763-0.17c-1.643-2.137-3.285-4.273-4.928-6.41c-0.805,1.165-1.609,2.33-2.415,3.494
			c-2.321,3.358,1.48,7.233,4.945,6.432c1.51-0.349,3.02-0.698,4.53-1.047c-1.425-2.449-2.851-4.897-4.276-7.346
			c-1.364,1.435-2.749,2.849-4.126,4.271c-2.681,2.768-0.784,7.605,3.147,7.599c0.566,0.102,1.131,0.203,1.697,0.305
			c-0.66-2.497-1.319-4.995-1.978-7.492c-1.628,2.053-3.111,4.11-4.395,6.401c-1.729,3.085,0.477,6.688,3.92,6.831
			c1.553,0.063,3.107,0.129,4.66,0.192c-1.074-2.592-2.148-5.185-3.222-7.777c-1.771,1.901-3.543,3.803-5.314,5.704
			c-3.39,3.64,0.098,8.251,4.46,7.661c1.353-0.183,2.706-0.365,4.059-0.549c-1.73-2.251-3.461-4.503-5.192-6.754
			c-1.338,1.796-2.677,3.591-4.016,5.387c-2.018,2.706,0.676,7.285,3.991,6.955c1.438-0.144,2.815-0.189,4.259-0.146
			c-1.332-2.32-2.663-4.641-3.995-6.961c-1.063,1.496-2.126,2.991-3.188,4.487c-2.603,3.665,1.667,7.433,5.23,6.804
			c1.627-0.287,2.753-0.761,4.265-1.417c-1.872-2.427-3.744-4.853-5.616-7.279c-1.076,1.046-2.152,2.091-3.228,3.136
			c-2.823,2.741-0.793,8.103,3.28,7.917c0.485-0.021,0.97-0.044,1.455-0.065c-1.491-1.958-2.982-3.915-4.474-5.873
			c-2.064,4.997-2.308,11.073,0.683,15.318c-0.156-1.194-0.313-2.389-0.469-3.583c-0.343,0.944-0.773,1.849-1.29,2.712
			c-1.739,3.276,0.471,6.72,4.019,7.003c0.936,0.074,1.873,0.149,2.809,0.224c-1.497-1.965-2.994-3.93-4.49-5.895
			c-1.547,3.759-0.339,8.689-2.445,11.921c-1.527,2.343-0.142,6.389,2.79,6.858c0.929,0.148,1.858,0.298,2.788,0.446
			c-1.087-1.915-2.175-3.83-3.263-5.746c-0.375,1.346-0.749,2.691-1.124,4.036c-0.97,3.484,2.325,6.628,5.75,5.751
			c0.297-0.076,0.595-0.152,0.892-0.229c-1.201-0.157-2.402-0.314-3.603-0.471c-0.135-0.063-0.271-0.124-0.407-0.187
			c-0.157-1.201-0.314-2.402-0.471-3.604c-0.07,0.223-0.14,0.444-0.21,0.667c-1.874,2.411-1.829,5.588,0.947,7.351
			c0.435,0.276,0.87,0.553,1.304,0.828c-0.316-2.45-0.632-4.901-0.948-7.353c-1.308,1.582-2.401,3.086-3.309,4.936
			c-1.89,3.851,1.164,7.624,5.292,6.884c0.614-0.11,1.229-0.221,1.843-0.33c-1.52-2.612-3.041-5.224-4.561-7.835
			c-1.147,1.19-2.293,2.381-3.44,3.571c-2.099,2.179-1.692,5.812,0.95,7.369c0.305,0.18,0.61,0.359,0.916,0.539
			c-0.719-0.935-1.438-1.87-2.157-2.805c-0.077-0.165-0.154-0.331-0.23-0.496c-2.462,3.664,1.567,7.69,5.303,6.898
			c3.542-0.751,6.593,1.206,10.041-0.242c-1.93-1.096-3.859-2.19-5.788-3.286c0.09,0.614,0.18,1.228,0.27,1.842
			c0.465,3.184,4.497,4.054,6.914,2.813c0.64-0.212,1.279-0.425,1.918-0.637c-1.987-1.514-3.974-3.027-5.961-4.541
			c-0.003,0.64-0.006,1.278-0.009,1.918c-0.014,3.254,3.002,5.103,5.964,4.543c0.918-0.18,1.838-0.347,2.761-0.502
			c-1.997-1.521-3.995-3.043-5.992-4.564c-0.023,1.23,0.096,2.195,0.516,3.354c0.808,2.231,3.312,4.342,5.865,3.33
			c-0.789-0.283-1.577-0.566-2.366-0.851c-0.163-1.24-0.325-2.48-0.487-3.722c-0.045,0.314-0.091,0.628-0.136,0.941
			c-0.41,2.842,1.209,6.422,4.672,6.133c-0.638-0.398-1.275-0.797-1.913-1.195c1.101,1.962,3.406,2.743,5.524,2.248
			c0.462-0.108,0.924-0.216,1.385-0.324c4.291-1.003,4.643-6.826,1.174-8.981c-0.479-0.297-0.958-0.595-1.436-0.893
			c0.816,1.423,1.631,2.845,2.447,4.267c-0.078-2.726,0.174-5.171,0.867-7.816c0.845-3.225-1.573-6.402-4.906-6.44
			c0.493,0.386,0.985,0.772,1.478,1.158c0.171,1.313,0.343,2.627,0.515,3.94c1.039-2.807,2.245-4.774,0.234-7.64
			c-1.469-2.093-3.296-2.683-5.767-2.347c-0.203,0.028-0.405,0.056-0.608,0.083c2.154,1.641,4.308,3.282,6.462,4.923
			c0.045,1.259,1.137-1.888,1.139-1.892c0.673-1.652,0.668-2.893,0.269-4.619c-0.643-2.776-3.585-4.336-6.207-4.272
			c1.637,2.149,3.273,4.298,4.91,6.446c0.602-1.91,1.356-3.608,2.343-5.352c1.771-3.127-0.416-7.968-4.386-7.644
			c-1.368,0.112-2.737,0.225-4.105,0.337c1.196,2.887,2.391,5.772,3.587,8.659c1.4-1.723,2.8-3.446,4.2-5.169
			c3.332-4.1-1.134-11.592-6.125-7.939c-0.509,0.317-1.019,0.634-1.528,0.95c1.452,2.529,2.903,5.059,4.354,7.588
			c1.046-2.072,2.092-4.145,3.138-6.217c1.923-3.812-1.217-8.649-5.675-7.381c1.26,1.102,2.52,2.204,3.78,3.307
			c0.53-0.689,1.062-1.378,1.594-2.066c0.695-1.176,1.132-2.194,1.461-3.52c0.677-2.722-0.847-5.304-3.488-6.145
			c-1.652-0.525-3.281-0.746-5.015-0.691c1.435,2.5,2.869,5,4.304,7.5c1.471-2.225,3.089-4.227,4.928-6.157
			c3.908-4.104-1.043-10.537-6.011-7.791c-0.748,0.547-1.578,0.75-2.492,0.608c1.424,2.48,2.847,4.962,4.271,7.442
			c1.353-2.282,2.531-4.593,3.595-7.023c1.504-3.438-1.01-8.848-5.505-7.16c2.688-1.01,0.864,6.255,3.572,1.632
			c0.628-1.072,0.65-2.178,0.629-3.375c-0.057-3.158-2.962-5.25-5.978-4.554c-0.684,0.011-1.367,0.021-2.05,0.031
			c1.346,2.345,2.691,4.69,4.037,7.035c1.728-2.503,3.457-5.005,5.192-7.502c2.446-3.52-1.559-7.485-5.147-6.696
			c-1.462,0.385-2.948,0.625-4.459,0.721c1.297,2.261,2.595,4.521,3.892,6.782c1.416-2.38,2.951-4.601,4.745-6.715
			c2.816-3.318,0.197-8.491-4.305-7.395c-1.105,0.27-2.211,0.539-3.316,0.808c1.654,2.152,3.308,4.303,4.962,6.455
			c1.046-2.052,2.212-3.934,3.571-5.794c2.486-3.404-1.594-6.96-4.895-6.367c-1.679,0.302-3.358,0.603-5.038,0.905
			c1.614,2.1,3.229,4.2,4.843,6.3c1.4-2.045,2.872-4.004,4.461-5.907c2.419-2.895,0.234-8.685-4.1-7.043
			c-1.812,0.687-3.624,1.374-5.435,2.061c1.35,2.319,2.7,4.638,4.05,6.957c1.543-1.664,3.088-3.325,4.639-4.982
			c2.857-3.054,0.031-7.808-4.003-6.877c-1.941,0.447-3.883,0.895-5.824,1.342c1.539,2.001,3.077,4.002,4.615,6.003
			c1.408-2.169,2.895-4.241,4.542-6.236c2.596-3.145,0.183-7.585-3.936-6.761c-1.361,0.337-2.741,0.495-4.139,0.471
			c1.157,2.017,2.314,4.033,3.472,6.05c1.138-1.744,2.452-3.121,4.041-4.455c3.195-2.683-0.242-7.604-3.879-6.664
			c-0.875,0.313-1.77,0.396-2.683,0.25c0.936,2.258,1.871,4.517,2.807,6.776c2.116-1.987,4.232-3.975,6.349-5.962
			c3.036-2.852-0.167-7.323-3.822-6.566c-2.222,0.46-4.443,0.92-6.665,1.38c1.467,1.908,2.933,3.816,4.4,5.724
			c1.121-1.736,2.324-3.343,3.69-4.893c2.013-2.285,0.895-6.924-2.731-6.594c-1.622,0.147-3.244,0.295-4.866,0.442
			c0.905,2.185,1.81,4.37,2.715,6.555c1.816-1.885,3.632-3.769,5.448-5.654c3.159-3.278-0.803-7.7-4.608-5.973
			c-2.001,0.908-4.002,1.816-6.003,2.725c1.269,2.171,2.539,4.342,3.808,6.514c1.576-1.054,3.153-2.107,4.729-3.161
			c4.021-2.688,0.556-8.565-3.771-6.451c-2.289,1.119-4.577,2.237-6.866,3.356c1.489,1.93,2.978,3.859,4.467,5.789
			c0.845-0.981,1.69-1.962,2.535-2.943c2.85-3.307-0.659-7.345-4.436-5.75c-2.655,1.122-5.162,2.407-7.623,3.908
			c1.213,2.075,2.426,4.15,3.64,6.226c1.596-1.133,3.192-2.266,4.788-3.399c3.688-2.619,0.449-8.505-3.601-6.16
			c-2.612,1.513-5.268,2.885-8.013,4.14c1.417,1.837,2.834,3.674,4.252,5.511c1.886-1.892,3.771-3.784,5.657-5.675
			c2.297-2.304-0.005-7.076-3.363-5.777c-5.913,2.285-11.507,5.061-16.837,8.5c1.349,1.749,2.698,3.497,4.047,5.246
			c2.443-2.148,4.986-4.032,7.742-5.753c-1.103-1.886-2.205-3.772-3.308-5.658c-2.86,1.891-5.728,3.772-8.593,5.656
			c1.297,1.682,2.595,3.363,3.892,5.044c3.23-2.846,6.322-5.812,9.299-8.922c2.48-2.591-0.664-6.659-3.8-4.925
			c-3.843,2.125-7.729,4.157-11.666,6.102c1.235,1.601,2.471,3.202,3.706,4.803c1.759-2.15,3.515-4.143,5.605-5.981
			c2.369-2.083-0.697-5.935-3.332-4.317c-1.965,1.207-3.93,2.413-5.895,3.619c0.992,1.286,1.984,2.571,2.976,3.857
			c1.306-1.25,2.611-2.5,3.917-3.75c1.804-1.728-0.578-4.926-2.697-3.495c-1.516,1.023-3.031,2.047-4.546,3.071
			c0.805,1.043,1.61,2.087,2.415,3.13c1.099-1.073,2.124-2.204,3.19-3.31c1.393-1.445-0.415-3.942-2.179-2.824
			c-0.988,0.626-1.977,1.252-2.965,1.878c0.667,0.864,1.333,1.727,1.999,2.591c0.702-0.786,1.403-1.571,2.105-2.356
			c1.039-1.163,0.023-2.831-1.475-2.533c-0.61,0.121-1.221,0.242-1.831,0.363C8.021,49.434,8.368,52.123,9.98,51.942L9.98,51.942z"
			/>
	</g>
</g>
<g opacity="0.9">
	<g>
		<path fill="#929090" d="M141.976,173.612c0.397-0.072,0.796-0.145,1.193-0.217c-0.778-1.337-1.556-2.673-2.334-4.01
			c-0.319,0.29-0.639,0.579-0.958,0.868c-1.871,1.698,0.106,4.588,2.355,4.046c0.832-0.201,1.353-0.421,2.081-0.87
			c-0.988-1.281-1.978-2.563-2.966-3.844c-0.64,0.497-1.225,1.053-1.754,1.666c-1.592,1.668-0.357,4.05,1.759,4.247
			c0.679,0.063,1.356,0.126,2.035,0.188c-0.595-1.435-1.188-2.87-1.783-4.305c-0.913,0.832-1.716,1.677-2.501,2.631
			c-1.733,2.109-0.068,4.663,2.513,4.316c1.187-0.16,2.374-0.319,3.561-0.479c-0.856-1.473-1.714-2.944-2.57-4.416
			c-0.762,0.579-1.482,1.206-2.162,1.88c-1.912,1.774-0.341,4.718,2.005,4.841c0.761,0.04,1.521,0.079,2.281,0.119
			c-0.709-1.712-1.418-3.423-2.127-5.135c-0.909,0.95-1.851,1.839-2.824,2.722c-1.801,1.63-0.861,4.825,1.426,5.402
			c0.611,0.153,1.223,0.308,1.833,0.462c-0.483-1.831-0.967-3.663-1.45-5.494c-0.685,0.762-1.368,1.524-2.052,2.287
			c-1.866,2.08-0.718,5.88,2.388,5.765c0.957-0.035,1.914-0.071,2.871-0.107c-0.815-1.97-1.632-3.938-2.447-5.908
			c-2.849,3.041-5.414,8.53,0.814,9.313c-0.97-1.689-1.938-3.379-2.908-5.068c-0.978,1.943-1.511,3.592-1.661,5.765
			c1.761-0.238,3.522-0.477,5.283-0.715c-0.21-0.51,1.322-3.413,1.495-3.937c0.647-1.955,0.994-3.994,1.332-6.019
			c0.645-3.871,2.844-8.188,1.551-12.045c-0.62-1.849-3.477-2.089-3.982,0c-0.931,3.847-2.17,7.398-2.658,11.355
			c-0.459,3.712-2.441,7.08-2.925,10.645c-0.387,2.851,3.241,4.902,4.916,2.072c0.59-1.049,1.236-2.063,1.939-3.04
			c1.573-2.015,1.108-4.763-1.486-5.629c-0.146-0.049-0.292-0.098-0.438-0.146c0.795,0.794,1.59,1.589,2.384,2.384
			c-0.051-0.16-0.102-0.32-0.153-0.48c-0.116,0.89-0.232,1.779-0.349,2.669c0.535-0.778,1.115-1.521,1.741-2.229
			c1.713-2.056,0.866-6.227-2.447-5.908c-0.957,0.092-1.914,0.184-2.871,0.275c0.796,1.922,1.592,3.843,2.388,5.765
			c0.642-0.805,1.283-1.609,1.925-2.414c1.392-1.743,1.23-4.98-1.45-5.494c-0.621-0.119-1.241-0.237-1.862-0.356
			c0.476,1.801,0.951,3.602,1.426,5.402c1.119-1.139,2.063-2.343,2.979-3.646c1.251-1.781-0.396-4.744-2.598-4.526
			c-0.761,0.075-1.521,0.149-2.281,0.225c0.668,1.614,1.337,3.228,2.005,4.841c0.561-0.778,1.189-1.496,1.889-2.153
			c1.96-2.029-0.059-4.84-2.57-4.416c-1.177,0.199-2.353,0.397-3.529,0.595c0.972,1.265,1.944,2.529,2.916,3.794
			c0.602-0.797,1.271-1.527,2.012-2.194c1.656-1.613,0.335-4.179-1.783-4.305c-0.679-0.041-1.356-0.081-2.035-0.122
			c0.586,1.416,1.173,2.832,1.759,4.247c0.51-0.63,1.075-1.204,1.697-1.723c2.038-1.873-0.64-5.387-2.966-3.844
			c-0.299,0.143-0.599,0.286-0.897,0.429c0.785,1.349,1.57,2.697,2.355,4.046c0.309-0.3,0.617-0.6,0.927-0.899
			c1.805-1.75-0.071-4.499-2.334-4.01c-0.395,0.086-0.789,0.171-1.184,0.256C137.688,169.678,138.995,174.153,141.976,173.612
			L141.976,173.612z"/>
	</g>
</g>
<g opacity="0.9">
	<g>
		<path fill="#929090" d="M118.851,150.195c-2.171,1.52-6.232,3.535-6.779,6.355c-0.213,1.095,0.676,2.16,1.841,1.841
			c3.876-1.061,7.678-2.459,11.603-3.315c0.332-0.072,0.649-0.39,0.722-0.722c0.181-0.834,0.37-1.622,0.479-2.469
			c0.096-0.746-0.674-1.275-1.318-1.318c-1.079-0.07-1.819,0.108-2.793,0.527c0.796,0.611,1.592,1.224,2.388,1.835
			c0.024-0.143,0.049-0.285,0.074-0.428c0.22-1.274-0.73-2.308-2.039-2.039c-0.858,0.177-1.652,0.4-2.477,0.7
			c0.758,0.758,1.515,1.515,2.272,2.272c0.07-0.176,0.142-0.353,0.212-0.528c0.425-1.058-0.672-2.54-1.821-2.391
			c-0.571,0.074-1.091,0.145-1.646,0.307c0.64,1.098,1.279,2.196,1.918,3.294c0.269-0.287,0.537-0.574,0.805-0.862
			c1.166-1.253,0.411-3.57-1.45-3.501c-1.118,0.042-1.985,0.261-2.905,0.914c-1.75,1.244-1.169,3.98,1.104,4.073
			c0.464,0.03,0.928,0.038,1.392,0.026c-0.537-1.298-1.075-2.595-1.612-3.893c-0.616,0.554-1.227,1.114-1.837,1.675
			c-1.551,1.423-0.27,3.814,1.618,3.907c0.479,0.023,0.956,0.047,1.435,0.07c-0.659-1.148-1.317-2.296-1.977-3.444
			c-0.081,0.128-0.161,0.256-0.242,0.384c-0.996,1.579,0.682,4.143,2.585,3.362c1.174-0.48,2.534,0.176,3.81-0.334
			c-0.871-1.133-1.741-2.266-2.612-3.397c0.045-0.079,0.09-0.157,0.135-0.235c-1.778,0.866-1.399,3.929,0.562,4.298
			c0.184,0.034,0.367,0.068,0.551,0.104c0.775,0.146,1.767,0.068,2.31-0.611c0.104-0.131,0.21-0.263,0.315-0.395
			c0.935-1.169,0.716-3.012-0.911-3.451c-0.544-0.146-1.08-0.206-1.64-0.266c0.396,1.461,0.791,2.921,1.187,4.382
			c0.679-0.401,1.09-0.81,1.486-1.491c1.223-2.103-1.15-4.164-3.164-3.164c-0.321,0.159-2.328-0.228-3.244,0.147
			c0.861,1.121,1.724,2.241,2.585,3.362c0.081-0.128,0.161-0.256,0.242-0.384c0.971-1.538-0.315-3.363-1.977-3.444
			c-0.479-0.023-0.956-0.047-1.435-0.07c0.539,1.303,1.079,2.605,1.618,3.907c0.61-0.56,1.221-1.12,1.825-1.687
			c1.844-1.731-0.157-4.098-2.219-3.811c-0.262,0.026-0.523,0.054-0.785,0.081c0.516,1.243,1.03,2.487,1.546,3.731
			c0.267-0.106,0.534-0.213,0.801-0.319c-0.771-1.004-1.544-2.009-2.315-3.013c-0.227,0.32-0.452,0.64-0.68,0.959
			c-1.273,1.795,1.099,3.408,2.697,2.697c0.209-0.066,0.419-0.133,0.628-0.199c-0.774-0.774-1.549-1.549-2.323-2.323
			c-0.044,0.184-0.088,0.366-0.132,0.55c-0.383,1.597,1.269,2.867,2.714,2.086c0.61-0.366,1.255-0.66,1.934-0.879
			c-0.699-0.533-1.398-1.065-2.098-1.599c-0.004,0.146-0.008,0.291-0.011,0.437c-0.03,1.219,1.408,2.044,2.445,1.403
			c0.46-0.327,0.961-0.575,1.503-0.745c-0.541-0.307-1.081-0.613-1.622-0.92c0.04,0.522,0.08,1.046,0.119,1.569
			c0.332-0.253,0.664-0.506,0.996-0.759c-4.081,0.053-8.212,1.416-12.123,2.458c0.613,0.613,1.228,1.228,1.841,1.841
			c0.344-1.709,4.057-3.565,5.434-4.516C122.002,151.719,120.465,149.065,118.851,150.195L118.851,150.195z"/>
	</g>
</g>
<g opacity="0.9">
	<g>
		<path fill="#737070" d="M122.211,158.521c-0.343,0.109-0.686,0.219-1.028,0.328c-2.495,0.797-1.437,4.248,1.061,3.846
			c0.663-0.072,1.311-0.212,1.944-0.419c-0.832-0.832-1.663-1.663-2.495-2.495c-0.115,0.308-0.23,0.616-0.346,0.924
			c-0.358,0.957,0.392,2.36,1.429,2.517c1.276,0.192,2.538-0.034,3.762,0.397c0.387,0.101,0.773,0.101,1.16-0.001
			c1.55-0.198-1.062-1.272,0.006-0.206c0.739,0.739,1.9,0.743,2.864,0.593c1.029-0.161,2.589,0.18,3.812,0.05
			c-0.721-0.946-1.441-1.893-2.162-2.838c-0.076,0.33-0.153,0.66-0.229,0.99c-0.295,1.273,0.642,3.007,2.153,2.827
			c1.277-0.152,2.556-0.305,3.833-0.457c2.766-0.329,2.839-4.687,0-4.398c-1.277,0.13-2.556,0.26-3.833,0.389
			c0.718,0.942,1.436,1.885,2.153,2.827c0.082-0.329,0.164-0.657,0.247-0.986c0.317-1.27-0.661-3.029-2.162-2.838
			c-1.715,0.22-3.401,0.188-5.151,0.161c0.621,0.356,1.241,0.712,1.862,1.068c-1.906-2.528-5.057-1.285-7.771-1.597
			c0.657,0.863,1.315,1.727,1.973,2.59c0.104-0.312,0.208-0.622,0.313-0.934c0.488-1.458-1.063-2.937-2.495-2.495
			c-0.625,0.229-1.268,0.391-1.927,0.485c0.354,1.282,0.707,2.563,1.061,3.846c0.339-0.122,0.679-0.243,1.019-0.365
			C125.629,161.481,124.661,157.739,122.211,158.521L122.211,158.521z"/>
	</g>
</g>
<g opacity="0.9">
	<g>
		<path fill="#737070" d="M111.255,148.898c-0.436,0.262-0.871,0.524-1.306,0.787c0.804,1.042,1.607,2.083,2.41,3.124
			c0.426-0.383,0.853-0.766,1.278-1.148c1.694-1.524-0.161-3.715-2.001-3.437c-1.093,0.165-1.982,0.49-2.989,0.928
			c0.726,1.241,1.452,2.483,2.178,3.725c0.708-0.37,1.203-0.748,1.823-1.251c1.847-1.498-0.175-4.164-2.161-3.712
			c-0.937,0.213-1.865,0.433-2.791,0.689c0.936,0.936,1.87,1.87,2.806,2.806c0.088-0.313,0.176-0.627,0.265-0.94
			c0.468-1.664-1.132-3.265-2.797-2.797c-1.038,0.293-2.077,0.585-3.115,0.877c0.847,1.102,1.693,2.203,2.539,3.304
			c0.226-0.36,0.451-0.72,0.677-1.08c1.036-1.653-0.668-3.859-2.529-3.289c-0.916,0.28-1.832,0.562-2.748,0.842
			c0.835,0.34,1.67,0.68,2.505,1.02c-1.555-2.418-4.652-0.98-6.913-0.496c0.561,1.329,1.121,2.659,1.682,3.989
			c1.857-1.067,3.912-1.9,5.01-3.821c0.584-1.021-0.161-2.27-1.317-2.297c-2.22-0.052-4.018,1.307-5.896,2.349
			c-2.265,1.257-0.659,4.454,1.682,3.989c1.13-0.224,2.511-0.738,3.67-0.645c-0.638-0.366-1.275-0.731-1.913-1.098
			c0.056,0.089,0.11,0.179,0.166,0.268c0.521,0.839,1.531,1.302,2.505,1.02c0.92-0.267,1.84-0.534,2.76-0.801
			c-0.844-1.097-1.687-2.193-2.529-3.289c-0.231,0.356-0.462,0.713-0.692,1.07c-1.101,1.701,0.702,3.791,2.539,3.304
			c1.043-0.277,2.086-0.554,3.129-0.83c-0.933-0.933-1.864-1.864-2.797-2.797c-0.093,0.313-0.186,0.625-0.278,0.937
			c-0.504,1.694,1.157,3.236,2.806,2.806c0.929-0.243,1.843-0.52,2.76-0.805c-0.721-1.237-1.441-2.475-2.161-3.712
			c-0.287,0.223-0.573,0.444-0.86,0.667c-2.359,1.478-0.281,5.029,2.178,3.725c0.59-0.361,1.225-0.59,1.905-0.688
			c-0.667-1.146-1.334-2.291-2.001-3.437c-0.395,0.415-0.788,0.829-1.183,1.244c-1.504,1.58,0.512,4.481,2.41,3.124
			c0.415-0.297,0.83-0.594,1.245-0.891C115.19,150.812,113.424,147.59,111.255,148.898L111.255,148.898z"/>
	</g>
</g>
<g opacity="0.9">
	<g>
		<path fill="#5C5A5A" d="M96.149,154.772c0.028,0.104,0.058,0.206,0.086,0.31c0.063-0.477,0.125-0.953,0.188-1.431
			c0.085-0.073,0.17-0.146,0.256-0.22c-1.897,0.994-0.584,4.105,1.455,3.452c0.25-0.08,0.5-0.16,0.75-0.24
			c-0.726-0.944-1.452-1.889-2.178-2.833c-0.738,1.003-0.907,2.104-0.214,3.176c0.79,1.222,1.755,0.852,2.93,0.826
			c-0.593-1.033-1.186-2.066-1.778-3.099c-0.261,0.451-0.521,0.903-0.781,1.355c-0.993,1.726,0.625,3.48,2.415,3.141
			c1.02-0.193,1.924-0.53,2.876-0.934c-0.914-1.184-1.827-2.367-2.74-3.551c-0.168,0.214-0.335,0.428-0.502,0.642
			c-1.339,1.713-0.179,4.499,2.24,3.848c1.159-0.312,2.245-0.731,3.35-1.2c-0.987-1.278-1.975-2.558-2.961-3.837
			c-0.527,0.418-0.947,0.834-1.371,1.356c-1.604,1.978-0.13,4.743,2.463,4.231c1.173-0.231,2.221-0.638,3.293-1.16
			c-1.074-1.393-2.149-2.785-3.224-4.178c-0.371,0.314-0.743,0.627-1.119,0.936c-2.204,1.829,0.175,5.211,2.659,4.568
			c0.707-0.184,1.414-0.367,2.121-0.55c-1.169-1.17-2.338-2.339-3.508-3.508c-0.126,0.325-0.252,0.65-0.378,0.976
			c-0.612,1.579,0.671,3.06,2.03,3.577c0.906,0.345,1.752,0.132,2.632-0.145c-0.963-0.255-1.926-0.51-2.889-0.764
			c0.073,0.058,0.146,0.114,0.218,0.172c-0.256-0.968-0.512-1.936-0.767-2.903c-0.015,0.079-0.028,0.157-0.042,0.235
			c-0.301,1.688,0.792,4.069,2.89,3.794c0.614-0.08,1.228-0.163,1.841-0.246c-1.288-0.981-2.576-1.962-3.863-2.943
			c-0.054,1.211,0.362,2.013,1.168,2.882c1.085,1.169,3.238,1.208,4.316,0c0.063-0.07,0.125-0.14,0.187-0.21
			c1.081-1.211,0.972-2.65,0-3.871c-0.146-0.196-0.306-0.38-0.479-0.551c0.298,0.719,0.597,1.438,0.895,2.158
			c0.006-0.137,0.012-0.272,0.018-0.408c0.091-2.044-2.01-3.39-3.863-2.943c-0.338,0.082-0.677,0.163-1.015,0.246
			c1.265,0.963,2.529,1.927,3.794,2.89c0.005-0.079,0.011-0.159,0.017-0.238c0.071-1.055-0.628-2.041-1.479-2.577
			c-0.535-0.337-1.089-0.554-1.734-0.554c-0.263,0.035-0.526,0.07-0.789,0.105c-1.099,0.363-0.935,0.451,0.493,0.264
			c0.677,1.192,1.354,2.385,2.03,3.577c0.09-0.336,0.181-0.671,0.271-1.007c0.521-1.944-1.406-4.303-3.508-3.508
			c-0.687,0.26-1.372,0.52-2.059,0.778c0.887,1.523,1.772,3.046,2.659,4.568c0.336-0.35,0.675-0.695,1.016-1.039
			c2.111-2.14-0.607-5.762-3.224-4.178c-0.646,0.391-1.229,0.658-1.953,0.871c0.953,1.24,1.906,2.479,2.859,3.719
			c0.226-0.373,0.51-0.695,0.85-0.969c2.063-1.969-0.562-5.124-2.961-3.837c-0.692,0.371-1.371,0.699-2.107,0.979
			c0.867,1.127,1.733,2.254,2.601,3.382c0.146-0.23,0.291-0.461,0.437-0.691c1.256-1.986-1.173-4.144-3.094-3.094
			c-0.568,0.311-1.107,0.53-1.729,0.715c0.805,1.047,1.609,2.094,2.415,3.141c0.215-0.479,0.43-0.957,0.645-1.436
			c0.556-1.235-0.056-3.31-1.778-3.099c-0.219,0.027-1.809,0.347-1.205,0.288c0.471,0.195,0.941,0.39,1.412,0.585
			c-0.08-0.1-0.16-0.2-0.239-0.3c0.169,0.641,0.339,1.282,0.508,1.924c0.047-0.145,0.093-0.288,0.139-0.433
			c1.074-1.814-0.978-3.361-2.639-2.639c-0.239,0.104-0.479,0.208-0.719,0.313c0.636,1.087,1.271,2.175,1.906,3.262
			c1.004-0.661,1.578-1.704,1.113-2.899C98.857,151.632,95.501,152.438,96.149,154.772L96.149,154.772z"/>
	</g>
</g>
<g opacity="0.9">
	<g>
		<path fill="#5C5A5A" d="M40.37,33.804c-0.643-0.027,0.473,0.665,0.595,0.737c0.782,0.462,1.87-0.672,2.517-0.856
			c-0.125-0.453-0.25-0.905-0.374-1.357c-1.192,0.446-1.127,0.4-2.201,1.084c-0.811,0.517-0.26,1.622,0.623,1.478
			c1.115-0.182,2.127-0.433,3.195-0.799c-0.201-0.727-0.401-1.455-0.602-2.182c-0.826,0.271-1.642,0.568-2.448,0.892
			c-1.607,0.615-0.895,3.228,0.715,2.593c0.942-0.372,1.667-0.687,2.573-1.14c1.473-0.737,0.427-3.272-1.128-2.677
			c-0.912,0.349-1.824,0.698-2.736,1.047c-1.904,0.729-1.128,3.787,0.854,3.102c0.752-0.341,1.529-0.448,2.331-0.322
			c-0.404-0.975-0.808-1.951-1.212-2.926c-0.851,0.925-1.701,1.85-2.551,2.775c-1.138,1.238-0.044,3.471,1.705,2.928
			c2.083-0.647,3.991-1.486,5.87-2.599c2.046-1.212,0.258-4.086-1.828-3.128c-2.796,1.284-5.367,2.664-7.678,4.714
			c-1.762,1.563,0.479,3.784,2.312,2.997c3.295-1.416,6.562-2.892,9.801-4.43c2.484-1.18,0.316-4.719-2.132-3.646
			c-2.809,1.23-6.641,2.603-8.083,5.509c-1.016,2.046,1.004,4,3.03,3.03c3.288-1.575,6.575-3.149,9.862-4.724
			c-0.758-1.297-1.517-2.595-2.275-3.893c-1.116,0.765-2.232,1.53-3.349,2.294c-1.984,1.36-0.762,5.191,1.748,4.146
			c1.702-0.708,3.403-1.416,5.105-2.124c-0.588-1.395-1.176-2.789-1.764-4.183c-0.878,0.535-1.367,0.914-2.084,1.652
			c-1.641,1.691,0.013,4.346,2.234,3.838c1.791-0.41,3.582-0.819,5.373-1.229c-0.595-1.411-1.19-2.822-1.785-4.233
			c-0.362,0.269-0.725,0.539-1.087,0.808c-2.055,1.525-0.907,4.88,1.789,4.242c0.414-0.098,0.828-0.196,1.241-0.294
			c-0.754-1.296-1.508-2.591-2.263-3.887c-0.551,0.483-1.103,0.967-1.655,1.45c-1.232,1.08-0.687,3.641,1.03,3.901
			c0.476,0.072,0.951,0.144,1.426,0.216c-0.549-0.967-1.098-1.934-1.647-2.901c-0.136,0.194-0.271,0.388-0.407,0.582
			c-1.211,1.6,0.491,3.421,2.057,3.584c0.398,0.041,0.796,0.083,1.194,0.124c-0.566-1.368-1.133-2.736-1.7-4.104
			c-0.189,0.223-0.379,0.447-0.569,0.67c-1.193,1.406-0.75,3.454,1.068,4.044c0.217,0.071,0.435,0.142,0.653,0.212
			c-0.358-1.355-0.715-2.71-1.073-4.065c-1.233,1.359-3.178,1.336-4.853,1.648c0.655,1.554,1.311,3.108,1.966,4.662
			c0.696-0.346,1.211-0.744,1.822-1.222c1.71-1.336,0.321-4.593-1.807-4.363c-1.215,0.132-2.43,0.263-3.646,0.395
			c0.733,1.278,1.466,2.555,2.199,3.833c-0.021,0.006-0.042,0.013-0.063,0.019c2.272-1.7,0.991-5.281-1.96-4.65
			c-1.118,0.239-2.236,0.478-3.354,0.716c0.823,1.413,1.645,2.826,2.468,4.239c0.016-0.018,0.032-0.036,0.048-0.054
			c3.173-0.993,1.825-5.409-1.347-4.885c-2.614,0.432-5.188,0.977-7.752,1.642c0.446,1.617,0.891,3.233,1.337,4.85
			c0.233-0.083,0.466-0.167,0.699-0.25c2.503-0.894,2.322-5.27-0.669-4.944c-0.3,0.033-0.599,0.065-0.899,0.098
			c0.844,0.844,1.688,1.688,2.532,2.532c-0.007-0.491,1.19-1.724,1.39-2.451c0.103-0.441,0.122-0.885,0.06-1.332
			c-0.031-0.23-0.062-0.461-0.093-0.691c-0.33-0.808-0.348-0.829-0.056-0.062c0.503-0.809,0.449-1.848,0-2.661
			c-0.406-0.753-0.827-1.499-1.263-2.235c-0.751,1.31-1.503,2.62-2.255,3.93c1.733,0.064,3.169,0.793,4.896,0.875
			c3.271,0.156,3.183-4.75,0-5.026c-1.657-0.144-3.176-0.94-4.896-1.072c-2.083-0.159-3.11,2.307-2.255,3.93
			c0.392,0.761,0.798,1.515,1.219,2.26c0-0.887,0-1.774,0-2.661c-0.727,1.257-1.188,2.729-0.462,4.114
			c0.036-0.245,0.071-0.489,0.107-0.734c-0.285,0.416-0.571,0.831-0.859,1.245c-0.527,0.761-0.638,1.681-0.597,2.571
			c0.084,1.795,1.543,2.677,3.205,2.441c0.298-0.042,0.597-0.084,0.895-0.127c-0.446-1.618-0.892-3.236-1.338-4.854
			c-0.233,0.084-0.465,0.169-0.698,0.254c-3.008,1.095-1.849,5.66,1.337,4.85c2.568-0.653,5.146-1.187,7.762-1.606
			c-0.449-1.628-0.898-3.256-1.347-4.885c-0.976,0.3-1.561,0.632-2.288,1.352c-1.89,1.872,0.063,4.741,2.468,4.239
			c1.119-0.233,2.239-0.467,3.358-0.701c-0.653-1.55-1.307-3.1-1.96-4.65c-0.744,0.551-1.246,1.035-1.767,1.803
			c-1.024,1.511,0.31,4.028,2.199,3.833c1.215-0.126,2.43-0.252,3.646-0.378c-0.603-1.454-1.205-2.909-1.807-4.363
			c-0.261,0.144-0.522,0.287-0.783,0.431c-2.667,1.382-0.76,5.271,1.966,4.662c2.753-0.616,5.044-0.884,6.936-3.127
			c1.16-1.375,0.795-3.532-1.073-4.065c-0.22-0.063-0.439-0.125-0.66-0.188c0.356,1.348,0.712,2.696,1.068,4.044
			c0.182-0.231,0.364-0.461,0.546-0.692c1.307-1.656,0.525-3.953-1.7-4.104c-0.398-0.027-0.796-0.054-1.194-0.081
			c0.686,1.195,1.371,2.39,2.057,3.584c0.4-0.569,0.609-1.079,0.841-1.732c0.563-1.586-0.87-2.82-2.274-2.985
			c-0.478-0.057-0.955-0.113-1.432-0.169c0.55,1.328,1.1,2.656,1.65,3.984c0.547-0.488,1.095-0.975,1.643-1.462
			c1.817-1.616-0.113-4.412-2.263-3.887c-0.413,0.101-0.826,0.202-1.239,0.303c0.596,1.414,1.192,2.828,1.789,4.242
			c0.361-0.272,0.722-0.543,1.083-0.815c2.031-1.531,0.917-4.873-1.785-4.233c-1.788,0.423-3.575,0.845-5.362,1.268
			c0.745,1.279,1.489,2.559,2.234,3.838c0.382-0.315,0.765-0.631,1.147-0.947c2.581-1.598,0.334-5.075-2.311-3.952
			c-1.696,0.72-3.393,1.44-5.089,2.161c0.763,1.306,1.527,2.612,2.29,3.918c1.111-0.773,2.223-1.546,3.334-2.32
			c2.386-1.66,0.35-5.173-2.275-3.893c-3.274,1.597-6.548,3.195-9.822,4.792c1.01,1.01,2.02,2.02,3.03,3.03
			c0.93-1.908,4.591-3.227,6.391-4.098c-0.71-1.215-1.421-2.431-2.132-3.646c-3.169,1.655-6.366,3.248-9.595,4.782
			c0.771,0.999,1.542,1.998,2.312,2.997c1.993-1.907,4.35-3.095,6.808-4.284c-0.609-1.042-1.219-2.085-1.828-3.128
			c-1.589,0.985-3.194,1.757-4.973,2.349c0.568,0.976,1.136,1.952,1.705,2.928c0.833-0.943,1.665-1.886,2.498-2.829
			c0.983-1.113,0.338-2.888-1.212-2.926c-1.354-0.033-2.346,0.249-3.569,0.81c0.541,0.926,1.082,1.852,1.623,2.777
			c0.875-0.437,1.75-0.873,2.626-1.31c-0.493-0.843-0.986-1.686-1.479-2.529c-0.674,0.467-1.385,0.871-2.13,1.212
			c0.453,0.774,0.905,1.548,1.357,2.322c0.775-0.402,1.536-0.83,2.283-1.282c1.259-0.734,0.123-2.687-1.142-1.953
			c-0.86,0.552-1.778,0.988-2.753,1.307c0.262,0.451,0.524,0.901,0.787,1.352c0.587-0.356,1.175-0.711,1.763-1.067
			c0.727-0.328,0.206-1.554-0.542-1.287c-0.238,0.084-1.799,0.725-1.797,0.739c-0.036-0.253-0.335-0.443-0.574-0.437
			c-0.122,0.002-0.244,0.005-0.366,0.008C39.616,32.655,39.62,33.773,40.37,33.804L40.37,33.804z"/>
	</g>
</g>
<g opacity="0.9">
	<g>
		<path fill="#898787" d="M64.064,32.924c0.408,0.304,0.717,0.352,1.216,0.402c-0.342-0.597-0.685-1.193-1.026-1.789
			c-0.206,0.362-0.438,0.707-0.697,1.033c-0.669,0.853-0.095,2.563,1.205,2.069c0.278-0.105,0.556-0.211,0.834-0.316
			c-0.411-0.706-0.822-1.412-1.232-2.117c-0.459,0.427-0.795,0.87-1.091,1.425c-0.499,0.937,0.138,1.906,1.144,1.993
			c0.549,0.047,1.039-0.009,1.578-0.115c-0.453-0.778-0.906-1.557-1.359-2.335c-0.511,0.507-1.021,1.015-1.532,1.522
			c-1.185,1.178,0.071,2.754,1.485,2.551c0.854-0.123,1.589-0.41,2.345-0.818c-0.542-0.926-1.083-1.852-1.624-2.778
			c-0.648,0.453-1.296,0.905-1.944,1.358c-1.56,1.089-0.612,3.465,1.291,3.063c0.582-0.123,1.164-0.247,1.746-0.37
			c-0.56-0.961-1.12-1.923-1.679-2.884c-0.452,0.429-0.901,0.729-1.454,1.018c-1.569,0.817-0.855,3.409,0.903,3.333
			c0.734-0.032,1.468-0.063,2.203-0.095c-0.312-1.15-0.623-2.3-0.934-3.45c-0.698,0.48-1.395,0.959-2.093,1.439
			c-1.799,1.236-0.695,3.987,1.482,3.514c0.464-0.101,0.863-0.091,1.334-0.051c-0.466-1.124-0.931-2.249-1.397-3.373
			c-0.383,0.349-0.767,0.698-1.15,1.046c-1.315,1.194-0.283,3.475,1.428,3.448c0.464-0.007,0.928-0.015,1.393-0.023
			c-0.66-0.66-1.321-1.321-1.981-1.981c0.003,0.134,0.007,0.269,0.011,0.403c0.027,1.003,1.091,2.079,2.159,1.645
			c0.112-0.046,0.225-0.091,0.337-0.137c2.011-0.817,1.832-3.799-0.526-3.891c-0.464-0.018-0.928-0.037-1.393-0.054
			c0.476,1.149,0.952,2.298,1.428,3.448c0.362-0.37,0.725-0.739,1.088-1.109c1.228-1.252,0.318-3.325-1.397-3.373
			c-0.806-0.022-1.58,0.079-2.357,0.294c0.624,1.071,1.247,2.143,1.871,3.214c0.668-0.517,1.337-1.034,2.005-1.551
			c1.253-0.97,0.223-3.313-1.309-3.16c-0.734,0.073-1.468,0.146-2.203,0.219c0.301,1.111,0.602,2.223,0.903,3.333
			c0.784-0.466,1.464-1.001,2.088-1.666c1.17-1.245,0.024-3.348-1.679-2.884c-0.573,0.156-1.146,0.311-1.718,0.467
			c0.543,0.934,1.087,1.867,1.63,2.801c0.621-0.488,1.242-0.976,1.863-1.463c1.455-1.143-0.421-3.466-1.95-2.527
			c-0.5,0.307-0.967,0.501-1.533,0.653c0.495,0.85,0.99,1.701,1.485,2.551c0.45-0.568,0.9-1.137,1.35-1.705
			c0.791-0.998,0.106-2.81-1.359-2.335c-0.265,0.119-0.543,0.173-0.835,0.161c0.426,0.559,0.851,1.118,1.277,1.676
			c0.154-0.218,0.308-0.437,0.461-0.655c1.04-1.098-0.261-2.568-1.535-1.989c-0.271,0.123-0.542,0.246-0.812,0.369
			c0.565,0.565,1.129,1.129,1.694,1.694c0.298-0.434,0.56-0.868,0.805-1.333c0.428-0.812-0.105-1.754-1.026-1.789
			c-0.013-0.013-0.025-0.026-0.038-0.04C63.955,30.07,62.888,32.047,64.064,32.924L64.064,32.924z"/>
	</g>
</g>
<g opacity="0.9">
	<g>
		<path fill="#898787" d="M62.904,28.99c-1.655,0.065-3.452,0.189-4.991,0.832c-1.123,0.469-0.711,1.999,0.501,1.817
			c1.508-0.226,2.96-0.637,4.49-0.765C64.098,30.775,64.131,28.941,62.904,28.99L62.904,28.99z"/>
	</g>
</g>
<g opacity="0.9">
	<g>
		<path fill="#898787" d="M19.987,33.016c-0.991,0.051-1.983,0.195-2.943,0.451c-0.609,0.163-1.258,0.401-1.817,0.683
			c-0.755,0.381-1.2,0.986-1.672,1.659c-1.181,1.682,0.374,4.446,2.441,4.255c0.738-0.068,1.397-0.108,2.076-0.462
			c0.343-0.178,0.676-0.372,1.021-0.546c0.32-0.146,0.341-0.159,0.063-0.036c0.173-0.067,0.348-0.128,0.525-0.184
			c0.345-0.115,0.7-0.194,1.056-0.266C23.871,37.936,23.158,32.854,19.987,33.016L19.987,33.016z"/>
	</g>
</g>
</svg>
