<?xml version="1.0" encoding="utf-8"?>
<!-- Generator: Adobe Illustrator 16.0.0, SVG Export Plug-In . SVG Version: 6.00 Build 0)  -->
<!DOCTYPE svg PUBLIC "-//W3C//DTD SVG 1.1//EN" "http://www.w3.org/Graphics/SVG/1.1/DTD/svg11.dtd">
<svg version="1.1" id="Layer_1" xmlns="http://www.w3.org/2000/svg" xmlns:xlink="http://www.w3.org/1999/xlink" x="0px" y="0px"
	 width="205px" height="305px" viewBox="0 0 205 305" enable-background="new 0 0 205 305" xml:space="preserve">
<g>
	<path fill="#010101" d="M124.127,113.279c-0.389,20.313-0.757,40.622-1.038,60.937c-0.282,20.275-1.181,40.664-0.651,60.935
		c0.051,1.947,2.916,1.934,3.014,0c1.037-20.252,0.65-40.658,0.878-60.935c0.227-20.313,0.368-40.623,0.489-60.937
		C126.828,111.546,124.16,111.547,124.127,113.279"/>
	<path fill="#010101" d="M147.368,116.798c1.573,39.991-0.374,79.613-2.062,119.545c-0.063,1.517,2.155,1.447,2.314,0
		c4.339-39.473,3.696-79.937,1.792-119.545C149.35,115.489,147.315,115.478,147.368,116.798"/>
	<path fill="#010101" d="M151.318,116.307c4.767-0.88,9.529-1.207,14.37-1.139c1.667,0.023,1.658-2.522,0-2.583
		c-5.069-0.186-10.086,0.26-15.071,1.179C148.951,114.072,149.657,116.614,151.318,116.307"/>
	<path fill="#010101" d="M129.189,114.068c7.127-0.282,14.037,0.732,20.845,2.838c1.666,0.516,2.34-2.037,0.715-2.594
		c-7.006-2.401-14.17-3.301-21.56-2.935C127.468,111.463,127.451,114.137,129.189,114.068"/>
	<path fill="#010101" d="M78.474,90.918c0.478,23.055,0.937,46.111,1.458,69.165c0.253,11.198,0.501,22.397,0.759,33.596
		c0.267,11.542,0.678,22.532-1.434,33.935c-0.401,2.166,2.478,2.928,3.269,0.902c3.732-9.553,2.466-20.866,2.186-30.885
		c-0.331-11.858-0.737-23.715-1.108-35.571c-0.743-23.715-1.545-47.428-2.332-71.141C81.213,89.124,78.438,89.111,78.474,90.918"/>
	<path fill="#010101" d="M81.505,92.035c12.542-0.553,25.159-0.756,37.671-1.793c2.21-0.183,2.281-3.542,0-3.498
		c-12.557,0.244-25.134,1.332-37.671,2.062C79.444,88.926,79.418,92.127,81.505,92.035"/>
	<path fill="#010101" d="M120.295,91.498c0.01,6.649,0.169,13.434,1.9,19.889c0.487,1.821,3.391,1.487,3.328-0.451
		c-0.205-6.496-1.086-12.93-1.193-19.438C124.287,88.904,120.291,88.895,120.295,91.498"/>
	<path fill="#010101" d="M170.049,115.053c-0.651,20.111-0.924,40.222-1.23,60.34c-0.307,20.087-1.018,40.256-0.708,60.341
		c0.038,2.465,3.726,2.454,3.819,0c0.775-20.073,0.532-40.253,0.693-60.341c0.16-20.116,0.354-40.225,0.17-60.34
		C172.777,113.283,170.106,113.289,170.049,115.053"/>
	<path fill="#010101" d="M73.081,237.24c10.781-1.62,21.611-3.186,32.521-3.572c4.991-0.177,10.009-0.101,14.978,0.431
		c2.932,0.312,5.842,0.762,8.723,1.392c0.922,0.201,2.906,0.308,3.646,0.893c1.252,0.021,1.524,0.759,0.819,2.209
		c0.484,1.432,0.061,2.318-1.268,2.66c-1.461,0.864-0.512,3.357,1.18,2.804c3.608-1.181,8.093-4.491,5.158-8.738
		c-1.289-1.866-3.742-2.32-5.785-2.85c-3.778-0.979-7.664-1.59-11.543-1.999c-16.513-1.747-32.988,1.097-49.201,3.97
		C70.453,234.768,71.264,237.514,73.081,237.24"/>
	<path fill="#010101" d="M136.239,245.691c7.063,0.63,14.117,1.314,21.196,1.717c1.228,0.069,1.181-1.756,0-1.883
		c-7.051-0.76-14.124-1.236-21.196-1.771C134.991,243.661,135.01,245.583,136.239,245.691"/>
	<path fill="#010101" d="M158.428,247.13c14.564-4.882,29.648-7.927,44.226-12.627c1.99-0.643,1.138-3.358-0.844-3.062
		c-14.957,2.24-29.941,7.967-44.069,13.197C156.204,245.208,156.833,247.664,158.428,247.13"/>
	<path fill="#010101" d="M172.341,227.238c7.845,1.386,15.674,2.904,23.567,3.983c1.964,0.268,2.891-2.658,0.844-3.063
		c-7.819-1.542-15.723-2.644-23.596-3.879C171.237,223.979,170.385,226.893,172.341,227.238"/>
	<path fill="#010101" d="M152.865,248.09c0.492,10.616,1.007,21.222,1.715,31.826c0.108,1.609,2.594,1.64,2.53,0
		c-0.418-10.618-1.028-21.219-1.662-31.826C155.35,246.44,152.788,246.421,152.865,248.09"/>
	<path fill="#010101" d="M198.336,236.917c-1.216,9.453-1.498,18.768-0.603,28.259c0.18,1.899,3.124,1.96,3.014,0
		c-0.53-9.42-0.412-18.876,0.602-28.259C201.559,234.978,198.579,235.03,198.336,236.917"/>
	<path fill="#010101" d="M156.125,279.75c13.751-3.313,27.247-7.178,40.616-11.801c2.042-0.707,1.197-3.933-0.902-3.269
		c-13.435,4.247-26.957,8.326-40.544,12.06C153.356,277.273,154.172,280.222,156.125,279.75"/>
	<path fill="#010101" d="M136.152,255.735c1.034,10.406,1.167,20.765,1.262,31.21c0.016,1.744,2.582,1.717,2.689,0
		c0.652-10.386,0.036-20.867-0.991-31.21C138.926,253.856,135.965,253.838,136.152,255.735"/>
	<path fill="#010101" d="M103.492,301.313c11.035-5.655,22.505-9.902,34.238-13.843c1.563-0.525,0.934-2.927-0.688-2.491
		c-12.102,3.249-23.693,8.428-34.719,14.336C101.007,300.021,102.171,301.99,103.492,301.313"/>
	<path fill="#010101" d="M131.883,245.747c0.127,2.279-0.075,4.47-0.408,6.723c-0.237,1.598,2.029,2.332,2.49,0.686
		c0.668-2.391,0.845-4.934,0.77-7.408C134.678,243.91,131.779,243.917,131.883,245.747"/>
	<path fill="#010101" d="M105.042,252.903c6.666,0.856,13.325,1.715,20.011,2.412c1.344,0.14,1.674-2.193,0.321-2.378
		c-6.767-0.927-13.545-1.692-20.332-2.455C103.486,250.308,103.523,252.708,105.042,252.903"/>
	<path fill="#010101" d="M102.301,251.974l-4.667,1.923c-0.663,0.272-1.118,0.872-0.921,1.621c0.174,0.659,0.95,1.148,1.622,0.921
		c1.584-0.536,3.168-1.073,4.753-1.61C104.912,254.209,104.031,251.261,102.301,251.974"/>
	<path fill="#010101" d="M2.142,255.153c1.619,12.551,1.771,25.051,2.144,37.674c0.053,1.796,2.573,1.732,2.744,0
		c1.235-12.498,0.212-25.252-1.39-37.674C5.356,252.952,1.854,252.923,2.142,255.153"/>
	<path fill="#010101" d="M12.014,293.667c27.615,1.215,55.024,4.063,82.504,6.906c1.314,0.136,1.636-2.131,0.315-2.325
		c-27.385-4.031-55.168-5.694-82.819-6.572C10.729,291.635,10.736,293.611,12.014,293.667"/>
	<path fill="#010101" d="M8.323,254.533c29.462,4.971,59.219,8.69,89.073,10.133c1.632,0.078,1.615-2.425,0-2.529
		c-29.682-1.91-59.245-4.612-88.658-9.108C7.76,252.879,7.328,254.365,8.323,254.533"/>
	<path fill="#010101" d="M7.361,253.868c2.786-1.301,5.553-2.612,8.284-4.023c1.535-0.793,0.188-2.946-1.331-2.276
		c-2.815,1.243-5.575,2.576-8.338,3.93C4.382,252.28,5.776,254.608,7.361,253.868"/>
	<path fill="#010101" d="M17.292,248.396c25.908,2.541,51.819,5.419,77.769,7.497c1.215,0.097,1.19-1.764,0-1.884
		c-25.874-2.611-51.853-4.433-77.769-6.583C16.667,247.375,16.678,248.335,17.292,248.396"/>
	<path fill="#010101" d="M97.945,270.475c0.446,8.626,0.24,17.286-0.078,25.914c-0.056,1.54,2.52,1.954,2.749,0.372
		c1.268-8.781,1.419-17.431,0.934-26.286C101.424,268.169,97.825,268.15,97.945,270.475"/>
	<path fill="#010101" d="M131.211,254.233c-2.357-0.384-4.715-0.769-7.072-1.152c-1.183-0.191-1.697,1.612-0.501,1.817
		c2.353,0.4,4.705,0.802,7.058,1.203C131.918,256.31,132.438,254.434,131.211,254.233"/>
	<path fill="#010101" d="M132.121,257.467c1.373,0.161,2.746,0.321,4.121,0.482c1.701,0.199,2.11-2.724,0.408-3.013
		c-1.365-0.231-2.729-0.463-4.094-0.693C130.223,253.848,129.738,257.189,132.121,257.467"/>
	<path fill="#010101" d="M99.551,268.948c9.775-2.888,19.648-5.403,29.473-8.112c1.944-0.536,1.127-3.444-0.83-3.01
		c-9.953,2.214-19.729,5.124-29.458,8.164C96.86,266.577,97.648,269.511,99.551,268.948"/>
	<path fill="#010101" d="M141.516,281.464c4.232-0.547,8.431-0.434,12.636,0.308c1.619,0.287,2.327-2.176,0.686-2.489
		c-4.569-0.877-9.046-0.897-13.644-0.196C139.859,279.289,140.16,281.639,141.516,281.464"/>
	<path fill="#010101" d="M67.958,234.34c-3.14,0.023-6.281,0.021-9.42,0.108c-1.661,0.045-1.664,2.536,0,2.583
		c3.139,0.085,6.28,0.084,9.42,0.106C69.76,237.15,69.762,234.327,67.958,234.34"/>
	<path fill="#010101" d="M68.218,238.094c0.022,3.14,0.008,6.282,0.108,9.42c0.057,1.8,2.741,1.803,2.798,0
		c0.099-3.138,0.086-6.28,0.107-9.42C71.245,236.155,68.204,236.151,68.218,238.094"/>
	<path fill="#010101" d="M60.874,232.592c4.727-2.908,9.542-5.713,14.12-8.852c1.103-0.757,0.137-2.475-1.059-1.813
		c-4.854,2.689-9.514,5.74-14.229,8.666C58.443,231.378,59.6,233.375,60.874,232.592"/>
	<path fill="#010101" d="M76.201,224.078c1.177-0.036,2.355-0.072,3.532-0.108c1.523-0.046,1.526-2.32,0-2.366
		c-1.177-0.036-2.355-0.072-3.532-0.108C74.539,221.444,74.536,224.129,76.201,224.078"/>
	<path fill="#010101" d="M54.556,238.099c-0.328,3.156-0.161,6.182,0.652,9.253c0.517,1.957,3.242,1.086,2.957-0.815
		c-0.418-2.787-0.539-5.632-0.273-8.438C58.096,235.956,54.776,235.986,54.556,238.099"/>
	<path fill="#010101" d="M125.639,90.061c0.445-2.475,0.813-4.972,0.914-7.487c0.017-0.42-0.59-0.395-0.639,0
		c-0.301,2.435-0.59,4.863-1.044,7.275C124.776,90.351,125.549,90.564,125.639,90.061"/>
	<path fill="#010101" d="M127.271,84.058c2.2-0.128,6.788-1.33,8.358,0.132c1.487,1.387,0.683,6.502,0.674,8.479
		c-0.026,5.924-0.29,11.844-0.228,17.767c0.01,0.776,1.146,0.763,1.197,0c0.301-4.602,0.392-9.207,0.436-13.818
		c0.035-3.753,0.892-8.716-0.126-12.285c-1.146-4.011-7.16-1.812-10.312-1.614C126.416,82.772,126.408,84.108,127.271,84.058"/>
	<path fill="#010101" d="M148.119,101.269c0.286,4.615,0.326,9.333,1.011,13.908c0.099,0.657,1.116,0.473,1.127-0.152
		c0.083-4.569-0.5-9.199-0.814-13.756C149.385,100.425,148.066,100.416,148.119,101.269"/>
	<path fill="#010101" d="M166.663,101.255c0.048,3.684-0.199,7.525,0.335,11.175c0.103,0.694,1.061,0.43,1.127-0.153
		c0.416-3.609,0.039-7.393-0.026-11.022C168.081,100.333,166.651,100.329,166.663,101.255"/>
	<path fill="#010101" d="M150.537,101.644c6.226-0.598,12.463-1.12,18.668-1.904c0.692-0.088,0.729-1.171,0-1.116
		c-6.235,0.468-12.45,1.2-18.668,1.856C149.802,100.558,149.788,101.716,150.537,101.644"/>
	<path fill="#010101" d="M148.383,100.591c-3.164-0.193-6.325-0.343-9.492-0.467c-0.725-0.028-0.707,1.06,0,1.116
		c3.163,0.252,6.324,0.476,9.492,0.658C149.224,101.947,149.22,100.643,148.383,100.591"/>
	<path fill="#010101" d="M125.259,83.669c-0.827,2.455-1.422,4.931-1.678,7.511c-0.073,0.737,1.168,0.91,1.3,0.176
		c0.443-2.47,0.973-4.919,1.73-7.314C126.886,83.177,125.546,82.818,125.259,83.669"/>
	<path fill="#010101" d="M108.943,77.126c-0.897-0.051-4.857-0.042-2.949,1.841c1.146,1.132,3.826,1.595,5.303,1.972
		c2.253,0.574,4.541,0.844,6.861,0.923c0.195,0.006,0.412-0.185,0.391-0.391c-0.127-1.224-0.871-1.788-2-2.232
		c-2.575-1.013-5.507-1.507-8.186-2.186c-0.498-0.126-0.707,0.634-0.213,0.769c1.892,0.514,3.785,1.014,5.683,1.503
		c0.694,0.179,1.543,0.258,2.177,0.575c1.773,0.888,1.396,1.198-0.126,1.06c-1.935-0.175-3.849-0.542-5.713-1.081
		c-0.611-0.176-2.252-0.414-2.587-0.88c-0.967-1.342,0.48-1.305,1.359-1.267C109.335,77.75,109.332,77.148,108.943,77.126"/>
	<path fill="#010101" d="M114.637,81.441c-2.465,0.884-4.16,2.929-4.502,5.526c-0.074,0.549,0.864,0.676,0.971,0.131
		c0.402-2.089,1.791-3.915,3.799-4.688C115.498,82.182,115.252,81.222,114.637,81.441"/>
	<path fill="#010101" d="M107.252,80.474c1.901,1.948,2.779,4.471,2.604,7.177c-0.037,0.568,0.824,0.555,0.875,0
		c0.277-2.941-0.773-5.716-2.848-7.808C107.479,79.434,106.85,80.062,107.252,80.474"/>
	<path fill="#010101" d="M91.039,8.432c0.205,13.28,0.41,26.561,0.333,39.843c-0.077,13.284-1.038,26.532-1.219,39.801
		c-0.007,0.463,0.65,0.436,0.701,0c1.547-13.112,1.335-26.613,1.375-39.801c0.041-13.282-0.2-26.563-0.441-39.843
		C91.78,7.95,91.032,7.949,91.039,8.432"/>
	<path fill="#010101" d="M96.917,8.83c-0.003,13.652-0.181,27.303-0.55,40.95c-0.369,13.625-1.521,27.299-1.584,40.92
		c-0.002,0.523,0.747,0.501,0.797,0c1.362-13.518,1.317-27.341,1.641-40.92c0.326-13.648,0.446-27.299,0.398-40.95
		C97.617,8.378,96.917,8.377,96.917,8.83"/>
	<path fill="#010101" d="M92.381,7.417c0.934-1.459,1.661-3.006,2.201-4.651l-1.016,0.133c1.325,1.991,2.544,4.141,4.082,5.974
		c0.426,0.506,1.188-0.141,0.889-0.686c-1.122-2.051-2.668-3.937-4.011-5.849c-0.271-0.386-0.871-0.348-1.016,0.133
		c-0.474,1.573-1.132,3.043-1.983,4.447C91.196,7.465,92.039,7.952,92.381,7.417"/>
	<path fill="#010101" d="M89.492,45.236c-1.27-0.126-2.54-0.251-3.81-0.377c-0.246-0.024-0.46,0.23-0.459,0.459
		c0.053,13.856-0.953,28.202,0.351,41.992c0.049,0.52,0.771,0.526,0.813,0c0.583-7.257,0.038-14.715-0.038-21.996
		c-0.034-3.332-0.069-6.665-0.104-9.998c-0.036-3.469-1.696-9.643,3.247-9.187C90.065,46.182,90.058,45.292,89.492,45.236"/>
	<path fill="#010101" d="M92.955,8.991c0.805,0.44,1.606,0.888,2.425,1.303c0.585,0.296,1.071-0.525,0.515-0.881
		c-0.773-0.495-1.565-0.957-2.353-1.427C92.896,7.602,92.297,8.632,92.955,8.991"/>
	<path fill="#010101" d="M95.134,11.996c-1.51,0.58-2.684,1.445-3.66,2.736c-0.328,0.433,0.37,0.937,0.739,0.57
		c0.911-0.909,2.04-1.668,3.247-2.122C96.194,12.904,95.872,11.713,95.134,11.996"/>
	<path fill="#010101" d="M91.837,16.384c1.358,1.573,2.524,3.273,3.646,5.02c0.382,0.594,1.291,0.069,0.95-0.556
		c-1.041-1.907-2.363-3.633-3.807-5.253C92.146,15.056,91.371,15.844,91.837,16.384"/>
	<path fill="#010101" d="M95.493,21.26c-1.521,0.564-2.863,1.371-3.995,2.538c-0.472,0.487,0.229,1.156,0.733,0.733
		c1.066-0.894,2.273-1.632,3.584-2.103C96.544,22.166,96.224,20.989,95.493,21.26"/>
	<path fill="#010101" d="M92.742,26.187c1.349,1.919,2.81,3.976,4.604,5.503c0.534,0.454,1.176-0.22,0.756-0.755
		c-1.42-1.812-3.006-3.456-4.341-5.343C93.326,24.977,92.304,25.563,92.742,26.187"/>
	<path fill="#010101" d="M95.842,30.843c-1.611,0.564-3.071,1.37-4.35,2.504c-0.453,0.401,0.162,1.226,0.657,0.851
		c1.228-0.929,2.552-1.699,4.011-2.202C96.884,31.746,96.57,30.588,95.842,30.843"/>
	<path fill="#010101" d="M92.067,34.373c1.243,1.732,2.385,3.668,3.876,5.199c0.413,0.424,1.069-0.115,0.801-0.619
		c-0.979-1.84-2.446-3.487-3.686-5.159C92.625,33.209,91.633,33.768,92.067,34.373"/>
	<path fill="#010101" d="M94.454,39.725c-0.885,0.938-1.769,1.868-2.597,2.858c-0.475,0.568,0.268,1.344,0.823,0.823
		c0.939-0.883,1.814-1.819,2.698-2.757C95.956,40.038,95.033,39.11,94.454,39.725"/>
	<path fill="#010101" d="M92.059,44.479c1.084,0.914,1.929,2.036,2.673,3.235c0.354,0.57,1.352,0.21,1.122-0.473
		c-0.519-1.541-1.49-2.794-2.747-3.81C92.376,42.838,91.323,43.858,92.059,44.479"/>
	<path fill="#010101" d="M94.615,47.149c-1.508,0.909-2.666,2.185-3.288,3.838c-0.23,0.609,0.72,0.98,1.034,0.436
		c0.727-1.259,1.682-2.356,2.938-3.104C96.048,47.873,95.364,46.697,94.615,47.149"/>
	<path fill="#010101" d="M92.266,52.545c1.057,1.525,2.086,3.067,3.236,4.523c0.446,0.567,1.355-0.162,0.989-0.763
		c-0.936-1.535-1.998-2.987-3.027-4.46C92.957,51.119,91.755,51.808,92.266,52.545"/>
	<path fill="#010101" d="M94.943,56.932c-0.917,1.024-1.815,2.053-2.68,3.121c-0.341,0.421,0.213,1.014,0.609,0.609
		c0.958-0.982,1.873-1.992,2.781-3.02C96.08,57.16,95.376,56.449,94.943,56.932"/>
	<path fill="#010101" d="M92.473,61.471c1.125,1.096,2.126,2.312,3.023,3.601c0.405,0.581,1.338,0.063,0.964-0.563
		c-0.864-1.447-1.913-2.731-3.119-3.906C92.775,60.051,91.906,60.918,92.473,61.471"/>
	<path fill="#010101" d="M94.491,64.669c-0.792,0.803-1.573,1.61-2.331,2.446c-0.469,0.517,0.251,1.24,0.767,0.767
		c0.831-0.763,1.634-1.548,2.432-2.345C95.919,64.978,95.047,64.105,94.491,64.669"/>
	<path fill="#010101" d="M92.698,69.21c0.719,0.946,1.448,1.876,2.211,2.788c0.38,0.456,1.16-0.143,0.826-0.638
		c-0.637-0.941-1.297-1.858-1.977-2.77C93.29,67.964,92.221,68.583,92.698,69.21"/>
	<path fill="#010101" d="M93.922,71.362c-1.032,0.675-2.057,1.352-3.061,2.067c-0.6,0.427-0.068,1.397,0.587,1.005
		c1.057-0.632,2.087-1.297,3.118-1.971C95.25,72.017,94.612,70.912,93.922,71.362"/>
	<path fill="#010101" d="M91.958,74.697c0.798,1.707,1.608,3.392,2.509,5.048c0.283,0.519,1.203,0.161,0.977-0.411
		c-0.714-1.804-1.508-3.556-2.33-5.313C92.75,73.241,91.594,73.92,91.958,74.697"/>
	<path fill="#010101" d="M93.602,79.243c-0.916,0.568-1.824,1.13-2.7,1.758c-0.545,0.391-0.081,1.221,0.531,0.909
		c0.959-0.49,1.873-1.04,2.797-1.593C94.916,79.905,94.284,78.82,93.602,79.243"/>
	<path fill="#010101" d="M91.527,82.894c0.903,1.028,1.775,2.09,2.775,3.026c0.383,0.359,1.106-0.126,0.764-0.589
		c-0.84-1.139-1.816-2.164-2.761-3.215C91.83,81.587,91.063,82.365,91.527,82.894"/>
	<path fill="#010101" d="M86.363,52.568c1.481,1.702,2.942,3.423,4.484,5.071c0.465,0.497,1.141-0.225,0.733-0.733
		c-1.417-1.761-2.916-3.452-4.394-5.161C86.695,51.179,85.873,52.005,86.363,52.568"/>
	<path fill="#010101" d="M90.262,56.844c-1.602,0.993-3.276,1.925-4.806,3.026c-0.494,0.355-0.072,1.117,0.482,0.826
		c1.669-0.876,3.251-1.956,4.855-2.943C91.369,57.398,90.84,56.486,90.262,56.844"/>
	<path fill="#010101" d="M87.042,61.443c1.151,1.125,2.307,2.242,3.48,3.345c0.449,0.422,1.099-0.227,0.676-0.677
		c-1.102-1.172-2.219-2.329-3.344-3.48C87.336,60.102,86.513,60.926,87.042,61.443"/>
	<path fill="#010101" d="M89.869,64.261c-1.249,0.686-2.494,1.377-3.728,2.09c-0.573,0.33-0.068,1.176,0.515,0.881
		c1.273-0.645,2.533-1.309,3.792-1.98C91.1,64.905,90.518,63.904,89.869,64.261"/>
	<path fill="#010101" d="M87.292,68.752c1.362,0.574,2.723,1.132,4.109,1.646c0.487,0.181,0.83-0.621,0.356-0.845
		c-1.379-0.654-2.771-1.254-4.177-1.846C86.938,67.436,86.658,68.485,87.292,68.752"/>
	<path fill="#010101" d="M89.875,70.419c-1.023,0.692-2.03,1.397-3.026,2.127c-0.468,0.344-0.058,1.108,0.467,0.799
		c1.061-0.625,2.102-1.27,3.138-1.935C91.078,71.011,90.487,70.005,89.875,70.419"/>
	<path fill="#010101" d="M87.729,75.428c0.92,0.902,1.84,1.799,2.792,2.668c0.455,0.415,1.092-0.221,0.676-0.677
		c-0.868-0.952-1.765-1.872-2.668-2.791C88.02,74.107,87.208,74.917,87.729,75.428"/>
	<path fill="#010101" d="M89.899,78.299c-1.143,0.797-2.271,1.605-3.381,2.448c-0.499,0.379-0.058,1.217,0.507,0.867
		c1.181-0.73,2.336-1.49,3.486-2.269C91.155,78.909,90.54,77.853,89.899,78.299"/>
	<path fill="#010101" d="M90.947,84.489c-1.062-0.824-2.116-1.658-3.196-2.458c-0.476-0.354-1.093,0.441-0.637,0.826
		c0.988,0.836,2.003,1.641,3.01,2.455C90.706,85.782,91.535,84.944,90.947,84.489"/>
	<path fill="#010101" d="M89.161,85.032c-0.875,0.637-1.852,1.08-2.893,1.374c-0.606,0.17-0.515,1.232,0.155,1.143
		c1.265-0.169,2.377-0.608,3.422-1.347C90.554,85.701,89.865,84.52,89.161,85.032"/>
	<path fill="#010101" d="M87.377,51.846c1.006-0.676,2.078-1.268,3.167-1.799c0.472-0.23,0.137-1.055-0.362-0.86
		c-1.187,0.465-2.27,1.058-3.312,1.792C86.349,51.346,86.836,52.21,87.377,51.846"/>
	<path fill="#010101" d="M90.564,48.835c-1.183-0.803-2.364-1.606-3.573-2.369c-0.443-0.279-0.809,0.393-0.403,0.689
		c1.158,0.844,2.34,1.646,3.525,2.451C90.59,49.93,91.037,49.156,90.564,48.835"/>
</g>
</svg>
