<?xml version="1.0" encoding="utf-8"?>
<!-- Generator: Adobe Illustrator 16.0.0, SVG Export Plug-In . SVG Version: 6.00 Build 0)  -->
<!DOCTYPE svg PUBLIC "-//W3C//DTD SVG 1.1//EN" "http://www.w3.org/Graphics/SVG/1.1/DTD/svg11.dtd">
<svg version="1.1" id="Layer_1" xmlns="http://www.w3.org/2000/svg" xmlns:xlink="http://www.w3.org/1999/xlink" x="0px" y="0px"
	 width="115px" height="60px" viewBox="0 0 115 60" enable-background="new 0 0 115 60" xml:space="preserve">
<g>
	<g>
		<path d="M94.806,38.344c-1.292,5.964-2.342,11.873-1.315,17.944c0.311,1.836,3.287,1.772,3.647,0
			c1.122-5.527,1.197-11.163,2.064-16.732C99.644,36.725,95.438,35.423,94.806,38.344"/>
	</g>
	<g>
		<path d="M97.873,38.792c4.619-4.038,9.725-7.86,13.86-12.396c0.917-1.004-0.321-2.894-1.538-1.993
			c-5.025,3.716-9.436,8.449-14.008,12.704C95.055,38.16,96.727,39.794,97.873,38.792"/>
	</g>
	<g>
		<path d="M108.603,27.757c-1.125,5.532-1.661,10.944-1.206,16.583c0.146,1.808,2.802,1.858,2.851,0
			c0.134-5.26,0.478-10.56,1.403-15.743C112.005,26.619,109.011,25.749,108.603,27.757"/>
	</g>
	<g>
		<path d="M97.055,56.336c4.111-3.01,8.124-6.108,12.108-9.284c1.274-1.017-0.424-3.248-1.759-2.278
			c-4.122,2.994-8.175,6.04-12.171,9.202C93.91,55.023,95.676,57.345,97.055,56.336"/>
	</g>
	<g>
		<path d="M43.853,32.614c15.952,1.703,31.855,3.761,47.775,5.734c1.091,0.135,1.359-1.78,0.262-1.935
			c-15.959-2.244-32-3.937-48.037-5.51C42.755,30.797,42.771,32.498,43.853,32.614"/>
	</g>
	<g>
		<path d="M30.712,49.968c21.978,0.213,43.006,3.863,64.565,7.638c1.742,0.305,2.509-2.204,0.743-2.698
			c-20.891-5.847-43.723-7.042-65.309-6.701C29.579,48.224,29.576,49.957,30.712,49.968"/>
	</g>
	<g>
		<path d="M45.854,32.019c12.009-6.488,24.424-11.957,36.735-17.813c1.57-0.746,0.448-3.488-1.197-2.841
			c-12.748,5.019-24.943,11.668-36.82,18.462C43.15,30.64,44.415,32.795,45.854,32.019"/>
	</g>
	<g>
		<path d="M68.098,22.986c12.516,2.493,25.563,4.567,38.357,4.115c1.517-0.055,1.484-2.214,0-2.332
			c-12.687-1.021-25.223-1.62-37.793-3.832C67.332,20.703,66.747,22.717,68.098,22.986"/>
	</g>
	<g>
		<path d="M38.085,33.006c-1.177,4.669-1.888,9.205-1.755,14.028c0.067,2.406,3.328,2.247,3.627,0
			c0.576-4.319,1.159-8.679,2.075-12.94C42.583,31.533,38.733,30.436,38.085,33.006"/>
	</g>
	<g>
		<path d="M5.685,23.658c11.901-6.477,24.356-11.345,36.591-17.071c1.755-0.822,0.517-3.713-1.317-3.126
			C28.142,7.563,15.792,14.381,4.142,21.019C2.43,21.994,3.955,24.6,5.685,23.658"/>
	</g>
	<g>
		<path d="M44.179,9.106c11.216,1.069,22.426,2.243,33.662,3.068c1.546,0.112,1.5-2.226,0-2.385
			c-11.2-1.185-22.438-2.021-33.662-2.964C42.711,6.703,42.732,8.969,44.179,9.106"/>
	</g>
	<g>
		<path d="M5.481,24.273c10.316,5.479,21.607,8.408,33.31,8.153c1.532-0.032,1.538-2.376,0-2.384
			c-11.324-0.056-22.126-2.458-32.212-7.648C5.338,21.755,4.24,23.614,5.481,24.273"/>
	</g>
	<g>
		<path d="M2.86,26.499c0.028,5.542,0.436,11.085,1.833,16.46c0.298,1.149,2.296,0.954,2.137-0.289
			C6.141,37.281,5.479,31.94,5.451,26.499C5.442,24.832,2.851,24.829,2.86,26.499"/>
	</g>
	<g>
		<path d="M4.83,42.341c2.236,5.341,8.127,6.792,13.372,7.75c6.582,1.202,13.627,1.162,19.284-2.837
			c1.541-1.089,0.237-3.266-1.465-2.506c-4.806,2.145-9.77,2.981-15.026,2.455c-4.539-0.455-11.517-1.245-13.655-5.921
			C6.7,39.886,4.227,40.901,4.83,42.341"/>
	</g>
</g>
<g opacity="0.9">
	<g>
		<path fill="#6B6A6A" d="M44.221,35.621c-0.165,0.51-0.331,1.019-0.496,1.528c-1.345,0.711-0.392,3.078,1.049,2.489
			c0.852-0.349,1.704-0.696,2.555-1.045c-0.501-0.861-1.003-1.722-1.504-2.583c-0.742,0.773-1.483,1.546-2.225,2.319
			c-1.222,1.274-0.008,3.381,1.71,2.938c1.3-0.334,2.591-0.67,3.875-1.06c-0.504-1.196-1.008-2.392-1.512-3.587
			c-1.348,0.994-2.696,1.988-4.044,2.982c-2.113,1.559-0.146,5.12,2.098,3.588c1.787-1.22,3.574-2.439,5.361-3.658
			c-0.899-1.166-1.799-2.332-2.699-3.497c-1.852,1.548-3.704,3.096-5.555,4.645c-2.265,1.894,0.621,4.746,2.899,3.757
			c2.13-0.925,4.042-1.992,5.946-3.323c-0.857-1.467-1.715-2.934-2.572-4.4c-2.011,1.521-4.033,3.029-6.054,4.538
			c-2.788,2.081-0.423,6.482,2.782,4.76c2.892-1.555,5.789-3.101,8.648-4.714c-1.207-1.563-2.413-3.127-3.619-4.691
			c-1.696,1.797-3.392,3.594-5.087,5.39c-2.347,2.486,0.667,6.63,3.699,4.794c2.914-1.765,5.828-3.528,8.742-5.292
			c-1.27-1.645-2.539-3.29-3.808-4.935c-1.656,1.531-3.312,3.063-4.968,4.596c-2.676,2.476,0.8,6.957,3.879,5.028
			c2.946-1.846,5.966-3.438,9.153-4.829c-1.33-1.724-2.66-3.447-3.99-5.171c-1.479,1.44-2.958,2.881-4.438,4.322
			c-2.889,2.813,0.759,6.771,4.056,5.256c2.179-1,4.357-2.001,6.536-3.002c-1.555-1.555-3.11-3.11-4.665-4.665
			c-1.001,1.494-2.03,2.663-3.317,3.897c-2.93,2.811,0.79,7.223,4.197,5.439c2.451-1.283,4.896-2.578,7.333-3.889
			c-1.593-1.593-3.186-3.186-4.778-4.778c-0.759,1.062-1.517,2.123-2.275,3.185c-2.178,3.048,1.918,6.24,4.768,4.768
			c2.713-1.401,5.426-2.804,8.138-4.206c-1.399-1.814-2.8-3.63-4.2-5.444c-1.23,1.125-2.46,2.249-3.691,3.373
			c-2.873,2.626,0.947,7.686,4.188,5.429c1.899-1.323,3.814-2.41,5.924-3.364c-1.415-1.833-2.829-3.666-4.243-5.499
			c-1.408,1.464-2.816,2.928-4.224,4.393c-2.332,2.427-0.042,7.139,3.446,5.921c1.961-0.685,3.921-1.369,5.882-2.053
			c-1.35-1.755-2.698-3.51-4.048-5.265c-0.62,0.983-1.323,1.905-2.111,2.763c-2.585,3.024,0.676,7.845,4.378,5.675
			c2.249-1.318,4.502-2.628,6.758-3.933c-1.241-2.124-2.483-4.249-3.725-6.373c-1.476,1.12-2.95,2.239-4.426,3.358
			c-3.763,2.854-0.577,8.879,3.793,6.49c2.139-1.169,4.276-2.338,6.414-3.506c-1.554-2.015-3.107-4.028-4.662-6.043
			c-1.626,1.276-3.256,2.546-4.87,3.838c-3.522,2.819,1.01,8.373,4.736,6.137c2.174-1.305,4.349-2.435,6.717-3.354
			c-1.272-2.188-2.546-4.374-3.818-6.561c-1.406,1.36-2.813,2.722-4.218,4.083c-3.214,3.113,0.938,8.521,4.771,6.184
			c1.807-1.103,3.632-2.045,5.575-2.885c-1.596-2.067-3.19-4.134-4.785-6.201c-0.481,0.613-0.962,1.226-1.441,1.84
			c-2.193,2.8-0.314,7.904,3.816,6.556c0.991-0.323,1.982-0.646,2.974-0.971c-1.594-1.594-3.188-3.188-4.782-4.782
			c-0.271,0.438-0.541,0.875-0.812,1.313c-0.966,1.423-0.562,3.514,0.604,4.678c1.003,1.003,1.614,1.491,2.921,2.051
			c-0.458-1.748-0.916-3.495-1.375-5.242c-0.241,0.45-0.482,0.9-0.723,1.35c-1.229,2.292-0.079,4.748,2.277,5.599
			c0.204,0.073,0.408,0.147,0.612,0.221c-0.873-0.873-1.746-1.746-2.619-2.619c0.078,0.207,0.156,0.413,0.234,0.619
			c0.124-0.947,0.248-1.896,0.372-2.843c-0.125,0.178-0.25,0.354-0.375,0.532c1.044-0.599,2.089-1.198,3.134-1.798
			c-0.22,0.017-0.439,0.032-0.659,0.049c1.151,1.512,2.304,3.023,3.455,4.535c0.933-3.207,1.447-6.376,1.646-9.707
			c0.144-2.418-2.938-4.214-4.959-2.846c-3.288,2.226-6.453,4.553-9.493,7.106c-2.611,2.192,0.164,7.004,3.373,5.794
			c0.285-0.097,0.57-0.194,0.855-0.291c5.063-0.499,4.114-7.56-0.931-6.877c-0.632,0.005-1.222,0.166-1.769,0.482
			c1.125,1.932,2.249,3.862,3.373,5.794c2.519-2.277,5.108-4.401,7.917-6.317c-1.652-0.948-3.306-1.897-4.959-2.846
			c-0.337,2.721-1.036,5.236-1.965,7.803c-0.843,2.328,1.301,4.39,3.455,4.535c4.981,0.338,6.267-5.933,2.237-8.292
			c0.455,1.737,0.911,3.476,1.366,5.214c0.254-0.443,0.507-0.887,0.76-1.33c0.953-1.67,0.542-4.372-1.375-5.242
			c-0.443-0.297-0.886-0.595-1.329-0.893c0.201,1.56,0.402,3.118,0.604,4.678c0.57-0.651,0.988-1.389,1.252-2.213
			c1.268-2.908-0.798-6.798-4.391-5.712c-0.998,0.301-1.995,0.603-2.993,0.904c1.272,2.186,2.545,4.37,3.816,6.556
			c0.492-0.602,0.985-1.202,1.479-1.803c2.934-3.576-0.641-8.002-4.785-6.201c-1.941,0.844-3.761,1.794-5.563,2.904
			c1.591,2.061,3.181,4.122,4.771,6.184c1.399-1.367,2.8-2.734,4.2-4.101c2.655-2.591-0.04-8.046-3.818-6.561
			c-2.99,1.176-5.825,2.511-8.576,4.177c1.579,2.046,3.157,4.092,4.736,6.137c1.604-1.294,3.192-2.61,4.784-3.922
			c3.448-2.844-0.976-8.176-4.662-6.043c-2.108,1.221-4.217,2.44-6.324,3.66c1.518,1.968,3.036,3.935,4.554,5.902
			c1.448-1.155,2.896-2.311,4.344-3.465c3.32-2.649-0.962-7.943-4.472-5.796c-2.224,1.36-4.449,2.718-6.68,4.065
			c1.459,1.892,2.919,3.783,4.378,5.675c1.142-1.372,2.202-2.768,3.191-4.255c1.686-2.533-1.114-6.332-4.048-5.265
			c-1.953,0.711-3.905,1.422-5.858,2.133c1.148,1.974,2.297,3.947,3.446,5.921c1.389-1.483,2.776-2.968,4.165-4.451
			c2.83-3.022-0.707-7.155-4.243-5.499c-2.096,0.981-3.995,2.095-5.877,3.442c1.396,1.81,2.792,3.619,4.188,5.429
			c1.234-1.12,2.47-2.24,3.705-3.359c3.042-2.759-0.826-7.172-4.2-5.444c-2.719,1.393-5.438,2.783-8.157,4.175
			c1.589,1.589,3.179,3.179,4.768,4.768c0.764-1.059,1.526-2.117,2.289-3.177c2.18-3.025-1.926-6.297-4.778-4.778
			c-2.442,1.3-4.876,2.613-7.304,3.939c1.398,1.813,2.798,3.626,4.197,5.439c1.656-1.646,3.043-3.391,4.308-5.354
			c1.994-3.094-1.795-6.045-4.665-4.665c-2.158,1.037-4.316,2.074-6.474,3.111c1.352,1.752,2.704,3.504,4.056,5.256
			c1.454-1.466,2.907-2.933,4.361-4.398c2.782-2.807-0.719-6.667-3.99-5.171c-3.159,1.444-6.149,3.09-9.06,4.985
			c1.293,1.677,2.586,3.353,3.879,5.028c1.628-1.56,3.256-3.12,4.884-4.68c2.57-2.462-0.771-6.847-3.808-4.935
			c-2.884,1.815-5.767,3.631-8.651,5.446c1.233,1.599,2.466,3.196,3.699,4.794c1.665-1.827,3.33-3.654,4.995-5.481
			c2.249-2.469-0.613-6.458-3.619-4.691c-2.831,1.663-5.62,3.392-8.416,5.112c1.113,1.443,2.227,2.886,3.34,4.328
			c1.931-1.625,3.861-3.251,5.803-4.864c2.216-1.841-0.796-5.765-3.088-4.002c-1.842,1.415-3.702,2.571-5.789,3.593
			c0.966,1.252,1.933,2.505,2.899,3.757c1.774-1.626,3.547-3.253,5.322-4.879c1.84-1.687-0.661-5.028-2.699-3.497
			c-1.737,1.306-3.474,2.61-5.211,3.916c0.839,1.088,1.679,2.176,2.518,3.263c1.301-1.054,2.603-2.108,3.904-3.163
			c1.523-1.234-0.108-3.918-1.909-3.28c-1.271,0.451-2.516,0.949-3.766,1.454c0.662,0.86,1.324,1.722,1.985,2.583
			c0.63-0.859,1.261-1.719,1.891-2.577c0.96-1.309-0.857-2.835-2.115-2.115c-0.804,0.461-1.608,0.921-2.413,1.381
			c0.458,0.784,0.917,1.567,1.375,2.352c1.757-1.25,2.241-2.82,1.172-4.744C45.666,33.667,43.747,34.421,44.221,35.621
			L44.221,35.621z"/>
	</g>
</g>
<g opacity="0.9">
	<g>
		<path fill="#5A5959" d="M6.606,30.1c0.306,0.233,0.612,0.467,0.917,0.7c0.118,1.225,1.208,1.849,2.326,1.335
			c0.434-0.199,0.868-0.398,1.301-0.598c-0.647-0.839-1.293-1.677-1.94-2.515c-0.566,0.605-1.133,1.211-1.699,1.818
			c-1.177,1.26-0.013,3.222,1.652,2.837c0.612-0.141,1.223-0.282,1.835-0.424c-0.726-0.726-1.452-1.452-2.178-2.178
			c-0.194,0.512-0.388,1.024-0.582,1.536c-1.112,1.873,1.376,3.618,2.911,2.246c0.465-0.236,0.93-0.473,1.396-0.71
			c-0.568-0.99-1.137-1.98-1.705-2.972c-0.82,1.155-1.784,2.17-2.891,3.043c-1.85,1.626,0.559,4.697,2.615,3.389
			c1.164-0.74,2.321-1.487,3.472-2.247c-0.923-1.197-1.847-2.395-2.771-3.592c-1.303,1.205-2.605,2.41-3.908,3.615
			c-1.976,1.828,0.712,5.433,2.913,3.776c1.839-1.385,3.584-2.359,5.789-3.084c-0.965-1.256-1.931-2.512-2.896-3.767
			c-0.853,1.414-1.707,2.828-2.559,4.242c-1.446,2.397,1.354,4.847,3.658,3.658c2.355-1.215,4.696-2.455,7.036-3.698
			c-1.271-1.272-2.543-2.544-3.815-3.815c-1.237,1.64-2.558,2.909-4.121,4.206c-2.544,2.111,0.721,6.052,3.45,4.471
			c1.945-1.127,3.891-2.254,5.836-3.381c-1.169-1.515-2.338-3.03-3.508-4.546c-1.626,1.557-3.252,3.114-4.878,4.671
			c-2.776,2.658,1.309,6.588,4.161,4.162c1.888-1.606,3.568-2.536,5.913-3.328c-0.974-1.672-1.947-3.345-2.92-5.018
			c-0.791,0.964-1.577,1.932-2.358,2.903c-2.109,2.608,0.472,6.308,3.626,4.699c2.4-1.225,4.79-2.465,7.231-3.605
			c-1.223-1.584-2.445-3.169-3.668-4.754c-0.975,1.087-1.949,2.175-2.924,3.262c-2.402,2.68,0.605,6.668,3.828,4.961
			c1.751-0.927,3.501-1.854,5.241-2.801c-1.623-0.661-3.246-1.321-4.869-1.981c0.053,0.221,0.106,0.442,0.16,0.663
			c0.111-0.85,0.222-1.698,0.333-2.548c-0.116,0.195-0.232,0.391-0.349,0.586C26,38.113,29.351,41.61,32.178,39.83
			c0.937-0.59,1.874-1.181,2.81-1.771c-1.485-1.484-2.97-2.97-4.456-4.455c-1.311,2.762,0.104,5.578,3.29,5.691
			c-0.933-1.625-1.865-3.25-2.798-4.876c-0.493,0.934-1.184,1.676-2.072,2.225c-3.241,2.539,1.312,7.011,4.514,4.514
			c0.08-0.062,0.159-0.124,0.239-0.186c-1.288,0.166-2.576,0.332-3.863,0.498c0.103,0.061,0.205,0.12,0.308,0.181
			c-0.487-1.198-0.975-2.396-1.463-3.596c-0.339,0.851-0.753,1.663-1.243,2.438c-1.508,2.655,1.57,6.034,4.295,4.295
			c0.529-0.339,1.059-0.677,1.589-1.015c3.462-2.211,0.465-6.962-3.146-5.381c-1.265,0.555-2.53,1.108-3.795,1.663
			c1.031,1.764,2.062,3.527,3.093,5.291c0.402-0.225,0.804-0.45,1.207-0.675c-1.144-1.487-2.287-2.975-3.43-4.462
			c-0.29,0.271-0.58,0.54-0.87,0.811c1.465,0.596,2.931,1.192,4.396,1.788c0.004-0.025,0.008-0.051,0.013-0.076
			c0.464-2.03-1.377-4.358-3.592-3.592c-1.416,0.489-2.831,0.979-4.247,1.469c1.118,0.636,2.236,1.271,3.354,1.905
			c-0.085-0.344-0.171-0.688-0.257-1.032c-0.295-1.182-1.411-1.929-2.585-1.968c-2.837-0.095-5.403-1.18-7.444,1.392
			c1.564,0.647,3.128,1.296,4.693,1.943c0.06-0.491,0.12-0.982,0.18-1.474c0.225-1.845-1.979-3.215-3.592-2.736
			c-0.729,0.216-1.457,0.432-2.185,0.648c1.22,0.692,2.44,1.386,3.66,2.078c-0.087-0.53-0.174-1.06-0.261-1.59
			c-0.204-1.243-1.675-2.276-2.894-2.203c-0.812,0.05-1.624,0.098-2.436,0.146c0.995,0.996,1.991,1.991,2.986,2.986
			c-0.027-0.561-0.054-1.12-0.082-1.681c-0.098-2.022-1.816-3.262-3.767-2.869c-0.734,0.147-1.468,0.295-2.202,0.442
			c-3.755,0.755-2.149,6.415,1.575,5.713c0.736-0.139,1.472-0.277,2.208-0.417c-1.255-0.956-2.511-1.913-3.767-2.869
			c0.02,0.561,0.041,1.12,0.061,1.681c0.057,1.566,1.316,3.065,2.986,2.986c0.812-0.039,1.624-0.077,2.436-0.116
			c-0.964-0.734-1.929-1.469-2.894-2.203c0.104,0.525,0.207,1.051,0.31,1.576c0.406,2.069,2.748,2.481,4.371,1.778
			c0.693-0.301,1.386-0.601,2.079-0.9c-1.423-0.816-2.847-1.634-4.27-2.45c0,0.491-0.001,0.982-0.002,1.474
			c-0.003,2.778,3.706,3.694,5.123,1.388c-0.176,0.286,3.391,0.671,3.126,0.639c-0.862-0.656-1.724-1.312-2.585-1.968
			c0.057,0.352,0.113,0.704,0.169,1.056c0.238,1.491,2.037,2.237,3.354,1.905c1.45-0.366,2.899-0.731,4.349-1.098
			c-1.197-1.197-2.395-2.395-3.592-3.592c-0.29,0.902-0.378,1.483-0.26,2.425c0.265,2.119,2.376,3.901,4.503,2.584
			c1.44-0.892,2.074-1.569,3.095-2.912c1.606-2.114-1.05-5.315-3.43-4.462c-0.995,0.356-1.78,0.691-2.684,1.241
			c-2.863,1.74-0.95,6.954,2.361,5.601c1.278-0.523,2.557-1.046,3.835-1.569c-0.8-1.897-1.601-3.796-2.401-5.694
			c-0.537,0.325-1.075,0.649-1.612,0.974c1.432,1.432,2.863,2.863,4.295,4.295c0.771-1.281,1.603-2.449,1.962-3.912
			c0.348-1.421-0.22-2.825-1.463-3.596c-0.102-0.063-0.203-0.125-0.304-0.188c-0.883-0.548-2.346-0.646-3.218,0
			c-0.081,0.06-0.162,0.119-0.243,0.18c1.074,1.837,2.148,3.675,3.222,5.512c1.578-1.175,2.72-2.315,3.8-3.966
			c1.428-2.182-0.49-4.736-2.798-4.876c-0.14-0.008-0.279-0.017-0.419-0.025c0.934,0.536,1.868,1.071,2.802,1.607
			c-0.079-0.138-0.158-0.276-0.237-0.414c0,1.094,0,2.188,0,3.282c0.063-0.125,0.126-0.249,0.189-0.374
			c1.423-2.815-1.516-6.207-4.456-4.455c-0.951,0.566-1.901,1.132-2.852,1.698c1.504,1.504,3.008,3.008,4.512,4.512
			c0.823-1.306,0.873-2.305,0.554-3.791c-0.452-2.104-3.105-3.027-4.869-1.981c-1.703,1.011-3.393,2.04-5.083,3.07
			c1.276,1.653,2.552,3.308,3.828,4.961c0.912-1.149,1.824-2.298,2.736-3.447c2.068-2.605-0.471-6.488-3.668-4.754
			c-2.367,1.284-4.785,2.465-7.196,3.664c1.208,1.566,2.417,3.133,3.626,4.699c0.795-0.959,1.585-1.922,2.372-2.888
			c1.716-2.099,0.194-6.118-2.92-5.018c-3.224,1.139-5.905,2.704-8.478,4.955c1.387,1.388,2.774,2.774,4.161,4.162
			c1.604-1.58,3.208-3.16,4.811-4.739c2.346-2.311-0.673-6.242-3.508-4.546c-1.93,1.154-3.859,2.309-5.789,3.463
			c1.15,1.49,2.3,2.98,3.45,4.471c1.909-1.63,3.445-3.392,4.91-5.417c1.725-2.384-1.538-5.084-3.815-3.815
			c-2.313,1.289-4.624,2.581-6.921,3.897c1.22,1.22,2.439,2.438,3.658,3.658c0.79-1.451,1.58-2.902,2.371-4.354
			c0.988-1.814-0.665-4.611-2.896-3.767c-2.746,1.038-5.073,2.387-7.338,4.253c1.133,1.134,2.266,2.267,3.399,3.4
			c1.248-1.261,2.495-2.521,3.742-3.781c1.777-1.796-0.617-5.153-2.771-3.592c-1.122,0.813-2.234,1.638-3.342,2.47
			c0.872,1.13,1.743,2.26,2.615,3.389c1.257-1.29,2.281-2.591,3.25-4.1c0.994-1.55-0.631-3.243-2.23-2.901
			c-1.489,0.318-2.44,0.87-3.492,1.968c0.97,0.749,1.941,1.497,2.911,2.246c0.553-1.12,0.7-1.7,0.858-2.937
			c0.146-1.139-1.241-2.022-2.241-1.708c-0.599,0.188-1.197,0.376-1.796,0.564c0.55,0.946,1.101,1.892,1.652,2.837
			c0.521-0.651,1.042-1.303,1.563-1.954c1.095-1.368-0.257-3.451-1.94-2.515c-0.415,0.231-0.831,0.462-1.246,0.693
			c0.757,0.308,1.514,0.616,2.271,0.924c-0.27-1.541-1.086-2.16-2.504-2.77C6.402,26.909,4.928,29.22,6.606,30.1L6.606,30.1z"/>
	</g>
</g>
<g opacity="0.9">
	<g>
		<path fill="#878585" d="M101.843,40.204c1.598-1.331,4.177-2.647,4.342-4.902c0.056-0.772-0.575-1.479-1.281-1.683
			c-0.856-0.246-1.475-0.029-2.111,0.563c-0.551,0.513-0.706,1.507-0.276,2.143c0.03,0.044,0.06,0.089,0.09,0.133
			c0.619,0.916,1.963,1.238,2.789,0.359c0.05-0.053,0.1-0.106,0.149-0.159c-0.579,0.153-1.159,0.307-1.738,0.46
			c0.085,0.015,0.169,0.029,0.254,0.044c-0.358-0.275-0.717-0.552-1.075-0.827c0.053,0.068,0.104,0.137,0.157,0.205
			c-0.061-0.465-0.122-0.931-0.183-1.396c-0.104,0.433-2.075,2.114-2.745,2.795c-1.292,1.313-0.004,4.028,1.912,3.284
			c0.481-0.187,0.963-0.373,1.443-0.561c-0.848-0.646-1.696-1.292-2.545-1.938c-0.14,0.256-0.279,0.513-0.419,0.769
			c-1.057,1.39,0.431,2.967,1.785,3.111c0.579,0.063,1.157,0.124,1.736,0.187c-0.609-1.063-1.22-2.125-1.829-3.188
			c-0.593,1.063-1.281,1.902-2.191,2.709c-1.672,1.485,0.079,4.414,2.177,3.739c0.386-0.121,0.77-0.248,1.151-0.382
			c-0.841-1.094-1.682-2.187-2.521-3.28c-0.374,0.562-0.748,1.122-1.121,1.684c-1.222,1.834,1.192,4.224,3.022,3.022
			c0.593-0.389,1.126-0.664,1.806-0.872c-0.82-1.067-1.641-2.135-2.461-3.201c-0.309,0.721-0.795,1.06-1.299,1.632
			c-1.023,1.159-0.438,3.423,1.364,3.294c1.751-0.125,2.973-1.137,3.698-2.727c0.757-1.658-0.474-3.759-2.461-3.201
			c-1.031,0.29-1.969,0.694-2.878,1.261c1.008,1.007,2.016,2.015,3.022,3.022c0.388-0.554,0.775-1.106,1.162-1.66
			c1.133-1.618-0.731-3.844-2.521-3.28c-0.387,0.118-0.771,0.243-1.153,0.374c0.726,1.246,1.451,2.493,2.177,3.739
			c1.107-1.105,2.003-2.325,2.686-3.734c0.713-1.471-0.152-3.104-1.829-3.188c-0.579-0.029-1.157-0.058-1.736-0.085
			c0.595,1.037,1.19,2.074,1.785,3.111c0.616-0.916,0.833-1.76,0.87-2.856c0.055-1.651-1.718-2.333-3.025-1.736
			c-0.47,0.215-0.939,0.43-1.409,0.644c0.794,1.029,1.588,2.058,2.382,3.087c1.173-1.338,4.036-3.478,3.46-5.574
			c-0.539-1.959-2.811-1.821-3.848-0.479c0.93-0.119,1.859-0.239,2.789-0.359c-0.034-0.041-0.068-0.082-0.102-0.123
			c0,0.834,0,1.667,0,2.501c0.056-0.064,0.112-0.128,0.168-0.191c-0.569,0.15-1.139,0.301-1.708,0.451
			c0.074,0.015,0.148,0.028,0.223,0.042c-0.427-0.562-0.854-1.122-1.281-1.683c0.008,0.312-2.576,2.434-2.945,2.809
			C98.384,39.492,100.399,41.408,101.843,40.204L101.843,40.204z"/>
	</g>
</g>
<g opacity="0.9">
	<g>
		<path fill="#878585" d="M60.035,23.762c-1.823,1.384-3.673,2.543-5.712,3.583c-2.455,1.252-0.304,4.774,2.134,3.65
			c2.419-1.115,4.812-2.283,7.208-3.448c-0.764-1.306-1.527-2.612-2.291-3.918c-1.988,1.175-3.977,2.351-5.966,3.526
			c-2.621,1.549-0.293,5.517,2.379,4.07c1.794-0.971,3.578-1.611,5.567-2.056c-0.791-1.36-1.583-2.72-2.374-4.08
			c-0.59,0.606-1.179,1.212-1.769,1.819c-2.024,1.551-0.954,5.634,1.913,4.535c1.773-0.679,3.548-1.358,5.321-2.038
			c-0.828-1.423-1.656-2.846-2.484-4.269c-0.826,0.766-1.651,1.531-2.477,2.297c-2.205,2.046,0.618,5.51,3.147,4.079
			c1.879-1.062,3.757-2.125,5.635-3.187c-1.082-1.403-2.165-2.806-3.247-4.209c-1.469,1.24-2.942,2.27-4.567,3.277
			c0.949,1.624,1.898,3.247,2.848,4.871c1.303-0.933,2.387-1.53,3.941-2.015c-1.109-1.443-2.219-2.886-3.327-4.329
			c-0.358,0.98-0.88,1.867-1.565,2.661c-2.146,2.607,0.508,6.493,3.684,4.775c1.882-1.018,3.783-1.877,5.795-2.605
			c-1.022-1.755-2.044-3.511-3.065-5.266c-0.581,0.648-1.161,1.297-1.743,1.945c-2.375,2.65,0.615,6.745,3.827,4.959
			c1.315-0.73,2.63-1.462,3.945-2.193c-1.281-1.66-2.562-3.32-3.843-4.98c-0.897,0.714-1.795,1.429-2.692,2.145
			c-3.003,2.392,0.815,6.453,3.854,4.996c1.349-0.646,2.697-1.293,4.046-1.939c-1.564-1.202-3.128-2.405-4.692-3.607
			c-0.217,0.346-0.434,0.691-0.651,1.037c-2.396,2.658,0.645,6.914,3.881,5.03c1.052-0.738,2.211-1.148,3.476-1.229
			c-1.21-1.574-2.421-3.149-3.631-4.724c-0.422,0.658-0.843,1.316-1.265,1.974c-2.556,2.751,0.644,6.688,3.908,5.064
			c1.086-0.6,2.224-1.067,3.415-1.402c-1.05-1.804-2.1-3.608-3.15-5.412c-0.709,0.686-1.418,1.371-2.128,2.056
			c-2.733,2.641,0.736,6.777,3.935,5.1c1.587-0.833,3.067-1.721,4.549-2.729c-1.317-1.708-2.636-3.415-3.953-5.123
			c-0.927,0.913-1.514,1.667-2.231,2.751c-1.61,2.432,1.033,5.566,3.692,4.804c1.593-0.457,3.066-1.043,4.573-1.724
			c-1.328-1.721-2.656-3.442-3.984-5.164c-0.615,0.951-1.388,1.751-2.317,2.399c-2.644,2.249,0.195,6.295,3.221,5.533
			c2.97-0.748,5.94-1.496,8.91-2.243c-1.094-1.879-2.188-3.758-3.281-5.636c-0.699,0.642-1.398,1.284-2.097,1.926
			c-3.035,2.787,0.813,6.825,4.109,5.326c1.616-0.734,3.229-1.475,4.839-2.225c-1.376-1.783-2.751-3.565-4.127-5.349
			c-0.856,0.765-1.713,1.529-2.57,2.293c-2.774,2.477,0.245,6.206,3.307,5.679c1.137-0.074,2.208-0.379,3.214-0.913
			c-1.1-1.889-2.199-3.778-3.299-5.667c-0.757,0.643-1.513,1.286-2.27,1.928c-3.051,2.591,0.837,7.029,4.101,5.315
			c3.068-1.611,6.313-2.847,8.738-5.36c2.075-2.15-0.093-4.928-2.663-4.576c-3.448,0.473-6.428,2.501-9.491,4.092
			c1.367,1.771,2.734,3.543,4.101,5.314c0.76-0.64,1.52-1.279,2.279-1.919c2.527-2.128-0.163-6.916-3.299-5.667
			c-1.009,0.529-2.081,0.829-3.218,0.899c1.102,1.893,2.204,3.787,3.307,5.68c0.859-0.762,1.72-1.522,2.58-2.283
			c3.1-2.742-0.838-6.863-4.127-5.349c-1.612,0.742-3.22,1.494-4.825,2.25c1.37,1.775,2.74,3.55,4.109,5.326
			c0.69-0.65,1.381-1.302,2.071-1.952c2.503-2.362-0.088-6.486-3.281-5.636c-2.959,0.787-5.918,1.575-8.877,2.362
			c1.073,1.845,2.147,3.688,3.221,5.533c1.188-1.038,1.838-1.849,2.8-3.097c2.235-2.898-1.889-5.719-4.498-4.499
			c-0.957,0.479-1.955,0.844-2.993,1.096c1.23,1.601,2.462,3.202,3.692,4.803c0.399-0.479,0.799-0.959,1.198-1.438
			c2.571-2.562-0.841-7.269-3.953-5.123c-1.476,1.017-2.951,1.914-4.533,2.755c1.312,1.7,2.623,3.399,3.935,5.099
			c0.705-0.689,1.411-1.379,2.116-2.068c2.246-2.198-0.023-6.473-3.15-5.413c-1.715,0.582-3.335,1.264-4.95,2.078
			c1.303,1.688,2.605,3.376,3.908,5.065c1.123-1.223,1.563-1.778,2.257-3.288c1.215-2.643-0.74-5.25-3.631-4.724
			c-1.883,0.343-3.363,0.935-4.999,1.9c1.294,1.676,2.587,3.353,3.881,5.03c1.195-1.342,1.675-2.177,2.282-3.868
			c1.03-2.87-2.402-4.72-4.692-3.607c-1.344,0.653-2.688,1.307-4.032,1.961c1.285,1.665,2.569,3.331,3.854,4.996
			c0.893-0.72,1.786-1.439,2.679-2.158c2.882-2.322-0.804-6.694-3.843-4.98c-1.311,0.739-2.621,1.478-3.932,2.217
			c1.275,1.653,2.551,3.306,3.827,4.96c0.577-0.652,1.154-1.304,1.731-1.956c1.916-2.164,0.117-6.44-3.065-5.265
			c-2.531,0.934-4.874,2.032-7.188,3.431c1.387,1.386,2.772,2.772,4.159,4.159c0.975-1.307,1.581-2.569,2.177-4.074
			c0.806-2.036-1.628-4.355-3.625-3.625c-2.186,0.799-3.972,1.826-5.793,3.268c-2.513,1.988,0.794,6.238,3.418,4.43
			c1.946-1.341,3.755-2.774,5.509-4.358c2.286-2.064-0.663-5.759-3.247-4.209c-1.851,1.11-3.701,2.22-5.551,3.33
			c1.049,1.36,2.098,2.72,3.147,4.08c0.805-0.786,1.609-1.572,2.414-2.358c1.713-1.672-0.031-5.281-2.484-4.269
			c-1.762,0.726-3.522,1.452-5.284,2.178c0.806,1.383,1.61,2.765,2.415,4.148c1.229-0.993,1.631-1.507,2.594-2.758
			c1.396-1.812-0.892-4.052-2.756-3.585c-2.41,0.603-4.496,1.455-6.649,2.692c0.793,1.357,1.586,2.713,2.379,4.07
			c1.959-1.226,3.918-2.453,5.878-3.679c2.487-1.557,0.305-5.263-2.291-3.918c-2.359,1.223-4.718,2.443-7.051,3.716
			c0.711,1.217,1.422,2.434,2.134,3.65c2.106-1.26,4.016-2.665,5.863-4.273C63.921,25.327,61.744,22.465,60.035,23.762
			L60.035,23.762z"/>
	</g>
</g>
<g opacity="0.9">
	<g>
		<path fill="#797979" d="M27.892,14.941c-1.802,0.811-3.542,1.69-5.264,2.661c0.589,1.008,1.179,2.016,1.769,3.024
			c1.974-1.225,3.979-2.214,6.174-2.992c-0.479-1.136-0.958-2.272-1.437-3.409c-1.824,0.946-3.648,1.893-5.473,2.839
			c-2.249,1.167-0.268,4.521,1.979,3.385c1.457-0.737,2.914-1.474,4.371-2.21c2.346-1.187,0.285-4.68-2.055-3.515
			c-2.538,1.263-5.075,2.526-7.612,3.789c-1.729,0.86-1.198,3.479,0.517,3.959c0.123,0.035,0.246,0.069,0.369,0.104
			c1.226,0.343,2.249-0.417,2.672-1.518c0.06-0.156,0.121-0.313,0.181-0.469c0.338-0.876-0.207-2.037-1.002-2.462
			c-2.708-1.45-6.615,0.4-9.381,1.009c0.408,1.48,0.816,2.959,1.224,4.439c0.947-0.315,1.895-0.63,2.843-0.944
			c-0.963-0.547-1.926-1.094-2.889-1.64c0.037,0.174,0.074,0.348,0.111,0.522c0.158,0.746,0.893,1.496,1.646,1.646
			c1.099,0.219,1.756,0.223,2.841-0.088c-0.896-1.167-1.793-2.333-2.69-3.499c-0.324,0.631-0.648,1.261-0.973,1.892
			c-0.879,1.708,0.592,4.356,2.727,3.547c1.382-0.523,2.765-1.047,4.148-1.57c-0.805-1.383-1.611-2.767-2.416-4.15
			c-0.46,0.55-0.921,1.1-1.381,1.65c-1.856,2.219,0.421,5.206,3.049,3.952c0.814-0.278,1.628-0.555,2.441-0.833
			c-0.832-1.43-1.665-2.859-2.497-4.29c-0.551,0.695-1.102,1.39-1.653,2.084c-1.409,1.777-0.184,5.44,2.537,4.358
			c1.341-0.534,2.682-1.067,4.023-1.601c-0.867-1.49-1.735-2.98-2.602-4.47c-0.826,0.821-1.652,1.643-2.479,2.463
			c-2.288,2.271,0.601,5.623,3.306,4.285c1.429-0.707,2.857-1.414,4.286-2.12c-1.132-1.467-2.264-2.934-3.396-4.401
			c-0.731,0.79-1.463,1.58-2.194,2.369c-2.115,2.284,0.7,6.411,3.456,4.479c1.702-1.193,3.204-2.034,5.199-2.728
			c-1.117-1.453-2.233-2.905-3.35-4.357c-0.975,1.333-1.951,2.666-2.926,3.998c-2.02,2.76,1.729,5.314,4.196,4.196
			c2.716-1.233,5.438-2.457,8.145-3.709c-1.306-1.693-2.612-3.386-3.918-5.078c-0.961,1.182-1.922,2.363-2.883,3.544
			c-2.393,2.942,0.517,6.578,3.93,5.094c2.665-1.158,5.328-2.316,7.992-3.474c-1.488-1.488-2.976-2.976-4.463-4.463
			c-0.797,1.054-1.595,2.108-2.394,3.163c-1.762,2.328,1.139,5.63,3.694,4.805c1.991-0.643,3.71-1.409,5.491-2.527
			c-1.326-1.719-2.652-3.437-3.978-5.156c-1.103,1.12-2.206,2.24-3.308,3.36c-2.284,2.321-0.004,6.438,3.204,5.504
			c2.153-0.627,4.129-1.451,6.096-2.528c-1.335-1.73-2.67-3.461-4.006-5.192c-1.164,1.153-2.355,2.15-3.722,3.054
			c-3.544,2.344-0.287,8.037,3.35,5.73c3.967-2.516,7.934-5.032,11.9-7.548c3.692-2.342,0.488-7.61-3.381-5.784
			c-1.188,0.561-2.375,1.121-3.563,1.682c1.13,1.933,2.26,3.866,3.39,5.799c2.489-1.697,5.036-3.213,7.714-4.592
			c3.945-2.031,0.484-7.537-3.41-5.833c-1.768,0.773-3.535,1.546-5.303,2.319c1.141,1.952,2.282,3.904,3.423,5.855
			c2.564-1.582,5.162-2.882,8.005-3.896c-1.106-1.902-2.214-3.804-3.321-5.706c-0.604,0.891-1.416,1.473-2.437,1.748
			c1.156,1.979,2.313,3.957,3.469,5.936c1.51-1.05,2.938-1.908,4.666-2.586c2.832-1.111,3.756-6.04,0-6.697
			c-0.114-0.02-0.229-0.04-0.343-0.06c-1.947-0.341-3.629,0.5-4.274,2.427c-0.047,0.14-0.094,0.279-0.141,0.419
			c-0.487,1.456,0.302,3.187,1.599,3.927c2.973,1.697,6.372-0.129,8.63-2.216c2.791-2.577-0.824-7.203-4.032-5.226
			c-5.445,3.356-12.112,5.042-18.231,6.772c1.036,1.036,2.071,2.071,3.107,3.107c0.26-0.25,0.52-0.5,0.779-0.75
			c2.845-1.561,0.35-5.561-2.495-4.27c-2.305,1.046-4.638,2.02-6.976,2.989c0.644,1.528,1.288,3.055,1.932,4.583
			c2.649-1.655,5.298-3.309,7.974-4.921c2.984-1.797,0.305-6.404-2.729-4.669c-1.508,0.862-2.999,1.475-4.675,1.932
			c0.937,1.609,1.874,3.219,2.811,4.828c1.516-1.278,2.988-2.213,4.725-3.127c-1.251-1.621-2.502-3.242-3.753-4.864
			c-0.842,0.654-1.684,1.308-2.526,1.961c-2.501,1.939,0.205,6.127,3.027,5.2c1.658-0.545,3.316-1.09,4.974-1.635
			c-1.017-1.747-2.034-3.494-3.051-5.241c-0.412,0.118-0.823,0.236-1.235,0.354c0.743,1.794,1.486,3.588,2.229,5.382
			c0.694-0.727,1.473-1.351,2.335-1.872c-1.281-1.66-2.562-3.32-3.842-4.98c-0.33,0.351-0.66,0.701-0.99,1.051
			c-2.137,2.269-0.047,6.21,3.091,5.311c0.546-0.157,1.092-0.313,1.639-0.47c-0.818-1.94-1.636-3.881-2.454-5.822
			c-3.282,1.852-6.625,3.145-10.285,4.024c1.329,1.329,2.657,2.657,3.986,3.986c0.041-0.852,0.25-1.66,0.626-2.425
			c0.842-2.265-1.761-4.795-4-4c-2.801,0.994-5.314,2.232-7.722,3.991c1.324,1.716,2.648,3.432,3.972,5.148
			c1.851-1.683,3.795-2.979,6.012-4.121c-1.104-1.889-2.209-3.779-3.313-5.668c-1.832,1.136-3.69,2.164-5.626,3.111
			c1.327,1.72,2.654,3.44,3.981,5.16c1.252-1.35,2.453-2.457,3.98-3.515c2.916-2.021,1.209-7.225-2.534-6.011
			c-2.355,0.764-4.709,1.528-7.064,2.292c1.068,1.834,2.136,3.668,3.204,5.503c0.968-0.955,1.937-1.909,2.905-2.864
			c2.725-2.686-0.736-6.927-3.993-5.174c-2.172,1.168-4.345,2.337-6.518,3.505c1.333,1.727,2.665,3.454,3.998,5.181
			c0.716-0.897,1.617-1.562,2.701-1.994c-0.848-2.012-1.696-4.023-2.543-6.034c-2.587,1.55-5.175,3.101-7.762,4.651
			c1.335,1.73,2.671,3.461,4.006,5.192c3.766-3.076,8.999-2.728,12.093-6.694c2.068-2.65,0.196-6.13-3.224-5.538
			c-0.153,0.027-0.306,0.053-0.459,0.08c-1.128,0.195-2,1.285-2.314,2.314c-1.387,4.539,3.369,6.212,6.761,4.341
			c-1.624-0.661-3.247-1.321-4.87-1.981c-0.012-0.002-0.024-0.003-0.036-0.005c-0.692,2.331,1.677,4.896,4.08,4.08
			c1.755-0.596,3.511-1.192,5.266-1.789c3.719-1.264,2.771-6.087-0.882-6.52c-3.644-0.432-6.708,2.213-5.491,5.963
			c0.509,1.566,2.351,3.021,4.085,2.32c3.95-1.597,8.106,0.736,12.273-1.196c-1.342-0.173-2.683-0.346-4.025-0.519
			c1.457,1.375,2.794,2.169,4.777,2.535c4.187,0.772,5.975-5.628,1.766-6.405c-0.615-0.275-1.23-0.551-1.846-0.827
			c-1.168-1.103-2.621-1.17-4.025-0.519c-3.131,1.452-7.224-0.874-10.686,0.526c1.362,0.773,2.724,1.546,4.085,2.32
			c-0.093-0.287-0.187-0.573-0.28-0.859c-0.112,0.853-0.223,1.706-0.335,2.559c-0.1,0.247-0.2,0.495-0.3,0.742
			c-0.294-2.173-0.588-4.347-0.882-6.52c-1.755,0.599-3.51,1.197-5.265,1.795c1.36,1.36,2.72,2.72,4.08,4.08
			c0.388-1.313,0.37-2.198,0.034-3.521c-0.538-2.12-3.031-2.999-4.87-1.981c-0.034,0.005-0.067,0.01-0.101,0.014
			c0.954,0.547,1.908,1.095,2.862,1.642c-0.096-0.167-0.193-0.334-0.289-0.501c0.111,0.851,0.223,1.703,0.334,2.554
			c0.057-0.187,0.114-0.375,0.171-0.562c-0.771,0.771-1.543,1.543-2.314,2.314c0.153-0.027,0.306-0.054,0.459-0.08
			c-1.075-1.846-2.149-3.692-3.224-5.538c-1.61,2.067-4.09,2.124-6.353,3.104c-2.154,0.934-3.923,2.121-5.73,3.6
			c-2.954,2.418,0.851,7.088,4.006,5.192c2.586-1.553,5.172-3.106,7.757-4.659c3.759-2.258,0.475-7.31-3.332-5.701
			c-1.903,0.804-3.387,1.88-4.823,3.363c-2.644,2.73,0.702,6.957,3.998,5.181c2.171-1.17,4.342-2.341,6.514-3.512
			c-1.331-1.725-2.662-3.45-3.993-5.174c-0.967,0.956-1.935,1.911-2.902,2.867c-2.285,2.257,0.015,6.541,3.204,5.503
			c2.354-0.766,4.708-1.533,7.061-2.298c-0.844-2.004-1.689-4.007-2.534-6.011c-1.949,1.354-3.69,2.802-5.307,4.548
			c-2.606,2.814,0.652,6.793,3.981,5.16c1.936-0.95,3.792-1.979,5.624-3.117c3.607-2.243,0.441-7.607-3.313-5.668
			c-2.719,1.404-5.075,3.095-7.334,5.153c-2.721,2.479,0.947,7.363,3.972,5.148c1.95-1.428,3.859-2.545,6.143-3.38
			c-1.333-1.333-2.667-2.667-4-4c-0.37,0.769-0.571,1.58-0.604,2.432c-0.338,2.397,1.368,4.641,3.986,3.986
			c4.181-1.045,8.046-2.622,11.777-4.772c3.118-1.798,1.036-6.858-2.454-5.822c-0.545,0.162-1.09,0.323-1.635,0.485
			c1.031,1.771,2.061,3.541,3.091,5.311c0.327-0.354,0.654-0.707,0.981-1.06c2.355-2.547-0.756-7.092-3.842-4.98
			c-1.288,0.881-2.464,1.81-3.594,2.888c-1.926,1.837-0.533,5.541,2.229,5.382c2.363-0.135,3.833-0.78,5.669-2.226
			c2.488-1.96-0.194-6.208-3.051-5.241c-1.654,0.561-3.308,1.121-4.961,1.682c1.009,1.733,2.018,3.467,3.027,5.2
			c0.836-0.66,1.671-1.32,2.507-1.98c2.794-2.208-0.811-6.677-3.753-4.864c-2.082,1.283-3.918,2.697-5.684,4.39
			c-2.03,1.946,0.037,5.776,2.811,4.828c2.105-0.72,4.005-1.605,5.868-2.834c-0.91-1.556-1.82-3.113-2.729-4.669
			c-2.573,1.782-5.174,3.521-7.776,5.26c-2.727,1.823-0.387,5.647,2.531,4.33c2.308-1.042,4.607-2.087,6.948-3.054
			c-0.635-1.506-1.27-3.012-1.905-4.519c-1.714,0.864-2.455,1.941-3.155,3.677c-0.761,1.885,1.421,3.521,3.107,3.107
			c6.542-1.606,12.875-4.202,19.453-5.562c-0.854-2.027-1.71-4.054-2.564-6.082c-1.074,0.1-1.437,0.579-1.088,1.436
			c0.533,1.309,1.065,2.618,1.599,3.927c0.045-0.14,0.09-0.28,0.135-0.42c-1.425,0.809-2.85,1.618-4.274,2.427
			c0.115,0.019,0.229,0.038,0.345,0.056c0-2.232,0-4.465,0-6.697c-2.261,0.917-4.294,1.927-6.289,3.348
			c-3.637,2.59-0.569,7.758,3.469,5.936c1.559-0.704,2.687-1.567,3.796-2.855c2.031-2.359,0.16-6.974-3.321-5.706
			c-3.383,1.232-6.555,2.719-9.614,4.625c-3.792,2.363-0.497,7.589,3.423,5.855c1.764-0.78,3.527-1.561,5.291-2.341
			c-1.137-1.944-2.273-3.889-3.41-5.833c-2.672,1.391-5.213,2.918-7.694,4.626c-3.58,2.465-0.522,7.667,3.39,5.799
			c1.185-0.566,2.37-1.131,3.554-1.697c-1.127-1.928-2.254-3.856-3.381-5.784c-3.957,2.534-7.913,5.068-11.869,7.602
			c1.117,1.91,2.233,3.82,3.35,5.73c1.833-1.224,3.489-2.55,5.047-4.11c2.692-2.693-0.733-7.003-4.006-5.192
			c-1.462,0.809-2.908,1.412-4.51,1.886c1.068,1.834,2.136,3.669,3.204,5.504c1.097-1.125,2.195-2.25,3.293-3.375
			c2.566-2.628-0.767-7.191-3.978-5.156c-1.179,0.879-2.485,1.508-3.917,1.887c1.231,1.602,2.463,3.204,3.694,4.805
			c0.793-1.057,1.585-2.114,2.378-3.171c2.206-2.942-1.869-5.604-4.463-4.463c-2.658,1.168-5.315,2.338-7.973,3.507
			c1.31,1.698,2.62,3.396,3.93,5.094c0.956-1.187,1.913-2.373,2.869-3.559c2.292-2.844-0.503-6.763-3.918-5.078
			c-2.667,1.316-5.32,2.661-7.977,3.998c1.398,1.399,2.797,2.797,4.196,4.196c0.917-1.367,1.835-2.733,2.753-4.1
			c1.381-2.057-0.929-5.311-3.35-4.357c-2.369,0.933-4.45,1.991-6.5,3.524c1.152,1.493,2.304,2.986,3.456,4.479
			c0.708-0.813,1.416-1.626,2.124-2.439c2.079-2.388-0.514-5.938-3.396-4.401c-1.404,0.749-2.808,1.499-4.212,2.247
			c1.102,1.429,2.204,2.857,3.306,4.285c0.802-0.846,1.603-1.692,2.403-2.539c2.217-2.343-0.557-5.365-3.241-4.2
			c-1.324,0.574-2.648,1.148-3.972,1.723c1.189,1.189,2.378,2.378,3.567,3.567c0.53-0.711,1.059-1.422,1.588-2.134
			c1.403-1.884-0.898-4.327-2.898-3.77c-1.49,0.415-2.243,0.728-3.617,1.437c1.017,1.317,2.033,2.635,3.049,3.952
			c0.444-0.566,0.889-1.132,1.334-1.697c1.318-1.676,0.176-5.223-2.416-4.15c-1.371,0.567-2.741,1.135-4.112,1.703
			c0.909,1.182,1.818,2.364,2.727,3.547c0.306-0.642,0.611-1.283,0.916-1.925c0.836-1.759-0.537-4.188-2.69-3.499
			c-0.107,0.045-0.214,0.091-0.322,0.137c0.549,0.548,1.097,1.097,1.646,1.646c-0.042-0.173-0.084-0.346-0.126-0.519
			c-0.286-1.167-1.711-2.072-2.889-1.64c-0.939,0.344-1.878,0.689-2.817,1.034c-2.75,1.009-1.696,5.177,1.224,4.439
			c0.872-0.22,5.332-1.994,5.957-1.684c-0.334-0.82-0.668-1.641-1.002-2.462c-0.056,0.158-0.111,0.316-0.166,0.474
			c0.891-0.506,1.781-1.012,2.672-1.517c-0.124-0.031-0.248-0.062-0.372-0.092c0.172,1.32,0.345,2.64,0.517,3.959
			c2.494-1.338,4.987-2.677,7.48-4.016c-0.685-1.171-1.37-2.343-2.055-3.515c-1.432,0.78-2.863,1.56-4.295,2.34
			c0.66,1.128,1.319,2.256,1.979,3.385c1.792-1.001,3.584-2.002,5.377-3.003c1.81-1.011,0.563-4.188-1.437-3.409
			c-2.466,0.959-4.742,2.097-6.951,3.564c-1.865,1.239-0.181,4.205,1.769,3.024c1.688-1.021,3.398-1.953,5.172-2.817
			C31.512,16.862,29.814,14.077,27.892,14.941L27.892,14.941z"/>
	</g>
</g>
</svg>
