<?xml version="1.0" encoding="utf-8"?>
<!-- Generator: Adobe Illustrator 16.0.0, SVG Export Plug-In . SVG Version: 6.00 Build 0)  -->
<!DOCTYPE svg PUBLIC "-//W3C//DTD SVG 1.1//EN" "http://www.w3.org/Graphics/SVG/1.1/DTD/svg11.dtd">
<svg version="1.1" id="Layer_1" xmlns="http://www.w3.org/2000/svg" xmlns:xlink="http://www.w3.org/1999/xlink" x="0px" y="0px"
	 width="35px" height="125px" viewBox="0 0 35 125" enable-background="new 0 0 35 125" xml:space="preserve">
<g>
	<path d="M2.951,47.005c1.419,12.36-0.97,24.982-1.421,37.361c-0.226,6.183-0.284,12.37-0.267,18.557
		c0.019,5.93-0.595,12.396,0.738,18.196c0.49,2.13,4.075,2.278,4.459,0c0.992-5.9,0.035-12.234-0.147-18.196
		C6.114,96.414,6,89.901,6.076,83.39c0.143-12.256,1.963-24.619-0.173-36.784C5.613,44.957,2.757,45.317,2.951,47.005"/>
</g>
<g>
	<path d="M23.64,48.771c0.812,11.914-1.564,23.603-2.537,35.43c-0.945,11.494-1.138,23.456,0.92,34.836
		c0.221,1.227,2.19,0.932,2.157-0.291c-0.333-11.886-1.067-23.607-0.165-35.503c0.873-11.508,2.976-22.895,2.052-34.472
		C25.943,47.229,23.532,47.205,23.64,48.771"/>
</g>
<g>
	<path d="M5.777,48.271c5.813,0.563,11.923,1.627,17.747,0.926c2.298-0.276,3.319-3.86,0.6-4.428
		c-5.959-1.242-12.294-0.731-18.347-0.659C3.054,44.143,3.156,48.019,5.777,48.271"/>
</g>
<g>
	<path d="M29.01,41.086c-1.73,1.406-3.287,2.953-4.693,4.686c-1.103,1.356,0.707,3.283,1.961,1.962
		c1.43-1.506,2.972-2.938,4.624-4.197C32.678,42.183,30.775,39.65,29.01,41.086"/>
</g>
<g>
	<path d="M32.42,60.32c0.199-5.736,0.962-11.74,0.092-17.434c-0.165-1.083-2.065-0.84-1.93,0.261"/>
</g>
<g>
	<path d="M30.582,43.147c0.695,5.609-0.263,11.547-0.619,17.173c-0.396,6.261-0.794,12.522-1.189,18.784
		c-0.377,5.93-0.743,11.861-1.081,17.795c-0.351,6.144-1.335,12.659-0.747,18.783c0.151,1.586,2.648,2.235,3.008,0.408
		c1.159-5.9,0.863-12.203,1.108-18.203c0.259-6.26,0.488-12.521,0.705-18.783c0.219-6.262,0.436-12.523,0.653-18.784"/>
</g>
<g>
	<path d="M8.324,21.401c0.092,7.756-0.745,15.35-1.253,23.068C7,45.562,8.814,45.829,9.001,44.731
		c1.311-7.652,1.167-15.603,0.769-23.33C9.721,20.479,8.313,20.465,8.324,21.401"/>
</g>
<g>
	<path d="M16.051,24.187c-0.646,5.663-0.82,11.313-0.238,16.988c0.112,1.094,1.831,1.118,1.734,0
		c-0.494-5.668-0.682-11.309-0.282-16.988C17.32,23.397,16.138,23.427,16.051,24.187"/>
</g>
<g>
	<path d="M24.033,21.871c-1.418,8.351-2.838,16.831-0.966,25.218c0.348,1.554,2.574,0.863,2.341-0.645
		c-1.25-8.101-0.411-15.922,0.799-23.975C26.418,21.061,24.276,20.433,24.033,21.871"/>
</g>
<g>
	<path d="M29.724,39.923c0.722-7.194,1.458-14.582,1.16-21.817c-0.034-0.814-1.258-0.821-1.272,0
		c-0.127,7.282,0.14,14.531-0.235,21.817C29.365,40.148,29.701,40.141,29.724,39.923"/>
</g>
<g>
	<path d="M27.953,20.763c1.021-1.208,2.076-2.351,2.84-3.742c0.331-0.602,0.201-1.372-0.356-1.789
		c-0.595-0.444-1.264-0.334-1.822,0.108c-1.141,0.906-2.011,2.023-2.95,3.134c-0.563,0.667-0.653,1.635,0,2.289
		C26.243,21.342,27.387,21.434,27.953,20.763"/>
</g>
<g>
	<path d="M8.814,20.43c5.487,0.617,10.976,1.358,16.485,1.725c2.03,0.134,1.96-2.91,0-3.121c-5.474-0.591-10.99-0.808-16.485-1.146
		C7.156,17.785,7.224,20.251,8.814,20.43"/>
</g>
<g>
	<path d="M12.186,11.075c-1.622,1.312-2.978,2.785-4.202,4.473c-1.035,1.428,1.293,3.226,2.451,1.891
		c1.25-1.441,2.637-2.794,4.121-3.993c0.705-0.569,0.593-1.778,0-2.37C13.859,10.378,12.892,10.505,12.186,11.075"/>
</g>
<g>
	<path d="M16.525,9.231c-0.074,0.845-0.149,1.689-0.225,2.534c-0.043,0.485,0.699,0.474,0.752,0
		c0.094-0.845,0.188-1.689,0.282-2.534C17.392,8.718,16.572,8.712,16.525,9.231"/>
</g>
<g>
	<path d="M17.172,14.199c2.088,0.629,3.603-1.231,5.62-0.962c0.428,0.057,0.804-0.414,0.801-0.801
		c-0.025-3.18,0.165-6.366,0.277-9.544c0.027-0.785-1.165-0.774-1.214,0c-0.202,3.18-0.327,6.376-0.665,9.544l1.014-0.772
		c-1.868-0.356-3.645,1.384-5.357,0.808C16.558,12.105,16.064,13.866,17.172,14.199"/>
</g>
<g>
	<path d="M24.228,13.787c1.964,0.41,3.902,0.801,5.894,1.06c1.391,0.18,1.683-2.136,0.33-2.44c-1.848-0.417-3.705-0.687-5.579-0.961
		C23.368,11.226,22.667,13.461,24.228,13.787"/>
</g>
<g>
	<path d="M17.588,9.36c3.055,0.473,5.86-2.023,5.126-5.182c-0.183-0.784-1.484-0.632-1.425,0.193c0.153,2.127-1.31,3.88-3.519,3.64
		C17.01,7.93,16.823,9.243,17.588,9.36"/>
</g>
<g>
	<path d="M10.712,72.659c-4.332,3.713-1.249,12.089,4.517,11.918c2.559-0.075,4.492-2.033,5.117-4.427
		c0.793-3.041-0.695-6.061-2.899-8.09c-0.572-0.525-1.662,0.193-1.14,0.88c1.927,2.535,4.519,8.534-0.396,9.815
		c-4.787,1.248-7.408-6.156-4.173-9.071C12.437,73.055,11.414,72.057,10.712,72.659"/>
</g>
<g>
	<path d="M8.558,72.981c2.165,0.027,4.329,0.053,6.494,0.08c1.095,0.013,3.008,0.445,3.913-0.453
		c0.677-0.673,0.592-2.121,0.661-2.954c0.092-1.129,0.627-2.918-0.454-3.72c-1.092-0.811-3.271-0.759-4.587-0.992
		c-1.338-0.236-2.882-0.772-4.244-0.629c-2.924,0.311-1.845,4.76-1.728,6.684c0.054,0.865,1.296,0.867,1.348,0
		c0.058-0.968,0.103-1.937,0.135-2.904c0.011-0.327-0.121-1.178,0.023-1.452c0.371-0.702,1.184-0.543,1.767-0.519
		c0.987,0.039,2.042,0.368,3.015,0.544c0.566,0.102,2.744,0.182,3.079,0.573c0.271,0.317-0.179,2.319-0.254,2.813
		c-0.115,0.763-0.04,0.935-0.645,1.193c-0.374,0.157-1.212-0.009-1.624-0.011c-2.299-0.014-4.6-0.027-6.899-0.042
		C7.407,71.187,7.407,72.968,8.558,72.981"/>
</g>
<g>
	<path d="M10.154,58.882c0.008,1.3,0.024,2.581,0.133,3.877c0.075,0.909,1.297,0.889,1.398,0c0.149-1.294,0.208-2.575,0.257-3.877
		C11.984,57.734,10.148,57.729,10.154,58.882"/>
</g>
<g>
	<path d="M12.396,58.188c1.048-0.492,2.079-0.995,3.098-1.544c0.76-0.407,0.235-1.745-0.598-1.42
		c-1.148,0.447-2.268,0.934-3.389,1.442C10.48,57.133,11.371,58.669,12.396,58.188"/>
</g>
<g>
	<path d="M14.678,57.669c1.04,0.504,2.068,0.984,3.146,1.402c0.764,0.295,1.188-0.875,0.539-1.279
		c-0.923-0.577-1.869-1.078-2.836-1.577C14.562,55.716,13.707,57.199,14.678,57.669"/>
</g>
<g>
	<path d="M17.463,60.314c0.201,0.956,0.263,1.952,0.212,2.927c-0.047,0.89,1.423,1.114,1.577,0.213
		c0.213-1.233,0.193-2.389-0.065-3.614C18.948,58.715,17.225,59.19,17.463,60.314"/>
</g>
<g>
	<path d="M14.528,79.031c1.529-0.497,3.024-1.058,4.525-1.631c0.931-0.355,0.578-1.81-0.42-1.524
		c-1.541,0.441-3.07,0.889-4.587,1.406C12.95,77.656,13.411,79.395,14.528,79.031"/>
</g>
<g>
	<path d="M14.149,77.663c-0.114-0.414-0.228-0.828-0.341-1.242c-0.234-0.854-1.724-0.721-1.604,0.217
		c0.055,0.422,0.109,0.844,0.163,1.266c0.069,0.537,0.433,0.972,1.027,0.892C13.93,78.722,14.295,78.193,14.149,77.663"/>
</g>
<g opacity="0.9">
	<g>
		<path fill="#8B8A8A" d="M9.019,88.107c-0.386,0.78-0.771,1.561-1.157,2.34c0.552,0.323,1.104,0.646,1.656,0.969
			c0.908-1.635,0.828-1.453,1.389-3.237c0.321-1.023-1.305-1.739-1.753-0.739c-0.729,1.626-1.07,2.959-1.186,4.738
			c-0.068,1.054,1.272,1.169,1.787,0.484c1.089-1.449,2.189-2.889,3.291-4.328c-0.64-0.271-1.279-0.54-1.919-0.81
			c-0.407,1.324-0.8,2.652-1.193,3.98c-0.325,1.099,1.037,1.751,1.819,1.059c1.304-0.754,1.885-1.938,1.743-3.553
			c0.509,0.509,1.018,1.019,1.527,1.527c0.935-1.491,2.14-2.715,3.616-3.673c-0.464-0.601-0.928-1.202-1.392-1.804
			c-0.933,0.914-1.864,1.828-2.794,2.743c0.551,0,1.102,0,1.652,0c-0.322-0.435-0.643-0.868-0.964-1.303
			c-0.198-0.431-0.878-0.722-1.324-0.539c-0.862,0.354-1.723,0.707-2.584,1.062c0.483,0.274,0.966,0.548,1.449,0.822
			c-0.106-0.521-0.213-1.044-0.319-1.566c-0.017-0.905-0.989-1.461-1.779-1.021c-0.713,0.396-1.426,0.794-2.138,1.191
			c0.595,0.342,1.191,0.684,1.787,1.025c-0.199-3.349-2.646-8.028-1.083-11.201c-0.739-0.312-1.479-0.623-2.218-0.935
			c-1.449,3.717-0.245,7.396,0.603,11.133c0.157,0.693,1.124,1.146,1.729,0.704c0.305-0.223,0.61-0.445,0.916-0.668
			c-0.564-0.434-1.127-0.867-1.691-1.3c-0.562,1.431-1.124,2.862-1.685,4.293c-0.42,1.071,1.18,1.946,1.913,1.114
			c0.761-0.864,1.521-1.729,2.283-2.594c-0.635-0.369-1.27-0.739-1.905-1.108c-0.267,0.969-0.534,1.938-0.8,2.908
			c-0.311,1.131,1.075,1.856,1.896,1.104c1.097-1.004,2.195-2.005,3.293-3.006c-0.643-0.374-1.285-0.748-1.927-1.122
			c-0.813,2.541-1.626,5.083-2.44,7.624c-0.368,1.149,1.172,1.99,1.989,1.157c1.426-1.452,2.851-2.905,4.277-4.357
			c-0.638-0.492-1.275-0.984-1.913-1.476c-0.97,2.182-2.049,4.247-3.287,6.289c-0.844,1.392,1.27,2.588,2.159,1.262
			c1.294-1.928,2.687-3.424,4.463-4.889c-0.671-0.519-1.343-1.036-2.014-1.555c-1.433,2.375-2.865,4.75-4.297,7.125
			c-0.76,1.26,1.119,2.788,2.074,1.601c1.479-1.839,3.027-3.57,4.688-5.247c-0.708-0.547-1.417-1.094-2.125-1.64
			c-0.991,2.095-2.206,3.794-3.901,5.398c0.771,0.449,1.543,0.898,2.315,1.348c0.981-2.399,2.125-4.62,3.464-6.833
			c0.954-1.577-1.481-2.98-2.457-1.436c-0.615,0.974-0.689,1.155-0.978,2.27c-0.407,1.573,1.754,2.474,2.598,1.096
			c0.755-1.233,1.51-2.467,2.264-3.7c0.83-1.356-1.165-2.956-2.228-1.719c-0.322,0.375-0.644,0.75-0.966,1.125
			c0.742,0.572,1.484,1.145,2.227,1.718c0.472-1,0.944-1.999,1.416-2.998c-0.863-0.364-1.725-0.728-2.587-1.091
			c-0.426,1.109-0.853,2.219-1.279,3.327c-0.627,1.63,1.701,2.246,2.583,1.089c0.886-1.161,1.443-2.232,1.981-3.573
			c0.601-1.496-1.844-2.483-2.579-1.087c-0.897,1.706-0.86,1.511-1.179,3.412c-0.249,1.48,1.778,2.597,2.575,1.086
			c0.398-0.757,0.799-1.514,1.198-2.271c-0.857-0.361-1.714-0.723-2.572-1.084c-0.841,2.043-1.309,3.999-1.589,6.176
			c-0.176,1.358,1.583,1.657,2.396,0.992c1.228-1.006,1.444-2.011,1.124-3.532c-0.281-1.335-2.433-1.35-2.704,0
			c-0.231,1.153-0.462,2.306-0.693,3.458c-0.354,1.769,2.122,2.461,2.699,0.744c0.237-0.704,0.474-1.407,0.711-2.111
			c-0.899-0.248-1.798-0.496-2.697-0.744c-0.562,2.095-1.789,4.589-0.778,6.673c0.277,0.571,1,0.776,1.575,0.641
			c0.174-0.041,0.348-0.081,0.522-0.122c0.568-0.134,1.068-0.75,1.024-1.345c-0.011-0.14-0.021-0.28-0.031-0.42
			c-0.113-1.516-2.325-1.963-2.739-0.371c-0.52,2-0.827,3.882-0.997,5.931c-0.132,1.591,2.338,1.856,2.731,0.37
			c0.237-0.894,0.473-1.787,0.709-2.681c-0.913-0.124-1.826-0.247-2.739-0.371c-0.021,2.042-0.042,4.084-0.064,6.126
			c-0.014,1.305,2.043,2.039,2.614,0.708c0.849-1.978,1.259-3.614,1.378-5.767c0.103-1.85-2.616-1.761-2.82,0
			c-0.425,3.648-0.641,7.277-0.649,10.95c0.951,0,1.901,0,2.852,0c-0.104-1.915-0.206-3.83-0.31-5.745
			c-0.099-1.834-2.914-1.857-2.867,0c0.063,2.506,0.408,4.716,1.132,7.116c0.464,1.54,2.862,1.277,2.835-0.384
			c-0.045-2.69-0.089-5.381-0.134-8.071c-0.97,0-1.94,0-2.91,0c0.434,3.481,0.605,6.924,0.519,10.431
			c0.913-0.247,1.826-0.494,2.738-0.741c-1.288-2.756-1.559-5.328-1.185-8.287c-1.048,0-2.096,0-3.145,0
			c-0.073,3.053-0.626,5.795-1.683,8.64c1.076,0.146,2.152,0.292,3.229,0.438c-0.069-4.122-0.123-8.244-0.217-12.365
			c-0.052-2.291-3.188-2.152-3.458,0c-0.532,4.241-0.833,8.472-0.904,12.745c-0.039,2.27,3.381,2.239,3.501,0
			c0.28-5.234,0.576-10.468,0.833-15.703c0.1-2.027-2.95-2.363-3.474-0.47c-0.747,2.697-1.494,5.396-2.24,8.094
			c1.14,0.154,2.28,0.309,3.42,0.463c0.16-1.942,0.321-3.885,0.48-5.827c0.161-1.953-2.938-2.325-3.382-0.458
			c-0.575,2.42-1.15,4.839-1.726,7.259c1.111,0.15,2.223,0.301,3.334,0.451c0.31-4.03,0.859-8,1.69-11.955c-1.071,0-2.141,0-3.212,0
			c0.61,2.423,0.777,4.702,0.582,7.179c1.12,0,2.24,0,3.36,0c0.096-2.164,0.307-4.202,0.683-6.348c-1.108-0.15-2.217-0.3-3.325-0.45
			c0.091,2.446-0.278,4.556-1.146,6.823c1.097,0,2.195,0,3.292,0c-0.793-2.991-1.323-5.96-1.577-9.05
			c-0.166-2.016-2.655-2.255-3.388-0.459c-1.026,2.517-1.504,4.917-1.622,7.622c1.122,0,2.244,0,3.365,0
			c-0.092-3.137-0.322-6.239-0.693-9.354c-0.213-1.785-2.565-2.246-3.184-0.431c-0.179,0.524-0.358,1.048-0.537,1.572
			c1.05,0.143,2.101,0.284,3.151,0.427c-0.014-1.717-0.166-3.33-0.424-5.021c-0.268-1.751-3.001-1.271-3.011,0.407
			c-0.007,1.233-0.015,2.466-0.022,3.699c-0.011,1.908,2.891,1.896,2.951,0c0.049-1.541-0.092-2.89-0.4-4.389
			c-0.333-1.62-2.818-1.207-2.823,0.382c-0.005,1.906,0.049,2.331,0.336,4.215c0.25,1.637,2.809,1.188,2.816-0.381
			c0.005-1.269,0.01-2.537,0.015-3.806c-0.953,0-1.906,0-2.859,0c0.193,2.681,0.387,5.36,0.581,8.041
			c0.931-0.126,1.863-0.252,2.794-0.378c-0.16-0.543-0.319-1.085-0.478-1.628c-0.458-1.558-2.739-1.224-2.791,0.378
			c-0.129,3.998,0.072,7.97-0.223,11.969c0.94,0,1.879,0,2.819,0c0.034-1.234,0.068-2.469,0.102-3.703
			c0.051-1.86-2.595-1.744-2.813,0c-0.235,1.896-0.3,3.649-0.205,5.557c0.077,1.532,2.369,1.966,2.751,0.372
			c0.029-0.119,0.058-0.238,0.086-0.357c-0.45,0.343-0.9,0.686-1.35,1.028c0.147-0.011,0.295-0.021,0.443-0.03
			c-0.45-0.343-0.9-0.686-1.35-1.028c0.397,1.485,0,3.479-0.099,5c-0.107,1.649,2.252,1.79,2.74,0.371
			c0.45-1.31,0.9-2.619,1.349-3.928c-0.911-0.124-1.821-0.247-2.731-0.37c-0.035,1.354-0.302,2.656-0.802,3.903
			c0.897,0.247,1.793,0.495,2.69,0.742c0.175-1.074,0.553-2.078,1.132-3.012c-0.869-0.235-1.739-0.471-2.608-0.706
			c0.11,1.073,0.221,2.146,0.332,3.219c0.126,1.222,1.979,2.123,2.615,0.708c0.395-1.097,1.002-2.069,1.825-2.916
			c-0.801-0.331-1.603-0.663-2.404-0.995c-0.079,1.048-0.157,2.096-0.236,3.144c0.908,0.25,1.816,0.5,2.724,0.75
			c0.319-1.777,0.639-3.555,0.959-5.332c0.319-1.772-2.277-2.551-2.736-0.754c-0.576,2.253-1.234,4.46-1.985,6.661
			c0.934,0.126,1.869,0.253,2.803,0.379c0.567-5.661,1.133-11.322,1.698-16.983c0.162-1.623-2.523-1.972-2.838-0.384
			c-0.219,1.102-0.437,2.204-0.655,3.307c-0.36,1.819,2.405,2.601,2.791,0.77c0.671-3.185,1.184-6.375,1.569-9.605
			c-0.97,0-1.939,0-2.909,0c0.037,1.629,0.073,3.259,0.11,4.888c0.038,1.672,2.364,1.953,2.866,0.388
			c0.559-1.745,1.119-3.49,1.678-5.236c-0.958-0.129-1.916-0.259-2.874-0.389c-0.121,1.527-0.143,2.99-0.068,4.521
			c0.067,1.365,2.039,2.12,2.733,0.74c0.885-1.758,1.032-2.958,0.667-4.861c-0.291-1.518-2.417-1.285-2.835,0
			c-0.22,0.677-0.44,1.354-0.659,2.032c-0.507,1.567,2.017,2.669,2.688,1.133c1.407-3.221,1.713-6.16,0.99-9.604
			c-1.061-5.054-4.25-3.831-7.746-6.438c-0.491,0.84-0.982,1.68-1.473,2.52c2.46,1.321,1.903,4.229,5.463,4.229
			c3.415,0,5.146-3.169,6.303-5.877c0.659-1.544-1.579-2.908-2.291-1.34c-0.968,2.133-4.304,5.844-6.068,2.278
			c-0.48-0.971-1.025-1.318-1.935-1.811c-1.696-0.917-2.944,1.416-1.473,2.52c1.411,1.058,2.561,1.565,4.251,1.938
			c3.895,0.861,2.373,7.958,1.438,10.099c0.896,0.378,1.792,0.756,2.688,1.133c0.219-0.677,0.438-1.354,0.658-2.032
			c-0.945,0-1.89,0-2.835,0c-0.122,0.866-0.244,1.733-0.366,2.6c0.911,0.247,1.822,0.493,2.733,0.74
			c-0.077-1.53-0.058-2.993,0.061-4.521c0.132-1.711-2.393-1.9-2.874-0.389c-0.557,1.746-1.113,3.492-1.67,5.238
			c0.955,0.129,1.91,0.259,2.866,0.388c-0.04-1.629-0.079-3.259-0.119-4.888c-0.046-1.922-2.695-1.818-2.909,0
			c-0.351,2.98-0.837,5.9-1.451,8.836c0.93,0.257,1.861,0.513,2.791,0.77c0.216-1.103,0.433-2.206,0.65-3.309
			c-0.946-0.128-1.892-0.256-2.838-0.384c-0.556,5.661-1.109,11.322-1.663,16.983c-0.165,1.683,2.314,1.823,2.803,0.379
			c0.747-2.202,1.399-4.41,1.97-6.665c-0.912-0.251-1.824-0.503-2.736-0.754c-0.316,1.778-0.631,3.557-0.947,5.336
			c-0.315,1.775,2.382,2.545,2.724,0.75c0.357-1.88,0.386-1.979,0.329-3.894c-0.035-1.145-1.56-1.974-2.404-0.995
			c-0.964,1.118-1.647,2.126-2.257,3.49c0.872,0.235,1.744,0.472,2.615,0.708c-0.114-1.073-0.227-2.146-0.34-3.219
			c-0.134-1.276-1.893-2.046-2.608-0.706c-0.648,1.215-1.086,2.33-1.405,3.682c-0.415,1.757,2.136,2.449,2.69,0.742
			c0.514-1.582,0.769-3.001,0.893-4.646c0.125-1.646-2.245-1.776-2.731-0.37c-0.453,1.309-0.905,2.617-1.358,3.926
			c0.914,0.124,1.827,0.247,2.74,0.371c0.128-1.926,0.508-3.863,0.009-5.744c-0.151-0.571-0.739-1.068-1.35-1.028
			c-0.147,0.01-0.295,0.02-0.443,0.029c-0.612,0.041-1.197,0.396-1.351,1.028c-0.029,0.119-0.058,0.239-0.086,0.358
			c0.917,0.124,1.834,0.248,2.751,0.372c-0.092-1.908-0.024-3.662,0.215-5.557c-0.938,0-1.875,0-2.813,0
			c-0.036,1.234-0.072,2.469-0.109,3.703c-0.054,1.834,2.684,1.791,2.819,0c0.302-3.998,0.108-7.971,0.246-11.969
			c-0.93,0.126-1.861,0.252-2.791,0.378c0.159,0.543,0.317,1.085,0.475,1.628c0.438,1.5,2.91,1.266,2.794-0.378
			c-0.189-2.681-0.377-5.36-0.566-8.041c-0.128-1.82-2.849-1.862-2.859,0c-0.007,1.269-0.014,2.537-0.022,3.806
			c0.939-0.127,1.877-0.254,2.816-0.381c-0.076-1.151-0.151-2.302-0.227-3.453c-0.941,0.127-1.882,0.255-2.823,0.382
			c0.311,1.2,0.385,2.408,0.221,3.625c0.984,0,1.967,0,2.951,0c0.045-1.233,0.091-2.466,0.136-3.699c-1.022,0-2.043,0-3.065,0
			c0.19,1.562,0.262,3.042,0.227,4.614c-0.044,1.904,2.558,2.058,3.151,0.427c0.189-0.521,0.379-1.043,0.569-1.564
			c-1.061-0.144-2.123-0.287-3.184-0.431c0.331,3.117,0.52,6.22,0.57,9.354c0.036,2.183,3.243,2.153,3.365,0
			c0.139-2.444,0.656-4.465,1.583-6.704c-1.129-0.153-2.259-0.306-3.388-0.459c0.292,3.39,0.85,6.669,1.735,9.958
			c0.47,1.744,2.723,1.503,3.292,0c0.977-2.579,1.352-4.985,1.24-7.731c-0.074-1.825-2.99-2.409-3.325-0.45
			c-0.413,2.412-0.679,4.8-0.778,7.248c-0.089,2.183,3.2,2.137,3.36,0c0.21-2.803-0.036-5.349-0.73-8.063
			c-0.396-1.548-2.874-1.641-3.212,0c-0.878,4.257-1.511,8.509-1.873,12.84c-0.161,1.93,2.885,2.285,3.334,0.451
			c0.591-2.415,1.182-4.83,1.772-7.245c-1.127-0.153-2.254-0.306-3.382-0.458c-0.173,1.942-0.346,3.885-0.52,5.827
			c-0.179,2.006,2.898,2.3,3.42,0.463c0.765-2.693,1.529-5.387,2.293-8.08c-1.158-0.156-2.315-0.313-3.474-0.47
			c-0.288,5.233-0.535,10.469-0.797,15.703c1.167,0,2.334,0,3.501,0c0.058-4.272,0.344-8.504,0.861-12.745c-1.153,0-2.305,0-3.458,0
			c0.107,4.122,0.254,8.244,0.387,12.365c0.062,1.909,2.616,2.169,3.229,0.438c1.122-3.171,1.629-6.162,1.657-9.515
			c0.018-2.073-2.926-1.966-3.145,0c-0.396,3.567,0.235,6.566,1.792,9.77c0.667,1.374,2.708,0.637,2.738-0.741
			c0.076-3.508-0.104-6.95-0.548-10.431c-0.229-1.802-2.947-1.929-2.91,0c0.052,2.69,0.104,5.381,0.157,8.071
			c0.945-0.128,1.89-0.256,2.835-0.384c-0.641-2.103-0.986-4.151-1.048-6.349c-0.956,0-1.912,0-2.867,0
			c0.108,1.915,0.217,3.83,0.325,5.745c0.104,1.822,2.853,1.851,2.852,0c-0.002-3.673,0.204-7.301,0.618-10.95
			c-0.94,0-1.88,0-2.82,0c-0.327,1.45-0.653,2.9-0.98,4.351c0.872,0.236,1.743,0.472,2.615,0.708
			c0.016-2.042,0.031-4.084,0.047-6.126c0.012-1.574-2.34-1.899-2.739-0.371c-0.233,0.895-0.467,1.789-0.701,2.683
			c0.911,0.124,1.821,0.247,2.731,0.37c0.078-1.772,0.379-3.503,0.904-5.188c-0.913-0.124-1.826-0.247-2.739-0.371
			c0.01,0.14,0.021,0.28,0.03,0.42c0.341-0.448,0.683-0.896,1.024-1.345c-0.174,0.04-0.348,0.081-0.522,0.122
			c0.525,0.214,1.05,0.427,1.575,0.641c-0.364-0.753,0.852-3.722,1.067-4.521c0.474-1.756-2.125-2.438-2.697-0.744
			c-0.237,0.704-0.475,1.407-0.713,2.111c0.9,0.248,1.799,0.496,2.699,0.744c0.232-1.152,0.465-2.305,0.697-3.456
			c-0.901,0-1.802,0-2.704,0c-0.135,0.267-0.27,0.534-0.405,0.802c0.799,0.33,1.598,0.661,2.396,0.992
			c0.26-1.991,0.744-3.604,1.497-5.428c0.613-1.487-1.836-2.473-2.573-1.084c-0.401,0.756-0.801,1.512-1.202,2.269
			c0.858,0.361,1.717,0.724,2.575,1.086c0.3-0.913,0.6-1.825,0.899-2.738c-0.86-0.362-1.72-0.725-2.579-1.087
			c-0.383,1.08-0.949,2.046-1.701,2.897c0.861,0.362,1.722,0.726,2.583,1.089c0.428-1.109,0.856-2.218,1.284-3.327
			c0.577-1.496-1.904-2.533-2.587-1.091c-0.473,0.999-0.946,1.998-1.419,2.996c-0.647,1.366,1.108,3.017,2.227,1.718
			c0.322-0.374,0.645-0.748,0.967-1.123c-0.743-0.573-1.485-1.146-2.228-1.719c-0.757,1.232-1.513,2.465-2.269,3.696
			c0.866,0.365,1.731,0.73,2.598,1.096c0.231-0.53,0.462-1.06,0.694-1.59c-0.819-0.479-1.638-0.957-2.457-1.436
			c-1.438,2.428-2.637,4.914-3.679,7.532c-0.541,1.358,1.391,2.239,2.315,1.348c1.854-1.787,3.195-3.646,4.279-5.992
			c0.616-1.333-0.99-2.807-2.125-1.64c-1.647,1.693-3.18,3.439-4.644,5.294c0.691,0.533,1.383,1.066,2.074,1.601
			c1.411-2.389,2.821-4.776,4.232-7.164c0.779-1.319-0.939-2.457-2.014-1.555c-1.921,1.615-3.434,3.351-4.809,5.441
			c0.72,0.421,1.439,0.841,2.159,1.262c1.22-2.054,2.28-4.13,3.231-6.322c0.517-1.191-0.88-2.547-1.913-1.476
			c-1.412,1.466-2.824,2.932-4.237,4.398c0.663,0.386,1.326,0.771,1.989,1.157c0.79-2.548,1.579-5.096,2.369-7.644
			c0.355-1.147-1.113-1.878-1.927-1.122c-1.089,1.011-2.177,2.022-3.267,3.031c0.632,0.368,1.264,0.736,1.896,1.104
			c0.27-0.969,0.54-1.938,0.81-2.906c0.295-1.061-1.13-1.983-1.905-1.108c-0.763,0.862-1.526,1.724-2.29,2.586
			c0.638,0.371,1.275,0.742,1.913,1.114c0.566-1.431,1.132-2.86,1.698-4.291c0.373-0.943-0.893-1.827-1.691-1.3
			c-0.314,0.208-0.628,0.416-0.942,0.623c0.577,0.234,1.153,0.47,1.729,0.704c-0.603-3.246-1.749-6.641-0.532-9.863
			c0.486-1.288-1.619-2.164-2.218-0.935c-2.372,4.866,0.484,7.412,0.804,12.426c0.057,0.893,0.967,1.487,1.787,1.025
			c0.711-0.4,1.422-0.801,2.133-1.201c-0.593-0.34-1.186-0.681-1.779-1.021c0.024,1.09,0.021,1.174,0.411,2.193
			c0.207,0.539,0.815,1.086,1.449,0.822c1.722-0.715,1.338-0.933,2.594,0.161c0.48,0.417,1.179,0.474,1.652,0
			c0.923-0.923,1.845-1.847,2.767-2.771c0.896-0.899-0.318-2.596-1.392-1.804c-1.77,1.305-3.143,2.712-4.384,4.528
			c-0.658,0.963,0.601,2.046,1.527,1.527c0.104-0.059,0.208-0.117,0.312-0.175c0.413-0.231,0.672-0.797,0.512-1.259
			c-0.049-0.142-0.099-0.284-0.148-0.427c-0.154-0.441-0.561-0.857-1.072-0.815c-1.718,0.141-2.791,1.654-4.013,2.762
			c0.606,0.353,1.212,0.706,1.819,1.059c0.378-1.332,0.756-2.664,1.12-4c0.327-1.204-1.256-1.751-1.919-0.81
			c-1.04,1.477-2.08,2.953-3.133,4.42c0.596,0.162,1.191,0.323,1.787,0.484c0.308-1.257,0.616-2.514,0.924-3.77
			c-0.584-0.247-1.168-0.493-1.753-0.739c-0.398,0.926-0.797,1.853-1.195,2.778c-0.602,1.084,1.01,2.021,1.656,0.969
			c0.819-1.335,0.802-1.332,1.351-2.799C11.302,87.456,9.447,86.96,9.019,88.107L9.019,88.107z"/>
	</g>
</g>
<g opacity="0.9">
	<g>
		<path fill="#8B8A8A" d="M20.978,72.815c-0.365-0.104-0.73-0.21-1.095-0.314c0.4,0.233,0.802,0.467,1.203,0.7
			c0.37-1.298,0.927-2.372,0.395-3.63c-0.146-0.344-0.585-0.429-0.905-0.369c-0.142,0.027-0.284,0.054-0.426,0.08
			c-0.342,0.064-0.608,0.446-0.596,0.783c0.004,0.112,0.008,0.225,0.013,0.337c0.027,0.744,1.179,1.211,1.527,0.414
			c0.365-0.836,0.411-0.904,0.558-1.805c-0.554-0.075-1.107-0.149-1.661-0.225c0.114-0.183,0.229-0.364,0.343-0.547
			c0.359,0.274,0.719,0.548,1.078,0.821c-0.104-1.195,0.132-2.385,0.026-3.602c-0.097-1.132-1.775-1.169-1.787,0
			c-0.004,0.307-0.007,0.614-0.011,0.921c-0.012,1.172,1.757,1.159,1.811,0c0.121-0.816,0.242-1.633,0.364-2.449
			c-0.647-0.087-1.296-0.175-1.943-0.263c-0.02,0.749-0.031,1.499-0.035,2.248c-0.012,1.251,1.681,1.36,2.075,0.281
			c0.252-0.69,0.505-1.381,0.756-2.07c-0.696-0.095-1.393-0.188-2.089-0.283c-0.011,0.835-0.021,1.671-0.032,2.506
			c0.715,0,1.43,0,2.145,0c0.014-1.346,0.028-2.691,0.043-4.037c0.007-0.656-0.709-1.301-1.375-1.047
			c-0.939,0.36-1.194,0.505-1.958,1.161c0.607,0.354,1.216,0.708,1.824,1.062c0.521-1.799,1.041-3.598,1.562-5.397
			c0.292-1.007-0.791-1.647-1.631-1.254c-0.352,0.165-0.702,0.329-1.054,0.493c0.546,0.42,1.092,0.839,1.637,1.259
			c0.35-0.859,0.704-1.716,1.063-2.572c0.373-0.895-0.896-1.845-1.662-1.278c-0.968,0.718-1.148,0.884-1.81,1.894
			c0.662,0.387,1.324,0.774,1.986,1.161c0.331-0.715,0.663-1.431,0.994-2.146c0.567-1.223-0.799-2.289-1.839-1.418
			c-0.516,0.431-0.646,0.667-0.79,1.322c-0.278,1.267,1.498,2.13,2.156,0.909c0.618-1.148,1.039-2.208,1.357-3.484
			c0.291-1.171-1.146-2.039-2.022-1.177c0.484,0.068,0.97,0.137,1.454,0.205c-0.047-0.837-0.741-1.332-1.548-1.179
			c-0.449,0.085-0.899,0.17-1.349,0.255c0.4,0.688,0.801,1.376,1.201,2.064c0.333-0.396,0.667-0.792,1-1.188
			c-0.653-0.504-1.308-1.009-1.961-1.513c-0.82,1.219-1.823,2.25-3.01,3.093c0.719,0.418,1.438,0.837,2.155,1.255
			c0.127-0.348,0.254-0.697,0.381-1.045c0.503-1.382-1.746-2.329-2.375-1.001c-0.411,0.868-0.518,1.27-0.613,2.226
			c-0.095,0.959,1.196,1.676,1.971,1.131c0.641-0.45,0.863-0.614,1.344-1.233c-0.684-0.528-1.368-1.056-2.052-1.583
			c-0.248,0.538-0.496,1.076-0.744,1.614c-0.592,1.286,0.949,2.698,2.046,1.579c0.6-0.611,0.761-0.891,1.001-1.712
			c0.151-0.521-0.082-1.226-0.598-1.468c-0.252-0.118-0.503-0.236-0.755-0.355c0.199,0.489,0.397,0.978,0.597,1.466
			c0.166-0.471,0.332-0.941,0.499-1.412c0.311-0.881-0.691-1.945-1.593-1.593c-0.796,0.311-1.081,0.427-1.77,0.933
			c0.632,0.486,1.265,0.973,1.897,1.458c0.186-0.547,0.371-1.094,0.556-1.641c0.345-1.017-0.692-1.734-1.583-1.584
			c-1.608,0.271-1.66,0.395-2.531,1.756c0.796,0.216,1.593,0.432,2.39,0.647c-0.005-0.097-0.01-0.195-0.015-0.292
			c-0.021-0.418-0.22-0.922-0.635-1.107c-0.108-0.048-0.216-0.096-0.325-0.145c-0.58-0.258-1.059-0.199-1.553,0.2
			c-0.076,0.062-0.151,0.123-0.228,0.184c0.604,0.604,1.208,1.208,1.812,1.812c0.321-0.291,0.642-0.581,0.963-0.871
			c-0.603-0.603-1.206-1.206-1.809-1.809c-0.51,0.616-1.021,1.232-1.531,1.848c0.671,0.518,1.341,1.035,2.012,1.552
			c0.232-0.55,0.464-1.099,0.696-1.649c0.445-1.054-0.56-2.556-1.754-1.754c-1.384,0.93-2.019,1.764-2.627,3.288
			c0.826,0.228,1.651,0.455,2.477,0.683c0.534-1.432,0.505-1.409,0.573-2.935c0.058-1.309-1.764-1.715-2.396-0.649
			c-0.344,0.579-0.687,1.158-1.031,1.736c0.741,0.433,1.482,0.867,2.224,1.3c0.6-1.382,0.687-1.695,0.847-3.195
			c0.109-1.022-1.161-1.54-1.94-1.113c-1.194,0.653-1.806,0.905-2.895,1.61c0.648,0.372,1.296,0.744,1.944,1.115
			c0.073-0.983-0.095-1.297-0.823-1.957c-1.006-0.911-0.88-0.266-1.881-1.55c-0.667-0.855-2.351-0.168-2.21,0.916
			c0.418,3.221,2.426,8.426,6.035,4.465c-0.615-0.358-1.23-0.716-1.846-1.074c-0.154,0.399-0.308,0.799-0.461,1.199
			c0.616,0.358,1.232,0.717,1.848,1.076c0.321-1.404,0.422-3.411-1.647-3.411c-2.716,0-3.441,4.787-3.489,6.693
			c-0.028,1.128,1.513,1.488,2.072,0.561c0.606-1.006,1.213-2.013,1.82-3.019c-0.679-0.286-1.358-0.573-2.037-0.859
			c-0.073,0.222-0.146,0.443-0.22,0.665c-0.114,0.344-0.001,0.849,0.287,1.084c0.18,0.148,0.361,0.296,0.542,0.444
			c0.441,0.362,1.153,0.494,1.577,0c0.152-0.177,0.305-0.354,0.457-0.531c0.339-0.394,0.428-0.883,0.175-1.352
			c-0.111-0.206-0.222-0.411-0.333-0.616c-0.406-0.752-1.508-0.697-1.928,0c-0.074-0.101-0.147-0.201-0.221-0.302
			c-0.532-0.195-1.277,0.214-1.375,0.781c-0.425,2.476-0.795,4.958-1.149,7.445c-0.154,1.08,1.42,2.031,1.95,0.821
			c0.192-0.438,0.384-0.876,0.576-1.314c-0.639-0.27-1.278-0.539-1.917-0.809c-0.377,1.724-0.752,3.436-1.051,5.176
			c-0.169,0.988,1.178,1.382,1.511,0.416c0.573-1.666,1.066-3.345,1.564-5.035c0.33-1.122-1.407-1.9-1.917-0.809
			c-0.203,0.433-0.405,0.865-0.607,1.297c0.65,0.273,1.3,0.548,1.95,0.821c0.399-2.475,0.826-4.946,1.247-7.418
			c-0.458,0.26-0.917,0.521-1.375,0.781c1.185,0.433,2.077,0.38,2.742-0.726c-0.643,0-1.285,0-1.928,0
			c0.018-0.068,0.035-0.136,0.052-0.205c0.526,0,1.051,0,1.577,0c-0.012-0.008-0.024-0.016-0.036-0.023
			c0.404-1.227-1.399-1.92-2.037-0.859c-0.605,1.007-1.21,2.015-1.815,3.022c0.69,0.187,1.381,0.374,2.072,0.561
			c0.606-1.258,0.866-2.548,0.78-3.87c-0.225,0.989,1.102,1.995,1.848,1.076c0.758-0.932,0.851-0.98,1.027-2.176
			c0.146-0.99-1.022-1.981-1.846-1.074c-0.628-0.968-1.256-1.936-1.885-2.904c-0.736,0.305-1.473,0.61-2.21,0.916
			c0.431,0.55,0.861,1.101,1.291,1.652c0.292,0.374,0.838,0.407,1.258,0.333c-0.2-0.104-0.399-0.207-0.599-0.31
			c-0.071,0.965,1.155,1.627,1.944,1.115c0.037,0.007,0.074,0.015,0.111,0.022c0.38,0.152,1.001-0.011,1.256-0.332
			c0.509-0.435,1.017-0.87,1.525-1.304c-0.647-0.371-1.293-0.742-1.94-1.113c-0.165,0.632-0.329,1.263-0.493,1.895
			c-0.642,1.484,1.356,2.767,2.224,1.3c0.343-0.58,0.685-1.159,1.028-1.738c-0.799-0.216-1.598-0.433-2.396-0.649
			c-0.159,0.751-0.318,1.501-0.478,2.252c-0.582,1.567,1.875,2.193,2.477,0.683c0.481-0.585,0.963-1.171,1.445-1.757
			c-0.627-0.482-1.255-0.965-1.883-1.448c-0.231,0.55-0.463,1.1-0.694,1.65c-0.495,1.175,1.35,2.204,2.141,1.246
			c0.509-0.617,1.019-1.234,1.528-1.851c1.04-1.26-0.565-2.926-1.809-1.809c-0.322,0.289-0.644,0.579-0.966,0.868
			c-1.25,1.124,0.551,2.821,1.812,1.812c0.076-0.061,0.152-0.122,0.228-0.183c-0.518,0.067-1.035,0.134-1.553,0.2
			c-0.099-0.223-0.198-0.446-0.297-0.669c0.06,1.288,1.688,1.733,2.39,0.647c0.333-0.189,0.667-0.379,1.001-0.568
			c-0.528-0.528-1.057-1.056-1.584-1.584c-0.188,0.546-0.375,1.092-0.563,1.639c-0.352,1.025,0.983,2.123,1.897,1.458
			c0.384-0.222,0.769-0.444,1.154-0.667c-0.53-0.531-1.062-1.062-1.592-1.593c-0.168,0.47-0.337,0.94-0.505,1.41
			c-0.182,0.509,0.105,1.232,0.597,1.466c0.251,0.119,0.502,0.238,0.753,0.358c-0.199-0.489-0.398-0.979-0.597-1.468
			c-0.112,0.187-0.224,0.374-0.336,0.561c0.682,0.526,1.365,1.053,2.046,1.579c0.25-0.537,0.5-1.074,0.75-1.61
			c0.58-1.244-1.073-2.833-2.052-1.583c-0.273,0.273-0.545,0.546-0.818,0.819c0.657,0.377,1.314,0.754,1.971,1.131
			c0.079-0.305,0.158-0.609,0.237-0.915c-0.792-0.333-1.583-0.667-2.375-1.001c-0.121,0.351-0.241,0.701-0.362,1.051
			c-0.457,1.326,1.251,2.017,2.156,1.255c1.344-1.132,2.329-2.244,3.342-3.657c0.823-1.15-1.069-2.611-1.961-1.513
			c-0.327,0.403-0.653,0.805-0.98,1.208c-0.777,0.957-0.065,2.326,1.201,2.064c0.447-0.093,0.896-0.186,1.343-0.278
			c-0.516-0.393-1.032-0.786-1.548-1.179c0.019,0.25,0.037,0.501,0.056,0.752c0.042,0.574,0.347,0.982,0.893,1.173
			c0.116,0.041,0.233,0.081,0.35,0.122c0.398,0.139,0.893-0.02,1.18-0.312c0.075-0.076,0.15-0.152,0.225-0.229
			c-0.674-0.392-1.348-0.785-2.022-1.177c-0.166,1.042-0.52,2.021-1.061,2.938c0.719,0.303,1.438,0.606,2.156,0.909
			c0.057-0.098,0.113-0.195,0.171-0.293c-0.613-0.473-1.227-0.946-1.839-1.418c-0.319,0.722-0.64,1.444-0.959,2.167
			c-0.588,1.331,1.179,2.443,1.986,1.161c0.321-0.367,0.644-0.734,0.966-1.101c-0.555-0.426-1.108-0.852-1.662-1.278
			c-0.339,0.862-0.682,1.722-1.029,2.581c-0.404,1.004,0.863,1.626,1.637,1.259c0.35-0.167,0.7-0.333,1.05-0.5
			c-0.544-0.418-1.088-0.836-1.631-1.254c-0.509,1.803-1.018,3.605-1.526,5.408c-0.313,1.107,1.031,1.752,1.824,1.062
			c0.331-0.203,0.662-0.407,0.993-0.61c-0.459-0.349-0.917-0.698-1.375-1.047c-0.005,1.346-0.01,2.691-0.016,4.037
			c-0.005,1.383,2.136,1.382,2.145,0c0.005-0.835,0.01-1.671,0.015-2.506c0.008-1.253-1.697-1.378-2.089-0.283
			c-0.247,0.692-0.494,1.384-0.742,2.074c0.691,0.094,1.383,0.188,2.075,0.281c-0.025-0.75-0.059-1.499-0.1-2.248
			c-0.053-1.063-1.738-1.411-1.943-0.263c-0.255,1.433-0.275,1.521-0.267,2.975c0.604,0,1.207,0,1.811,0
			c-0.004-0.307-0.008-0.614-0.013-0.921c-0.596,0-1.191,0-1.787,0c0.137,1.247-0.078,2.382,0.058,3.602
			c0.064,0.576,0.492,0.933,1.078,0.821c0.095-0.019,0.189-0.037,0.285-0.055c0.352-0.067,0.642-0.466,0.622-0.817
			c-0.004-0.075-0.008-0.149-0.012-0.224c-0.051-0.899-1.523-1.214-1.661-0.225c-0.013,0.574-0.154,1.115-0.425,1.622
			c0.536,0.072,1.073,0.146,1.609,0.218c-0.961,0.564-1.463,1.37-1.508,2.416c-0.149,0.679,0.681,1.242,1.203,0.7
			c0.06-0.062,0.119-0.123,0.179-0.186c0.224-0.231,0.27-0.576,0.11-0.857c-0.042-0.074-0.084-0.148-0.126-0.223
			c-0.17-0.301-0.651-0.478-0.951-0.25c-0.069,0.052-0.138,0.104-0.207,0.156c-0.229,0.174-0.431,0.465-0.313,0.771
			c0.03,0.081,0.061,0.161,0.091,0.242C19.983,73.967,21.211,73.666,20.978,72.815L20.978,72.815z"/>
	</g>
</g>
<g opacity="0.9">
	<g>
		<path fill="#333333" d="M13.044,59.161c0.371-0.001,0.712-0.046,1.071-0.136c-0.182-0.431-0.363-0.861-0.545-1.292
			c-0.279,0.195-0.559,0.391-0.838,0.585c-0.789,0.55-0.114,1.728,0.755,1.292c0.143-0.046,0.285-0.093,0.428-0.139
			c-0.291-0.379-0.583-0.758-0.874-1.137c-0.143,0.251-0.305,0.489-0.487,0.713c-0.475,0.635,0.305,1.292,0.913,1.188
			c0.328-0.056,0.63-0.132,0.946-0.238c-0.274-0.472-0.549-0.944-0.824-1.416c-0.147,0.129-0.295,0.258-0.442,0.388
			c-0.774,0.68,0.209,1.75,1.04,1.347c0.289-0.14,0.563-0.29,0.838-0.457c-0.399-0.399-0.798-0.798-1.197-1.197
			c-0.036,0.055-0.072,0.11-0.108,0.166c-0.335,0.515,0.024,1.097,0.525,1.291c0.04,0.016,0.08,0.031,0.12,0.046
			c-0.205-0.205-0.41-0.41-0.615-0.615c0.016,0.044,0.031,0.087,0.046,0.131c0.03-0.227,0.06-0.454,0.089-0.681
			c-0.042,0.083-0.084,0.165-0.125,0.248c-0.351,0.692,0.219,1.5,1.003,1.305c0.338-0.084,0.574-0.183,0.886-0.339
			c-0.364-0.472-0.729-0.944-1.093-1.416c-0.105,0.083-0.211,0.166-0.316,0.249c-0.7,0.55,0.058,1.862,0.884,1.519
			c0.172-0.049,0.345-0.099,0.517-0.147c-0.297-0.39-0.593-0.779-0.89-1.169c-0.021,0.069-0.042,0.139-0.063,0.208
			c-0.173,0.564,0.3,1.196,0.894,1.174c0.119-0.004,0.238-0.009,0.357-0.013c-0.272-0.475-0.545-0.95-0.818-1.425
			c-0.112,0.146-0.225,0.293-0.336,0.44c-0.514,0.675,0.338,1.723,1.105,1.437c0.173-0.065,0.347-0.129,0.521-0.194
			c-0.38-0.494-0.76-0.988-1.14-1.482c-0.113,0.211-0.219,0.426-0.319,0.643c-0.349,0.728,0.237,1.891,1.173,1.526
			c0.174-0.068,0.348-0.136,0.522-0.204c-0.337-0.579-0.674-1.158-1.011-1.737c-0.255,0.302-0.481,0.603-0.677,0.947
			c-0.312,0.546-0.052,1.398,0.621,1.526c0.082,0.016,0.164,0.031,0.246,0.047c-0.207-0.509-0.414-1.018-0.621-1.526
			c-0.129,0.304-0.258,0.609-0.387,0.914c-0.217,0.514,0.229,1.145,0.722,1.271c0.092,0.023,0.184,0.047,0.276,0.071
			c-0.24-0.423-0.48-0.846-0.72-1.268c-0.008,0.053-0.016,0.107-0.023,0.161c-0.073,0.497,0.054,0.868,0.473,1.163
			c0.597,0.419,1.22,0.218,1.716-0.248c-0.571-0.333-1.142-0.665-1.712-0.997c-0.41,0.978-0.249,2.663,1.239,2.248
			c-0.428-0.326-0.855-0.651-1.283-0.978c-0.017,0.074-0.034,0.149-0.051,0.224c-0.126,0.438,0.079,0.909,0.464,1.14
			c0.064,0.039,0.128,0.077,0.192,0.115c-0.154-0.2-0.309-0.4-0.463-0.602c0.012,0.053,0.024,0.106,0.036,0.159
			c0.085-0.321,0.17-0.642,0.255-0.963c0.122-0.143-0.519,0.391-0.649,0.523c0.225-0.094,0.449-0.187,0.673-0.279
			c0.573,0.033-0.669-0.4-0.881-0.471c-0.579-0.192-1.212-0.121-1.796-0.016c-1.02,0.182-0.789,1.921,0.245,1.813
			c0.749-0.079,1.321-0.365,1.598-1.102c0.107-0.285-0.012-0.688-0.234-0.888c-0.833-0.749-2.916-0.136-3.402,0.824
			c0.517,0.218,1.034,0.436,1.551,0.653c0.27-0.906,1.14-2.938-0.682-2.671c0.343,0.261,0.686,0.522,1.028,0.783
			c-0.001-0.273-0.003-0.547-0.004-0.821c-0.001-0.137-0.002-0.273-0.003-0.411c0.095-0.511-0.146-0.876-0.722-1.097
			c-0.178,0.403-0.19,0.813,0.021,1.201c0.183,0.336,0.556,0.43,0.906,0.369c0.348-0.061,0.626-0.266,0.929-0.441
			c-0.323-0.419-0.646-0.838-0.97-1.257c-0.256,0.289-0.519,0.567-0.789,0.842c-0.468,0.477-0.166,1.49,0.586,1.416
			c0.437-0.043,0.807-0.109,1.216-0.276c-0.285-0.49-0.57-0.979-0.854-1.468c-0.311,0.279-0.551,0.575-0.786,0.919
			c-0.567,0.827,0.501,1.641,1.266,1.266c0.35-0.171,0.699-0.343,1.048-0.514c-0.396-0.514-0.792-1.027-1.189-1.541
			c-0.448,0.447-0.725,0.923-0.915,1.526c-0.186,0.589,0.334,1.398,1.002,1.315c0.286-0.035,0.571-0.071,0.856-0.106
			c-0.254-0.613-0.508-1.227-0.762-1.84c-0.098,0.102-0.196,0.205-0.294,0.307c-0.832,0.869,0.291,2.481,1.33,1.723
			c0.408-0.298,0.704-0.595,1.002-1.002c0.713-0.977-0.629-2.051-1.553-1.553c-0.454,0.245-0.764,0.549-0.985,1.018
			c-0.427,0.906,0.263,1.89,1.282,1.667c0.483-0.106,0.737-0.28,1.121-0.583c0.836-0.663-0.064-2.149-1.042-1.79
			c-0.217,0.101-0.444,0.163-0.682,0.185c0.427,0.556,0.854,1.111,1.282,1.667c0.057-0.068,0.114-0.135,0.171-0.203
			c-0.518-0.518-1.035-1.035-1.553-1.553c-0.086,0.175-0.21,0.316-0.372,0.425c0.517,0.517,1.035,1.035,1.552,1.551
			c0.089-0.111,0.178-0.222,0.267-0.333c0.665-0.832,0.065-2.042-1.049-1.802c-0.282,0.061-0.564,0.122-0.846,0.183
			c0.426,0.426,0.853,0.852,1.278,1.278c0.022-0.262,0.121-0.492,0.298-0.691c0.679-0.816-0.184-2.16-1.189-1.541
			c-0.331,0.204-0.661,0.407-0.991,0.611c0.422,0.422,0.844,0.844,1.266,1.266c0.104-0.23,0.248-0.434,0.431-0.61
			c0.682-0.742-0.174-1.847-1.064-1.379c-0.235,0.141-0.488,0.225-0.759,0.253c0.269,0.462,0.538,0.924,0.807,1.386
			c0.243-0.3,0.49-0.595,0.748-0.883c0.597-0.667-0.158-1.723-0.97-1.257c-0.172,0.113-0.354,0.205-0.548,0.276
			c0.302,0.123,0.604,0.246,0.906,0.369c0.233,0.432,0.275-0.828,0.25-1.009c-0.078-0.564-0.818-0.76-1.271-0.74
			c-1.646,0.073-1.282,2.665-1.28,3.687c0,0.579,0.515,0.856,1.028,0.783c0.035-0.005,0.069-0.01,0.104-0.015
			c-0.263-0.07-0.527-0.14-0.791-0.209c0.027,0.027,0.054,0.055,0.081,0.083c-0.079-0.191-0.159-0.383-0.238-0.575
			c-0.047,0.357-0.314,0.848-0.457,1.167c-0.445,0.991,0.837,1.77,1.465,0.855c0.042-0.061,0.084-0.121,0.125-0.182
			c-0.172,0.132-0.344,0.264-0.516,0.396c0.46-0.169,1.085-0.408,1.575-0.437c-0.215-0.089-0.429-0.178-0.644-0.267
			c0.035,0.033,0.071,0.066,0.106,0.1c-0.078-0.296-0.156-0.592-0.234-0.888c0.054-0.087,0.108-0.173,0.162-0.26
			c0.082,0.604,0.164,1.208,0.245,1.813c1.089-0.169,2.249,1.36,3.106,0.047c-0.28,0.43,0.119,0.072,0.257-0.028
			c0.217-0.157,0.381-0.325,0.455-0.592c0.173-0.629-0.146-1.096-0.656-1.416c0.155,0.38,0.309,0.76,0.464,1.14
			c0.079-0.257,0.109-0.494,0.132-0.761c0.058-0.673-0.689-1.132-1.283-0.978c-0.035,0.009-0.07,0.019-0.105,0.027
			c0.26,0.034,0.521,0.068,0.782,0.103c-0.032-0.023-0.064-0.046-0.096-0.069c0.167,0.292,0.335,0.584,0.503,0.877
			c0.03-0.147,0.059-0.294,0.089-0.441c0.458-1.042-0.703-2.062-1.609-1.242c0.043-0.025,0.086-0.051,0.129-0.076
			c0.264,0.035,0.528,0.069,0.792,0.104c-0.049-0.036-0.099-0.072-0.149-0.109c0.158,0.388,0.315,0.775,0.473,1.163
			c0.009-0.053,0.018-0.106,0.026-0.16c0.091-0.554-0.136-1.107-0.72-1.268c-0.091-0.025-0.183-0.05-0.274-0.076
			c0.206,0.506,0.412,1.012,0.618,1.518c0.098-0.22,0.195-0.44,0.292-0.661c0.248-0.563,0.101-1.389-0.621-1.526
			c-0.082-0.016-0.164-0.031-0.246-0.047c0.207,0.509,0.414,1.018,0.621,1.526c0.094-0.191,0.211-0.367,0.353-0.526
			c0.598-0.708,0.052-2.153-1.011-1.737c-0.174,0.068-0.348,0.137-0.522,0.204c0.426,0.426,0.852,0.852,1.278,1.278
			c0.095-0.22,0.184-0.441,0.265-0.666c0.342-0.898-0.77-1.498-1.482-1.14c-0.166,0.083-0.332,0.167-0.497,0.25
			c0.446,0.446,0.892,0.892,1.338,1.338c0.094-0.157,0.188-0.314,0.283-0.472c0.471-0.783-0.298-1.507-1.07-1.392
			c-0.117,0.018-0.235,0.035-0.352,0.053c0.38,0.38,0.761,0.76,1.141,1.141c0.019-0.07,0.037-0.14,0.056-0.21
			c0.141-0.531-0.278-1.235-0.89-1.169c-0.484,0.053-0.775,0.13-1.217,0.333c0.367,0.476,0.734,0.952,1.101,1.427
			c0.102-0.086,0.204-0.173,0.307-0.259c0.808-0.683-0.224-1.892-1.093-1.416c-0.149,0.061-0.299,0.122-0.448,0.182
			c0.334,0.435,0.669,0.87,1.003,1.305c0.34-0.734,0.267-1.427-0.583-1.72c0.175,0.43,0.35,0.86,0.525,1.291
			c0.034-0.056,0.067-0.112,0.101-0.168c0.44-0.732-0.452-1.688-1.197-1.197c-0.268,0.176-0.537,0.336-0.82,0.486
			c0.347,0.449,0.693,0.898,1.04,1.347c0.142-0.134,0.285-0.269,0.427-0.403c0.759-0.715-0.203-1.681-1.027-1.331
			c-0.233,0.099-0.475,0.175-0.723,0.228c0.304,0.396,0.608,0.792,0.913,1.188c0.164-0.237,0.307-0.487,0.429-0.748
			c0.3-0.578-0.192-1.344-0.874-1.137c-0.306,0.093-0.498,0.174-0.771,0.339c0.302,0.392,0.604,0.783,0.906,1.175
			c0.263-0.216,0.526-0.433,0.789-0.65c0.548-0.452-0.037-1.401-0.688-1.182c-0.222,0.093-0.454,0.145-0.695,0.157
			C12.194,57.89,12.167,59.165,13.044,59.161L13.044,59.161z"/>
	</g>
</g>
<g opacity="0.9">
	<g>
		<path fill="#333333" d="M10.406,66.77c-0.042,0.127-0.085,0.254-0.127,0.381c-0.312,0.695,0.321,1.37,1.03,1.03
			c0.195-0.094,0.39-0.188,0.585-0.28c-0.368-0.367-0.736-0.735-1.104-1.104c-0.221,0.323-0.37,0.645-0.518,1.005
			c-0.255,0.622,0.494,1.283,1.086,1.086c0.442-0.147,0.86-0.324,1.275-0.535c-0.479-0.369-0.959-0.737-1.438-1.106
			c-0.036,0.113-0.071,0.226-0.106,0.338c-0.271,0.864,0.737,1.567,1.483,1.141c0.231-0.124,0.455-0.261,0.672-0.408
			c-0.424-0.55-0.849-1.1-1.273-1.649c-0.143,0.183-0.287,0.365-0.43,0.548c-0.625,0.794-0.081,2.085,1.039,1.784
			c0.313-0.084,0.625-0.168,0.937-0.252c-0.447-0.447-0.895-0.896-1.343-1.343c-0.074,0.177-0.147,0.354-0.221,0.531
			c-0.426,0.86,0.267,1.893,1.257,1.636c0.299-0.078,0.598-0.156,0.897-0.233c-0.466-0.466-0.932-0.932-1.398-1.397
			c-0.028,0.103-0.057,0.205-0.085,0.308c-0.526,0.978,0.561,2.222,1.577,1.577c0.327-0.208,0.656-0.406,0.992-0.599
			c-0.579-0.444-1.157-0.889-1.735-1.334c-0.048,0.128-0.096,0.255-0.145,0.383c-0.391,1.032,0.908,1.811,1.75,1.345
			c0.298-0.164,0.596-0.329,0.894-0.495c-0.41-0.7-0.819-1.401-1.229-2.102c-0.143,0.105-0.287,0.212-0.43,0.317
			c-1.27,0.936-0.208,2.818,1.242,2.125c0.063-0.029,0.125-0.06,0.187-0.089c-0.319,0.041-0.637,0.083-0.956,0.125
			c0.026,0.012,0.053,0.023,0.079,0.036c-0.194-0.252-0.387-0.503-0.581-0.755c0.026,0.063,0.052,0.128,0.078,0.191
			c0.322,0.787,1.056,1.137,1.851,0.753c0.25-0.096,0.477-0.23,0.679-0.407c-0.611-0.47-1.222-0.939-1.833-1.409
			c-0.03,0.097-0.059,0.193-0.088,0.29c-0.307,1.002,0.917,2.026,1.826,1.403c0.249-0.17,0.498-0.34,0.747-0.51
			c-0.497-0.645-0.994-1.288-1.491-1.933c-0.527,0.591-0.883,1.211-1.009,2.001c0.797,0.107,1.593,0.216,2.39,0.323
			c0.001-0.01,0.002-0.02,0.003-0.029c-0.513,0.391-1.027,0.781-1.54,1.173c0.018,0.004,0.037,0.008,0.055,0.012
			c-0.283-0.499-0.566-0.997-0.849-1.496c-0.011,0.054-0.022,0.107-0.033,0.161c-0.106,0.521,0.056,1.106,0.558,1.372
			c0.019,0.01,0.038,0.02,0.057,0.029c0.554,0.294,1.356,0.175,1.661-0.436c0.005-0.011,0.011-0.021,0.016-0.032
			c0.543-1.088-0.554-2.247-1.661-1.66c-0.24,0.127-0.48,0.255-0.72,0.383c0.406,0.694,0.813,1.39,1.219,2.084
			c0.127-0.085,0.254-0.171,0.382-0.257c-0.486-0.63-0.972-1.26-1.458-1.89c-0.014-0.015-0.029-0.029-0.043-0.044
			c0.491,0.491,0.982,0.982,1.474,1.474c0.025-0.073,0.05-0.147,0.075-0.221c0.306-0.899-0.635-1.674-1.471-1.472
			c-0.532,0.129-1.022,0.327-1.504,0.587c0.58,0.236,1.161,0.473,1.741,0.708c-0.014-0.078-0.027-0.157-0.041-0.235
			c-0.067-0.388-0.458-0.734-0.827-0.826c-0.339-0.086-0.607-0.037-0.945-0.046c0.276,0.115,0.553,0.229,0.83,0.344
			c-0.039-0.047-0.078-0.094-0.117-0.141c0.115,0.276,0.229,0.552,0.343,0.828c0.002-0.05,0.005-0.1,0.008-0.149
			c0.019-0.38-0.23-0.843-0.579-1.01c-0.955-0.456-2.273-0.34-2.952,0.535c0.603,0.465,1.206,0.931,1.809,1.396
			c0.176-0.234,0.268-0.466,0.376-0.737c0.34-0.849-0.645-1.626-1.419-1.419c-0.583,0.156-0.998,0.404-1.449,0.8
			c0.658,0.272,1.316,0.545,1.974,0.817c0.007-0.137,0.014-0.274,0.021-0.411c0.061-1.208-1.566-1.501-2.157-0.584
			c-0.208,0.323-0.271,0.604-0.283,0.986c-0.042,1.321,1.937,1.561,2.276,0.308c0.205-0.757,0.204-1.439-0.017-2.194
			c-0.271,0.478-0.542,0.954-0.812,1.431c0.323-0.104,0.655-0.213,0.958-0.367c0.22-0.101,0.431-0.219,0.633-0.353
			c0.405-0.233,0.393-0.28-0.038-0.139c-0.336-0.192-0.672-0.386-1.007-0.578c0.356,0.513,0.491,0.931,1.189,1.049
			c0.87,0.147,1.51-0.377,1.879-1.125c0.663-1.345-1.349-2.527-2.015-1.178c0.158-0.321,1.683,1.114,0.961,0.076
			c-0.23-0.332-0.578-0.6-1.007-0.578c-0.828,0.042-1.399,0.695-2.172,0.95c-0.591,0.194-1,0.801-0.812,1.431
			c0.146,0.316,0.155,0.636,0.024,0.96c0.759,0.103,1.517,0.205,2.276,0.308c-0.012,0.061-0.023,0.121-0.035,0.182
			c-0.719-0.194-1.438-0.39-2.157-0.584c-0.006,0.137-0.012,0.274-0.019,0.411c-0.048,1.07,1.264,1.446,1.974,0.817
			c0.143-0.07,0.285-0.14,0.428-0.21c-0.473-0.473-0.946-0.946-1.419-1.419c-0.047,0.063-0.094,0.125-0.141,0.188
			c-0.892,1.202,1.103,2.317,1.989,1.162c0.071,0.145,0.058,0.174-0.038,0.089c-0.193-0.337-0.386-0.673-0.579-1.01
			c-0.038,0.478,0.165,0.765,0.444,1.123c0.188,0.24,0.546,0.328,0.831,0.344c0.157,0.009,0.836,0.123,0.316-0.021
			c-0.275-0.275-0.551-0.551-0.827-0.826c0.013,0.079,0.025,0.158,0.037,0.237c0.125,0.797,1.127,1.025,1.741,0.708
			c0.314-0.162,0.6-0.25,0.943-0.327c-0.49-0.49-0.981-0.98-1.471-1.472c-0.026,0.074-0.053,0.147-0.079,0.221
			c-0.336,0.938,0.656,1.62,1.474,1.474c0.367-0.065,0.569-0.149,0.865-0.377c1.189-0.916,0.122-2.946-1.215-2.078
			c-0.128,0.084-0.257,0.167-0.386,0.251c-1.308,0.85-0.168,2.794,1.219,2.084c0.242-0.124,0.484-0.247,0.727-0.371
			c-0.554-0.554-1.107-1.106-1.661-1.66c-0.006,0.011-0.011,0.021-0.017,0.031c0.554-0.145,1.107-0.29,1.661-0.436
			c-0.018-0.01-0.037-0.021-0.055-0.03c0.186,0.457,0.372,0.914,0.558,1.372c0.012-0.054,0.023-0.107,0.035-0.161
			c0.138-0.625-0.179-1.342-0.849-1.496c-0.018-0.004-0.036-0.008-0.054-0.013c-0.835-0.192-1.448,0.375-1.54,1.174
			c-0.001,0.01-0.002,0.02-0.003,0.029c-0.157,1.361,2.153,1.668,2.39,0.323c0.066-0.374,0.139-0.622,0.403-0.907
			c0.92-0.998-0.275-2.714-1.491-1.933c-0.253,0.163-0.506,0.325-0.759,0.488c0.609,0.468,1.217,0.936,1.826,1.403
			c0.033-0.095,0.065-0.19,0.097-0.286c0.342-1.011-0.939-2.021-1.833-1.409c-0.207,0.17-0.437,0.299-0.69,0.386
			c0.617,0.251,1.233,0.502,1.851,0.753c-0.398-1.061-1.448-1.586-2.479-0.964c0.497,0.645,0.994,1.288,1.491,1.933
			c0.138-0.113,0.275-0.226,0.413-0.339c1.082-0.885-0.318-2.632-1.475-1.911c-0.289,0.181-0.578,0.36-0.868,0.54
			c0.583,0.448,1.167,0.896,1.75,1.345c0.042-0.129,0.083-0.258,0.125-0.387c0.315-0.977-0.874-1.886-1.735-1.334
			c-0.327,0.209-0.646,0.424-0.963,0.647c0.525,0.525,1.051,1.051,1.577,1.577c0.192-0.405,0.274-0.726,0.328-1.17
			c0.089-0.731-0.793-1.298-1.439-1.096c-0.295,0.092-0.59,0.184-0.884,0.276c0.419,0.546,0.838,1.091,1.257,1.636
			c0.158-0.363,0.293-0.692,0.404-1.074c0.226-0.776-0.548-1.6-1.343-1.343c-0.308,0.1-0.616,0.199-0.924,0.299
			c0.402,0.522,0.804,1.045,1.206,1.568c0.135-0.189,0.269-0.38,0.403-0.569c0.597-0.846-0.591-2.044-1.437-1.438
			c-0.286,0.206-0.56,0.417-0.835,0.637c0.574,0.238,1.149,0.476,1.724,0.714c0.015-0.115,0.03-0.23,0.045-0.346
			c0.093-0.707-0.913-1.263-1.473-0.846c-0.313,0.234-0.622,0.43-0.967,0.613c0.432,0.332,0.864,0.664,1.296,0.996
			c0.037-0.229,0.106-0.449,0.209-0.659c0.305-0.659-0.375-1.615-1.104-1.104c-0.177,0.123-0.354,0.248-0.53,0.372
			c0.369,0.283,0.737,0.567,1.106,0.851c0.069-0.267,0.104-0.501,0.132-0.774C11.874,66.147,10.613,66.027,10.406,66.77
			L10.406,66.77z"/>
	</g>
</g>
<g opacity="0.9">
	<g>
		<path fill="#6D6B6B" d="M28.514,49.233c0.238-0.125,0.477-0.251,0.715-0.377c0.565-0.299,0.49-1.324-0.188-1.435
			c0.019,0.296,0.037,0.592,0.056,0.888c0.744-0.499,0.294-1.82-0.637-1.509c-0.099,0.033-0.197,0.066-0.296,0.099
			c-0.266,0.089-0.528,0.294-0.586,0.586c-0.021,0.102-0.041,0.205-0.061,0.307c-0.074,0.375,0.042,0.764,0.392,0.962
			c0.567,0.323,0.854,0.286,1.438,0.027c-0.374-0.485-0.749-0.971-1.123-1.456c-0.584,0.725-1.02,1.299-1.553,2.063
			c-0.595,0.852,0.381,1.724,1.212,1.577c-0.366-0.147-0.732-0.293-1.099-0.44c-0.769,1.13,0.85,2.136,1.771,1.367
			c0.308-0.256,0.614-0.512,0.921-0.768c-0.647-0.377-1.294-0.753-1.941-1.13c-0.327,1.024-0.671,2.025-0.719,3.114
			c-0.038,0.852,0.595,5.016,0.05,5.526c-0.779,0.729-0.626,1.712-0.086,2.474c0.34,0.481,0.821,0.705,1.409,0.574
			c0.153-0.034,0.306-0.067,0.459-0.102c-0.472-0.612-0.942-1.225-1.413-1.837c-0.334,0.447-0.668,0.894-1.002,1.341
			c-0.335,0.448-0.169,1.159,0.197,1.527c0.57,0.575,0.913,0.701,1.72,0.734c-0.298-0.72-0.597-1.44-0.895-2.16
			c-1.181,1.315-0.558,1.685-1.272,2.811c-0.352,0.553-0.155,1.46,0.46,1.753c-0.154,0.077-0.309,0.154-0.462,0.231
			c-0.309,0.477-0.205,1.186,0.202,1.57c0.209,0.401,0.022,0.756-0.56,1.063c-0.971,1.402,1.297,2.688,2.27,1.326
			c0.065-0.093,0.132-0.186,0.198-0.278c-0.6,0.157-1.2,0.314-1.8,0.472c-0.057-1.115-0.295-1.322-0.715-0.621
			c-0.301,0.335-0.346,0.621-0.409,1.059c-0.103,0.71,0.163,1.434,0.928,1.635c-0.577-0.151-2.838,6.381,1.33,5.141
			c-0.512-0.664-1.022-1.329-1.533-1.994c-0.275,0.547-0.551,1.093-0.826,1.64c-0.405,0.803-0.062,1.729,0.815,2.004
			c-0.82-0.258-1.987,5.814-2.133,6.396c-0.309,1.223,0.967,2.144,2.052,1.577c0.404-0.211,0.808-0.421,1.212-0.632
			c-0.64-0.64-1.279-1.279-1.919-1.919c-0.202,0.394-0.404,0.786-0.606,1.18c-0.704,1.369,1.092,2.938,2.21,1.705
			c0.26-0.287,0.52-0.574,0.779-0.861c-0.785-0.457-1.57-0.914-2.355-1.371c-0.559,1.911-1.435,3.87-1.407,5.879
			c0.009,0.656,0.432,1.172,1.043,1.37c0.126,0.041,0.253,0.083,0.379,0.124c0.445,0.145,1.075-0.001,1.384-0.366
			c0.072-0.086,0.146-0.172,0.218-0.259c-0.745-0.574-1.489-1.149-2.234-1.724c-0.444,0.658-0.888,1.317-1.332,1.977
			c-0.867,1.289,0.77,2.52,1.954,1.954c0.396-0.19,0.793-0.38,1.189-0.569c-0.7-0.539-1.4-1.077-2.102-1.615
			c-0.152,0.654-0.305,1.308-0.458,1.962c-0.254,1.087,0.68,2.018,1.766,1.766c0.433-0.101,0.864-0.201,1.297-0.301
			c-0.589-0.59-1.179-1.18-1.769-1.769c-0.572,2.535-2.792,7.495-1.84,10.115c1.37,3.769-0.233,7.495,1.025,11.208
			c0.578,1.705,3.17,1.022,2.713-0.748c-0.712-2.758-0.046-5.322-0.111-8.104c-0.098-4.16,0.127-7.62,0.986-11.707
			c0.228-1.083-0.663-2.029-1.769-1.769c-0.433,0.103-0.864,0.205-1.297,0.307c0.589,0.589,1.177,1.177,1.766,1.766
			c0.15-0.655,0.3-1.311,0.45-1.966c0.292-1.277-0.969-2.163-2.102-1.615c-0.396,0.191-0.792,0.383-1.188,0.573
			c0.651,0.651,1.303,1.303,1.954,1.954c0.44-0.661,0.882-1.321,1.322-1.982c0.893-1.337-1.195-2.966-2.234-1.724
			c0.262-0.076,0.524-0.152,0.787-0.228c0.348,0.456,0.695,0.913,1.043,1.37c-0.028-1.621,0.839-3.582,1.284-5.129
			c0.38-1.32-1.398-2.438-2.355-1.371c-0.26,0.287-0.519,0.575-0.777,0.863c0.737,0.568,1.474,1.137,2.21,1.705
			c0.199-0.395,0.398-0.789,0.599-1.184c0.635-1.257-0.645-2.596-1.919-1.919c-0.401,0.214-0.804,0.428-1.206,0.642
			c0.684,0.525,1.368,1.052,2.052,1.577c0.67-2.744,2.049-5.827,1.612-8.663c-0.071-0.465-0.537-0.827-0.954-0.955
			c-0.165-0.05-0.329-0.101-0.494-0.15c0.272,0.668,0.544,1.336,0.815,2.004c0.271-0.549,0.543-1.098,0.814-1.646
			c0.501-1.014-0.32-2.365-1.533-1.994c1.705-0.521,2.212-2.919,1.371-4.354c-1.055-1.799-0.094,1.979,0.545-0.831
			c0.125-0.547-0.063-1.223-0.605-1.488c-0.131-0.064-0.263-0.129-0.394-0.193c-0.685-0.336-1.367-0.149-1.8,0.472
			c-0.065,0.094-0.131,0.187-0.196,0.28c0.757,0.442,1.513,0.884,2.27,1.326c0.408-0.604,0.817-1.207,1.226-1.811
			c0.316-0.467,0.203-1.201-0.203-1.578c-0.667-0.617,0.502-2.235-1.18-3.016c0.153,0.584,0.307,1.169,0.46,1.753
			c0.381-0.614,0.44-1.85,0.849-2.314c0.726-0.827,0.249-2.125-0.895-2.16c0.415,0.064,0.83,0.127,1.245,0.191
			c0.693-0.949-0.442-2.063-1.413-1.837c0.388-0.09,1.517,1.536,1.435-0.064c-0.149-2.902-0.389-5.64,0.358-8.492
			c0.3-1.146-1.097-1.919-1.941-1.13c-0.291,0.272-0.582,0.544-0.872,0.816c0.59,0.456,1.181,0.911,1.771,1.367
			c0.173-0.288,0.346-0.576,0.519-0.863c0.184-0.305,0.229-0.81,0-1.109c-0.1-0.131-0.2-0.263-0.3-0.394
			c-0.309-0.406-0.704-0.622-1.226-0.499c-0.138,0.032-0.275,0.064-0.412,0.097c0.404,0.526,0.808,1.051,1.212,1.577
			c0.432-0.648,0.816-1.322,1.155-2.023c0.485-0.924-0.688-1.877-1.456-1.123c0.29,0.328,0.581,0.656,0.872,0.984
			c-0.334-0.432-0.667-0.864-1.001-1.297c-0.076,0.061-0.152,0.122-0.229,0.183c-0.216,0.171-0.287,0.54-0.21,0.791
			c0.038,0.123,0.075,0.246,0.113,0.368c0.11,0.361,0.402,0.557,0.769,0.585c0.098,0.008,0.195,0.016,0.293,0.023
			c-0.132-0.488-0.264-0.976-0.396-1.463c-0.227,0.145-0.453,0.29-0.68,0.436C26.939,48.458,27.655,49.687,28.514,49.233
			L28.514,49.233z"/>
	</g>
</g>
<g opacity="0.9">
	<g>
		<path fill="#A4A2A2" d="M13.884,16.975c0.422-0.024,0.829-0.119,1.218-0.286c-0.409-0.532-0.818-1.064-1.228-1.596
			c-0.165,0.137-0.33,0.274-0.495,0.412c0.409,0.532,0.818,1.064,1.228,1.596c0.195-0.276,0.391-0.553,0.586-0.83
			c-0.512-0.512-1.025-1.025-1.537-1.537c-0.316,0.384-0.633,0.769-0.949,1.153c-0.81,0.985,0.177,2.2,1.317,1.707
			c0.632-0.273,1.264-0.547,1.896-0.82c-0.532-0.409-1.064-0.818-1.596-1.228c-0.039,0.262-0.077,0.523-0.115,0.785
			c-0.119,0.806,0.462,1.554,1.337,1.337c0.577-0.102,1.128-0.28,1.655-0.535c-0.353-0.605-0.705-1.211-1.058-1.816
			c-0.191,0.236-0.382,0.472-0.573,0.708c-0.773,0.954,0.176,2.339,1.335,1.731c0.376-0.172,0.751-0.345,1.127-0.518
			c-0.426-0.553-0.851-1.106-1.276-1.66c-0.249,0.309-0.497,0.617-0.745,0.926c-0.906,0.943,0.251,2.488,1.401,1.816
			c0.795-0.465,1.59-0.931,2.385-1.396c-0.55-0.55-1.1-1.1-1.649-1.649c-0.195,0.233-0.389,0.465-0.584,0.698
			c0.643,0.496,1.285,0.992,1.928,1.488c0.284-0.536,0.701-0.896,1.252-1.082c-0.513-0.665-1.025-1.329-1.538-1.994
			c-0.65,0.652-1.303,1.303-1.956,1.953c-1.052,1.048,0.338,2.96,1.615,2.093c1.015-0.689,2.06-1.25,3.186-1.738
			c-0.636-0.637-1.272-1.273-1.909-1.909c-0.311,0.426-0.621,0.852-0.932,1.279c-0.865,1.189,0.775,2.57,1.919,1.918
			c0.904-0.516,1.81-1.033,2.715-1.549c-0.571-0.74-1.143-1.481-1.714-2.221c-0.434,0.479-0.867,0.959-1.301,1.438
			c-0.879,0.972-0.043,2.909,1.384,2.377c0.689-0.257,1.38-0.514,2.069-0.771c-0.587-0.587-1.174-1.174-1.761-1.761
			c-0.161,0.314-0.322,0.629-0.483,0.944c-0.854,1.188,0.796,2.71,1.967,1.966c0.788-0.5,1.582-0.92,2.439-1.291
			c-0.661-0.661-1.321-1.321-1.982-1.981c-0.227,0.267-0.454,0.533-0.682,0.8c-1.601,1.027-0.216,3.28,1.467,2.509
			c0.336-0.154,0.671-0.308,1.007-0.463c-0.659-0.659-1.318-1.318-1.978-1.977c-0.228,0.169-0.456,0.337-0.684,0.506
			c-1.084,0.539-0.854,2.385,0.343,2.621c0.049,0.01,0.098,0.019,0.146,0.029c0.784,0.154,1.521-0.213,1.763-1.001
			c0.019-0.062,0.038-0.124,0.058-0.187c0.174-0.568-0.096-1.354-0.658-1.617c-1.097-0.511-2.049-0.104-3.096,0.378
			c-1.171,0.539-0.611,2.552,0.661,2.442c-0.284,0.024,1.566-0.069,0.989-0.348c-0.219-0.539-0.438-1.078-0.658-1.617
			c-0.02,0.062-0.039,0.124-0.06,0.186c0.588-0.333,1.175-0.667,1.763-1c-0.049-0.011-0.098-0.021-0.146-0.031
			c0.114,0.874,0.229,1.748,0.343,2.621c0.767-0.368,1.233-0.846,1.732-1.523c0.961-1.306-0.82-2.491-1.978-1.977
			c-0.338,0.15-0.676,0.3-1.015,0.449c0.489,0.836,0.978,1.672,1.467,2.509c0.786-0.502,1.295-1.01,1.717-1.847
			c0.689-1.369-0.666-2.563-1.982-1.981c-0.853,0.377-1.644,0.804-2.428,1.311c0.655,0.655,1.312,1.311,1.967,1.966
			c0.442-0.626,0.552-0.897,0.761-1.634c0.277-0.975-0.717-2.16-1.761-1.761c-0.688,0.264-1.376,0.526-2.063,0.789
			c0.461,0.792,0.923,1.585,1.384,2.377c0.43-0.483,0.859-0.967,1.289-1.45c1.048-1.178-0.278-3.055-1.714-2.221
			c-0.901,0.523-1.802,1.047-2.703,1.57c0.64,0.639,1.279,1.279,1.919,1.918c0.306-0.429,0.613-0.857,0.92-1.286
			c0.909-1.27-0.782-2.408-1.909-1.909c-1.131,0.5-2.135,1.104-3.123,1.846c0.538,0.698,1.077,1.396,1.615,2.093
			c0.621-0.682,1.243-1.363,1.866-2.043c0.981-1.069-0.252-2.681-1.538-1.994c-0.926,0.494-1.566,1.128-2.09,2.035
			c-0.692,1.198,0.957,2.514,1.928,1.488c0.402-0.425,0.627-0.717,0.93-1.218c0.616-1.019-0.62-2.302-1.649-1.649
			c-0.778,0.494-1.557,0.987-2.335,1.481c0.467,0.605,0.934,1.211,1.401,1.816c0.46-0.515,0.702-0.831,1.062-1.42
			c0.649-1.065-0.584-1.954-1.546-1.546c-0.483,0.173-0.939,0.399-1.369,0.679c0.502,0.502,1.005,1.005,1.508,1.508
			c0.183-0.242,0.366-0.484,0.549-0.727c0.559-0.738-0.373-1.94-1.228-1.596c-0.527,0.255-1.079,0.433-1.655,0.535
			c0.446,0.445,0.892,0.891,1.337,1.337c0.039-0.262,0.077-0.523,0.115-0.785c0.145-0.987-0.677-1.625-1.596-1.228
			c-0.632,0.273-1.264,0.547-1.896,0.82c0.439,0.569,0.878,1.138,1.317,1.707c0.316-0.385,0.632-0.769,0.949-1.153
			c0.88-1.068-0.49-2.502-1.537-1.537c-0.547,0.504-0.621,0.591-0.926,1.27c-0.352,0.784,0.23,1.944,1.228,1.596
			c0.832-0.29,1.32-0.656,1.794-1.411c0.497-0.79-0.323-1.895-1.228-1.596c-0.389,0.167-0.795,0.262-1.218,0.286
			C11.923,15.078,12.513,17.172,13.884,16.975L13.884,16.975z"/>
	</g>
</g>
<g opacity="0.9">
	<g>
		<path fill="#A4A2A2" d="M17.779,10.94c0.375,0.217,0.74,0.315,1.172,0.323c-0.25-0.328-0.5-0.657-0.751-0.985
			c-0.063,0.252-0.14,0.457-0.31,0.66c-0.463,0.556-0.046,1.613,0.772,1.327c1.45-0.505,3.438-1.543,3.878-3.133
			c0.157-0.568-0.492-1.101-1.01-0.776c-0.58,0.363-0.973,0.887-1.486,1.335c-0.521,0.454-1.162,0.799-1.804,1.042
			c0.258,0.442,0.515,0.885,0.772,1.327c0.334-0.424,0.569-0.838,0.688-1.369c0.108-0.487-0.226-0.99-0.751-0.985
			C18.807,9.73,18.674,9.7,18.554,9.615C17.685,9.143,16.921,10.443,17.779,10.94L17.779,10.94z"/>
	</g>
</g>
<g opacity="0.9">
	<g>
		<path fill="#CDCBCB" d="M10.438,23.733c1.275,0.255,1.203,0.287,2.443-0.114c-0.332-0.432-0.664-0.864-0.996-1.296
			c-0.288,0.523-0.575,1.047-0.862,1.57c-0.509,0.929,0.688,1.855,1.456,1.123c0.367-0.265,0.733-0.529,1.099-0.794
			c-0.444-0.445-0.889-0.889-1.333-1.333c-0.292,0.565-0.583,1.131-0.875,1.697c-0.569,1.104,0.724,1.968,1.63,1.258
			c0.599-0.4,1.199-0.801,1.798-1.201c-0.487-0.487-0.973-0.973-1.46-1.46c-0.445,0.493-0.89,0.985-1.334,1.478
			c-0.916,0.841,0.264,2.319,1.311,1.698c0.587-0.349,0.817-0.526,1.305-1.005c1.009-0.99-0.505-2.481-1.541-1.541
			c-0.707,0.642-0.917,0.906-1.496,1.667c-0.745,0.98,0.631,1.909,1.508,1.508c0.637-0.292,0.802-0.426,1.318-0.898
			c-0.582-0.449-1.163-0.897-1.744-1.346c-0.55,0.829-1.107,1.288-0.848,2.241c0.154,0.565,0.8,0.976,1.378,0.783
			c0.012-0.004,0.024-0.008,0.036-0.012c-0.363-0.625-0.727-1.249-1.09-1.873c-0.384,0.482-0.769,0.963-1.153,1.445
			c-0.742,0.931,0.219,2.553,1.372,1.778c0.508-0.341,1.017-0.682,1.524-1.023c-0.462-0.599-0.924-1.197-1.386-1.796
			c-0.74,0.918-1.502,1.784-2.319,2.634c-0.967,1.007,0.246,2.358,1.413,1.831c0.797-0.27,1.512-0.683,2.145-1.239
			c-0.539-0.539-1.077-1.078-1.616-1.616c-0.481,0.859-0.601,1.141-0.884,2.084c-0.278,0.928,0.613,1.635,1.468,1.468
			c0.386-0.076,0.772-0.151,1.158-0.227c-0.493-0.492-0.985-0.984-1.477-1.477c-0.325,0.521-0.65,1.043-0.976,1.565
			c-0.739,0.854-0.057,2.449,1.183,2.033c0.308-0.103,0.615-0.207,0.922-0.31c-0.46-0.599-0.92-1.197-1.38-1.795
			c-0.293,0.747-0.655,1.459-1.085,2.137c-0.605,1.063,0.613,2.338,1.69,1.69c0.534-0.322,1.068-0.644,1.602-0.965
			c-0.566-0.566-1.133-1.133-1.7-1.7c-0.275,0.771-0.725,1.432-1.348,1.981c-0.976,1.003,0.294,2.754,1.52,1.969
			c0.237-0.152,0.475-0.304,0.711-0.456c-0.508-0.658-1.016-1.316-1.523-1.974c-0.882,0.865-1.439,1.634-1.946,2.781
			c-0.537,1.215,0.537,2.245,1.737,1.737c0.487-0.206,0.974-0.412,1.461-0.617c-0.582-0.582-1.164-1.164-1.746-1.746
			c-0.532,0.704-1.065,1.408-1.597,2.112c-0.667,0.882,0.442,2.282,1.454,1.89c0.355-0.137,0.711-0.275,1.066-0.413
			c-0.486-0.632-0.972-1.265-1.458-1.897c-0.284,0.776-0.702,1.472-1.254,2.087c-0.712,0.961,0.456,2.198,1.474,1.917
			c0.466-0.128,0.932-0.257,1.398-0.386c-0.495-0.644-0.99-1.288-1.485-1.931c-0.192,0.375-0.383,0.749-0.575,1.123
			c-0.409,0.798,0.073,2.11,1.142,1.99c0.354-0.04,0.708-0.079,1.063-0.119c-0.383-0.667-0.766-1.334-1.148-2
			c-0.18,0.239-0.36,0.479-0.541,0.719c-0.858,1.142,0.749,2.409,1.827,1.827c0.326-0.176,0.652-0.352,0.978-0.527
			c-0.658-0.267-1.315-0.535-1.973-0.802c1.031,3.193,4.722,1.7,7.149,1.996c-0.39-0.679-0.779-1.358-1.169-2.037
			c-0.035,0.046-0.069,0.092-0.104,0.138c0.708-0.091,1.415-0.182,2.123-0.273c0.97,0.828,1.494-2.13,1.63-2.5
			c0.45-1.227-1.312-2.181-2.161-1.258c-0.447,0.484-0.894,0.969-1.339,1.455c0.662,0.511,1.324,1.022,1.987,1.533
			c0.392-0.685,0.796-1.364,1.211-2.035c0.422-0.697,0.021-1.623-0.748-1.839c-0.325-0.091-0.65-0.183-0.976-0.274
			c0.25,0.615,0.5,1.23,0.751,1.846c0.448-0.588,0.896-1.176,1.346-1.765c0.557-0.73-0.189-2.009-1.094-1.906
			c-0.787,0.09-1.124,0.152-1.793,0.588c0.581,0.581,1.161,1.161,1.741,1.741c0.408-0.699,0.816-1.399,1.225-2.099
			c0.518-0.889-0.356-2.332-1.449-1.885c-0.746,0.304-1.12,0.517-1.733,1.04c0.676,0.521,1.351,1.042,2.025,1.563
			c0.34-0.765,0.679-1.529,1.019-2.294c0.367-0.825-0.041-2.026-1.123-1.958c-0.372,0.023-0.743,0.047-1.115,0.07
			c0.308,0.743,0.616,1.486,0.924,2.23c0.641-0.814,1.28-1.627,1.921-2.441c0.821-1.043,0.079-2.463-1.284-2.207
			c-0.989,0.186-1.123,0.25-1.983,0.771c0.606,0.606,1.212,1.212,1.818,1.818c0.34-0.588,0.68-1.175,1.021-1.762
			c0.588-1.014-0.374-2.282-1.511-1.966c-0.384,0.107-0.767,0.213-1.15,0.32c0.506,0.658,1.012,1.316,1.518,1.974
			c0.49-0.866,0.918-1.729,1.313-2.643c0.538-1.247-0.564-2.486-1.856-1.857c-0.379,0.184-0.758,0.368-1.136,0.553
			c0.621,0.622,1.243,1.243,1.864,1.865c0.273-0.627,0.621-1.209,1.044-1.746c0.874-1.268-0.757-2.359-1.877-1.878
			c-0.529,0.227-1.059,0.454-1.587,0.682c0.676,0.52,1.352,1.039,2.027,1.559c0.218-0.354,0.436-0.707,0.653-1.061
			c1.008-1.168-0.259-2.994-1.684-2.182c-0.395,0.225-0.79,0.45-1.185,0.675c0.563,0.73,1.127,1.461,1.691,2.192
			c0.455-0.55,0.91-1.101,1.367-1.65c0.907-1.094,0.06-2.63-1.368-2.349c-0.934,0.184-1.183,0.342-1.836,1.03
			c-1.164,1.224,0.293,2.857,1.711,2.218c0.933-0.421,1.065-0.537,1.794-1.255c-0.792-0.209-1.583-0.418-2.375-0.627
			c0.041,0.277,0.081,0.553,0.122,0.83c0.086,0.59,0.755,0.979,1.299,0.989c0.225,0.004,0.449,0.008,0.674,0.012
			c1.468,0.026,1.569-1.951,0.327-2.418c-0.214-0.08-0.429-0.161-0.643-0.241c0.329,0.433,0.659,0.866,0.989,1.299
			c0.007-0.283,0.015-0.566,0.022-0.849c0.033-1.25-1.567-1.866-2.426-1.004c-0.403,0.275-0.807,0.55-1.21,0.825
			c0.57,0.739,1.141,1.479,1.712,2.218c0.195-0.105,0.391-0.211,0.587-0.316c-0.456-0.783-0.912-1.566-1.368-2.349
			c-0.451,0.554-0.902,1.109-1.353,1.664c-0.958,1.178,0.239,3.038,1.691,2.192c0.394-0.229,0.786-0.458,1.179-0.686
			c-0.562-0.728-1.122-1.455-1.684-2.182c-0.735,0.868-0.943,1.229-1.351,2.291c-0.486,1.27,1.06,1.985,2.027,1.559
			c0.526-0.232,1.053-0.464,1.579-0.695c-0.626-0.626-1.252-1.252-1.877-1.878c-0.419,0.542-0.761,1.126-1.028,1.756
			c-0.625,1.245,0.622,2.483,1.864,1.865c0.377-0.188,0.754-0.375,1.13-0.563c-0.664-0.511-1.329-1.022-1.993-1.533
			c-0.326,0.807-0.71,1.584-1.152,2.332c-0.561,1.013,0.357,2.308,1.518,1.974c0.382-0.11,0.765-0.221,1.146-0.331
			c-0.504-0.655-1.007-1.311-1.511-1.966c-0.336,0.59-0.67,1.181-1.005,1.771c-0.643,1.135,0.66,2.536,1.818,1.818
			c0.447-0.173,0.896-0.346,1.343-0.52c-0.497-0.646-0.994-1.293-1.491-1.94c-0.633,0.819-1.266,1.639-1.898,2.458
			c-0.598,0.774,0.21,2.032,1.128,1.965c0.372-0.027,0.743-0.053,1.115-0.08c-0.374-0.653-0.749-1.305-1.123-1.958
			c-0.334,0.769-0.667,1.537-0.999,2.306c-0.575,1.328,0.869,2.567,2.025,1.563c0.197-0.13,0.395-0.26,0.591-0.39
			c-0.482-0.628-0.966-1.257-1.449-1.885c-0.401,0.704-0.803,1.407-1.205,2.11c-0.608,1.063,0.645,2.47,1.741,1.741
			c0.169-0.084,0.338-0.168,0.508-0.252c-0.364-0.635-0.729-1.271-1.094-1.906c-0.442,0.591-0.885,1.183-1.328,1.774
			c-0.494,0.661,0.033,1.651,0.751,1.846c0.326,0.088,0.652,0.177,0.978,0.265c-0.249-0.613-0.498-1.226-0.748-1.839
			c-0.399,0.681-0.812,1.354-1.234,2.021c-0.765,1.229,0.988,2.56,1.987,1.533c0.459-0.472,0.918-0.943,1.378-1.415
			c-0.72-0.419-1.44-0.839-2.161-1.258c-0.494,1.236-0.987,2.472-1.481,3.708c-0.167,0.417,0.024,1.021,0.347,1.313
			c0.029,0.026,0.058,0.052,0.087,0.078c0.498,0.45,1.436,0.598,1.912,0c0.035-0.045,0.071-0.09,0.106-0.135
			c0.551-0.693,0.525-2.094-0.597-2.263c-1.273-0.191-4.714,0.561-4.92-0.05c-0.28-0.829-1.183-1.241-1.973-0.802
			c-0.323,0.18-0.646,0.359-0.97,0.539c0.609,0.609,1.218,1.218,1.827,1.827c0.177-0.241,0.354-0.483,0.53-0.725
			c0.561-0.767-0.182-2.122-1.148-2c-0.354,0.044-0.708,0.088-1.063,0.133c0.381,0.664,0.762,1.327,1.142,1.99
			c0.187-0.377,0.375-0.754,0.562-1.131c0.493-0.994-0.312-2.271-1.485-1.931c-0.464,0.134-0.929,0.269-1.393,0.403
			c0.492,0.639,0.983,1.278,1.474,1.917c0.543-0.622,0.953-1.322,1.23-2.101c0.418-0.899-0.287-2.361-1.458-1.897
			c-0.355,0.14-0.709,0.281-1.064,0.421c0.484,0.63,0.969,1.26,1.454,1.89c0.526-0.708,1.052-1.415,1.579-2.123
			c0.861-1.158-0.731-2.184-1.746-1.746c-0.485,0.209-0.97,0.419-1.455,0.629c0.579,0.579,1.158,1.158,1.737,1.737
			c0.282-0.902,0.792-1.664,1.531-2.285c0.997-0.994-0.307-2.767-1.523-1.974c-0.236,0.154-0.472,0.308-0.708,0.462
			c0.506,0.656,1.013,1.313,1.52,1.969c0.751-0.786,1.263-1.5,1.72-2.501c0.485-1.06-0.551-2.405-1.7-1.7
			c-0.532,0.326-1.063,0.652-1.595,0.978c0.563,0.563,1.126,1.126,1.69,1.69c0.426-0.682,0.78-1.398,1.063-2.15
			c0.382-0.88-0.25-2.19-1.38-1.795c-0.307,0.107-0.613,0.214-0.919,0.321c0.395,0.678,0.789,1.355,1.183,2.033
			c0.926-1.098,1.046-1.311,1.571-2.646c0.361-0.919-0.674-1.645-1.477-1.477c-0.385,0.08-0.77,0.16-1.154,0.24
			c0.489,0.489,0.979,0.979,1.468,1.468c0.207-0.509,0.415-1.018,0.622-1.527c0.522-0.959-0.605-2.363-1.616-1.616
			c-0.625,0.564-1.334,0.986-2.129,1.267c0.471,0.61,0.942,1.22,1.413,1.831c0.807-0.861,1.559-1.737,2.288-2.665
			c0.736-0.936-0.224-2.597-1.386-1.796c-0.504,0.348-1.009,0.695-1.513,1.043c0.457,0.593,0.915,1.186,1.372,1.778
			c0.378-0.487,0.757-0.975,1.136-1.461c0.613-0.789,0.092-2.285-1.09-1.873c-0.012,0.004-0.024,0.008-0.036,0.013
			c0.459,0.261,0.919,0.521,1.378,0.782c0.201-0.175,0.402-0.349,0.604-0.524c0.706-1.092-0.848-2.186-1.744-1.346
			c-0.287,0.188-0.573,0.377-0.86,0.565c0.502,0.503,1.005,1.005,1.508,1.508c0.378-0.413,0.755-0.825,1.133-1.238
			c-0.514-0.514-1.027-1.027-1.541-1.541c-0.285,0.226-0.57,0.453-0.855,0.679c0.437,0.566,0.874,1.132,1.311,1.698
			c0.856-0.806,0.975-0.966,1.648-1.93c0.628-0.9-0.582-1.988-1.46-1.46c-1.015,0.61-1.283,0.814-2.188,1.576
			c0.543,0.419,1.087,0.838,1.63,1.258c0.255-0.587,0.51-1.174,0.766-1.762c0.356-0.819-0.424-1.911-1.333-1.333
			c-0.71,0.451-0.849,0.556-1.426,1.167c0.485,0.375,0.97,0.749,1.456,1.123c0.261-0.539,0.523-1.077,0.785-1.615
			c0.303-0.624-0.204-1.596-0.996-1.296c-0.511,0.071-1.021,0.142-1.532,0.212C9.845,21.976,9.371,23.52,10.438,23.733
			L10.438,23.733z"/>
	</g>
</g>
<g opacity="0.9">
	<g>
		<path fill="#CDCBCB" d="M26.688,22.948c0.369,0.589,0.514,0.742,1.209,0.858c-0.198-0.35-0.396-0.699-0.595-1.048
			c-0.207,1.104-0.478,2.021-0.325,3.122c0.07,0.508,0.743,0.833,1.198,0.68c0.077-0.025,0.154-0.051,0.231-0.077
			c0.531-0.178,0.829-0.677,0.698-1.229c-0.015-0.061-0.028-0.122-0.043-0.183c-0.188-0.791-1.153-0.928-1.703-0.449
			c-0.328,0.287-0.657,0.573-0.985,0.86c-0.338,0.295-0.412,0.904-0.165,1.275c0.021-0.41-0.044-0.236-0.191,0.521
			c-0.126,0.449,0.07,1.006,0.499,1.226c0.098,0.05,0.195,0.1,0.292,0.15c0.411,0.21,1.001,0.215,1.325-0.171
			c0.055-0.066,0.11-0.131,0.165-0.197c-0.612-0.356-1.225-0.713-1.837-1.069c-0.245,0.427-0.49,0.855-0.735,1.282
			c-0.465,0.582-0.446,1.783,0.507,1.918c0.93,0.133,1.239,0.163,2.023-0.387c-0.576-0.443-1.152-0.886-1.729-1.329
			c-0.065,0.329-0.13,0.658-0.195,0.986c-0.136,0.683,0.327,1.618,1.156,1.518c0.311-0.037,0.621-0.075,0.932-0.112
			c-0.388-0.509-0.776-1.019-1.164-1.528c-0.289,0.552-0.577,1.105-0.866,1.657c-0.468,0.762,0.129,1.899,1.059,1.844
			c-0.63-1.307-1.075-1.385-1.336-0.235c-0.112,0.194-0.169,0.403-0.17,0.628c-0.063,1.18,0.032,1.567-0.726,2.561
			c-0.693,0.91,0.447,2.187,1.439,1.873c0.667-0.211,0.972-0.339,1.56-0.719c-0.587-0.587-1.174-1.173-1.76-1.76
			c-0.339,0.601-0.677,1.202-1.015,1.803c-0.39,0.693-0.065,1.745,0.779,1.916c0.256,0.052,0.513,0.104,0.769,0.155
			c-0.261-0.642-0.521-1.283-0.783-1.925c-0.422,0.606-0.845,1.211-1.268,1.817c-0.974,1.13,0.243,2.845,1.615,2.092
			c0.251-0.138,0.502-0.276,0.753-0.414c-0.61-0.611-1.222-1.222-1.832-1.833c-0.044,0.086-0.087,0.172-0.131,0.259
			c-0.272,0.543-0.237,1.181,0.21,1.626c0.082,0.082,0.164,0.163,0.246,0.245c0.416,0.415,1.122,0.534,1.63,0.21
			c0.204-0.13,0.408-0.26,0.612-0.39c-0.678-0.389-1.355-0.778-2.033-1.167c-0.077,0.877-0.032,1.259,0.094,2.124
			c0.176,1.207,1.904,0.984,2.219,0c0.271-0.847,0.323-1.235,0.391-2.124c0.075-1.004-1.212-1.71-2.033-1.167
			c-0.202,0.133-0.404,0.267-0.606,0.401c0.543,0.07,1.087,0.14,1.63,0.21c-0.083-0.08-0.167-0.161-0.25-0.241
			c0.07,0.542,0.14,1.084,0.21,1.626c0.042-0.087,0.084-0.174,0.125-0.261c0.565-1.173-0.603-2.535-1.832-1.833
			c-0.249,0.142-0.498,0.284-0.747,0.426c0.539,0.697,1.077,1.395,1.615,2.092c0.816-0.98,1.031-1.26,1.646-2.378
			c0.379-0.689,0.076-1.767-0.783-1.925c-0.258-0.047-0.515-0.095-0.772-0.142c0.26,0.639,0.52,1.277,0.779,1.916
			c0.328-0.607,0.655-1.214,0.983-1.82c0.581-1.074-0.635-2.513-1.76-1.76c-0.313,0.161-0.626,0.322-0.938,0.482
			c0.479,0.624,0.96,1.248,1.439,1.873c0.392-0.531,1.069-1.175,1.249-1.826c0.206-0.749-0.419-1.367-0.037-2.183
			c0.396-0.845,0.66-1.235,0.152-2.095c-0.207-0.352-0.637-0.641-1.061-0.608c-0.091,0.007-0.183,0.014-0.273,0.021
			c0.353,0.615,0.706,1.229,1.059,1.844c0.52-0.88,0.706-1.301,1.077-2.253c0.377-0.966-0.689-1.594-1.485-1.485
			c-0.31,0.042-0.619,0.085-0.929,0.128c0.491,0.492,0.983,0.983,1.475,1.475c0.051-0.333,0.102-0.666,0.152-0.998
			c0.132-0.865-0.8-2.047-1.729-1.329c-0.177,0.055-0.354,0.11-0.531,0.166c0.33,0.576,0.66,1.151,0.991,1.727
			c0.679-0.935,0.684-0.994,1.052-2.089c0.433-1.283-1.313-1.759-2.009-0.847c-0.052,0.068-0.104,0.136-0.155,0.204
			c0.498-0.13,0.997-0.261,1.495-0.392c-0.1-0.045-0.199-0.091-0.3-0.137c0.166,0.409,0.333,0.817,0.499,1.226
			c0.186-0.806,0.433-1.458-0.084-2.161c-0.056,0.425-0.11,0.85-0.165,1.275c0.313-0.303,0.625-0.605,0.938-0.908
			c-0.534-0.069-1.067-0.137-1.601-0.206c0.026,0.056,0.053,0.112,0.078,0.168c0.12-0.456,0.239-0.912,0.359-1.368
			c-0.071,0.042-0.142,0.083-0.213,0.124c0.478,0.194,0.955,0.388,1.432,0.582c0.03-0.716,0.06-1.433,0.089-2.15
			c0.084-0.593-0.224-1.006-0.821-1.079c0-0.008,0-0.016,0-0.023C27.522,21.239,26.112,22.029,26.688,22.948L26.688,22.948z"/>
	</g>
</g>
</svg>
