<?xml version="1.0" encoding="utf-8"?>
<!-- Generator: Adobe Illustrator 16.0.0, SVG Export Plug-In . SVG Version: 6.00 Build 0)  -->
<!DOCTYPE svg PUBLIC "-//W3C//DTD SVG 1.1//EN" "http://www.w3.org/Graphics/SVG/1.1/DTD/svg11.dtd">
<svg version="1.1" id="Layer_1" xmlns="http://www.w3.org/2000/svg" xmlns:xlink="http://www.w3.org/1999/xlink" x="0px" y="0px"
	 width="45px" height="30px" viewBox="0 0 45 30" enable-background="new 0 0 45 30" xml:space="preserve">
<g>
	<g>
		<path d="M18.849,14.635c0.879-2.785,3.933-4.328,6.729-3.658c1.369,0.328,1.904-1.656,0.578-2.099
			c-4.027-1.346-8.355,1.156-9.606,5.123C16.087,15.468,18.387,16.096,18.849,14.635"/>
	</g>
	<g>
		<path d="M28.605,9.855c2.047-2.647,5.078-4.148,8.457-3.981c0.697,0.034,1.412,0.163,2.082,0.356
			c1.664,0.478,1.961,0.516,1.887,2.207c-0.105,2.355-2.447,3.71-4.438,4.735c-1.229,0.633-0.359,2.813,0.959,2.273
			c4.701-1.924,11.121-8.076,3.857-11.384c-5.316-2.421-11.527-0.373-14.961,4.13C25.514,9.419,27.652,11.088,28.605,9.855"/>
	</g>
	<g>
		<path d="M34.295,17.378c0.682,2.502,0.107,3.916-1.721,4.239c-0.682,0.278-1.385,0.474-2.111,0.589
			c-2.068,0.484-4.311,0.769-6.4,1.028c-3.39,0.421-6.789,0.66-10.203,0.757c-1.496,0.043-1.505,2.337,0,2.332
			c4.102-0.014,8.168-0.24,12.226-0.842c3.07-0.455,7.074-0.693,9.637-2.709c2.822-2.219,2.576-6.347-0.795-7.692
			C33.5,14.509,32.895,16.806,34.295,17.378"/>
	</g>
	<g>
		<path d="M11.976,14.632c-3.062,0.598-5.858,1.957-8.18,4.053c-1.842,1.662-4.165,4.33-3.747,7.012
			c0.998,6.394,11.171,4.232,14.924,2.54c1.243-0.562,0.349-2.737-0.938-2.226c-2.246,0.894-13.372,3.211-10.885-2.449
			c1.561-3.553,5.931-5.76,9.5-6.481C14.253,16.756,13.573,14.32,11.976,14.632"/>
	</g>
	<g>
		<g>
			<path fill="#F5F8F9" d="M22.178,15.061c-0.022,0.078-0.045,0.156-0.068,0.233c-0.119,0.404-0.014,0.996,0.335,1.27
				c0.075,0.059,0.15,0.117,0.225,0.176c0.449,0.354,1.061,0.559,1.591,0.206c0.163-0.109,0.327-0.218,0.489-0.327
				c-0.535-0.695-1.072-1.39-1.608-2.085c-0.51,0.395-1.02,0.79-1.53,1.185c-1.214,0.94,0.156,2.506,1.34,2.303
				c1.187-0.204,2.375-0.409,3.562-0.613c-0.377-0.896-0.754-1.791-1.133-2.688c-0.693,0.48-1.387,0.959-2.08,1.439
				c-1.618,1.118-0.223,3.575,1.549,2.651c1.102-0.574,2.201-1.148,3.301-1.723c1.652-0.862,0.506-3.5-1.256-2.981
				c-1.406,0.415-2.658,0.93-3.952,1.607c-1.97,1.03-0.243,3.845,1.719,2.94c4.035-1.863,7.498-4.304,10.627-7.453
				c1.619-1.63-0.42-3.928-2.336-3.027c-0.104,0.049-0.207,0.098-0.311,0.147c0.779,0.101,1.561,0.201,2.34,0.302
				c-0.088-0.111-0.176-0.223-0.264-0.334c0.102,0.783,0.203,1.565,0.303,2.348c0.098-0.152,1.066-0.764,1.367-1.236
				c1.023-1.6-1.066-3.85-2.688-2.688c-0.617,0.438-1.232,0.883-1.84,1.334c-1.725,1.262-0.771,4.298,1.527,3.626
				c1.615-0.471,3.23-0.943,4.844-1.415c-0.648-1.116-1.299-2.232-1.949-3.348c-0.461,0.348-0.924,0.696-1.385,1.044
				c-2.096,0.941-0.598,4.362,1.551,3.678c0.357-0.114,0.717-0.229,1.074-0.343c-0.518-1.229-1.035-2.457-1.553-3.686
				c-4.398,2.1-8.896,3.533-13.668,4.482c0.779,1.013,1.557,2.026,2.336,3.039c0.043-0.04,0.087-0.079,0.131-0.119
				c-0.83-1.076-1.66-2.152-2.491-3.228c-0.426,0.23-0.852,0.46-1.277,0.69c-1.298,0.306-1.835,1.873-1.212,2.979
				c0.039,0.26,0.078,0.518,0.117,0.777c-0.289,1.181,0.588,2.64,1.93,2.533c1.66-0.132,3.32-0.247,4.98-0.358
				c-0.467-1.13-0.936-2.259-1.404-3.389c-0.602,0.433-1.203,0.866-1.805,1.298c-1.846,1.193-0.698,4.323,1.533,3.64
				c0.805-0.246,1.609-0.493,2.414-0.74c-0.752-0.978-1.502-1.955-2.254-2.933c-0.385,0.501-0.768,1.001-1.152,1.501
				c-0.877,1.145,0.299,3.187,1.727,3.01c1.553-0.192,1.645,0.195,0.748-0.683c-0.104-0.811-0.209-1.62-0.313-2.43
				c-0.043,0.1-0.088,0.199-0.131,0.3c-0.713,1.64,0.432,3.294,2.266,2.945c0.33-0.063,0.66-0.126,0.99-0.188
				c-0.652-0.172-1.303-0.344-1.953-0.516c0.162,0.169,0.326,0.339,0.488,0.508c0.635,0.66,1.654,0.747,2.434,0.314
				c0.393-0.217,0.783-0.434,1.176-0.65c1.721-0.953,0.992-3.834-1.016-3.747c-5.348,0.233-9.04-1.418-14.017,1.508
				c-2.067,1.215-0.608,4.025,1.542,3.659c0.4-0.068,0.801-0.137,1.201-0.205c-0.354-1.284-0.708-2.569-1.063-3.854
				c-1.398,0.337-2.796,0.673-4.193,1.009c0.747,0.973,1.494,1.944,2.241,2.916c0.36-0.622,0.721-1.245,1.082-1.867
				c0.896-1.546-0.565-3.296-2.234-2.905c-1.688,0.395-3.058,0.946-4.554,1.793c-1.917,1.085-0.626,4.297,1.513,3.59
				c0.748-0.246,1.496-0.493,2.243-0.741c2.379-0.787,1.411-4.443-1.04-3.773c-2.993,0.818-5.469,2.008-7.934,3.911
				c-1.349,1.041-1.185,3.809,0.983,3.631c1.191-0.097,1.93,0.354,3.188,0.443c-0.328-1.212-0.657-2.424-0.985-3.637
				c-0.357,0.203-0.714,0.405-1.071,0.607c0.66,1.128,1.319,2.257,1.979,3.385c0.697-0.419,1.395-0.839,2.092-1.259
				c-0.902-0.901-1.804-1.804-2.706-2.705c-0.162,0.308-3.312,0.707-4.051,1.502c-1.509,1.623,0.458,4.443,2.436,3.156
				c3.11-2.024,6.325-3.53,9.888-4.587c-0.839-0.64-1.679-1.279-2.519-1.919c0.243,5.18,8.577,1.928,11.28,1.428
				c-0.51-1.206-1.018-2.412-1.525-3.618c-0.609,0.352-1.217,0.702-1.826,1.054c-1.623,0.936-1.022,3.86,1,3.688
				c1.309-0.111,1.85-0.185,3.094-0.607c2.402-0.815,1.443-4.442-1.053-3.818c-0.539,0.031-1.078,0.062-1.617,0.093
				c0.467,1.126,0.934,2.253,1.398,3.379c1.1-1.112,2.313-2.086,3.641-2.921c1.818-1.241,0.725-4.204-1.525-3.618
				c-0.318,0.083-0.637,0.167-0.957,0.249c0.352,1.272,0.703,2.546,1.053,3.818c0.436-0.166,0.871-0.331,1.305-0.496
				c2.408-0.916,1.465-4.213-1.053-3.818c-4.081,0.64-8.012,1.621-11.918,2.966c0.835,0.637,1.671,1.272,2.506,1.909
				c0.025-0.161,0.051-0.323,0.077-0.484c0.524-0.983,0.219-2.094-0.708-2.697c-0.412-0.269-0.823-0.536-1.235-0.805
				c-0.33,1.218-0.66,2.437-0.99,3.654c4.533,0.362,8.786-0.075,13.125-1.43c2.105-0.656,1.512-3.391-0.49-3.627
				c-1.451-0.171-1.609-0.129-3.018,0.254c-1.773,0.482-1.658,2.933,0,3.468c3.424,1.106,6.646-0.671,7.369-4.229
				c0.346-1.709-1.666-3.074-3.002-1.747c-0.688,0.684-1.375,1.368-2.064,2.052c-1.566,1.557,0.408,3.622,2.197,2.848
				c1.369-0.592,1.541-0.824,2.299-2.101c0.957-1.61-0.92-3.373-2.5-2.5c-0.998,0.55-1.289,0.996-1.654,2.063
				c-0.453,1.321,0.969,2.654,2.258,2.259c1.551-0.476,1.881-0.762,2.799-2.089c1.047-1.51-1.021-3.563-2.531-2.531
				c-1.506,1.03-2.723,2.022-3.254,3.812c-0.576,1.945,2.408,2.449,2.33,3.729c-0.156,2.496,3.881,2.525,3.896,0
				c0.004-0.673,0.102-1.393-0.256-2.004c-0.639-1.09-2.75-1.006-0.85-2.342c-0.844-0.844-1.688-1.688-2.531-2.531
				c-0.193,0.138-0.387,0.276-0.58,0.415c0.754,0.753,1.506,1.506,2.26,2.259c-0.014,0.038-0.027,0.077-0.041,0.116
				c-0.834-0.833-1.668-1.667-2.502-2.5c-0.324,0.271-0.648,0.542-0.973,0.813c0.732,0.95,1.465,1.899,2.197,2.849
				c0.68-0.693,1.359-1.385,2.039-2.078c-1-0.583-2-1.165-3-1.747c-0.984,0.572-1.967,1.144-2.951,1.716c0,1.155,0,2.312,0,3.468
				c0.523-0.031,1.047-0.063,1.57-0.095c0-1.187,0-2.374,0-3.561c-4.058,1.102-7.962,1.461-12.143,1.068
				c-2.095-0.196-2.464,2.665-0.99,3.655c0.408,0.274,0.816,0.549,1.224,0.822c-0.236-0.898-0.472-1.798-0.708-2.697
				c-0.507,0.92-0.656,1.42-0.63,2.475c0.03,1.219,1.253,2.341,2.506,1.909c3.906-1.347,7.836-2.326,11.918-2.967
				c-0.35-1.272-0.701-2.545-1.053-3.818c-0.434,0.165-0.869,0.331-1.305,0.496c-2.343,0.891-1.463,4.473,1.053,3.818
				c0.32-0.083,0.639-0.166,0.957-0.249c-0.508-1.206-1.016-2.413-1.525-3.618c-1.59,1.086-3.027,2.224-4.441,3.54
				c-1.372,1.275-0.202,3.229,1.4,3.379c1.152,0.108,1.549,0.047,2.67-0.233c-0.35-1.272-0.701-2.546-1.053-3.818
				c-0.68,0.155-1.361,0.312-2.041,0.467c0.332,1.229,0.666,2.459,0.998,3.688c0.609-0.351,1.217-0.702,1.826-1.054
				c2.039-1.179,0.604-4.012-1.525-3.618c-1.42,0.263-6.343,0.197-6.248,2.391c-0.055-1.267-1.232-2.296-2.519-1.919
				c-3.899,1.143-7.444,2.748-10.86,4.954C6,24.387,6.812,25.439,7.624,26.491c1.275-1.388,3.444-0.041,4.623-2.348
				c0.862-1.688-0.933-3.807-2.706-2.705c-0.691,0.43-1.383,0.858-2.074,1.288c-2.142,1.329-0.211,4.667,1.979,3.385
				c0.354-0.207,0.708-0.414,1.062-0.621c1.751-1.025,0.896-3.518-0.985-3.637c-1.294-0.083-1.352-0.588-3.188-0.438
				c0.328,1.21,0.656,2.421,0.983,3.631c2.169-1.675,4.338-2.791,7.007-3.503c-0.347-1.258-0.693-2.516-1.04-3.773
				c-0.749,0.243-1.498,0.485-2.247,0.728c0.504,1.196,1.009,2.393,1.513,3.59c1.113-0.729,2.321-1.186,3.624-1.371
				c-0.745-0.969-1.489-1.937-2.234-2.905c-0.364,0.62-0.728,1.239-1.092,1.859c-0.911,1.55,0.575,3.306,2.241,2.916
				c1.4-0.328,2.801-0.656,4.201-0.983c2.551-0.597,1.427-4.262-1.063-3.854c-0.401,0.066-0.802,0.132-1.203,0.197
				c0.514,1.22,1.028,2.439,1.542,3.659c4.142-2.4,7.656-0.755,11.996-0.943c-0.338-1.249-0.676-2.498-1.014-3.747
				c-0.391,0.219-0.783,0.437-1.174,0.654c0.813,0.104,1.623,0.209,2.434,0.314c-1.135-1.173-1.871-1.135-3.432-0.831
				c0.754,0.981,1.51,1.964,2.264,2.945c0.043-0.1,0.086-0.199,0.129-0.3c0.359-0.832,0.391-1.745-0.313-2.429
				c-1.334-1.298-2.07-0.676-3.584-0.482c0.576,1.003,1.152,2.006,1.727,3.01c0.383-0.502,0.764-1.004,1.146-1.505
				c1.086-1.43-0.701-3.417-2.254-2.933c-0.805,0.251-1.607,0.501-2.412,0.75c0.512,1.213,1.023,2.426,1.535,3.639
				c0.979-0.639,1.701-1.185,2.604-1.929c1.32-1.09,0.258-3.507-1.404-3.39c-1.66,0.118-3.318,0.23-4.98,0.326
				c0.643,0.845,1.287,1.688,1.929,2.533c0.48-1.799,0.402-2.252-0.475-3.888c-0.403,0.993-0.808,1.986-1.211,2.979
				c1.612-0.344,1.92-0.557,3.106-1.694c1.777-1.708-0.471-4.18-2.491-3.228c-0.837,0.394-1.19,0.77-1.629,1.58
				c-0.903,1.664,0.564,3.394,2.336,3.039c5.109-1.025,9.922-2.709,14.604-4.989c2.061-1.004,0.605-4.392-1.555-3.686
				c-0.357,0.117-0.715,0.234-1.072,0.351c0.516,1.226,1.033,2.452,1.551,3.678c1.205-0.552,1.346-0.662,2.188-1.686
				c1.193-1.45,0.125-3.971-1.949-3.348c-1.611,0.483-3.223,0.968-4.834,1.452c0.51,1.208,1.02,2.417,1.529,3.626
				c0.611-0.451,1.219-0.907,1.82-1.368c-0.895-0.896-1.791-1.792-2.688-2.688c-0.1,0.166-1.029,0.774-1.32,1.263
				c-0.475,0.798-0.258,1.676,0.303,2.348c0.092,0.109,0.182,0.217,0.273,0.326c0.572,0.687,1.613,0.669,2.34,0.302
				c0.104-0.052,0.205-0.104,0.307-0.155c-0.777-1.009-1.557-2.018-2.334-3.027c-2.813,3.021-5.938,5.375-9.622,7.238
				c0.573,0.979,1.146,1.96,1.719,2.94c0.959-0.621,1.992-1.088,3.1-1.402c-0.42-0.993-0.838-1.987-1.258-2.98
				c-1.066,0.629-2.135,1.259-3.203,1.888c0.517,0.883,1.033,1.768,1.549,2.651c0.672-0.518,1.344-1.034,2.016-1.552
				c1.279-0.986,0.592-3.076-1.133-2.687c-1.171,0.264-2.342,0.528-3.513,0.792c0.447,0.767,0.894,1.535,1.34,2.302
				c0.487-0.418,0.974-0.837,1.46-1.255c1.137-0.977-0.396-2.986-1.609-2.085c0.425,0.475,0.85,0.95,1.273,1.425
				C25.072,14.123,22.651,13.452,22.178,15.061L22.178,15.061z"/>
		</g>
	</g>
</g>
</svg>
