<?xml version="1.0" encoding="utf-8"?>
<!-- Generator: Adobe Illustrator 16.0.0, SVG Export Plug-In . SVG Version: 6.00 Build 0)  -->
<!DOCTYPE svg PUBLIC "-//W3C//DTD SVG 1.1//EN" "http://www.w3.org/Graphics/SVG/1.1/DTD/svg11.dtd">
<svg version="1.1" id="Layer_1" xmlns="http://www.w3.org/2000/svg" xmlns:xlink="http://www.w3.org/1999/xlink" x="0px" y="0px"
	 width="110px" height="60px" viewBox="0 0 110 60" enable-background="new 0 0 110 60" xml:space="preserve">
<g>
	<g>
		<path d="M50.501,50.229c-14.171,2.725-35.017,1.404-43.637-12.32c-5.061-8.056,0.146-16.406,8.724-18.549
			c8.414-2.101,16.76,2.491,23.907,6.364c1.201,0.651,2.261-1.15,1.072-1.834c-8.137-4.681-17.996-9.646-27.514-6.191
			c-6.587,2.39-11.906,8.563-10.432,15.901c1.669,8.316,10.216,13.816,17.545,16.654c9.831,3.807,20.609,3.818,30.83,1.773
			C52.175,51.792,51.674,50.005,50.501,50.229"/>
	</g>
	<g>
		<path d="M86.039,21.096c7.341,1.119,17.231,2.587,19.928,10.791c2.829,8.608-7.803,13.715-14.231,16.569
			c-1.59,0.707-0.436,3.512,1.198,2.842c7.641-3.129,18.652-8.434,16.875-18.391c-1.948-10.915-13.527-13.712-22.86-15.109
			C84.797,17.476,83.865,20.765,86.039,21.096"/>
	</g>
	<g>
		<path d="M31.362,16.494C41.19,8.998,52.991,4.561,65.365,3.971c5.954-0.284,12.072,0.225,17.819,1.864
			c8.098,2.31,9.015,8.892,8.837,16.307c-0.027,1.138,1.707,1.129,1.762,0c0.262-5.429,0.284-11.966-4.424-15.67
			c-4.574-3.598-12.084-4.049-17.652-4.346C56.903,1.334,42.229,6.001,30.499,15.017C29.64,15.678,30.485,17.163,31.362,16.494"/>
	</g>
	<g>
		<path d="M49.868,58.04c12.81,3.981,39.367,6.52,45.059-9.963c0.395-1.146-1.386-1.607-1.8-0.496
			C87.509,62.649,62.145,60.009,50.31,56.44C49.284,56.132,48.852,57.724,49.868,58.04"/>
	</g>
	<g>
		<g>
			<path fill="#F5F8F9" d="M13.263,24.397c0.204,2.239,1.583,4.099,4.055,3.859c-0.272-2.01-0.544-4.02-0.816-6.03
				c-1.29,0.493-2.579,0.985-3.869,1.478c0.864,2.05,1.729,4.1,2.593,6.15c1.323-0.769,2.482-1.641,3.635-2.643
				c2.682-2.331-0.142-7.292-3.522-6.05c-1.634,0.601-3.19,1.322-4.778,2.034c-3.408,1.527-1.792,7.563,1.935,7.144
				c2.136-0.24,3.85-0.704,5.807-1.595c-1.333-2.281-2.667-4.562-4-6.843c-1.371,0.707-2.743,1.414-4.114,2.12
				c-4.736,2.441-0.577,9.413,4.149,7.1c2.032-0.995,4.076-1.713,6.257-2.298c0.92-0.247,3.55,0.648,4.74,0.578
				c-1.447-1.899-2.893-3.798-4.34-5.697c-0.15,0.607-0.301,1.215-0.451,1.822c-0.63,2.545,0.801,4.66,3.144,5.536
				c1.866,0.697,3.639,0.988,5.616,1.293c2.178,0.335,4.02,1.638,6.232,1.964c-0.379-2.899-0.758-5.8-1.137-8.7
				c-3.46,1.469-6.881,2.95-10.245,4.627c2.348,2.348,4.696,4.697,7.044,7.044c0.201-0.41,0.402-0.819,0.603-1.229
				c1.627-3.316-0.289-7.899-4.441-7.739c-1.579,0.061-3.158,0.122-4.737,0.183c1.208,0.5,2.416,1.001,3.624,1.501
				c-4.023-3.167-8.099-3.756-12.77-1.547c2.059,2.669,4.118,5.337,6.177,8.006c0.832-0.734,1.664-1.47,2.495-2.205
				c3.948-3.491-0.236-9.726-4.947-8.499c-1.623,0.423-2.858,0.943-4.345,1.715c2.544,1.46,5.088,2.919,7.632,4.379
				c0.01-0.23,0.021-0.462,0.031-0.692c0.078-1.758-1.021-3.51-2.511-4.376c-3.318-1.929-4.914-0.452-8.2,0.22
				c0.895,3.247,1.791,6.494,2.686,9.741c0.921-0.376,1.842-0.752,2.764-1.128c-1.294-3.07-2.589-6.141-3.883-9.211
				c-0.931,0.667-1.862,1.333-2.793,2c-3.608,2.583-2.943,9.932,2.537,9.366c1.417-0.245,2.84-0.266,4.268-0.061
				c-0.997-2.451-1.994-4.901-2.991-7.352c-0.41,0.769-0.977,1.395-1.702,1.878c-3.977,3.414,0.29,9.464,4.855,8.34
				c2.017-0.496,4.033-0.993,6.05-1.49c-1.611-2.767-3.221-5.533-4.832-8.299c-0.842,0.65-1.683,1.303-2.524,1.954
				c-3.588,2.781-0.421,8.444,3.503,8.456c2.134,0.007,4.266,0.051,6.399,0.1c-0.84-3.101-1.679-6.2-2.519-9.301
				c-1.546,1.168-3.091,2.337-4.636,3.506c-4.542,3.435-1.972,10.413,3.903,9.259c2.141-0.42,4.282-0.841,6.423-1.262
				c-1.323-3.138-2.646-6.275-3.968-9.412c-1.6,0.827-3.2,1.654-4.8,2.481c-5.68,2.938-1.404,10.367,4.021,9.539
				c2.746-0.418,5.122-1.3,7.609-2.51c-1.785-3.054-3.57-6.108-5.355-9.162c-1.399,0.884-2.8,1.768-4.2,2.65
				c-5.271,3.325-1.796,11.043,4.137,9.813c4.179-0.866,8.254-2.015,12.292-3.394c-1.391-3.301-2.783-6.601-4.174-9.901
				c-1.841,1.327-3.683,2.654-5.524,3.98c-4.806,3.462-2.084,11.663,4.189,9.937c6.293-1.732,11.714-4.678,16.794-8.741
				c3.623-2.898,0.72-9.847-3.875-9.357c-3.493,0.373-6.696,1.009-9.958,2.35c-6.376,2.623-3.943,12.946,2.927,10.617
				c4.829-1.637,9.658-3.273,14.487-4.911c6.715-2.275,3.968-12.739-2.949-10.698c-3.033,0.895-6.065,1.79-9.098,2.686
				c1.431,3.396,2.863,6.791,4.294,10.187c5.132-2.425,10.262-4.853,15.403-7.259c4.977-2.329,2.663-11.052-2.845-10.504
				c-2.725,0.271-5.451,0.542-8.176,0.813c0.957,3.534,1.915,7.069,2.872,10.603c3.329-1.806,6.63-3.657,9.908-5.555
				c5.359-3.103,2.472-10.153-2.908-10.739c-0.808-0.103-1.597-0.285-2.368-0.547c0.461,3.526,0.922,7.053,1.383,10.58
				c1.691-1.279,3.383-2.558,5.075-3.837c4.25-3.214,3.418-11.063-2.942-10.862c-2.939,0.093-5.855,0.053-8.792-0.118
				c1.387,3.349,2.774,6.698,4.162,10.047c1.026-0.989,2.051-1.978,3.077-2.967c3.625-3.499,0.992-10.31-4.182-10.094
				c-2.514,0.105-5.028,0.21-7.542,0.315c1.405,3.392,2.81,6.785,4.215,10.177c0.143-0.109,0.285-0.218,0.428-0.327
				c6.904-3.567,0.849-13.588-6.032-10.32c-1.376,0.653-2.742,1.037-4.218,1.391c1.54,3.652,3.08,7.305,4.62,10.957
				c0.869-0.654,1.843-1.055,2.92-1.203c-1.065-3.864-2.13-7.727-3.195-11.591c-1.336,0.423-2.672,0.847-4.007,1.271
				c-7.369,2.337-4.274,13.852,3.202,11.617c-0.91-0.909-1.82-1.818-2.73-2.728c0.287,1.023,0.805,1.912,1.554,2.666
				c1.229,1.229,2.919,1.645,4.502,2.214c-0.481-3.686-0.963-7.372-1.445-11.058c-0.669,0.379-1.337,0.759-2.005,1.14
				c-5.884,3.351-1.936,13.205,4.655,11.042c3.71-1.218,7.375-2.536,11.01-3.961c-1.537-3.646-3.074-7.292-4.611-10.938
				c-0.794,0.456-1.589,0.912-2.383,1.368c-5.748,3.3-1.872,13.298,4.602,10.915c3.445-1.269,6.263-2.912,9.015-5.349
				c3.707-3.283,0.934-10.627-4.197-10.132c-2.408,0.232-4.815,0.465-7.224,0.698c0.992,3.665,1.985,7.33,2.979,10.995
				c2.104-1.045,4.185-1.54,6.497-1.878c-2.206-2.87-4.412-5.739-6.618-8.609c-0.277,0.366-0.556,0.732-0.834,1.098
				c-3.513,4.625,2.266,9.283,6.61,8.599c2.532-0.398,5.064-0.797,7.601-1.172c-2.198-0.895-4.396-1.789-6.595-2.684
				c2.874,4.204,6.992,5.994,12.004,4.728c-1.507-3.574-3.014-7.148-4.521-10.722c-0.466,0.187-0.932,0.373-1.398,0.559
				c1.042,3.78,2.085,7.559,3.127,11.339c2.534-0.623,4.872-1.526,7.27-2.545c-1.987-3.4-3.974-6.799-5.961-10.199
				c-0.122,0.081-0.243,0.162-0.364,0.243c-2.401,1.606-3.173,3.888-2.715,6.672c0.027,0.167,0.055,0.334,0.082,0.502
				c0.313,1.907,2.305,3.709,4.128,4.127c4.342,0.998,10.181-0.679,10.9-5.794c0.624-4.429-3.944-10.206-8.711-6.696
				c-1.893,1.394-2.854,2.56-3.651,4.789c-1.188,3.322,1.343,6.14,4.146,7.303c0.405,0.168,0.811,0.336,1.215,0.504
				c0-3.82,0-7.64,0-11.46c-6.016,1.796-11.751,4.18-17.289,7.135c-5.199,2.774-2.79,11.067,2.971,10.97
				c2.865-0.049,5.73-0.097,8.596-0.146c-1.671-2.911-3.341-5.822-5.012-8.733c-0.307,0.422-0.614,0.844-0.921,1.266
				c-2.108,2.896-0.006,7.852,3.459,8.504c1.632,0.307,3.264,0.614,4.895,0.92c-0.457-3.498-0.914-6.995-1.371-10.493
				c-2.005,1.197-4.011,2.394-6.016,3.59c-4.031,2.406-3.583,9.299,1.355,10.37c0.92,0.236,1.854,0.396,2.801,0.483
				c1.803,0.177,1.878-0.28,0.226-1.371c-0.188-1.439-0.377-2.879-0.564-4.318c-0.097,0.271-0.192,0.543-0.289,0.815
				c-1.261,3.566,1.984,6.957,5.396,7.084c3.537,0.131,7.073,0.179,10.612,0.168c0-3.691,0-7.382,0-11.074
				c-1,0.048-1.999,0.096-2.999,0.145c0,3.693,0,7.386,0,11.08c0.959-0.238,1.921-0.255,2.887-0.052
				c-1.104-2.715-2.209-5.429-3.313-8.144c-3.557,6.49,1.937,12.076,8.596,11.597c-0.934-3.447-1.867-6.894-2.801-10.341
				c0.077,0.033,0.154,0.066,0.231,0.1c0.492,3.635,0.983,7.27,1.476,10.904c0.911-0.283,1.84-0.363,2.787-0.239
				c-0.935-3.451-1.869-6.902-2.804-10.353c-0.589,0.359-1.179,0.717-1.768,1.076c-3.99,2.428-3.466,8.989,1.327,10.157
				c2.1,0.512,4.106,0.766,6.269,0.699c-0.493-3.642-0.985-7.283-1.479-10.924c-1.082,0.414-2.164,0.829-3.246,1.244
				c-5.451,2.091-5.231,11.438,1.479,10.93c0.926-0.07,1.851-0.141,2.776-0.21c-0.937-3.458-1.873-6.915-2.81-10.373
				c-0.731,0.34-1.464,0.68-2.195,1.021c-4.374,2.032-3.165,9.183,1.33,10.177c0.76,0.168,1.519,0.336,2.278,0.504
				c-0.444-3.394-0.888-6.787-1.331-10.181c-0.739,0.283-1.495,0.515-2.267,0.693c-6.148,1.668-4.78,10.836,1.481,10.949
				c0.827,0.015,1.655,0.029,2.482,0.044c-0.494-3.651-0.988-7.302-1.482-10.953c-2.854,0.576-5.707,1.152-8.561,1.729
				c-6.139,1.24-4.796,11.521,1.484,10.967c0.959-0.085,1.919-0.169,2.878-0.253c-0.495-3.657-0.99-7.314-1.485-10.973
				c-3.134,0.778-6.207,1.684-9.263,2.729c-4.707,1.612-5.932,9.883,0,10.789c1.777,0.271,3.374,0.479,5.174,0.474
				c-0.496-3.665-0.992-7.33-1.488-10.995c-2.186,0.633-4.371,1.266-6.557,1.897c-5.862,1.696-4.955,11.82,1.489,11.007
				c2.052-0.26,4.104-0.519,6.156-0.777c-0.943-3.483-1.887-6.968-2.831-10.451c-2.275,1.016-4.551,2.033-6.827,3.049
				c-5.052,2.256-2.592,10.944,2.834,10.464c2.151-0.191,4.26-0.483,6.374-0.93c-0.996-3.612-1.992-7.224-2.988-10.836
				c-1.065,0.386-2.131,0.771-3.196,1.156c-5.042,1.822-5.665,9.282,0,10.842c1.525,0.42,2.821,0.595,4.403,0.586
				c-0.498-3.684-0.997-7.366-1.495-11.049c-1.166,0.468-2.239,0.89-3.277,1.604c-4.474,3.079-3.033,10.443,2.84,10.484
				c0.738,0.006,1.478,0.011,2.216,0.016c-0.499-3.685-0.997-7.37-1.496-11.056c-2.675,0.754-5.294,1.613-7.896,2.59
				c-5.563,2.09-5.271,11.577,1.498,11.07c0.994-0.074,1.987-0.149,2.981-0.225c-0.5-3.691-0.999-7.383-1.499-11.074
				c-2.384,0.485-4.768,0.971-7.15,1.456c1,3.628,2,7.257,3,10.885c1.293-0.416,2.586-0.831,3.879-1.247
				c7.115-2.289,4.04-11.895-3.002-10.893c-2.597,0.37-5.115,0.901-7.64,1.611c-7.021,1.973-4.07,12.673,3.006,10.904
				c1.723-0.43,3.444-0.86,5.166-1.291c-1.003-3.638-2.005-7.276-3.008-10.914c-2.545,0.794-5.076,1.369-7.714,1.753
				c1.004,3.642,2.008,7.284,3.012,10.926c0.974-0.345,1.947-0.689,2.92-1.034c6.957-2.466,4.155-12.153-3.014-10.932
				c-1.397,0.271-2.807,0.403-4.229,0.395c1.337,3.228,2.675,6.456,4.012,9.685c-0.224,0.114-0.446,0.229-0.67,0.344
				c5.81-1.898,5.149-11.746-1.509-11.147c-1.173,0.105-2.347,0.211-3.52,0.315c0.955,3.527,1.91,7.055,2.866,10.582
				c0.754-0.574,1.509-1.147,2.264-1.721c4.499-3.417,3.066-10.127-2.867-10.586c-2.089-0.162-3.982,0.063-6.034,0.458
				c1.458,3.457,2.915,6.914,4.373,10.371c1.38-0.782,2.759-1.564,4.139-2.348c4.29-2.436,3.335-9.067-1.354-10.358
				c-1.18-0.324-2.358-0.648-3.537-0.974c0.451,3.449,0.901,6.898,1.353,10.347c1.843-1.29,3.687-2.581,5.529-3.871
				c4.407-3.085,3.109-10.563-2.852-10.529c-2.595,0.015-5.19,0.03-7.785,0.045c1.329,3.208,2.657,6.416,3.986,9.624
				c0.759-0.74,1.518-1.481,2.276-2.222c3.536-3.448,0.886-9.617-3.982-9.615c-4.841,0.002-9.588,0.474-14.36,1.27
				c1.441,3.419,2.883,6.838,4.324,10.257c0.999-0.737,2.099-0.954,3.3-0.652c-0.498-3.677-0.995-7.354-1.493-11.029
				c-3.217,0.98-6.434,1.962-9.65,2.942c-6.985,2.131-4.088,12.377,2.997,10.871c1.942-0.413,3.884-0.826,5.826-1.24
				c-1.001-3.632-2.002-7.263-3.004-10.895c-1.037,0.348-2.087,0.653-3.149,0.915c-1.274,0.343-4.82-0.051-1.85,1.21
				c0.869,1.129,1.737,2.259,2.605,3.389c-0.045-0.225-0.091-0.449-0.137-0.674c-0.869,2.135-1.738,4.271-2.606,6.405
				c0.16-0.116,0.32-0.232,0.48-0.349c4.922-3.577,2.183-12.367-4.371-10.368c-3.697,1.127-7.361,2.341-11.028,3.559
				c1.416,3.357,2.831,6.714,4.246,10.071c10.275-5.411,21.144-8.488,32.724-9.369c-0.47-3.473-0.94-6.945-1.41-10.419
				c-3.136,1.262-6.257,2.087-9.607,2.538c0.952,3.451,1.903,6.902,2.855,10.354c5.105-2.017,10.211-4.033,15.316-6.051
				c5.267-2.08,5.181-11.432-1.455-10.751c-6.108,0.626-12.142,1.58-18.125,2.962c0.988,3.583,1.975,7.166,2.963,10.749
				c7.561-2.3,15.23-3.987,23.059-5.073c-1.01-3.662-2.02-7.325-3.029-10.988c-5.388,1.673-10.83,2.902-16.413,3.708
				c1.025,3.719,2.051,7.438,3.076,11.158c5.347-2.129,10.751-3.493,16.503-3.87c-0.521-3.853-1.043-7.705-1.564-11.557
				c-4.68,1.912-9.36,3.825-14.04,5.738c-5.726,2.34-5.7,12.208,1.585,11.713c6.119-0.414,12.238-0.829,18.357-1.244
				c-1.02-3.764-2.039-7.528-3.059-11.292c-4.271,1.854-8.541,3.711-12.812,5.566c-6.919,3.007-1.521,12.158,4.727,11.21
				c4.478-0.68,8.957-1.346,13.433-2.042c-1.099-3.985-2.198-7.972-3.297-11.957c-4.322,1.236-8.645,2.473-12.968,3.709
				c-6.753,1.932-5.435,12.248,1.656,12.236c4.298-0.008,8.437-0.643,12.508-2.025c7.592-2.577,4.565-13.98-3.324-12.059
				c-2.793,0.681-5.586,1.36-8.379,2.04c1.111,4.031,2.223,8.063,3.334,12.094c3.347-1.248,6.692-2.496,10.038-3.745
				c6.384-2.382,5.815-12.459-1.673-12.363c-2.913,0.037-7.598,0.938-10.238-0.03c1.259,0.968,2.519,1.937,3.777,2.904
				c-0.766,4.527-0.468,5.472,0.895,2.834c0.896-1.374,1.79-2.748,2.685-4.122c2.896-4.446-1.063-9.013-5.474-9.539
				c-4.674-0.557-9.193-0.164-13.787,0.813c1.614,3.829,3.229,7.658,4.843,11.487c2.481-1.236,4.963-2.472,7.445-3.707
				c6.918-3.445,1.578-12.255-4.802-11.39c-2.797,0.379-8.092,2.191-10.773,1.451c1.223,0.94,2.446,1.881,3.669,2.822
				c-0.16-0.213-0.32-0.427-0.48-0.64c0.206,1.576,0.412,3.152,0.618,4.728c1.271-7.208-2.299-10.743-9.497-10.787
				c-4.198-0.026-5.838,1.167-8.261,4.471c-2.607,3.556-5.582,6.849-8.609,10.047c-3.542,3.741-1.022,9.886,4.146,10.009
				c7.146,0.171,14.041-1.962,21.165-2.005c0.664,0.063,1.328,0.127,1.992,0.19c1.477-4.021,1.145-5.613-0.995-4.776
				c-1.258,0.159-2.559,0.143-3.823,0.218c-2.723,0.161-5.16,0.806-7.537,2.141c-3.953,2.22-3.673,9.64,1.358,10.39
				c3.584,0.534,6.947,1.438,10.316,2.772c-0.825-3.129-1.651-6.257-2.478-9.386c-0.2,0.158-0.399,0.317-0.6,0.476
				c-2.972,1.04-4.599,3.738-3.895,6.86c0.259-0.871,0.518-1.743,0.777-2.615c-6.158,2.955-1.386,10.879,4.251,10.085
				c5.895-0.83,11.573-2.229,17.238-4.045c5.572-1.786,11.161-5.673,16.969-6.402c5.394-0.678,7.857-9.32,1.412-10.435
				c-0.235-0.041-0.471-0.082-0.706-0.122c1.237,1.236,2.474,2.473,3.711,3.71c-0.089-0.257-0.178-0.513-0.268-0.77
				c-0.178,1.364-0.356,2.729-0.535,4.094c-0.266,0.232-0.531,0.465-0.796,0.697c3.69-2.74,3.378-8.177-1.271-9.728
				c-1.693-0.565-3.387-1.13-5.08-1.694c1.067,2.623,2.135,5.246,3.201,7.868c0.533-0.772,1.065-1.546,1.598-2.319
				c2.017-2.929-0.074-6.979-3.212-7.896c-1.639-0.479-3.278-0.958-4.917-1.436c1.077,2.648,2.154,5.295,3.231,7.944
				c0.156-0.215,0.312-0.429,0.467-0.644c-1.078,0.829-2.156,1.658-3.234,2.487c0.26-0.051,0.52-0.103,0.779-0.154
				c6.46-1.278,4.187-10.04-1.44-10.641c-2.741-0.293-5.27-0.047-7.963,0.501c-6.88,1.4-3.977,12.021,2.902,10.529
				c1.777-0.386,3.264-0.364,5.061-0.195c-0.48-3.548-0.96-7.095-1.44-10.642c-2.14,0.452-3.246,1.568-4.469,3.3
				c-2.05,2.9,0.085,7.067,3.231,7.942c1.645,0.458,3.29,0.916,4.935,1.373c-1.07-2.632-2.142-5.264-3.212-7.896
				c-0.522,0.779-1.045,1.559-1.566,2.339c-2.004,2.99,0.081,6.872,3.201,7.868c1.699,0.543,3.398,1.086,5.098,1.628
				c-0.424-3.242-0.848-6.484-1.271-9.728c-2.674,2.039-4.488,4.492-3.273,7.994c0.571,1.646,1.852,3.389,3.71,3.71
				c0.235,0.041,0.471,0.082,0.706,0.122c0.471-3.478,0.941-6.956,1.412-10.435c-5.978,0.751-10.899,3.437-16.448,5.597
				c-6.146,2.393-12.682,3.886-19.226,4.638c0.929,3.428,1.856,6.854,2.785,10.282c4.035-1.812,5.219-5.799,4.408-9.879
				c-1.299,2.286-2.597,4.573-3.896,6.86c2.224-0.715,3.889-1.671,5.576-3.29c3.347-3.211,1.226-7.863-2.478-9.386
				c-3.353-1.378-6.702-2.325-10.28-2.905c0.453,3.463,0.905,6.927,1.358,10.39c3.527-1.922,8.314,0.183,11.895-2.295
				c3.423-2.367,6.743-6.979,4.199-11.251c-6.046-10.154-23.3-3.332-32.634-3.765c1.382,3.336,2.764,6.673,4.146,10.009
				c4.274-4.316,8.156-8.903,11.855-13.718c-1.741,0.999-3.482,1.998-5.224,2.996c1.858,0.624,2.387,0.405,1.584-0.655
				c-0.524-1.985-1.049-3.97-1.574-5.955c-0.788,4.122-0.521,8.827,4.361,10.242c4.785,1.388,10.841-0.456,15.695-1.052
				c-1.049-3.871-2.097-7.741-3.146-11.612c-2.499,1.205-4.999,2.41-7.498,3.615c-6.773,3.266-1.767,12.806,4.843,11.487
				c3.506-0.699,6.904-0.653,10.445-0.256c-1.824-3.18-3.649-6.359-5.474-9.539c-2.639,4.09-7.105,9.167-3.546,14.067
				c3.783,5.208,11.796,3.429,17.375,3.334c-0.558-4.121-1.115-8.242-1.673-12.363c-3.343,1.263-6.685,2.526-10.026,3.79
				c-7.446,2.814-4.649,14.073,3.334,12.094c2.79-0.691,5.58-1.383,8.369-2.075c-1.108-4.02-2.216-8.039-3.324-12.059
				c-3.082,1.061-5.919,1.605-9.184,1.625c0.552,4.079,1.104,8.157,1.656,12.236c4.317-1.255,8.635-2.51,12.952-3.766
				c7.847-2.281,4.43-13.182-3.297-11.957c-4.468,0.707-8.932,1.445-13.397,2.171c1.576,3.736,3.151,7.474,4.727,11.21
				c4.245-1.898,8.491-3.796,12.737-5.693c5.479-2.447,2.781-11.75-3.059-11.292c-6.119,0.479-12.238,0.958-18.357,1.438
				c0.528,3.905,1.057,7.809,1.585,11.713c4.666-1.964,9.332-3.928,13.999-5.892c5.566-2.343,5.672-12.106-1.564-11.557
				c-6.794,0.516-13.267,1.888-19.579,4.479c-6.911,2.836-4.355,12.311,3.076,11.158c5.572-0.863,10.999-2.15,16.366-3.879
				c7.156-2.305,4.09-12.051-3.029-10.988c-7.813,1.167-15.46,2.935-22.992,5.313c-6.842,2.161-4.042,12.444,2.963,10.749
				c5.007-1.211,10.043-2.172,15.162-2.763c-0.485-3.584-0.97-7.168-1.455-10.752c-5.087,2.085-10.174,4.169-15.261,6.253
				c-6.434,2.637-4.028,11.371,2.855,10.354c3.343-0.495,6.452-1.36,9.572-2.662c5.014-2.092,5.101-10.998-1.41-10.418
				c-13.334,1.186-26.178,4.762-38.286,10.461c-5.75,2.706-1.646,11.738,4.246,10.071c3.715-1.052,7.426-2.104,11.114-3.246
				c-1.457-3.456-2.914-6.912-4.371-10.368c-0.159,0.117-0.319,0.234-0.479,0.352c-2.185,1.602-3.171,3.685-2.606,6.404
				c1.607,7.735,11.438,4.639,16.472,3.039c6.959-2.211,4.109-12.441-3.004-10.895c-1.939,0.422-3.879,0.843-5.819,1.264
				c0.999,3.624,1.998,7.247,2.997,10.871c3.213-0.995,6.426-1.99,9.639-2.985c6.147-1.902,4.843-10.731-1.493-11.029
				c-3.293-0.154-6.09,0.61-8.965,2.191c-5.957,3.276-1.605,11.227,4.324,10.257c3.781-0.618,7.549-0.837,11.376-0.826
				c-1.327-3.205-2.655-6.41-3.983-9.615c-0.762,0.737-1.523,1.476-2.284,2.214c-3.547,3.439-0.88,9.637,3.986,9.624
				c2.595-0.007,5.19-0.013,7.785-0.02c-0.95-3.51-1.901-7.02-2.852-10.529c-1.848,1.284-3.694,2.568-5.541,3.854
				c-3.903,2.715-3.645,8.953,1.353,10.347c1.178,0.328,2.355,0.657,3.533,0.985c-0.451-3.453-0.902-6.905-1.354-10.358
				c-1.382,0.779-2.764,1.558-4.146,2.336c-5.889,3.315-1.71,11.521,4.373,10.371c1.003-0.2,2.009-0.214,3.017-0.04
				c-0.956-3.528-1.911-7.058-2.867-10.586c-0.754,0.575-1.508,1.15-2.262,1.725c-3.935,3.002-3.437,11.159,2.866,10.582
				c1.173-0.108,2.347-0.216,3.52-0.323c-0.503-3.716-1.006-7.432-1.509-11.147c-1.772,0.583-3.003,1.263-4.336,2.578
				c-3.427,3.383-0.99,9.886,4.012,9.685c2.452-0.098,4.825-0.393,7.242-0.809c-1.005-3.644-2.009-7.288-3.014-10.932
				c-0.973,0.347-1.945,0.693-2.918,1.04c-7.012,2.497-4.122,11.975,3.012,10.926c2.637-0.387,5.168-0.967,7.71-1.765
				c6.944-2.181,4.093-12.703-3.008-10.914c-1.722,0.434-3.443,0.867-5.164,1.301c1.002,3.635,2.004,7.27,3.006,10.904
				c2.523-0.714,5.041-1.249,7.636-1.623c-1.001-3.631-2.001-7.262-3.002-10.893c-1.293,0.418-2.585,0.837-3.877,1.255
				c-6.956,2.25-4.112,12.345,3,10.885c2.383-0.489,4.766-0.978,7.148-1.468c6.202-1.275,4.845-11.563-1.499-11.074
				c-0.994,0.076-1.987,0.153-2.981,0.229c0.499,3.69,0.999,7.38,1.498,11.07c2.6-0.981,5.219-1.846,7.892-2.604
				c6.13-1.738,4.89-11.022-1.496-11.056c-0.738-0.004-1.478-0.008-2.216-0.012c0.946,3.494,1.894,6.989,2.84,10.484
				c0.196-0.158,0.392-0.315,0.588-0.473c5.576-2.247,5.293-11.101-1.495-11.049c-0.472-0.059-0.943-0.118-1.415-0.178
				c0,3.614,0,7.228,0,10.842c1.065-0.387,2.131-0.774,3.196-1.162c6.773-2.465,4.158-12.356-2.988-10.836
				c-1.11,0.293-2.238,0.472-3.386,0.535c0.944,3.488,1.89,6.976,2.834,10.464c2.273-1.021,4.547-2.041,6.821-3.061
				c4.952-2.221,2.635-11.148-2.831-10.451c-2.052,0.262-4.104,0.524-6.156,0.787c0.496,3.669,0.993,7.338,1.489,11.007
				c2.186-0.637,4.37-1.272,6.555-1.909c6.039-1.76,4.904-11.027-1.488-10.995c-0.733-0.022-1.466-0.045-2.199-0.067
				c0,3.597,0,7.192,0,10.789c3.054-1.052,6.125-1.963,9.259-2.745c6.012-1.503,4.875-11.542-1.485-10.973
				c-0.959,0.086-1.919,0.172-2.878,0.259c0.495,3.655,0.989,7.312,1.484,10.967c2.852-0.581,5.704-1.163,8.557-1.743
				c6.325-1.288,4.648-10.856-1.482-10.953c-0.827-0.013-1.655-0.026-2.482-0.04c0.494,3.65,0.988,7.3,1.481,10.949
				c1.713-0.468,3.299-1.119,4.927-1.824c4.467-1.932,3.088-9.211-1.331-10.182c-0.759-0.166-1.519-0.333-2.278-0.5
				c0.443,3.393,0.887,6.786,1.33,10.178c0.73-0.342,1.462-0.683,2.193-1.023c4.975-2.319,2.594-10.789-2.81-10.373
				c-0.926,0.071-1.851,0.143-2.776,0.214c0.493,3.643,0.986,7.287,1.479,10.929c1.081-0.417,2.162-0.834,3.244-1.25
				c5.532-2.13,5.206-11.142-1.479-10.923c-1.126,0.161-2.231,0.063-3.313-0.293c0.442,3.386,0.885,6.771,1.327,10.156
				c0.589-0.359,1.177-0.719,1.766-1.078c4.741-2.896,2.751-10.245-2.804-10.352c-1.967-0.038-3.823,0.2-5.738,0.644
				c-6.007,1.391-4.781,11.742,1.476,10.904c2.061-0.275,3.545-0.588,5.37-1.619c4.624-2.611,2.819-10.755-2.801-10.341
				c-1.99-0.108-1.645,0.472,1.036,1.741c-0.186,1.424-0.372,2.848-0.559,4.272c0.167-0.306,0.333-0.61,0.499-0.915
				c1.611-2.953,0.315-7.422-3.313-8.143c-2.013-0.4-3.792-0.609-5.834-0.337c-6.842,0.912-7.323,11.444,0,11.08
				c1-0.05,1.999-0.1,2.999-0.15c7.091-0.354,7.179-11.107,0-11.074c-3.545,0.017-7.073-0.087-10.612-0.287
				c1.799,2.361,3.598,4.723,5.396,7.084c0.822-2.192,0.483-5.523-1.534-7.104c-1.048-0.822-1.985-1.754-3.319-2.103
				c-1.727-0.451-3.467,0.067-5.097-0.319c0.452,3.457,0.904,6.913,1.355,10.37c2.028-1.158,4.057-2.316,6.084-3.474
				c4.134-2.361,3.583-9.462-1.371-10.493c-1.623-0.338-3.246-0.675-4.869-1.013c1.153,2.834,2.307,5.669,3.459,8.504
				c0.316-0.417,0.632-0.834,0.948-1.251c2.759-3.643-1.014-8.724-5.012-8.733c-2.865-0.007-5.73-0.014-8.596-0.021
				c0.99,3.657,1.98,7.313,2.971,10.97c4.677-2.381,9.493-4.297,14.508-5.841c6.021-1.854,5.266-9.329,0-11.46
				c-0.406-0.165-0.813-0.329-1.219-0.493c1.382,2.434,2.765,4.869,4.146,7.303c0.089-0.255,0.178-0.51,0.267-0.765
				c-0.909,1.182-1.818,2.364-2.727,3.546c0.216-0.162,0.432-0.324,0.648-0.486c-2.975-1.707-5.949-3.414-8.923-5.12
				c-0.035,0.264-0.07,0.527-0.104,0.791c0.578-1.397,1.157-2.794,1.735-4.191c0.664-0.539,1.416-0.748,2.259-0.626
				c1.376,1.375,2.752,2.751,4.128,4.127c-0.029-0.167-0.058-0.333-0.087-0.5c-0.905,2.224-1.811,4.448-2.715,6.672
				c0.12-0.082,0.241-0.165,0.361-0.247c6.412-4.366,0.936-13.199-5.961-10.199c-1.435,0.624-2.926,1.021-4.436,1.406
				c-7.379,1.88-4.244,12.948,3.127,11.339c1.656-0.361,2.777-0.835,4.193-1.767c5.489-3.612,2.085-12.452-4.521-10.722
				c0.399,0.23,0.8,0.461,1.199,0.691c-1.646-2.364-3.795-3.122-6.595-2.684c-2.533,0.397-5.07,0.771-7.606,1.145
				c1.898,3.261,3.797,6.522,5.695,9.784c0.281-0.363,0.563-0.727,0.844-1.09c3.74-4.828,0.294-10.613-5.701-9.795
				c-3.352,0.457-6.304,1.519-9.338,2.99c-5.182,2.512-2.809,11.499,2.978,10.995c2.408-0.209,4.815-0.418,7.224-0.627
				c-1.399-3.377-2.798-6.755-4.197-10.132c-1.163,1.011-2.344,1.708-3.795,2.226c1.534,3.638,3.068,7.276,4.601,10.915
				c0.799-0.449,1.598-0.897,2.396-1.346c5.801-3.257,1.831-13.393-4.611-10.938c-3.646,1.389-7.321,2.671-11.041,3.853
				c1.552,3.681,3.104,7.361,4.655,11.042c0.672-0.374,1.344-0.748,2.015-1.124c4.843-2.708,3.287-9.398-1.445-11.058
				c-0.613-0.215-1.227-0.43-1.84-0.646c1.407,1.407,2.813,2.813,4.22,4.22c-1.377-5.732-7.009-7.242-12.125-5.677
				c1.067,3.873,2.135,7.745,3.202,11.617c1.333-0.433,2.667-0.865,4-1.297c7.331-2.376,4.327-13.646-3.195-11.591
				c-2.056,0.562-3.941,1.357-5.777,2.441c-5.934,3.502-1.958,12.582,4.62,10.957c2.477-0.612,4.767-1.526,7.063-2.632
				c-2.011-3.44-4.021-6.88-6.032-10.32c-1.118,0.599-1.987,1.264-2.826,2.216c-3.201,3.633-1.33,10.48,4.215,10.177
				c2.514-0.138,5.028-0.275,7.542-0.412c-1.394-3.365-2.788-6.729-4.181-10.094c-1.012,1.002-2.025,2.004-3.037,3.006
				c-3.785,3.745-0.848,9.82,4.162,10.047c2.938,0.133,5.854,0.135,8.792,0.004c-1.374-3.317-2.748-6.634-4.122-9.951
				c-1.675,1.301-3.35,2.602-5.025,3.902c-3.546,2.752-1.272,8.656,2.554,9.674c1.801,0.479,3.591,0.732,5.446,0.91
				c-0.97-3.58-1.938-7.159-2.909-10.739c-3.252,1.939-6.529,3.833-9.833,5.681c-4.664,2.608-2.922,11.254,2.872,10.603
				c2.725-0.306,5.451-0.611,8.176-0.918c-0.948-3.501-1.897-7.002-2.845-10.504c-5.106,2.47-10.224,4.917-15.339,7.369
				c-5.759,2.76-1.676,11.986,4.294,10.187c3.028-0.912,6.056-1.824,9.084-2.736c-0.983-3.565-1.966-7.132-2.949-10.698
				c-4.821,1.664-9.643,3.328-14.464,4.992c0.976,3.539,1.951,7.078,2.927,10.617c2.287-0.955,4.551-1.728,7.031-2.006
				c-1.292-3.118-2.583-6.237-3.875-9.356c-3.555,2.876-7.552,4.776-11.934,6.009c1.396,3.313,2.793,6.624,4.189,9.937
				c1.835-1.338,3.67-2.676,5.505-4.014c4.619-3.368,2.052-12.066-4.174-9.901c-4.033,1.401-8.105,2.536-12.267,3.487
				c1.379,3.271,2.758,6.542,4.137,9.813c1.379-0.92,2.758-1.84,4.136-2.76c5.678-3.792,0.747-12.328-5.355-9.162
				c-1.685,0.875-3.176,1.276-5.028,1.607c1.34,3.18,2.681,6.359,4.021,9.539c1.577-0.867,3.153-1.734,4.729-2.603
				c5.29-2.91,1.585-10.651-3.968-9.412c-2.126,0.475-4.252,0.949-6.378,1.424c1.643,2.822,3.286,5.645,4.929,8.467
				c1.515-1.208,3.03-2.416,4.546-3.623c3.547-2.826,0.477-8.532-3.529-8.521c-2.134,0.006-4.266,0.01-6.399-0.023
				c0.833,3.076,1.667,6.153,2.5,9.23c0.846-0.646,1.692-1.291,2.539-1.936c4.32-3.294,1.987-10.46-3.827-9.077
				c-2.021,0.481-4.042,0.963-6.063,1.444c1.619,2.78,3.237,5.56,4.855,8.34c1.347-1.139,2.344-2.396,3.288-3.883
				c1.595-2.511,0.184-6.863-2.991-7.352c-2.386-0.368-4.512-0.571-6.929-0.34c0.846,3.122,1.691,6.244,2.537,9.366
				c0.936-0.658,1.871-1.317,2.806-1.977c4.341-3.059,1.771-11.469-3.883-9.211c-0.923,0.369-1.846,0.737-2.77,1.105
				C3.82,29.397,6,38.024,12.492,36.749c0.436-0.086,0.872-0.171,1.308-0.257c1.897-0.531,1.594-0.849-0.91-0.95
				c-0.837-1.459-1.674-2.918-2.511-4.378c-0.012,0.23-0.024,0.462-0.036,0.692c-0.212,4.063,4.406,6.023,7.632,4.379
				c0.643-0.222,1.286-0.444,1.928-0.667c-1.649-2.833-3.298-5.666-4.947-8.499c-0.837,0.729-1.675,1.458-2.513,2.188
				c-4.67,4.063,1.266,10.282,6.177,8.006c0.471-0.218,2.072,1.154,2.638,1.311c1.88,0.517,4.176,0.095,6.1,0.036
				c-1.48-2.58-2.96-5.16-4.441-7.739c-0.204,0.407-0.408,0.815-0.612,1.224c-2.364,4.729,2.346,9.343,7.044,7.044
				c3.361-1.644,6.6-3.451,9.853-5.299c4.23-2.402,2.227-8.725-2.402-8.869c-1.582-0.049-3.504-1.048-5.104-1.295
				c-1.977-0.305-3.75-0.595-5.616-1.292c1.048,1.845,2.096,3.691,3.144,5.536c0.15-0.607,0.301-1.215,0.451-1.822
				c0.668-2.7-1.335-5.874-4.34-5.697c-2.637,0.155-4.393-0.746-7.058,0.014c-2.829,0.807-5.546,2.155-8.088,3.607
				c1.383,2.367,2.766,4.733,4.149,7.1c1.322-0.793,2.643-1.585,3.964-2.377c4.393-2.633,0.503-9.251-4-6.843
				c-0.871,0.535-1.813,0.837-2.826,0.908c0.984,2.336,1.969,4.671,2.954,7.007c1.253-0.661,2.493-1.292,3.698-2.038
				c-1.462-1.895-2.925-3.79-4.387-5.685c-0.811,0.936-1.621,1.71-2.593,2.477c-3.095,2.438,0.854,7.07,4.078,5.285
				c1.214-0.672,2.428-1.344,3.641-2.017c3.117-1.727,0.962-6.418-2.365-5.611c0.853,0.462,1.706,0.925,2.558,1.387
				C18.305,20.415,12.958,21.051,13.263,24.397L13.263,24.397z"/>
		</g>
	</g>
</g>
</svg>
