<?xml version="1.0" encoding="utf-8"?>
<!-- Generator: Adobe Illustrator 16.0.0, SVG Export Plug-In . SVG Version: 6.00 Build 0)  -->
<!DOCTYPE svg PUBLIC "-//W3C//DTD SVG 1.1//EN" "http://www.w3.org/Graphics/SVG/1.1/DTD/svg11.dtd">
<svg version="1.1" id="Layer_1" xmlns="http://www.w3.org/2000/svg" xmlns:xlink="http://www.w3.org/1999/xlink" x="0px" y="0px"
	 width="110px" height="60px" viewBox="0 0 110 60" enable-background="new 0 0 110 60" xml:space="preserve">
<g>
	<path fill="#010101" d="M49.501,49.229c-14.171,2.725-35.017,1.404-43.637-12.32c-5.061-8.055,0.146-16.405,8.724-18.548
		c8.414-2.101,16.76,2.491,23.907,6.364c1.201,0.651,2.261-1.15,1.072-1.834c-8.137-4.681-17.996-9.646-27.514-6.191
		C5.467,19.09,0.147,25.263,1.622,32.601c1.669,8.316,10.216,13.816,17.545,16.654c9.831,3.807,20.609,3.818,30.83,1.773
		C51.175,50.792,50.674,49.005,49.501,49.229"/>
	<path fill="#010101" d="M85.039,20.096c7.341,1.119,17.231,2.587,19.928,10.791c2.829,8.608-7.803,13.715-14.231,16.569
		c-1.59,0.707-0.436,3.512,1.198,2.842c7.641-3.129,18.652-8.434,16.875-18.392c-1.948-10.913-13.527-13.711-22.86-15.108
		C83.797,16.476,82.865,19.765,85.039,20.096"/>
	<path fill="#010101" d="M30.362,15.495C40.19,7.999,51.991,3.562,64.365,2.971c5.954-0.284,12.072,0.225,17.819,1.864
		c8.098,2.31,9.015,8.892,8.837,16.307c-0.027,1.138,1.707,1.129,1.762,0c0.262-5.429,0.284-11.966-4.424-15.67
		c-4.574-3.598-12.084-4.049-17.652-4.346C55.903,0.334,41.229,5.001,29.499,14.018C28.64,14.678,29.485,16.164,30.362,15.495"/>
	<path fill="#010101" d="M48.868,57.04c12.81,3.982,39.367,6.52,45.059-9.963c0.395-1.145-1.386-1.607-1.8-0.496
		C86.509,61.649,61.145,59.009,49.31,55.44C48.284,55.132,47.852,56.724,48.868,57.04"/>
</g>
</svg>
