<?xml version="1.0" encoding="utf-8"?>
<!-- Generator: Adobe Illustrator 16.0.0, SVG Export Plug-In . SVG Version: 6.00 Build 0)  -->
<!DOCTYPE svg PUBLIC "-//W3C//DTD SVG 1.1//EN" "http://www.w3.org/Graphics/SVG/1.1/DTD/svg11.dtd">
<svg version="1.1" id="Layer_1" xmlns="http://www.w3.org/2000/svg" xmlns:xlink="http://www.w3.org/1999/xlink" x="0px" y="0px"
	 width="165px" height="75px" viewBox="0 0 165 75" enable-background="new 0 0 165 75" xml:space="preserve">
<g>
	<g>
		<path d="M35.183,19.396c-8.523,1.078-16.438,4.361-22.949,10.033c-5.825,5.076-11.296,12.947-8.81,21.037
			C5.4,56.892,11.823,60.58,17.789,62.654c10.006,3.476,21.401,4.312,31.912,4.545c1.738,0.039,1.729-2.627,0-2.694
			c-8.732-0.341-17.46-1.369-25.956-3.463c-5.841-1.439-12.795-3.598-16.192-8.979c-4.815-7.625,1.5-16.192,7.31-21.113
			c5.891-4.989,13.071-7.885,20.678-8.908C37.029,21.842,36.692,19.205,35.183,19.396"/>
	</g>
	<g>
		<path d="M50.969,68.27c31.768,12.543,71.67,4.177,94.244-21.979c1.25-1.449-0.773-3.539-2.125-2.125
			c-23.387,24.453-59.505,33.944-91.444,21.656C50.113,65.232,49.468,67.677,50.969,68.27"/>
	</g>
	<g>
		<path d="M37.735,16.458C48.709,5.426,66.11,3.127,80.878,5.803c14.352,2.6,27.422,9.997,37.086,20.902
			c1.111,1.255,2.912-0.577,1.832-1.832C109.295,12.679,94.545,4.837,78.596,2.719C63.699,0.74,46.819,3.593,35.903,14.626
			C34.729,15.812,36.558,17.642,37.735,16.458"/>
	</g>
	<g>
		<path d="M119.932,25.818c11.215-2.107,22.766-1.278,33.48,2.733c1.957,0.732,6.439,2.172,7.311,4.435
			c1.615,4.198-4.238,6.008-6.844,7.065c-5.377,2.181-10.953,3.81-16.605,5.103c-1.465,0.334-0.842,2.559,0.621,2.248
			c4.834-1.024,34.52-6.912,23.781-17.423c-4.539-4.444-13.291-6.139-19.285-7.119c-7.723-1.262-15.484-1.04-23.162,0.41
			C117.559,23.585,118.266,26.131,119.932,25.818"/>
	</g>
	<g>
		<g>
			<path fill="#F5F8F9" d="M24.645,32.706c-3.832,1.724-6.391,5.064-7.031,9.223c-0.303,1.965,0.468,4.5,2.779,4.895
				c10.318,1.759,22.146-6.076,30.56-11.309c5.312-3.303,0.691-10.844-4.828-8.26c-6.864,3.214-13.723,6.442-20.583,9.666
				c1.806,3.09,3.613,6.18,5.419,9.271c5.396-3.386,10.683-7.025,15.731-10.912c4.329-3.333,3.881-12.583-3.206-11.835
				c-4.916,0.519-9.355,1.618-13.963,3.421c2.131,3.661,4.262,7.321,6.393,10.982c1.334-1.288,2.667-2.575,3.998-3.867
				c3.983-3.867,1.108-11.379-4.614-11.139c-1,0.042-2.001,0.084-3.001,0.126c1.853,3.229,3.706,6.457,5.558,9.686
				c0.168-0.247,0.337-0.494,0.505-0.74c4.951-5.378-1.262-13.365-7.71-9.993c-6.493,3.396-13.088,7.084-18.76,11.757
				c-4.866,4.009-1.15,12.303,4.83,11.913c-1.334-3.222-2.669-6.443-4.003-9.665c-2.118,2.075-3.49,4.395-3.905,7.354
				c-0.522,3.721,2.353,8.344,6.762,6.762c1.972-0.708,3.946-1.408,5.906-2.147c-1.715-2.946-3.43-5.892-5.145-8.837
				c-1.229,1.244-2.466,2.48-3.704,3.717c-3.941,3.938,0.105,10.029,5.2,8.934c2.743-0.59,5.366-1.37,7.985-2.377
				c-1.769-3.039-3.538-6.078-5.308-9.117c-1.819,2.092-3.639,4.185-5.458,6.276c-3.28,3.771-0.223,11.541,5.414,9.301
				c6.171-2.453,12.343-4.905,18.515-7.358c-1.89-3.246-3.78-6.493-5.67-9.739c-1.483,1.905-3.079,3.741-5.014,5.208
				c-5.977,4.534-0.971,13.892,5.999,10.264c5.46-2.842,10.92-5.684,16.38-8.525c-2.082-3.562-4.163-7.122-6.244-10.684
				c-2.367,1.5-4.702,3.05-7.049,4.58c-6.75,4.4-0.831,14.643,6.322,10.815c5.584-2.988,10.543-6.9,14.718-11.664
				c3.871-4.418,0.263-13.011-6.217-10.679c-3.076,1.107-6.143,2.23-9.202,3.382c2.074,3.563,4.147,7.125,6.221,10.688
				c3.497-3.475,6.459-7.359,8.856-11.667c2.515-4.521-0.777-8.944-5.439-9.478c-1.951-0.224-3.901-0.447-5.852-0.67
				c1.8,3.138,3.601,6.275,5.401,9.413c2.029-2.766,3.725-5.631,5.175-8.74c1.43-3.065,0.878-6.623-2.218-8.457
				c-2.621-1.552-4.08-0.627-6.729-0.751c1.771,1.016,3.542,2.032,5.313,3.048c-0.092-0.17-0.184-0.341-0.275-0.512
				c0.207,1.58,0.414,3.159,0.62,4.738c0.065-0.186,0.13-0.371,0.195-0.557c-1.975,1.503-3.95,3.007-5.925,4.511
				c0.15-0.012,0.301-0.024,0.451-0.036c-1.033-3.814-2.066-7.629-3.1-11.444c-1.497,1.006-2.993,2.013-4.49,3.02
				c2.465,3.194,4.929,6.389,7.394,9.583c0.979-0.787,1.959-1.575,2.938-2.362c5.374-4.32-1.72-13.458-7.361-9.54
				c-2.228,1.548-3.81,3.119-5.324,5.374c-3.526,5.253,3.227,11.038,8.265,8.265c1.683-0.926,3.366-1.852,5.049-2.778
				c-2.019-3.453-4.037-6.906-6.056-10.359c-3.32,2.443-5.934,5.141-7.718,8.902c-3.013,6.353,4.02,11.294,9.319,7.19
				c4.033-3.123,7.883-6.414,11.532-9.979c5.499-5.374-2.919-13.778-8.419-8.419c-0.583,0.568-1.167,1.136-1.75,1.705
				c-4.746,4.624,1.684,13.46,7.225,9.364c1.593-1.178,3.187-2.355,4.78-3.533c-2.729-2.729-5.458-5.458-8.187-8.187
				c-0.378,0.585-0.756,1.17-1.134,1.755c-2.687,4.154,1.818,10.776,6.766,8.801c2.053-0.819,4.106-1.639,6.16-2.458
				c-2.467-2.466-4.934-4.933-7.4-7.4c-0.201,0.853-0.401,1.706-0.601,2.558c-0.943,4.021,2.883,9.23,7.412,7.412
				c1.292-0.519,2.583-1.037,3.875-1.556c-1.959-3.366-3.918-6.731-5.877-10.097c-1.182,1.213-2.364,2.427-3.546,3.64
				c-4.055,4.163-0.046,12.14,5.896,10.127c3.116-1.055,6.09-2.349,8.955-3.968c-2.049-3.505-4.098-7.011-6.147-10.517
				c-1.021,0.582-2.041,1.164-3.062,1.746c-7.016,3.999-0.865,13.574,6.16,10.538c1.724-0.745,3.447-1.49,5.171-2.234
				c-2.06-3.525-4.121-7.049-6.181-10.574c-1.413,0.921-2.825,1.842-4.237,2.763c-5.531,3.606-1.981,14.021,4.732,11.226
				c2.617-1.09,5.234-2.18,7.852-3.27c-1.585-3.761-3.171-7.521-4.756-11.282c-1.05,0.763-2.1,1.526-3.15,2.289
				c-6.319,4.592-0.603,15.051,6.245,10.685c1.656-1.056,3.07-1.514,5.013-1.805c-2.015-3.461-4.029-6.922-6.044-10.384
				c-0.673,0.843-1.476,1.535-2.407,2.078c-5.01,3.311-3.388,11.892,3.179,11.735c2.632-0.063,5.162-0.429,7.674-1.222
				c-1.663-3.945-3.327-7.891-4.99-11.836c-0.675,0.536-1.428,0.913-2.258,1.13c-6.798,2.244-5.994,13.415,1.755,12.965
				c1.229-0.071,2.458-0.143,3.688-0.214c-1.931-3.365-3.862-6.73-5.793-10.095c-0.433,0.605-0.865,1.21-1.297,1.816
				c-2.789,3.903,0.884,10.844,5.849,10.193c2.607-0.342,5.212-0.683,7.82-1.025c-2.018-3.514-4.033-7.028-6.05-10.542
				c-0.345,0.631-0.662,1.275-0.953,1.933c-2.74,5.863,1.676,11.396,7.96,10.355c1.443-0.239,2.885-0.478,4.326-0.718
				c-2.65-3.449-5.303-6.898-7.953-10.347c0.064-0.123,0.128-0.245,0.192-0.368c-6.236,3.583-3.31,12.889,3.554,13.119
				c1.291,0.043,2.584,0.086,3.877,0.129c-2.025-3.529-4.051-7.057-6.075-10.586c-1.996,3.815-1.892,8.312,1.327,11.53
				c3.348,3.348,8,3.307,12.271,2.145c-2.963-2.257-5.928-4.515-8.891-6.773c0.266-0.68,0.529-1.36,0.795-2.041
				c-4.178,4.867-0.336,14.309,6.83,11.733c3.076-1.106,5.633-2.502,7.666-5.122c3.354-4.323,1.861-12.412-4.959-11.972
				c-3.674,0.237-6.734,1.323-9.215,4.149c-4.07,4.642-1.336,11.664,4.955,11.961c1.283-0.041,2.539,0.121,3.768,0.485
				c-1.393-3.428-2.787-6.855-4.182-10.283c-1.211,2.29-1.701,4.301-1.967,6.864c-0.418,4.036,3.514,6.685,6.996,6.996
				c1.117,0.1,2.234,0.2,3.354,0.3c-2.248-2.95-4.494-5.9-6.742-8.851c-0.32,0.924-0.641,1.849-0.959,2.773
				c-1.838,5.316,3.74,9.684,8.596,8.596c1.609-0.36,2.916-0.418,4.563-0.376c-1.646-3.972-3.291-7.944-4.936-11.916
				c-2.426,2.208-2.664,4.75-2.152,7.818c0.375,2.248,2.719,4.386,4.875,4.875c3.105,0.703,5.535,0.158,7.836-2.091
				c-3.652-2.818-7.307-5.637-10.959-8.455c-2.336,3.916-1.547,7.975,1.582,11.147c3.656,3.706,9.371,1.894,13.76,1.056
				c4.998-0.955,10.059-0.823,15.063-1.561c5.963-0.879,11.619-1.178,17.566-0.176c0.445-3.283,0.889-6.565,1.334-9.848
				c-7.514,0.935-14.773,2.514-21.92,5.041c1.236,2.929,2.471,5.857,3.705,8.786c1.088-0.47,2.174-0.938,3.262-1.407
				c5.18-2.234,1.344-9.844-3.678-8.722c-8.043,1.797-15.768,4.473-23.266,7.882c-4.963,2.256-1.361,9.767,3.596,8.527
				c3.389-0.848,6.777-1.695,10.168-2.542c-1.199-2.843-2.396-5.685-3.596-8.527c-2.713,1.262-5.43,2.515-8.162,3.732
				c-4.902,2.185-1.391,10.349,3.641,8.635c2.588-0.882,5.16-1.601,7.881-1.944c-0.432-3.195-0.865-6.391-1.297-9.586
				c-2.488,1.049-4.977,2.097-7.467,3.146c-5.807,2.447-3.826,11.112,2.666,9.668c2.73-0.606,5.461-1.214,8.189-1.82
				c-0.912-3.312-1.824-6.624-2.738-9.936c-1.662,0.684-3.324,1.367-4.986,2.05c-6.057,2.491-3.84,12.155,2.787,10.107
				c0.742-0.358,1.52-0.484,2.332-0.379c-0.893-3.295-1.785-6.589-2.678-9.883c-1.082,0.534-2.166,1.068-3.25,1.603
				c-4.648,2.293-2.588,10.527,2.707,9.994c0.838-0.085,1.676-0.169,2.514-0.254c-0.479-3.538-0.959-7.077-1.438-10.616
				c-2.803,1.086-5.604,2.173-8.406,3.26c-5.363,2.08-5.221,11.686,1.477,10.908c1.988-0.231,3.965-0.52,5.947-0.8
				c-1.439-3.416-2.881-6.831-4.32-10.247c-2.314,1.046-4.672,1.813-7.117,2.485c-7.1,1.95-4.064,12.238,3.002,10.889
				c1.574-0.301,3.148-0.602,4.723-0.901c-1.455-3.453-2.91-6.905-4.367-10.358c-2.42,1.025-4.918,1.787-7.451,2.477
				c1.852,3.18,3.703,6.36,5.555,9.54c1.123-0.891,2.246-1.781,3.369-2.672c4.697-3.728-0.41-10.965-5.572-9.572
				c-4.076,1.101-8.152,2.201-12.229,3.301c1.484,3.523,2.971,7.046,4.455,10.569c3.104-2.188,6.209-4.377,9.313-6.563
				c5.176-3.646,2.191-12.648-4.494-10.66c-5.824,1.732-11.65,3.464-17.477,5.189c1.521,3.606,3.041,7.213,4.561,10.819
				c5.332-3.165,10.764-6.133,16.309-8.91c6.438-3.225,1.863-13.013-4.771-11.316c-5.811,1.486-11.619,2.972-17.43,4.458
				c1.658,3.932,3.316,7.864,4.975,11.797c4.646-2.747,9.408-5.229,14.322-7.462c6.873-3.124,1.893-14.994-5.156-12.229
				c-8.377,3.286-16.752,6.573-25.109,9.908c1.805,4.282,3.61,8.564,5.416,12.846c5.746-2.639,11.299-5.592,16.699-8.88
				c6.869-4.184,2.418-15.536-5.541-13.141c-7.745,2.331-15.49,4.662-23.235,6.994c1.9,4.507,3.8,9.014,5.7,13.52
				c5.676-3.82,11.352-7.64,17.03-11.459c6.99-4.704,2.74-16.12-5.836-13.84c-5.965,1.585-11.928,3.176-17.881,4.81
				c1.972,4.677,3.943,9.353,5.915,14.029c6.977-3.229,13.955-6.458,20.931-9.688c7.992-3.697,2.295-16.56-5.924-14.051
				c-6.013,1.836-11.813,4.255-17.36,7.214c-7.874,4.199-2.378,16.168,5.93,14.067c8.117-2.054,16.232-4.106,24.35-6.159
				c-1.98-4.696-3.961-9.394-5.941-14.091c-7.387,3.648-15.227,5.864-23.373,7.022c2.505,4.303,5.01,8.605,7.515,12.908
				c3.905-3.562,7.44-7.206,10.587-11.464c4.281-5.796-2.736-12.845-8.73-11.357c-7.563,1.877-15.127,3.755-22.69,5.632
				c1.988,4.717,3.977,9.435,5.966,14.152c5.952-3.23,11.903-6.46,17.854-9.689c7.832-4.25,2.434-16.442-5.974-14.171
				c-7.895,2.133-15.789,4.265-23.683,6.398c1.995,4.731,3.989,9.463,5.984,14.194c4.439-3.088,8.969-6.024,13.601-8.816
				c7.638-4.604,2.574-16.307-5.991-14.21c-6.021,1.474-12.033,2.98-18.049,4.474c1.985,4.709,3.971,9.418,5.956,14.128
				c4.642-2.848,9.419-5.382,14.38-7.629c7.961-3.607,2.273-16.788-5.922-14.046c-4.405,1.474-8.811,2.948-13.216,4.422
				c1.964,4.659,3.928,9.317,5.892,13.976c2.126-1.354,4.081-2.22,6.634-2.384c-1.281-4.731-2.563-9.461-3.844-14.192
				c-4.582,3.483-9.163,6.967-13.744,10.45c-4.932,3.75-9.032,6.734-11.427,12.618c-1.771,4.353,2.725,9.94,7.268,9.541
				c4.392-0.386,8.784-0.771,13.176-1.157c-1.768-4.269-3.536-8.536-5.304-12.805c-3.769,3.443-7.957,6.005-12.595,8.12
				c-7.664,3.495-2.182,16.352,5.725,13.579c2.912-1.021,5.824-2.043,8.736-3.064c-1.887-4.475-3.773-8.949-5.66-13.424
				c-3.119,1.739-6.29,3.338-9.543,4.81c2.438,4.172,4.877,8.344,7.315,12.516c0.708-0.447,1.417-0.895,2.126-1.342
				c6.701-4.228,2.449-15.956-5.566-13.203c-4.843,1.663-9.61,1.725-14.476,3.213c2.99,2.277,5.98,4.556,8.97,6.833
				c0.018-0.465,0.035-0.931,0.052-1.396c0.136-3.66-3.325-7.333-7.074-7.074c-2.444,0.169-4.889,0.337-7.333,0.506
				c1.651,3.987,3.303,7.975,4.955,11.961c0.495-0.499,0.99-0.998,1.485-1.497c3.973-4.005,1.705-9.847-3.083-11.678
				c0.498,2.533,0.995,5.066,1.492,7.6c1.147-0.02,2.293-0.012,3.44,0.021c2.547,0.041,5.094,0.082,7.642,0.123
				c1.91,0.03,3.821,0.061,5.731,0.092c1.274,0.02,2.547,0.04,3.821,0.061c-1.632-5.845-2.524-6.944-2.676-3.299
				c0.94,11.47,12.851,7.598,20.489,6.327c-2.223-3.818-4.445-7.637-6.668-11.455c-1.357,1.253-2.752,2.076-4.416,2.88
				c-8.112,3.92-1.014,15.266,6.941,11.875c1.926-0.82,3.851-1.642,5.777-2.462c7.16-3.051,1.939-15.474-5.314-12.605
				c-3.06,1.209-5.845,2.534-8.502,4.489C46,54.657,52.051,64.817,60.243,61.271c1.711-0.741,3.423-1.481,5.134-2.223
				c-2.335-3.995-4.67-7.991-7.006-11.986c-2.519,1.193-4.639,2.797-6.559,4.814c-4.655,4.893-0.096,13.758,6.773,11.636
				c3.062-0.946,6.124-1.892,9.186-2.837c-2.268-3.896-4.536-7.792-6.804-11.688c-1.068,1.143-2.136,2.285-3.204,3.429
				c-3.796,4.063-1.513,12.624,4.956,11.963c1.666-0.17,3.331-0.339,4.996-0.509c-2.022-3.523-4.043-7.047-6.065-10.57
				c-0.499,0.785-0.997,1.57-1.496,2.355c-2.719,4.278,0.771,11.018,6.073,10.583c1.4-0.114,2.8-0.229,4.201-0.345
				c-2.028-3.534-4.057-7.069-6.085-10.604c-0.758,1.021-1.516,2.04-2.274,3.061c-4.565,6.146,3.954,12.566,9.659,9.659
				c-0.025,0.054-0.051,0.107-0.077,0.161c-1.667-0.69-3.333-1.381-5-2.071c0.259,0.239,0.517,0.479,0.775,0.72
				c1.7,1.579,4.558,2.763,6.884,1.819c1.319-0.534,2.717-1.15,4.145-1.34c-2.042-3.56-4.084-7.118-6.127-10.677
				c-0.398,0.544-0.874,1.012-1.429,1.402c-5.309,4.62,0.277,14.195,6.916,11.881c6.752-2.355,13.838-1.241,20.275-4.916
				c-2.896-3.754-5.793-7.508-8.689-11.262c-0.596,0.521-1.191,1.04-1.787,1.561c-5.698,4.975,0.402,13.556,6.984,11.997
				c2.676-0.634,5.352-1.267,8.027-1.9c-1.275,0-2.553,0-3.83,0c7.924,2.67,15.781,0.562,22.045-4.708
				c7.158-6.023-3.174-16.308-10.264-10.264c-2.375,2.025-5.137,2.004-7.951,1.077c-3.428-1.131-8.477,1.131-11.844,1.951
				c2.328,3.999,4.656,7.998,6.984,11.997c0.592-0.523,1.184-1.047,1.775-1.57c6.219-5.502-1.77-15.272-8.689-11.262
				c-4.922,2.852-11.465,1.685-16.816,3.59c2.305,3.961,4.61,7.921,6.916,11.881c1.438-1.269,2.551-2.709,3.631-4.293
				c3.949-5.795-2.539-11.185-8.013-10.423c-2.133,0.297-4.03,0.811-6.02,1.633c2.294,0.606,4.589,1.213,6.884,1.819
				c-3.953-3.623-8.278-3.353-12.83-0.995c3.22,3.22,6.439,6.439,9.659,9.659c0.751-1.024,1.502-2.05,2.252-3.074
				c3.058-4.172-1.015-11.055-6.085-10.604c-1.4,0.124-2.8,0.248-4.201,0.372c2.024,3.527,4.049,7.056,6.073,10.583
				c0.494-0.788,0.987-1.575,1.48-2.363c2.625-4.192-0.713-11.149-6.065-10.57c-1.666,0.18-3.331,0.36-4.996,0.542
				c1.652,3.987,3.304,7.976,4.956,11.963c1.061-1.149,2.122-2.3,3.182-3.45c4.542-4.924,0.171-13.891-6.804-11.688
				c-3.057,0.966-6.113,1.932-9.169,2.897c2.258,3.879,4.516,7.757,6.773,11.636c1.192-1.27,2.152-1.919,3.719-2.674
				c8.151-3.927,1.032-15.527-7.006-11.986c-1.706,0.751-3.411,1.503-5.117,2.254c2.33,3.985,4.659,7.97,6.988,11.955
				c1.621-1.21,3.291-2.382,5.181-3.144c-1.771-4.202-3.543-8.403-5.314-12.605c-1.919,0.832-3.837,1.664-5.756,2.497
				c2.314,3.958,4.627,7.917,6.941,11.875c2.669-1.312,4.996-3.032,7.167-5.062c5.435-5.081-0.386-12.542-6.668-11.455
				c-1.301,0.225-2.602,0.449-3.903,0.673c-0.651,0.108-1.303,0.217-1.955,0.325c-2.4,0.062-2.596,0.345-0.587,0.849
				c1.133,1.976,2.266,3.951,3.399,5.927c-0.425-5.508-1.892-9.472-8.093-10.994c-6.248-1.534-13.815-0.579-20.224-0.713
				c-5.749-0.121-12.914,0.686-14.904,7.205c-1.738,5.694,0.944,10.354,6.257,12.496c-1.028-3.893-2.056-7.785-3.083-11.678
				c-0.504,0.489-1.008,0.979-1.512,1.47c-4.246,4.126-1.211,12.273,4.955,11.961c2.444-0.124,4.889-0.248,7.333-0.371
				c-2.358-2.358-4.716-4.716-7.074-7.074c-0.026,0.465-0.052,0.931-0.077,1.396c-0.255,4.61,4.717,8.05,8.97,6.833
				c2.336-0.668,4.315-0.784,6.73-0.779c2.591,0.005,5.385-1.382,7.819-2.168c-1.855-4.401-3.711-8.803-5.566-13.203
				c-0.716,0.434-1.433,0.867-2.149,1.301c-8.209,4.971-1.047,16.117,7.315,12.516c3.284-1.415,6.488-2.957,9.642-4.642
				c7.313-3.905,2.278-16.046-5.66-13.424c-2.927,0.967-5.854,1.934-8.781,2.9c1.908,4.526,3.816,9.053,5.725,13.579
				c5.845-2.538,10.981-6.077,15.703-10.343c4.67-4.219,1.197-13.34-5.304-12.804c-4.392,0.362-8.784,0.723-13.176,1.084
				c2.422,3.18,4.845,6.36,7.268,9.541c0.87-2.104,5.792-4.503,7.597-5.858c3.575-2.688,7.151-5.376,10.726-8.064
				c5.459-4.104,4.515-14.686-3.844-14.192c-5.208,0.308-9.917,1.619-14.353,4.412c-7.131,4.489-2.609,16.768,5.892,13.976
				c4.412-1.449,8.825-2.898,13.237-4.348c-1.974-4.682-3.948-9.364-5.922-14.046c-4.974,2.221-9.766,4.729-14.425,7.552
				c-7.586,4.595-2.565,16.194,5.956,14.128c6.025-1.461,12.053-2.908,18.073-4.387c-1.997-4.737-3.994-9.474-5.991-14.21
				c-4.63,2.797-9.156,5.738-13.593,8.832c-7.012,4.889-2.896,16.604,5.984,14.195c7.892-2.141,15.784-4.282,23.676-6.422
				c-1.991-4.724-3.983-9.448-5.974-14.171c-5.948,3.236-11.896,6.472-17.843,9.708c-7.884,4.289-2.412,16.241,5.966,14.152
				c7.562-1.886,15.123-3.771,22.684-5.656c-2.909-3.785-5.819-7.57-8.729-11.356c-2.306,3.129-5.304,5.736-8.159,8.345
				c-6.336,5.792,0.59,13.901,7.515,12.909c9.503-1.36,18.454-4.348,27.05-8.604c8.043-3.983,2.309-16.187-5.941-14.091
				c-8.113,2.062-16.229,4.123-24.342,6.184c1.977,4.689,3.954,9.378,5.93,14.067c4.411-2.358,8.898-4.214,13.68-5.679
				c-1.975-4.684-3.949-9.367-5.924-14.051c-6.973,3.236-13.946,6.472-20.919,9.708c-8.053,3.737-2.281,16.288,5.915,14.029
				c5.951-1.64,11.889-3.322,17.825-5.009c-1.943-4.614-3.889-9.228-5.834-13.841c-5.617,3.921-11.235,7.841-16.852,11.763
				c-6.541,4.566-2.741,16.219,5.7,13.52c7.709-2.465,15.416-4.93,23.125-7.395c-1.846-4.38-3.693-8.761-5.539-13.141
				c-5.341,3.378-10.84,6.424-16.536,9.159c-7.132,3.424-1.935,15.925,5.415,12.846c8.857-3.711,17.695-7.469,26.529-11.233
				c-2.252-3.852-4.504-7.703-6.754-11.555c-4.842,2.373-9.525,4.991-14.084,7.87c-6.097,3.85-2.229,13.865,4.973,11.797
				c5.764-1.654,11.527-3.31,17.289-4.965c-1.59-3.771-3.18-7.544-4.77-11.315c-5.459,2.937-10.799,6.061-16.033,9.379
				c-5.537,3.511-2.044,12.854,4.561,10.819c5.811-1.789,11.621-3.573,17.432-5.357c-1.498-3.554-2.996-7.106-4.494-10.66
				c-3.088,2.216-6.176,4.433-9.262,6.649c-5.113,3.671-2.211,12.431,4.455,10.569c4.066-1.137,8.133-2.272,12.199-3.408
				c-1.857-3.19-3.715-6.381-5.572-9.572c-1.113,0.9-2.227,1.8-3.342,2.699c-4.611,3.72,0.371,11,5.553,9.54
				c3.492-0.983,6.813-2.256,10.137-3.697c6.221-2.697,1.547-11.541-4.367-10.358c-1.57,0.314-3.141,0.629-4.711,0.942
				c1.002,3.63,2.002,7.259,3.002,10.889c3.379-0.96,6.59-2.22,9.773-3.692c6.268-2.897,1.416-11.11-4.318-10.247
				c-1.484,0.224-2.965,0.441-4.443,0.704c1.426,3.383,2.852,6.767,4.279,10.149c2.764-1.178,5.527-2.354,8.291-3.53
				c4.83-2.055,2.502-10.771-2.727-10.071c-0.838,0.112-1.676,0.225-2.514,0.336c0.902,3.332,1.805,6.663,2.707,9.994
				c1.064-0.568,2.127-1.137,3.189-1.706c4.627-2.475,2.555-10.064-2.676-9.883c-1.785,0.063-3.43,0.296-5.119,0.879
				c1.348,3.193,2.693,6.386,4.039,9.579c1.639-0.737,3.277-1.476,4.918-2.213c5.473-2.464,1.506-10.824-3.971-9.416
				c-2.705,0.695-5.41,1.392-8.117,2.088c1.289,3.054,2.576,6.108,3.863,9.163c2.455-1.131,4.91-2.261,7.363-3.39
				c5.43-2.498,1.256-9.72-3.76-8.92c-3.152,0.504-6.109,1.291-9.096,2.419c1.213,2.878,2.426,5.757,3.641,8.635
				c2.688-1.305,5.393-2.573,8.102-3.834c4.943-2.299,1.369-9.768-3.594-8.527c-3.391,0.848-6.779,1.694-10.168,2.542
				c1.197,2.843,2.396,5.686,3.594,8.527c6.783-3.083,13.799-5.255,21.094-6.735c-0.846-3.068-1.691-6.136-2.537-9.204
				c-1.096,0.448-2.191,0.896-3.289,1.343c-5.574,2.278-3.457,11.267,2.557,9.271c6.313-2.095,12.742-3.59,19.363-4.284
				c5.201-0.544,7.318-8.719,1.332-9.848c-7.334-1.384-14.652-2.906-22.076-3.771c-3.602-0.42-7.754,0.44-11.328,0.902
				c-1.871,0.242-3.732,0.529-5.594,0.843c-0.621,0.117-1.242,0.234-1.863,0.351c-3.473,0.255-2.652,1.388,2.467,3.397
				c-0.234,1.792-0.469,3.583-0.703,5.375c0.17-0.284,0.34-0.568,0.51-0.852c4.135-6.892-5.313-13.949-10.957-8.455
				c-0.148,0.144-0.297,0.288-0.443,0.432c2.262-0.598,4.525-1.196,6.789-1.794c-0.201-0.046-0.402-0.092-0.604-0.139
				c1.623,1.625,3.248,3.25,4.873,4.875c-0.033-0.204-0.066-0.408-0.1-0.611c-0.6,2.264-1.197,4.527-1.795,6.791
				c0.152-0.139,0.305-0.277,0.459-0.416c4.697-4.257,0.854-11.751-4.936-11.916c-2.811-0.08-5.535,0.252-8.277,0.859
				c2.865,2.865,5.73,5.73,8.596,8.596c0.322-0.924,0.643-1.848,0.967-2.771c1.615-4.63-2.527-8.463-6.742-8.851
				c-1.119-0.103-2.236-0.206-3.354-0.308c2.332,2.332,4.664,4.664,6.996,6.996c0.02,0.067,0.041,0.135,0.063,0.203
				c2.02-3.802,0.402-9.282-4.184-10.283c-2.48-0.542-4.953-0.873-7.49-0.999c1.652,3.987,3.303,7.974,4.955,11.961
				c-0.232-0.011-0.463-0.021-0.695-0.032c-1.654-3.991-3.307-7.981-4.959-11.972c-0.324,0.69-0.818,1.19-1.48,1.501
				c2.277,3.911,4.555,7.822,6.83,11.733c2.129-2.467,2.977-4.641,3.326-7.887c0.498-4.641-4.848-7.863-8.893-6.773
				c0.762,2.324,1.523,4.648,2.285,6.973c2.523-4.794-0.619-10.39-6.074-10.586c-1.293-0.046-2.586-0.093-3.877-0.139
				c1.184,4.373,2.369,8.746,3.553,13.119c2.115-1.208,3.498-2.688,4.865-4.679c3.883-5.655-2.486-11.241-7.955-10.347
				c-1.443,0.236-2.886,0.472-4.329,0.707c2.653,3.452,5.308,6.903,7.96,10.355c0.564-1.202,1.07-2.426,1.586-3.649
				c2.268-5.4-4.051-9.49-8.619-8.618c-2.586,0.493-5.171,0.987-7.757,1.48c2.55,3.317,5.1,6.634,7.65,9.951
				c0.395-0.627,0.79-1.254,1.186-1.881c2.502-3.974-0.684-10.692-5.793-10.095C80.409,9.08,79.18,9.223,77.95,9.367
				c0.585,4.322,1.17,8.644,1.755,12.965c1.895-0.751,3.617-1.496,5.285-2.676C90.574,15.708,87.318,5.032,80,7.82
				c-1.409,0.536-2.718,0.991-4.231,1.116c1.06,3.912,2.119,7.823,3.179,11.735c1.737-1.3,3.345-2.586,4.836-4.167
				c4.563-4.842-0.108-11.317-6.044-10.384c-2.888,0.454-5.503,1.514-7.955,3.102c2.082,3.562,4.164,7.123,6.245,10.685
				c1.045-0.771,2.09-1.542,3.135-2.313c6.481-4.782,1.08-13.767-6.23-10.66c-2.609,1.109-5.219,2.218-7.828,3.327
				c2.066,3.536,4.133,7.071,6.199,10.606c1.406-0.932,2.813-1.863,4.219-2.795c6.707-4.443,0.942-13.714-6.181-10.574
				c-1.717,0.757-3.434,1.514-5.15,2.271c2.053,3.513,4.107,7.025,6.16,10.538c1.017-0.589,2.033-1.178,3.049-1.768
				c6.79-3.938,0.674-14.438-6.147-10.517c-1.959,1.126-3.892,2.058-6.029,2.799c1.965,3.375,3.93,6.751,5.896,10.127
				c1.173-1.222,2.347-2.444,3.52-3.667c3.853-4.013,0.042-12.523-5.877-10.097c-1.289,0.529-2.578,1.057-3.868,1.586
				c2.471,2.471,4.941,4.941,7.412,7.412c0.194-0.855,0.388-1.709,0.582-2.564c0.907-3.992-2.86-9.25-7.4-7.4
				c-2.049,0.834-4.098,1.669-6.147,2.505c2.255,2.934,4.511,5.868,6.766,8.801c0.374-0.587,0.748-1.175,1.122-1.763
				c3.068-4.824-3.288-11.864-8.187-8.187c-1.586,1.19-3.172,2.381-4.758,3.571c2.408,3.121,4.817,6.243,7.225,9.364
				c0.579-0.572,1.158-1.145,1.737-1.717c-2.806-2.806-5.613-5.613-8.419-8.419c-3.254,3.228-6.636,6.323-10.303,9.079
				c2.706,2.706,5.412,5.412,8.118,8.118c0.904-1.836,1.829-3.321,3.526-4.532c6.219-4.438,0.881-14.045-6.056-10.359
				c-1.697,0.902-3.394,1.804-5.091,2.705c2.755,2.755,5.51,5.51,8.265,8.265c0.341-0.327,0.682-0.655,1.023-0.982
				c-2.454-3.18-4.907-6.36-7.361-9.54c-0.993,0.774-1.985,1.549-2.977,2.323c-5.491,4.285,1.649,13.327,7.394,9.583
				c1.51-0.984,3.02-1.968,4.53-2.952c4.789-3.12,3.358-11.861-3.1-11.444c-0.15,0.01-0.301,0.019-0.451,0.029
				c-2.934,0.189-4.924,1.779-5.925,4.511c-0.89,2.429-0.181,5.227,1.646,7.054c2.636,2.636,5.721,1.664,8.851,1.085
				c-1.586-0.208-3.172-0.415-4.758-0.622c0.249,0.152,0.499,0.305,0.748,0.458c-0.739-2.819-1.479-5.638-2.218-8.457
				c-1.496,3.088-3.234,5.928-5.303,8.665c-3.228,4.269,1.341,8.888,5.401,9.413c1.951,0.252,3.901,0.504,5.852,0.756
				c-1.813-3.159-3.626-6.319-5.439-9.478c-1.951,3.389-4.207,6.266-7.021,8.981c-4.433,4.276,0.071,12.901,6.221,10.688
				c3.076-1.107,6.14-2.24,9.2-3.392c-2.072-3.56-4.145-7.12-6.217-10.68c-3.469,4.078-7.319,7.289-12.004,9.885
				c2.107,3.604,4.215,7.21,6.322,10.815c2.327-1.566,4.666-3.115,6.971-4.712c6.486-4.491,0.823-14.602-6.244-10.684
				c-5.378,2.981-10.757,5.963-16.135,8.945c2.4,3.111,4.801,6.223,7.202,9.334c2.729-2.185,4.896-4.675,6.964-7.48
				c3.915-5.312-3.326-9.962-7.973-7.974c-6.104,2.613-12.208,5.226-18.312,7.839c2.248,2.913,4.496,5.826,6.743,8.739
				c1.768-2.144,3.536-4.287,5.304-6.431c3.032-3.677,0.299-11.442-5.308-9.118c-2.594,1.076-5.198,1.927-7.927,2.589
				c1.733,2.979,3.467,5.956,5.2,8.934c1.205-1.269,2.409-2.537,3.623-3.798c3.639-3.782,0.035-10.27-5.145-8.838
				c-2.013,0.557-4.013,1.154-6.017,1.743c2.254,2.254,4.508,4.508,6.762,6.762c-0.049-1.036,0.388-1.793,1.311-2.27
				c3.809-3.318,0.701-9.696-4.003-9.665c-0.221,0.001-0.441,0.003-0.662,0.004c1.339,0.555,2.678,1.109,4.018,1.664
				c0.284,0.415,0.568,0.83,0.852,1.244c-0.192,1.471-0.385,2.94-0.577,4.411c-1.051,1.694,2.055-1.128,2.486-1.385
				c1.527-0.908,3.087-1.758,4.647-2.607c3.125-1.703,6.345-3.227,9.589-4.689c-2.57-3.331-5.14-6.662-7.71-9.993
				c-1.03,0.995-1.83,2.051-2.624,3.24c-2.792,4.186,0.926,9.611,5.558,9.686c1,0.016,2.001,0.033,3.001,0.049
				c-1.538-3.713-3.076-7.426-4.614-11.139c-1.356,1.265-2.709,2.534-4.062,3.802c-4.615,4.327,0.13,13.328,6.393,10.982
				c3.97-1.488,8.056-2.565,12.158-3.619c-2.06-3.538-4.12-7.077-6.179-10.615c-4.178,4.319-8.531,8.164-13.454,11.616
				c-5.611,3.934-0.768,12.574,5.419,9.271c6.665-3.558,13.332-7.111,19.992-10.677c-1.609-2.753-3.219-5.506-4.828-8.26
				c-3.43,2.396-6.948,4.614-10.59,6.674c-4.142,2.342-9.195,5.646-14.084,5.079c1.326,1.326,2.652,2.652,3.979,3.979
				c0.198-1.979,1.342-2.987,2.984-3.835C32.753,36.912,28.948,30.77,24.645,32.706L24.645,32.706z"/>
		</g>
	</g>
	<g>
		<path d="M62.253,38.906c10.716-6.439,22.81-1.774,33.331,2.611c1.102,0.458,1.924-1.466,0.818-1.942
			c-11.236-4.836-23.842-9.539-35.247-2.548C59.963,37.758,61.048,39.63,62.253,38.906"/>
	</g>
</g>
</svg>
