<?xml version="1.0" encoding="utf-8"?>
<!-- Generator: Adobe Illustrator 16.0.0, SVG Export Plug-In . SVG Version: 6.00 Build 0)  -->
<!DOCTYPE svg PUBLIC "-//W3C//DTD SVG 1.1//EN" "http://www.w3.org/Graphics/SVG/1.1/DTD/svg11.dtd">
<svg version="1.1" id="Layer_1" xmlns="http://www.w3.org/2000/svg" xmlns:xlink="http://www.w3.org/1999/xlink" x="0px" y="0px"
	 width="180px" height="80px" viewBox="0 0 180 80" enable-background="new 0 0 180 80" xml:space="preserve">
<g>
	<g>
		<path d="M9.271,79.031c52.455-1.736,104.925-3.224,157.364-5.39c1.261-0.054,1.272-2.004,0-1.969
			c-52.464,1.426-104.913,3.532-157.364,5.39C8.009,77.107,8.002,79.074,9.271,79.031"/>
	</g>
	<g>
		<path d="M29.957,38.91c-8.913,2.283-18.16,6.147-23.626,13.945c-4.988,7.118-5.916,16.656-0.8,23.916
			c1.325,1.879,4.412,0.159,3.132-1.831c-4.468-6.947-2.71-16.086,2.697-22.04c5.123-5.642,12.394-8.478,19.589-10.392
			C33.268,41.89,32.288,38.313,29.957,38.91"/>
	</g>
	<g>
		<path d="M31.939,36.804C29.234,17.098,54.474,8.365,69.839,6.532s31.927,3.248,39.515,17.655c0.842,1.599,3.226,0.189,2.416-1.412
			C103.227,5.883,83.386,1.07,65.942,4.165C49.363,7.104,26.339,17.03,29.191,37.563C29.442,39.373,32.186,38.6,31.939,36.804"/>
	</g>
	<g>
		<path d="M171.206,67.219c4.375-5.533,8.218-12.601,5.642-19.783c-2.427-6.761-9.603-10.209-15.701-12.966
			c-1.373-0.62-2.593,1.361-1.203,2.058c4.917,2.47,10.444,5.253,13.253,10.231c3.708,6.575,0.013,13.511-4.065,18.859
			C168.23,66.8,170.275,68.396,171.206,67.219"/>
	</g>
	<g>
		<path d="M115.954,24.009c13.687-5.408,29.338-2.022,39.545,8.584c0.904,0.939,2.332-0.491,1.43-1.429
			c-10.637-11.052-27.221-14.646-41.471-8.954C114.358,22.65,114.834,24.452,115.954,24.009"/>
	</g>
	<g>
		<g>
			<path fill="#F5F8F9" d="M46.251,24.086c2.029,5.669,7.09,3.502,10.881,1.014c-1.627-2.109-3.254-4.218-4.882-6.327
				c-1.258,1.224-2.412,2.18-4.107,2.753c1.34,2.301,2.679,4.603,4.019,6.904c1.197-1.095,2.437-2.136,3.644-3.22
				c3.001-2.696-0.141-8.61-4.087-7.021c-1.832,0.737-3.522,1.534-5.226,2.542c1.947,1.947,3.894,3.894,5.841,5.841
				c0.46-0.727,0.906-1.462,1.337-2.206c1.595-2.692-0.417-6.668-3.718-6.479c-2.861,0.164-4.992,1.174-7.531,2.432
				c1.772,2.298,3.545,4.595,5.318,6.893c1.005-0.847,1.888-1.778,2.826-2.697c2.575-2.523,0.84-7.998-3.143-7.588
				c-4.054,0.417-6.6,2.517-9.604,5.115c-3.928,3.397,1.202,9.951,5.52,7.154c1.244-0.806,2.474-1.627,3.695-2.467
				c4.875-3.354,0.658-10.779-4.662-7.977c-5.311,2.797-8.622,7.83-8.384,13.91c0.187,4.784,6.372,6.526,8.938,2.421
				c1.042-1.667,1.368-3.127,1.606-5.054c0.615-4.979-6.766-6.315-9.014-2.441c-1.598,2.752-1.899,5.4-0.993,8.455
				c1.094,3.69,5.442,4.602,8.205,2.166c0.891-0.816,1.814-1.594,2.768-2.336c-2.438-1.875-4.877-3.75-7.316-5.624
				c-0.75,2.363-2.599,4.037-3.206,6.544c-1.068,4.408,3.528,7.971,7.522,5.783c5.368-2.939,9.612-7.475,15.096-10.222
				c-2.21-2.865-4.42-5.729-6.631-8.594c-2.474,2.69-5.968,4.147-8.559,6.765c-3.721,3.759,0.009,11.737,5.528,9.497
				c5.733-2.327,10.384-6.052,15.025-10.08c4.493-3.898-0.24-11.871-5.813-9.985c-2.224,0.753-4.376,1.485-6.687,1.925
				c2.269,2.951,4.538,5.903,6.807,8.854c1.723-2.59,4.63-4.249,6.645-6.619c4.36-5.126-1.093-13.019-7.342-9.516
				c-1.198,0.671-1.925,1.118-3.283,1.352c2.287,2.974,4.573,5.948,6.859,8.922c0.723-0.814,1.475-1.601,2.257-2.359
				c4.962-4.995-1.333-12.827-7.377-9.561c-1.351,0.73-2.573,1.177-4.054,1.577c1.98,3.401,3.96,6.802,5.94,10.204
				c0.648-0.863,1.404-1.617,2.269-2.262c-2.79-2.789-5.579-5.578-8.368-8.368c-0.701,0.967-1.24,1.985-1.85,3.01
				c-2.145,3.607,0.531,9.797,5.275,9.192c4.932-0.628,8.537-2.935,13.083-4.665c-1.563-3.707-3.126-7.415-4.689-11.122
				c-0.822,0.63-1.65,1.252-2.485,1.865c-5.051,3.75-2.224,13.903,4.685,11.111c1.813-0.732,3.615-1.49,5.429-2.223
				c-1.968-3.38-3.936-6.761-5.904-10.142c-0.187,0.183-0.373,0.365-0.56,0.548c-4.089,4.008,0.054,12.441,5.902,10.139
				c0.979-0.432,1.986-0.783,3.021-1.052c-1.556-3.692-3.113-7.384-4.669-11.077c-0.12,0.046-0.239,0.092-0.358,0.138
				c1.964,3.375,3.928,6.749,5.893,10.123c-0.081,0.02-0.163,0.041-0.244,0.061c-2.553-1.945-5.106-3.89-7.659-5.835
				c0.024,0.468,0.048,0.936,0.072,1.404c0.215,4.184,3.677,6.533,7.656,5.832c2.395-0.422,4.725-1.081,7.121-1.496
				c-2.546-1.94-5.092-3.879-7.638-5.819c0.008,0.352,0.031,0.702,0.071,1.052c0.388,4.16,3.535,6.516,7.636,5.817
				c2.385-0.407,4.783-0.709,7.178-1.055c-1.952-3.353-3.904-6.706-5.855-10.059c-0.466,0.374-0.899,0.783-1.298,1.228
				c-3.798,3.915-0.914,9.958,4.252,10.265c-1.257-0.075-0.048,0.634-0.05,0.109c0.005,2.583,1.838,5.314,4.469,5.869
				c2.146,0.453,4.124,0.516,6.306,0.578c-1.764-3.073-3.527-6.146-5.291-9.22c-0.313,0.408-0.626,0.815-0.94,1.223
				c-3.51,4.566,2.244,10.186,6.935,9.021c2.313-0.574,3.943-1.591,5.754-3.104c4.337-3.624,0.618-10.434-4.363-10.534
				c-2.751-0.056-6.122,0.375-8.176,2.43c-1.68,1.68-2.569,4.979-3.412,7.162c-1.201,3.111,1.295,6.939,4.362,7.683
				c1.321,0.32,2.641,0.646,3.959,0.977c-1.537-2.019-3.074-4.038-4.611-6.057c0.406,7.667,6.499,9.068,12.838,7.175
				c-2.057-3.532-4.112-7.064-6.169-10.597c-1.278,1.327-2.253,2.79-3.277,4.313c-2.717,4.043,0.876,9.69,5.513,9.606
				c1.763-0.032,3.253-0.356,4.896-0.951c-1.589-0.078-1.47,0.055,0.357,0.397c1.051,0.157,2.104,0.285,3.161,0.384
				c-1.866-3.251-3.732-6.503-5.598-9.755c-3.642,6.184-0.692,12.594,6.585,13.156c5.28,0.406,11.14-3.228,14.113-7.288
				c3.883-5.3-2.488-10.877-7.639-9.937c-0.357,0.065-0.715,0.13-1.072,0.195c1.203,4.365,2.406,8.73,3.609,13.095
				c1.908-0.736,3.805-0.98,5.815-1.295c-2.849-2.848-5.696-5.697-8.545-8.545c-0.067,0.315-0.136,0.63-0.203,0.946
				c-1.099,5.104,3.216,9.987,8.545,8.545c-0.725-0.222-1.449-0.444-2.174-0.666c-1.065-1.386-2.131-2.771-3.196-4.157
				c0.008-0.554,0.017-1.108,0.024-1.663c-1.045,4.26,2.07,8.975,6.714,8.813c4.058-0.142,7.992-0.743,11.705-2.408
				c-3.421-2.63-6.842-5.26-10.264-7.89c-0.118,0.383-0.242,0.763-0.371,1.142c-1.402,4.206,2.343,9.051,6.74,8.848
				c1.439-0.066,2.838-0.262,4.257-0.511c-1.798-4.263-3.595-8.526-5.392-12.789c-0.217,0.096-0.434,0.191-0.65,0.287
				c3.191,3.192,6.384,6.384,9.575,9.576c0.517-1.021,0.955-2.07,1.389-3.129c1.66-4.046-2.541-9.229-6.753-8.865
				c-1.896,0.164-3.771,0.342-5.607,0.854c-8.919,2.479-4.994,14.882,3.729,13.527c0.553-0.08,1.104-0.171,1.652-0.272
				c-1.803-0.236-3.606-0.472-5.409-0.708c0.844,0.604,1.823,0.92,2.788,1.285c0.525,0.142,1.056,0.261,1.592,0.358
				c2.685,0.807,1.96-0.905-2.174-5.136c-1.012,2.989,0.643,6.404,3.237,7.954c1.259,0.753,2.442,1.299,3.887,1.585
				c5.904,1.167-3.747-2.523,1.251,0.404c2.849,1.669,6.553,1,9.598,0.396c8.047-1.599,5.999-14.042-1.897-14.021
				c-1.41,0.003-2.767,0.215-4.156,0.438c-3.831,0.615-5.993,5.371-5.004,8.813c0.711,2.474,1.289,5.698,3.405,7.433
				c3.214,2.634,6.378,3.098,10.408,3.584c-2.331-3.06-4.661-6.119-6.992-9.179c-0.39,0.577-0.415,0.782-0.076,0.616
				c-2.08,4.676,0.251,11.158,6.255,10.9c1.018-0.01,2.027-0.112,3.028-0.306c1.989-0.134,0.905-0.886-3.253-2.257
				c0.03,0.043,3.838,4.2,2.518,2.783c2.771,2.975,6.655,3.195,10.36,2.26c-1.278-4.635-2.556-9.27-3.834-13.904
				c-0.497,0.142-0.995,0.283-1.493,0.425c2.954,2.954,5.908,5.908,8.862,8.862c0.109-0.643,0.22-1.284,0.334-1.926
				c1.446-8.268-8.238-12.147-13.159-5.548c-0.604,0.637-1.032,1.375-1.286,2.213c-2.107,4.909,0.277,10.707,6.21,10.821
				c0.043-0.014,0.085-0.027,0.128-0.041c-0.484-3.759-0.969-7.519-1.453-11.277c-0.443,0.528-0.889,1.056-1.336,1.581
				c-3.92,4.626-1.563,12.22,5.073,12.248c1.808,0.008,3.544,0.09,5.339,0.31c-1.688-4.074-3.375-8.147-5.063-12.222
				c-1.813,1.578-2.953,3.679-4.739,5.269c-3.764,3.352-1.908,10.463,3.039,11.509c0.557,0.121,1.114,0.235,1.674,0.344
				c-1-3.787-2-7.574-3-11.361c-0.58,0.507-1.166,1.008-1.755,1.505c-5.709,4.848,0.662,12.01,6.496,11.159
				c0.33-0.03,0.661-0.061,0.991-0.09c-1.099-4.059-2.198-8.116-3.297-12.174c-0.706,0.466-1.433,0.894-2.182,1.285
				c-5.458,3.034-3.175,12.229,3.23,11.929c0.754-0.024,1.507-0.07,2.258-0.139c-1.047-3.864-2.093-7.728-3.14-11.592
				c-1.055,0.62-2.058,1.304-3.11,1.928c-5.024,2.977-3.263,12.159,3.14,11.592c0.44-0.039,0.881-0.078,1.321-0.117
				c-1.047-3.864-2.093-7.728-3.14-11.592c-1.27,0.678-2.462,1.178-3.829,1.628c-7.581,2.493-4.354,14.477,3.307,11.996
				c0.523-0.169,1.046-0.338,1.568-0.508c7.666-2.481,4.532-13.604-3.307-11.996c-3.341,0.685-6.673,1.405-10.014,2.086
				c1.598,3.79,3.195,7.579,4.793,11.369c4.174-2.267,7.832-3.491,10.731-7.495c3.023-4.174-1.166-8.998-5.371-9.36
				c-10.223-0.88-19.614,4.618-29.763,3.838c1.059,3.91,2.118,7.82,3.177,11.73c5.259-4.034,14.678-4.383,20.886-2.771
				c-1.27-3.12-2.539-6.239-3.809-9.359c0.856-1.411-0.395-0.507-2.101-0.452c-1.877,0.061-3.769-0.098-5.64-0.225
				c-5.612-0.381-11.112,0.401-16.661,1.207c-6.861,0.997-13.621,1.484-20.557,1.3c-4.87-0.13-10.745,0.469-15.374-1.136
				c1.488,2.62,2.975,5.24,4.463,7.861c0.145-0.539,0.27-1.083,0.373-1.631c0.966-4.625-2.935-9.274-7.854-7.854
				c-2.161,0.623-4.285,1.271-6.38,2.092c-7.465,2.924-4.686,14.57,3.385,12.277c2.849-0.81,5.438-1.972,7.933-3.566
				c6.19-3.959,2.146-13.06-4.89-11.599c-2.578,0.535-5.086,2.226-7.713,2.076c2.033,2.669,4.065,5.337,6.098,8.006
				c0.075-0.354,0.15-0.707,0.225-1.061c0.992-4.682-2.917-9.048-7.779-7.78c-4.37,1.14-8.496,2.958-12.778,4.367
				c1.625,3.854,3.249,7.706,4.873,11.56c1.344-0.869,2.726-1.63,4.124-2.408c5.595-3.117,2.984-11.709-3.192-11.785
				c-2.886-0.036-5.422,0.805-8.216,1.377c2.38,3.097,4.761,6.193,7.142,9.291c0.181-0.355,0.362-0.711,0.544-1.065
				c2.64-5.172-1.636-10.3-7.142-9.291c-3.057,0.561-6.043,1.405-9.112,1.898c2.051,3.523,4.102,7.047,6.153,10.57
				c0.608-0.471,1.193-0.969,1.753-1.496c3.918-3.513,1.018-11.327-4.472-10.796c-3.488,0.338-6.245,1.656-9.542,2.655
				c2.051,3.523,4.102,7.047,6.153,10.57c0.752-0.608,1.581-1.084,2.487-1.427c6.827-3.262,1.772-12.888-4.873-11.56
				c-2.782,0.557-5.18,1.993-7.863,2.832c2.051,3.523,4.102,7.047,6.153,10.57c0.801-0.627,1.604-1.25,2.412-1.868
				c5.539-4.268,2.532-13.151-4.873-11.56c-1.074,0.281-2.165,0.467-3.271,0.558c1.82,3.172,3.641,6.344,5.461,9.517
				c0.333-0.548,0.693-1.077,1.077-1.59c3.135-4.41-2.074-11.184-7.142-9.291c-2.392,0.895-4.792,1.526-7.301,1.998
				c2.051,3.523,4.102,7.047,6.153,10.57c0.368-0.387,0.736-0.773,1.104-1.16c4.395-4.616,0.035-12.112-6.153-10.57
				C32.616,59.6,30.313,60.714,28,61.928c2.128,3.641,4.256,7.281,6.384,10.922c0.864-0.524,1.758-0.989,2.684-1.395
				c6.47-3.094,1.825-14.236-4.903-11.63c-1.886,0.73-3.696,1.576-5.651,2.103c2.435,3.167,4.869,6.334,7.304,9.501
				c0.15-0.328,0.301-0.655,0.452-0.983c2.85-6.201-2.815-11.451-8.874-8.874c-1.345,0.572-2.609,1.399-3.989,1.873
				c2.703,2.703,5.406,5.406,8.109,8.108c0.077-0.35,0.153-0.699,0.23-1.049c0.888-4.043-1.893-8.584-6.398-8.398
				c-3.28,0.134-5.912,1.03-8.833,2.487c3.249,2.498,6.498,4.996,9.747,7.493c0.224-0.537,0.448-1.074,0.672-1.611
				c2.368-5.678-5.175-10.11-9.747-7.493c-0.491,0.155-0.995,0.248-1.511,0.278c2.498,3.249,4.995,6.498,7.493,9.747
				c0.883-1.503,1.87-2.897,2.605-4.483c1.998-4.308-0.298-10.17-5.729-9.983c-1.249,0.042-2.469,0.055-3.711,0.2
				c1.117,4.122,2.233,8.245,3.35,12.367c3.711-1.914,5.325-5.268,6.055-9.223c0.512-2.773-0.234-6.191-3.067-7.537
				c-0.519-0.229-1.023-0.483-1.516-0.765c0.451,3.498,0.902,6.997,1.353,10.496c1.553-1.284,2.695-2.745,3.822-4.412
				c3.443-5.093-2.196-11.207-7.575-9.854c-0.21,0.053-0.42,0.105-0.63,0.158c1.724,4.089,3.448,8.178,5.171,12.267
				c1.874-1.411,3.733-2.492,5.952-3.271c-2.173-3.733-4.346-7.467-6.52-11.2c-0.525,0.437-1.039,0.887-1.541,1.351
				c-4.952,4.457,0.211,13.189,6.5,11.165c2.702-0.869,5.705-3.299,8.454-3.661c-1.548-3.738-3.097-7.477-4.646-11.215
				c-0.347,0.453-0.754,0.842-1.221,1.164c-7.177,4.432-0.829,15.29,6.598,11.287c2.471-1.332,4.892-2.695,7.222-4.263
				c6.839-4.601,0.768-15.342-6.512-11.141c-4.086,2.357-7.696,5.329-11.193,8.48c-5.131,4.623,0.432,11.565,6.155,10.572
				c7.026-1.219,15.849-6.416,19.062-12.981c2.149-4.392-1.426-11.001-6.928-9.013c-3.388,1.225-6.082,2.979-8.629,5.529
				c-5.057,5.064,1.323,12.497,7.347,9.521c5.241-2.589,10.009-5.964,14.856-9.205c6.833-4.568,0.916-14.763-6.437-11.012
				c-2.916,1.487-5.694,3.029-8.351,4.948c-6.688,4.831-0.742,15.741,6.593,11.279c2.399-1.459,4.52-3.256,7.333-3.757
				c-2.458-3.198-4.917-6.396-7.376-9.594c-1.302,2.346-3.642,3.974-5.727,5.606c-6.281,4.914,1.711,13.079,7.915,10.258
				c8.237-3.745,16.215-7.845,23.489-13.268c4.429-3.301,3.882-12.918-3.252-12.009c-4.236,0.54-7.653,2.142-11.639,3.522
				c1.713,4.064,3.427,8.128,5.14,12.191c5.704-4.144,11.753-6.522,16.124-12.324c3.252-4.317-1.125-11.171-6.221-10.841
				c-6.05,0.393-10.646,3.46-16.042,5.847c2.546,4.357,5.093,8.713,7.64,13.07c5.285-2.879,10.354-6.267,16.174-7.96
				c-1.944-4.611-3.888-9.222-5.832-13.833c-5.89,4.337-12.5,7.614-17.668,12.889c-4.365,4.454-1.463,13.39,5.352,12.919
				c7.02-0.483,12.465-4.517,19.169-5.96c-2.454-4.216-4.909-8.433-7.363-12.649c-7.601,6.837-18.175,9.39-26.478,15.263
				c-6.531,4.619-2.725,17.102,5.836,13.844c8.406-3.198,16.544-7.027,24.806-10.57c-2.568-4.394-5.136-8.787-7.704-13.18
				c-8.275,5.265-17.254,9.213-26.191,13.199c2.591,4.433,5.182,8.864,7.772,13.297c5.744-3.021,11.712-5.445,17.746-7.815
				c6.403-2.516,12.654-5.904,19.474-7.111c-2.528-4.344-5.057-8.688-7.585-13.032c-8.097,6.661-19.072,9.192-28.021,14.492
				c-7.55,4.471-2.581,17.229,6.067,14.392c10.465-3.434,20.425-10.259,31.465-11.727c-1.875-4.528-3.751-9.056-5.626-13.583
				C82.521,35.606,76.5,37.078,71.5,39.233c-5.343,2.303-10.933,6.829-16.838,7.419c1.898,4.582,3.796,9.165,5.694,13.747
				c3.354-3.883,10.395-5.134,14.919-7.415c8.146-4.106,2.408-17.939-6.238-14.797c-10.688,3.885-20.938,9.146-32.243,11.057
				c2.1,4.98,4.2,9.961,6.299,14.941c5.164-3.661,11.348-5.463,17.597-6.229c-1.374-5.073-2.748-10.146-4.122-15.219
				c-7.207,3.317-15.026,5.208-22.719,7.023c-6.603,1.558-13.652,1.518-17.652,7.854c-2.962,4.691,0.093,10.233,4.847,11.913
				c6.631,2.342,13.963-0.12,20.372-2.078c8.478-2.59,17.305-4.359,25.946-6.327c18.334-4.176,36.331-8.126,54.024-14.661
				c9.794-3.617,6.048-17.933-4.334-15.719c-11.554,2.463-24.388,3.653-34.203,10.853c-6.408,4.7-4.477,14.918,4.127,15.237
				c15.307,0.568,29.977-6.929,45.452-5.675c-0.728-5.377-1.455-10.754-2.183-16.131c-13.897,4.743-28.225,8.007-42.662,10.609
				c1.461,5.301,2.922,10.602,4.384,15.902c9.945-3.053,20.185-4.283,30.489-5.415c3.255-0.357,6.459-1.032,9.686-1.568
				c1.218-0.203,2.432-0.302,3.663-0.387c0.726-0.04,1.452-0.05,2.179-0.027c1.999,0.02-0.096,0.456-2.062-2.168
				c0.991-3.779,1.982-7.56,2.974-11.339c-6.266,2.825-13.877,2.956-20.612,3.442c0.735,5.431,1.47,10.861,2.205,16.292
				c8.37-1.309,18.221-3.715,26.376-0.476c0-5.332,0-10.664,0-15.996c-20.902,4.792-42.28,6.418-63.684,6.653
				c0.735,5.431,1.47,10.861,2.205,16.292c4.603-0.845,9.723-2.341,14.429-1.494c0-5.332,0-10.664,0-15.996
				c-9.35,3.886-19.892,1.824-27.653,9.637c-4.121,4.147-2.428,12.034,3.542,13.418c6.874,1.595,14.49,0.992,21.015-1.724
				c3.504-1.459,6.958-3.083,10.321-4.84c3.757-1.962,5.861-5.401,9.208-7.729c7.949-5.532,0.395-18.661-7.641-13.07
				c-2.209,1.538-4.111,3.218-5.97,5.156c-2.088,2.177-4.891,3.277-7.591,4.519c-4.691,2.156-9.95,3.582-15.075,2.206
				c1.181,4.473,2.362,8.945,3.542,13.418c1.894-1.778,5.332-2.036,7.821-2.353c4.333-0.551,8.82-0.951,12.889-2.642
				c3.472-1.443,6.089-3.955,6.089-7.998c0-3.434-2.503-7.354-6.089-7.998c-7.926-1.425-15.435,0.061-23.249,1.494
				c-9.358,1.718-6.969,16.393,2.205,16.292c22.849-0.251,45.784-2.131,68.094-7.245c8.765-2.01,6.992-13.219,0-15.996
				c-10.915-4.335-24.042-1.268-35.196,0.476c-9.249,1.446-7.063,16.961,2.205,16.292c9.936-0.717,19.807-1.566,28.978-5.718
				c3.793-1.717,5.496-7.982,2.974-11.339c-6.267-8.339-16.846-6.066-25.814-4.434c-3.808,0.693-9.234,1.195-15.13,1.988
				c-7.352,0.989-14.61,2.282-21.708,4.474c-10.29,3.176-5.962,17.784,4.384,15.902c14.433-2.624,28.754-5.91,42.643-10.674
				c8.962-3.074,7.088-15.394-2.183-16.131c-7.811-0.621-15.558,0.951-23.229,2.246c-7.275,1.228-14.819,3.763-22.224,3.5
				c1.375,5.079,2.751,10.158,4.127,15.237c8.599-6.327,20.143-7.076,30.283-9.255c-1.444-5.239-2.89-10.479-4.334-15.719
				c-16.413,6.091-33.114,10.228-50.2,13.897c-8.882,1.908-17.686,4.174-26.516,6.302c-4.417,1.064-10.467,4.554-14.98,2.945
				c1.616,3.972,3.231,7.942,4.847,11.913c-1.235,1.944-2.391,1.529-0.157,1.231c1.658-0.221,3.188-0.475,4.814-0.84
				c3.364-0.755,6.719-1.543,10.062-2.39c6.845-1.733,13.469-4.026,19.892-6.961c7.195-3.288,3.853-16.174-4.122-15.219
				c-9.061,1.086-18.291,3.035-25.849,8.446c-7.677,5.497-2.968,16.552,6.299,14.941c11.298-1.964,21.527-7.274,32.201-11.209
				c-2.08-4.933-4.159-9.865-6.238-14.797c-6.084,3.102-13.511,4.604-18.135,10.007c-4.048,4.731-1.961,14.548,5.694,13.747
				c8.296-0.868,15.091-4.91,22.416-8.577c7.227-3.617,14.609-5.604,21.012-10.778c2.741-2.215,2.907-6.803,1.244-9.642
				c-1.98-3.381-5.381-4.153-8.985-3.657c-11.979,1.648-22.227,8.401-33.537,12.17c2.022,4.797,4.045,9.595,6.067,14.392
				c10.248-6.133,21.788-9.331,31.098-17.063c6.594-5.475-0.7-14.282-7.585-13.031c-6.832,1.241-13.045,4.652-19.449,7.204
				c-7.25,2.889-14.501,5.793-21.399,9.463c-8.913,4.741-1.095,17.3,7.772,13.297c8.916-4.025,17.874-8.014,26.123-13.315
				c8.472-5.446,1.146-17.023-7.704-13.18c-7.041,3.058-13.965,6.379-21.129,9.143c1.946,4.614,3.891,9.229,5.836,13.844
				c9.43-6.734,20.803-9.784,29.536-17.64c5.98-5.38-0.406-14.147-7.363-12.649c-5.142,1.107-9.922,5.059-15.146,5.419
				c1.784,4.307,3.568,8.613,5.352,12.92c4.238-4.326,9.763-6.958,14.605-10.522c6.553-4.825,2.953-16.388-5.832-13.833
				c-7.113,2.069-13.338,5.971-19.791,9.486c-8.75,4.767-1.073,16.925,7.64,13.07c2.595-1.148,5.597-4.148,8.402-4.508
				c-2.074-3.614-4.147-7.227-6.221-10.841c-2.59,3.931-8.174,6.147-11.766,9.12c-4.985,4.126,0.362,13.715,6.49,11.149
				c2.453-1.027,5.439-3.219,8.092-3.498c-1.084-4.003-2.168-8.006-3.252-12.009c-7.318,5.326-15.359,9.38-23.577,13.117
				c2.638,3.419,5.276,6.839,7.915,10.258c3.017-2.36,5.887-4.857,7.769-8.249c2.958-5.331-1.854-10.579-7.376-9.595
				c-3.973,0.708-7.083,3.023-10.454,5.074c2.198,3.76,4.395,7.52,6.593,11.279c2.628-1.898,5.397-3.579,8.194-5.216
				c-2.146-3.671-4.291-7.341-6.437-11.012c-4.694,3.544-9.185,7.235-14.54,9.748c2.449,3.174,4.898,6.348,7.347,9.521
				c1.026-0.987,1.943-1.806,3.318-2.271c-2.31-3.004-4.619-6.009-6.928-9.013c-1.997,3.881-7.711,6.345-11.831,6.976
				c2.052,3.524,4.103,7.049,6.155,10.572c2.764-2.392,5.55-4.519,8.758-6.285c-2.17-3.714-4.341-7.427-6.512-11.141
				c-2.362,1.521-4.81,2.835-7.308,4.116c2.199,3.763,4.398,7.524,6.598,11.287c1.491-0.88,2.714-1.925,3.914-3.16
				c3.642-3.75,1.352-11.884-4.646-11.215c-4.476,0.498-7.801,2.656-12.005,3.917c2.167,3.722,4.333,7.443,6.5,11.165
				c0.512-0.454,1.036-0.895,1.57-1.321c5.235-4.291-0.365-13.221-6.52-11.2c-3.337,1.096-6.373,2.453-9.164,4.604
				c-5.713,4.405-2.727,14.351,5.171,12.267c0.209-0.056,0.418-0.11,0.628-0.166c-2.525-3.284-5.05-6.568-7.575-9.854
				c-0.435,0.7-0.998,1.277-1.691,1.732c-3.228,2.732-2.259,8.597,1.353,10.496c0.495,0.276,1.003,0.526,1.525,0.749
				c-1.022-2.513-2.045-5.024-3.067-7.537c-0.06,0.344-0.119,0.688-0.178,1.031c-0.404,1.297-0.306,1.39,0.294,0.279
				c-5.546,2.942-3.329,13.165,3.35,12.367c1.242-0.148,2.462-0.161,3.711-0.204c-1.91-3.327-3.819-6.655-5.729-9.983
				c-0.735,1.585-1.722,2.979-2.605,4.483c-3.24,5.514,2.052,10.534,7.493,9.747c1.754-0.254,3.127-0.727,4.682-1.616
				c-3.249-2.498-6.498-4.996-9.747-7.493c-0.224,0.537-0.448,1.074-0.672,1.611c-2.46,5.898,5.185,9.77,9.747,7.493
				c0.643-0.446,1.354-0.671,2.134-0.677c-2.133-2.799-4.266-5.599-6.398-8.398c-0.049,0.357-0.098,0.715-0.147,1.072
				c-0.597,4.371,2.826,10.13,8.109,8.108c2.47-0.945,4.647-2.273,7.031-3.385c-3.176-2.441-6.352-4.883-9.528-7.325
				c-0.139,0.333-0.278,0.665-0.417,0.997c-1.939,4.633,3.652,9.277,7.956,7.956c2.468-0.758,4.747-1.933,7.115-2.945
				c-2.141-3.663-4.282-7.325-6.423-10.988c-0.905,0.444-1.787,0.932-2.645,1.461c-7.067,4.132-0.817,14.704,6.384,10.922
				c1.4-0.735,2.598-1.304,4.136-1.687c-2.051-3.523-4.102-7.047-6.153-10.57c-0.368,0.387-0.736,0.773-1.104,1.16
				c-4.581,4.812,0.066,11.714,6.153,10.57c2.509-0.472,4.909-1.104,7.301-1.998c-2.38-3.097-4.761-6.193-7.142-9.291
				c-0.384,0.514-0.743,1.043-1.077,1.59c-2.504,3.902,0.732,9.81,5.461,9.517c2.268-0.141,4.415-0.532,6.633-1.009
				c-1.625-3.854-3.249-7.706-4.873-11.56c-1.66,1.279-3.33,2.544-4.971,3.847c-5.067,4.02,0.401,12.369,6.153,10.57
				c2.681-0.839,5.1-2.28,7.863-2.832c-1.625-3.854-3.249-7.706-4.873-11.56c-1.905,0.91-3.445,2.035-5.046,3.405
				c-4.887,4.181,0.298,12.345,6.153,10.57c2.009-0.609,4.083-2.001,6.179-2.204c-1.491-3.599-2.981-7.197-4.472-10.796
				c-0.561,0.526-1.145,1.025-1.753,1.496c-5.481,4.458,0.666,11.452,6.153,10.57c3.07-0.494,6.056-1.339,9.112-1.898
				c-2.38-3.097-4.761-6.193-7.142-9.291c-0.181,0.355-0.362,0.711-0.544,1.065c-2.598,5.09,1.612,10.423,7.142,9.291
				c1.623-0.333,3.179-0.946,4.854-0.926c-1.064-3.929-2.128-7.856-3.192-11.785c-1.398,0.779-2.78,1.539-4.124,2.408
				c-5.818,3.762-2.199,13.887,4.873,11.56c4.282-1.41,8.409-3.229,12.778-4.367c-2.593-2.594-5.186-5.187-7.779-7.78
				c-0.075,0.354-0.15,0.707-0.225,1.061c-0.883,4.169,1.837,7.764,6.098,8.006c4.035,0.229,7.255-1.714,11.087-2.486
				c-1.63-3.866-3.26-7.732-4.89-11.599c-1.626,1.026-3.058,1.732-4.913,2.248c1.128,4.093,2.256,8.185,3.385,12.277
				c2.099-0.809,4.226-1.443,6.39-2.055c-2.618-2.618-5.236-5.236-7.854-7.854c-0.107,0.547-0.235,1.09-0.383,1.627
				c-0.906,3.56,1.133,6.685,4.463,7.861c5.804,2.05,12.691,1.399,18.771,1.667c8.07,0.355,16.01-0.576,23.975-1.759
				c6.05-0.897,11.678-0.712,17.723-0.582c5.405,0.115,11.282-0.932,14.265-5.913c2.086-3.485,0.164-8.353-3.809-9.359
				c-10.164-2.578-23.471-1.372-31.9,5.171c-4.768,3.701-0.342,10.405,4.451,10.746c10.232,0.728,19.636-4.858,29.763-3.986
				c-1.79-3.12-3.581-6.24-5.371-9.36c-1.004,1.385-4.735,2.199-6.269,3.032c-6.48,3.52-1.864,12.726,4.793,11.369
				c3.342-0.681,6.674-1.401,10.014-2.086c-1.103-3.999-2.204-7.997-3.307-11.996c-0.523,0.169-1.046,0.338-1.568,0.508
				c1.103,3.999,2.204,7.997,3.307,11.996c2.354-0.774,4.615-1.714,6.802-2.882c5.266-2.812,3.095-12.145-3.14-11.592
				c-0.44,0.039-0.881,0.078-1.321,0.117c1.047,3.864,2.093,7.728,3.14,11.592c1.053-0.623,2.056-1.308,3.11-1.928
				c4.212-2.476,4.111-10.574-1.486-11.369c-1.304-0.186-2.595-0.371-3.911-0.445c1.077,3.977,2.154,7.952,3.23,11.929
				c0.79-0.313,1.562-0.666,2.314-1.059c6.061-2.967,2.872-12.094-3.297-12.174c-0.923-0.036-1.845-0.022-2.767,0.041
				c1.123,4.147,2.246,8.295,3.37,12.441c0.638-0.433,1.271-0.871,1.901-1.314c4.788-3.341,4.272-10.598-1.624-12.424
				c-0.544-0.165-1.086-0.336-1.627-0.514c0.549,4.195,1.097,8.39,1.646,12.585c2.466-1.775,4.24-4.005,6.52-5.958
				c5.333-4.57,0.413-11.521-5.063-12.222c-1.794-0.229-3.53-0.322-5.339-0.341c1.691,4.083,3.382,8.165,5.073,12.248
				c0.449-0.522,0.897-1.047,1.344-1.573c2.894-3.397,2.87-8.923-1.453-11.277c-2.419-1.317-4.622-1.873-7.376-1.941
				c2.07,3.606,4.14,7.214,6.21,10.821c0.259-0.837,0.692-1.572,1.3-2.205c-4.387-1.85-8.772-3.698-13.159-5.548
				c-0.117,0.641-0.231,1.282-0.344,1.924c-0.929,5.242,3.188,10.438,8.862,8.862c0.499-0.139,0.998-0.276,1.497-0.415
				c8.963-2.49,5.192-16.128-3.834-13.904c1.672-0.411,5.928,2.972,1.793-0.161c3.55,2.689-0.939-1.215-1.385-1.503
				c-3.09-2-5.763-1.529-9.228-1.4c2.085,3.634,4.17,7.267,6.255,10.9c0.606-1.343,1.074-2.688,1.551-4.073
				c1.693-4.917-2.651-8.629-6.992-9.179c-1.359-0.172-2.631-1.186-0.202,0.713c1.002,1.909,1.265,2.2,0.786,0.875
				c-0.184-0.64-0.377-1.277-0.581-1.91c-1.668,2.938-3.336,5.875-5.004,8.813c0.116,0.007,0.231,0.014,0.348,0.021
				c-0.633-4.673-1.265-9.347-1.897-14.021c-0.724,0.235-1.465,0.288-2.225,0.159c1.671,0.692,3.342,1.384,5.014,2.077
				c-1.248-1.02-2.389-2.145-4.013-2.547c-0.258-0.064-3.752-1.14-2.607-0.471c1.079,2.651,2.158,5.303,3.237,7.955
				c3.501-10.542-9.285-13.844-15.762-12.8c1.243,4.509,2.485,9.018,3.729,13.527c0.587-0.294,1.214-0.419,1.879-0.374
				c-2.251-2.955-4.502-5.91-6.753-8.865c0.313-0.762,0.323-0.833,0.031-0.212c-3.286,6.589,3.19,12.439,9.575,9.576
				c0.217-0.097,0.433-0.194,0.648-0.291c7.721-3.463,1.863-14.103-5.392-12.789c-0.179,0.008-0.357,0.017-0.536,0.025
				c2.247,2.949,4.493,5.898,6.74,8.848c0.127-0.38,0.249-0.761,0.365-1.144c1.988-6.386-5.073-10.253-10.264-7.89
				c-1.166,0.531-3.287,0.493-4.652,0.548c2.238,2.938,4.476,5.875,6.714,8.813c1.874-7.834-4.369-12.664-11.775-10.614
				c2.849,2.849,5.697,5.697,8.545,8.545c0.067-0.315,0.136-0.63,0.203-0.946c1.127-5.261-3.218-9.771-8.545-8.545
				c-2.597,0.598-4.902,1.205-7.354,2.281c-7.327,3.219-1.934,14.061,5.231,12.41c0.354-0.082,0.706-0.163,1.059-0.244
				c-2.546-3.313-5.093-6.625-7.639-9.937c0.76-1.145-0.643,0.215-1.099,0.468c-0.155,0.278-0.44,0.394-0.854,0.349
				c-0.264,0.074-0.527,0.148-0.79,0.223c2.795-0.222,4.436,1.933,4.921,6.464c2.538-4.547-0.746-9.352-5.598-9.755
				c-1.363-0.114-2.703-0.649-4.087-0.649c-1.542,0-2.911,0.959-4.328,1.018c1.838,3.202,3.675,6.404,5.513,9.606
				c0.366-0.624,0.772-1.221,1.219-1.791c4.09-4.444,0.161-12.647-6.169-10.597c-0.929,0.301-2.696,0.146-1.032,0.694
				c1.254,0.965,2.509,1.929,3.763,2.894c0.121,0.488,0.242,0.976,0.364,1.464c-0.192-2.726-1.765-5.395-4.611-6.057
				c-1.325-0.308-2.651-0.61-3.979-0.908c1.454,2.561,2.908,5.122,4.362,7.683c0.553-1.509,1.344-2.875,1.736-4.445
				c-1.444,1.444-2.889,2.889-4.333,4.333c0.661-0.431,1.375-0.584,2.14-0.458c-1.454-3.511-2.909-7.022-4.363-10.534
				c-0.098-0.004-0.195-0.008-0.293-0.012c2.312,3.007,4.624,6.014,6.936,9.021c0.306-0.413,0.611-0.825,0.917-1.237
				c2.884-3.888-1.05-9.173-5.291-9.22c-1.023-0.003-2.047-0.024-3.069-0.061c1.489,1.956,2.979,3.913,4.469,5.869
				c-0.125-6.483-5.804-11.761-12.124-12.135c1.417,3.422,2.834,6.843,4.252,10.265c0.397-0.447,0.833-0.854,1.305-1.221
				c5.14-4.401-0.596-10.797-5.855-10.059c-2.397,0.337-4.796,0.63-7.185,1.027c2.545,1.939,5.09,3.878,7.636,5.817
				c-0.039-0.35-0.061-0.7-0.067-1.052C84.779,9.9,81.267,7.613,77.322,8.28c-2.398,0.406-4.732,1.057-7.129,1.47
				c2.552,1.944,5.104,3.888,7.656,5.832c-0.022-0.468-0.044-0.936-0.067-1.404c-0.184-3.874-3.731-6.951-7.659-5.835
				c-2.051,0.583-3.731,1.373-5.105,3.043c-3.409,4.145-0.363,12.546,5.893,10.123c1.097-0.425,2.177-0.884,3.255-1.353
				c6.38-2.771,1.794-13.004-4.669-11.077c-1.037,0.265-2.045,0.611-3.025,1.04c1.968,3.38,3.935,6.759,5.902,10.139
				c0.188-0.182,0.375-0.364,0.562-0.546c4.103-3.991-0.071-12.471-5.904-10.142c-1.815,0.725-3.619,1.476-5.435,2.201
				c1.562,3.704,3.123,7.407,4.685,11.111c0.837-0.609,1.667-1.228,2.491-1.854c5.037-3.791,2.319-13.759-4.689-11.122
				c-3.125,1.176-6.536,3.773-9.848,4.183c1.758,3.064,3.517,6.128,5.275,9.192c0.614-1.023,1.157-2.039,1.861-3.003
				c3.598-4.927-3.454-11.786-8.368-8.368c-1.799,1.252-3.297,2.525-4.729,4.189c-3.84,4.465-0.273,11.919,5.94,10.204
				c2.443-0.674,4.731-1.62,6.954-2.837c-2.459-3.187-4.918-6.374-7.377-9.561c-1.511,1.539-2.838,3.118-4.137,4.838
				c-3.58,4.741,2.299,9.735,6.859,8.922c2.251-0.401,4.197-1.482,6.17-2.603c-2.447-3.172-4.895-6.344-7.342-9.516
				c-2.719,3.234-6.129,5.517-8.486,9.103c-3.132,4.768,1.992,9.8,6.807,8.854c2.316-0.455,4.46-1.173,6.659-2.028
				c-1.938-3.329-3.875-6.657-5.813-9.985c-3.363,3.151-6.711,6.229-10.955,8.143c2.295,2.975,4.59,5.949,6.885,8.924
				c2.475-2.7,5.87-4.251,8.262-7.062c3.958-4.649-0.979-11.703-6.631-8.594c-5.4,2.97-9.48,7.679-14.742,10.829
				c2.507,1.928,5.015,3.855,7.522,5.783c0.469-2.32,2.285-4.258,2.935-6.62c1.062-3.855-3.663-8.385-7.316-5.624
				c-1.661,1.256-3.162,2.573-4.683,3.994c2.735,0.722,5.47,1.444,8.205,2.166c-0.04-0.32-0.08-0.641-0.12-0.962
				c-3.004-0.813-6.009-1.627-9.014-2.441c-0.071,0.071-0.143,0.141-0.214,0.212c2.979,0.807,5.959,1.614,8.938,2.421
				c-0.197-2.903,0.954-4.523,3.454-5.933c-1.554-2.659-3.108-5.318-4.662-7.977c-1.199,0.877-2.408,1.735-3.631,2.578
				c1.84,2.385,3.68,4.77,5.52,7.154c0.688-0.63,2.234-2.544,3.162-2.667c-1.048-2.529-2.095-5.059-3.143-7.588
				c-0.911,0.946-1.766,1.902-2.746,2.777c-3.851,3.44,1.057,9.158,5.318,6.893c0.982-0.579,2.016-1.045,3.102-1.399
				c-1.239-2.16-2.479-4.32-3.718-6.479c-0.409,0.756-0.833,1.504-1.272,2.243c-2.102,3.621,2.154,8.169,5.841,5.841
				c1.36-0.859,2.677-1.592,4.153-2.236c-1.697-2.199-3.394-4.398-5.091-6.598c-1.173,1.117-2.38,2.191-3.544,3.319
				c-2.839,2.752,0.042,8.376,4.019,6.904c3.023-1.119,5.362-2.708,7.608-5.022c3.097-3.191-1.026-9.02-4.882-6.327
				c-1.021,0.713-3.172,1.288-1.712,1.765c0.92,0.919,1.839,1.839,2.759,2.759c-0.088-0.225-0.176-0.45-0.264-0.675
				C52.034,17.346,44.52,19.25,46.251,24.086L46.251,24.086z"/>
		</g>
	</g>
</g>
</svg>
