<?xml version="1.0" encoding="utf-8"?>
<!-- Generator: Adobe Illustrator 16.0.0, SVG Export Plug-In . SVG Version: 6.00 Build 0)  -->
<!DOCTYPE svg PUBLIC "-//W3C//DTD SVG 1.1//EN" "http://www.w3.org/Graphics/SVG/1.1/DTD/svg11.dtd">
<svg version="1.1" id="Layer_1" xmlns="http://www.w3.org/2000/svg" xmlns:xlink="http://www.w3.org/1999/xlink" x="0px" y="0px"
	 width="255px" height="65px" viewBox="0 0 255 65" enable-background="new 0 0 255 65" xml:space="preserve">
<g>
	<path d="M6.29,56.155c5.778,4.935,12.99,6.179,20.343,6.978c10.289,1.119,20.657,1.537,31.002,1.279
		c19.838-0.49,40.926-2.814,59.642-9.656c1.525-0.559,0.94-2.797-0.675-2.449c-18.387,3.959-36.328,8.025-55.207,8.984
		c-8.768,0.445-17.562,0.403-26.326-0.133c-9.04-0.554-19.757-0.617-27.057-6.725C6.821,53.437,5.092,55.133,6.29,56.155"/>
</g>
<g>
	<path d="M114.411,55.243c16.808,9.288,38.358,8.718,56.998,8.392c21.758-0.384,43.476-3.054,64.534-8.59
		c1.816-0.478,1.046-3.185-0.771-2.798c-20.368,4.33-40.999,7.351-61.828,8.099c-18.673,0.67-40.696,1.812-57.651-7.295
		C114.253,52.278,112.977,54.451,114.411,55.243"/>
</g>
<g>
	<path d="M12.464,43.658c20.453-20.906,51.229-21.736,77.5-12.844c1.588,0.538,2.248-1.945,0.689-2.498
		c-27.094-9.613-59.067-8.197-80.131,13.4C9.287,42.982,11.225,44.924,12.464,43.658"/>
</g>
<g>
	<path d="M65.865,20.221C70.793,3.398,97.563,2.472,111.618,3.854c17.527,1.722,34.195,9.201,47.228,21.017
		c1.305,1.183,3.24-0.729,1.941-1.941C146.58,9.657,127.961,1.92,108.559,0.823C93.703-0.016,68.375,2.188,63.367,19.532
		C62.903,21.138,65.397,21.82,65.865,20.221"/>
</g>
<g>
	<path d="M170.962,23.819c17.703-5.124,36.938-0.635,50.686,11.616c1.189,1.059,2.939-0.662,1.76-1.759
		c-14.219-13.217-34.555-17.925-53.189-12.555C168.49,21.619,169.227,24.321,170.962,23.819"/>
</g>
<g>
	<path d="M228.115,33.107c5.765-1.518,19.915-3.719,22.83,3.588c3.271,8.199-6.885,13.111-12.783,15.631
		c-1.173,0.501-0.321,2.57,0.879,2.084c7.311-2.969,18.057-8.82,14.448-18.604c-3.375-9.147-18.942-7.042-26.05-5.147
		C225.862,31.079,226.531,33.523,228.115,33.107"/>
</g>
<g>
	<path d="M11.018,34.978C-1.882,36.387-3.731,54.1,8.987,57.633c1.9,0.527,2.698-2.391,0.813-2.948
		c-9.007-2.659-8.382-15.546,1.218-16.702C12.907,37.756,12.949,34.767,11.018,34.978"/>
</g>
<g>
	<g>
		<path fill="#F5F8F9" d="M31.283,35.511c-1.975,1.178-3.95,2.355-5.925,3.533c-3.595,2.144-1.238,8.069,2.875,6.82
			c2.091-0.636,4.183-1.271,6.275-1.905c-1.06-2.514-2.119-5.027-3.179-7.541c-2.218,1.605-4.436,3.211-6.653,4.816
			c-4.885,3.536-0.787,10.336,4.665,7.98c3.531-1.525,6.941-3.233,10.277-5.147c-1.786-3.056-3.572-6.112-5.358-9.168
			c-2.676,1.568-5.332,3.1-7.919,4.813c-6.097,4.037-0.626,13.662,5.771,9.871c2.934-1.738,5.868-3.477,8.802-5.216
			c-1.941-3.321-3.883-6.642-5.824-9.963c-3.347,2.191-6.694,4.384-10.041,6.575c-6.261,4.101-0.446,14.185,5.887,10.072
			c1.257-0.816,2.513-1.633,3.77-2.449c-1.97-3.37-3.941-6.741-5.911-10.111c-4.785,3.164-10.132,3.732-15.282,5.957
			c-5.517,2.383-2.347,10.546,2.885,10.651c3.846,0.078,7.543-0.466,11.185-1.71c-2.282-1.738-4.563-3.476-6.845-5.214
			c0.064,1.021,0.143,2.042,0.238,3.061c0.273,3.191,3.207,6.317,6.693,5.099c3.882-1.357,7.776-2.682,11.666-4.018
			c-1.76-3.024-3.521-6.049-5.281-9.072c-0.953,1.007-1.906,2.015-2.86,3.021c-4.57,4.827,1.15,10.928,6.639,8.604
			c3.494-1.479,6.988-2.958,10.482-4.438c-2.562-2.562-5.123-5.123-7.685-7.685c-1.138,1.512-2.277,3.022-3.415,4.533
			c-3.877,5.146,3.275,9.721,7.779,7.779c3.155-1.359,6.31-2.719,9.464-4.079c-1.955-3.345-3.91-6.69-5.865-10.035
			c-2.508,1.505-5.016,3.01-7.523,4.516c2.39,3.098,4.78,6.195,7.17,9.294c3.849-3.391,7.136-7.133,10.236-11.21
			c3.025-3.979-1.183-8.89-5.253-9.153c-2.52-0.163-5.04-0.326-7.56-0.488c1.777,3.097,3.555,6.194,5.332,9.292
			c0.969-1.308,1.939-2.614,2.908-3.922c3.259-4.394-2.123-10.855-7.041-9.158c-1.555,0.537-3.045,1.006-4.692,1.17
			c1.817,3.167,3.635,6.333,5.452,9.5c0.387-0.872,0.773-1.744,1.161-2.616c2.318-5.219-1.404-10.38-7.17-9.326
			c-2.391,0.438-4.542,1.33-6.576,2.66c-5.984,3.911-2.272,13.722,4.944,11.726c4.223-1.169,8.446-2.337,12.668-3.506
			c-2.132-3.664-4.265-7.327-6.397-10.99c-0.584,0.746-1.169,1.493-1.753,2.239c-4.131,5.278-0.385,12.241,6.431,11.048
			c2.496-0.438,4.879-1.032,7.288-1.818c6.483-2.117,6.273-10.724,0-12.924c-0.123-0.043-0.246-0.086-0.37-0.129
			c-2.947-1.034-5.965,0.704-7.573,3.082c-1.247,1.843-1.566,4.042-0.817,6.149c1.034,2.906,3.31,4.851,6.479,4.934
			c1.786,0.046,2.96-0.498,4.623-0.987c-1.735-0.227-3.471-0.454-5.206-0.681c0.253,0.141,0.506,0.282,0.759,0.423
			c-0.809-3.086-1.618-6.172-2.428-9.258c-0.639,1.284-1.278,2.567-1.917,3.851c-2.608,5.235,1.637,11.644,7.7,10.017
			c2.855-0.767,5.71-1.532,8.565-2.299c-2.607-3.392-5.215-6.783-7.822-10.175c-0.573,1.072-1.146,2.146-1.719,3.218
			c-2.94,5.506,1.839,11.611,7.872,10.24c2.625-0.597,5.165-1.343,7.695-2.262c-1.815-4.306-3.631-8.612-5.446-12.919
			c-2.149,1.265-4.299,2.529-6.448,3.794c2.409,4.121,4.818,8.242,7.227,12.363c1.554-0.976,3.094-1.859,4.817-2.499
			c-1.862-4.416-3.723-8.832-5.585-13.248c-1.044,0.597-2.089,1.193-3.133,1.79c-7.354,4.202-2.316,15.183,5.619,13.328
			c3.176-0.742,6.353-1.485,9.529-2.227c-2.404-4.129-4.807-8.258-7.21-12.387c-0.07,0.366-0.286,0.565-0.647,0.599
			c1.917,4.547,3.834,9.095,5.752,13.643c1.87-0.854,3.741-1.709,5.611-2.564c-3.015-3.908-6.031-7.815-9.046-11.724
			c-1.398,1.781-2.797,3.562-4.196,5.342c-5.298,6.743,1.092,15.309,9.046,11.724c3.454-1.557,6.907-3.113,10.361-4.67
			c-3.404-3.404-6.809-6.809-10.213-10.213c-0.806,1.182-1.611,2.363-2.417,3.545c-3.378,4.955,1.19,10.965,6.445,11.232
			c2.635,0.134,5.075-0.162,7.667-0.628c-1.917-4.548-3.834-9.096-5.752-13.644c-1.871,1.347-3.763,2.592-5.924,3.431
			c1.917,4.548,3.834,9.096,5.752,13.644c0.184-0.024,0.368-0.049,0.551-0.073c-1.256-4.637-2.512-9.273-3.768-13.91
			c-2.132,1.455-6.322,4.937-9.025,4.678c1.759,0.729,3.519,1.458,5.278,2.187c0.37,0.658,0.74,1.317,1.11,1.976
			c-0.251,1.917-0.501,3.835-0.752,5.752c0.116-0.216,0.232-0.432,0.348-0.647c2.937-5.459-1.912-13.13-8.43-10.966
			c-4.44,1.475-8.926,2.645-13.521,3.525c2.421,4.159,4.842,8.317,7.263,12.477c1.238-1.203,2.425-2.057,4.073-2.63
			c-1.917-4.548-3.834-9.096-5.752-13.644c-2.816,1.372-5.633,2.744-8.45,4.116c2.512,4.297,5.023,8.594,7.535,12.891
			c0.855-0.622,1.711-1.245,2.567-1.867c7.708-5.604,1.19-17.283-7.535-12.891c-1.488,0.749-2.909,1.204-4.522,1.624
			c2.421,4.159,4.842,8.317,7.263,12.477c0.892-0.9,1.549-1.522,2.604-2.228c6.646-4.446,2.542-16.873-5.752-13.644
			c-4.546,1.771-9.203,4.13-13.948,5.253c1.32,0,2.64,0,3.96,0c-0.35-0.146-0.699-0.292-1.048-0.438
			c1.822,2.394,3.645,4.787,5.467,7.181c0.027-0.212,0.054-0.423,0.081-0.635c-1.229,2.143-2.458,4.286-3.688,6.429
			c0.21-0.104,0.42-0.208,0.63-0.312c-3.007-0.388-6.014-0.776-9.021-1.164c0.099,0.121,0.197,0.243,0.295,0.364
			c0.502-3.896,1.004-7.793,1.506-11.689c-1.251,0.695-1.955,0.843-3.358,1.108c2.797,3.639,5.595,7.278,8.393,10.917
			c0.59-0.848,1.181-1.695,1.771-2.543c3.271-4.691-1.101-11.238-6.411-11.172c-3.343,0.042-6.631,0.461-9.893,1.191
			c3.038,1.725,6.075,3.449,9.113,5.174c-0.173-0.705-0.347-1.41-0.521-2.115c-1.724,3.035-3.447,6.071-5.171,9.107
			c23.312-3.206,46.616-6.469,69.935-9.62c-1.864-4.421-3.728-8.843-5.592-13.265c-3.554,1.621-7.188,2.962-10.909,4.15
			c2.363,4.059,4.726,8.118,7.089,12.178c0.189-0.021,0.378-0.042,0.567-0.063c-1.874-4.444-3.748-8.889-5.622-13.333
			c-3.544,2.437-7.2,4.61-11.035,6.559c-7.322,3.721-2.092,16.502,5.642,13.383c5.78-2.332,11.561-4.663,17.341-6.994
			c-1.891-4.484-3.781-8.969-5.671-13.453c-2.043,1.54-4.087,3.081-6.13,4.622c-2.684,2.024-4.346,4.854-3.39,8.33
			c1.022,3.717,5.26,6.429,9.074,5.152c4.717-1.579,9.435-3.157,14.151-4.736c-1.903-4.514-3.805-9.026-5.708-13.54
			c-1.345,0.743-2.69,1.486-4.035,2.23c-7.243,4.003-2.278,16.507,5.715,13.557c3.689-1.361,7.378-2.723,11.067-4.084
			c-1.912-4.533-3.823-9.067-5.734-13.602c3.807,0.934,4.844,2.247,3.113,3.939c5.308-3.479,4.689-11.868-1.786-13.663
			c-4.809-1.333-9.536-1.319-14.289,0.245c1.926,4.568,3.852,9.136,5.777,13.703c2.276-1.527,4.553-3.055,6.829-4.582
			c5.723-3.841,4.199-14.601-3.792-14.003c-2.452,0.183-4.903,0.367-7.354,0.55c1.267,4.677,2.534,9.354,3.8,14.031
			c3.542-2.357,7.083-4.715,10.625-7.073c6.53-4.348,3.643-13.363-3.814-14.081c-2.097-0.202-4.193-0.403-6.29-0.605
			c2.433,3.194,4.866,6.388,7.299,9.582c0.472-1.669,0.944-3.338,1.416-5.007c0.944-3.338-0.605-6.766-3.484-8.561
			c-1.614-1.006-2.931-1.42-4.825-1.657c-0.835-0.192-1.673-0.203-2.515-0.035c-3.4,0.063-2.772,0.831,1.884,2.306
			c0.346,1.278,0.692,2.557,1.038,3.835c0.02-0.293,0.039-0.586,0.058-0.879c0.25-3.763-3.667-8.1-7.601-7.601
			c-3.579,0.454-6.968,1.041-10.391,2.205c1.957,4.642,3.914,9.284,5.871,13.925c0.906-0.535,1.813-1.069,2.719-1.604
			c-3.478-3.478-6.955-6.955-10.433-10.433c0.313-0.379,0.625-0.759,0.938-1.138c3.082,0.398,6.165,0.795,9.247,1.193
			c-0.155-0.17-0.311-0.34-0.466-0.511c0.654,2.475,1.309,4.95,1.963,7.426c0.049-0.242,0.099-0.484,0.148-0.726
			c-2.454,1.868-4.907,3.736-7.361,5.604c0.173-0.015,0.345-0.029,0.518-0.043c-0.677-4.999-1.353-9.998-2.03-14.997
			c-4.354,1.607-8.751,2.711-13.347,3.353c-8.522,1.189-6.513,16.122,2.037,15.053c9.168-1.146,18.326-2.055,27.562-2.423
			c-2.448-2.448-4.897-4.897-7.345-7.345c0.243,0.979,0.123,1.902-0.361,2.768c-1.435,4.584,2.422,9.162,7.019,9.214
			c1.462,0.017,2.924,0.033,4.386,0.049c-0.64-4.726-1.279-9.452-1.919-14.178c-4.377,1.729-8.586,2.427-13.239,1.466
			c0,4.485,0,8.97,0,13.455c8.148-1.496,16.302-2.968,24.456-4.436c7.621-1.372,5.544-13.037-1.777-13.129
			c-1.762-0.091-1.998-0.058-0.706,0.101c-1.136-0.822-2.689-1.238-4.005-1.668c-2.732-0.893-5.991-0.501-8.675,0.301
			c2.126,3.653,4.253,7.307,6.38,10.96c0.47-0.95,1.234-1.443,2.291-1.478c6.973-1.72,5.637-13.658-1.726-12.753
			c-3.017,0.371-6.03,0.743-9.052,1.067c0.571,4.218,1.142,8.437,1.713,12.656c3.147-0.846,5.859-0.464,8.69,1.143
			c1.978,1.122,3.043,2.612,5.559,2.617c2.509,0.005,5.018,0.009,7.527,0.014c-1.572-3.795-3.144-7.591-4.716-11.386
			c-1.249,1.051-2.497,2.102-3.746,3.152c-5.506,4.631,0.463,12.701,6.576,11.297c1.752-0.402,3.504-0.805,5.256-1.208
			c-1.761-4.178-3.522-8.355-5.284-12.533c-1.754,1.143-3.218,1.659-5.288,2.004c2.633,3.425,5.266,6.85,7.899,10.275
			c2.629-3.41,2.156-8.307-0.228-11.71c-3.046-4.349-8.124-5.209-13.101-4.915c1.221,4.508,2.442,9.016,3.663,13.524
			c1.221-0.768,1.289-0.403,2.804,0.038c0.902,0.354,1.77,0.777,2.604,1.271c1.165,1.076,1.572,1.224,1.221,0.446
			c0.968,4.439,6.917,6.912,10.718,4.36c-0.172-0.035-0.343-0.069-0.515-0.104c-1.229-0.333-2.457-0.665-3.686-0.997
			c0.223,0.167,0.445,0.335,0.669,0.503c-1.119-1.456-2.238-2.911-3.357-4.366c0.099,0.268,0.198,0.536,0.297,0.804
			c0-1.295,0-2.59,0-3.885c-0.043,0.256-0.086,0.512-0.129,0.768c1.12-1.456,2.24-2.912,3.359-4.368
			c-0.203,0.132-0.405,0.264-0.608,0.396c-6.244,4.063-3.6,13.153,3.689,13.621c2.854,0.183,5.709,0.367,8.563,0.55
			c-1.232-4.552-2.466-9.103-3.698-13.655c-1.796,1.374-3.591,2.748-5.386,4.123c-6.275,4.803-2.965,15.708,5.657,13.418
			c2.018-0.535,4.036-1.071,6.055-1.607c-1.889-4.481-3.778-8.962-5.667-13.443c-1.16,0.511-2.32,1.021-3.48,1.532
			c-6.705,2.952-3.348,14.229,3.716,13.72c1.139-0.187,2.273-0.174,3.405,0.039c-1.717-3.023-3.434-6.047-5.15-9.071
			c-0.224,1.254-0.446,2.509-0.669,3.764c-0.73,4.114,1.061,7.74,5.156,9.081c5.149,1.687,10.158,1.749,15.45,0.769
			c8.162-1.514,6.322-15.545-1.969-14.548c-1.987,0.239-3.976,0.478-5.963,0.716c2.136,3.721,4.271,7.442,6.406,11.163
			c3.774-5.618,0.771-15.068-6.283-16.604c-8.203-1.786-16.614,2.348-24.316,4.89c1.901,0.249,3.802,0.498,5.703,0.746
			c-4.966-2.609-9.77,0.246-13.564,3.537c-6.199,5.377,0.675,13.229,7.146,12.275c4.424-0.651,8.848-1.303,13.271-1.955
			c-1.851-4.389-3.701-8.778-5.552-13.167c-2.613,1.489-5.191,2.625-8.065,3.515c2.3,3.952,4.601,7.903,6.901,11.855
			c1.97-1.562,3.945-3.114,5.933-4.653c5.182-4.01,0.537-11.915-4.987-12.041c-4.789-0.109-9.097,1.66-12.328,5.214
			c-3.808,4.189-1.551,12.582,4.994,12.056c5.365-0.432,10.729-0.862,16.094-1.292c-1.191-4.397-2.382-8.794-3.573-13.191
			c-3.605,1.912-7.212,3.825-10.817,5.737c-6.081,3.225-3.484,13.711,3.579,13.215c3.12-0.22,6.239-0.438,9.359-0.657
			c-1.194-4.411-2.39-8.822-3.584-13.233c-2.126,1.229-4.252,2.457-6.378,3.686c-7.072,4.086-2.299,14.973,5.478,12.994
			c2.688-0.685,5.376-1.368,8.064-2.052c-1.829-4.336-3.657-8.673-5.485-13.009c-3.003,1.39-6.007,2.78-9.01,4.17
			c-7.528,3.485-2.101,15,5.492,13.028c1.844-0.479,3.687-0.957,5.529-1.436c-1.832-4.346-3.665-8.692-5.497-13.039
			c-0.758,0.65-1.602,1.157-2.529,1.52c1.265,4.589,2.53,9.179,3.795,13.768c1.035-0.423,2.07-0.847,3.105-1.27
			c8.366-3.423,5.415-15.745-3.797-13.775c-3.143,0.672-6.042,1.808-8.92,3.229c-6.79,3.353-2.998,12.973,3.609,13.324
			c4.488,0.239,7.856-2.554,9.041-6.787c1.267-4.525-2.271-8.985-6.892-9.046c-6.395-0.085-11.206,4.675-9.476,11.18
			c0.559,2.102,2.564,4.541,4.859,4.858c6.431,0.89,10.589-2.94,9.663-9.466c-0.518-3.646-5.213-5.79-8.454-4.8
			c-0.833,0.255-1.667,0.509-2.501,0.763c-8.316,2.534-4.813,15.474,3.596,13.045c9.25-2.673,18.506-4.363,28.079-5.416
			c-1.103-4.069-2.204-8.14-3.307-12.209c-4.155,2.244-8.31,4.488-12.465,6.733c-6.616,3.574-2.053,14.885,5.174,12.271
			c6.014-2.176,12.027-4.353,18.041-6.528c-1.78-4.224-3.562-8.448-5.342-12.673c-3.9,1.742-7.799,3.484-11.698,5.228
			c-7.352,3.285-2.091,15.468,5.455,12.94c7.369-2.467,14.451-5.62,21.169-9.527c6.05-3.519,3.764-14.145-3.697-13.65
			c-2.163,0.143-4.325,0.287-6.488,0.43c1.744,4.21,3.488,8.421,5.232,12.632c1.157-1.106,2.241-1.934,3.594-2.79
			c6.716-4.256,3.372-13.063-3.768-13.909c-2.25-0.267-4.345,0.01-6.507,0.695c1.322,4.796,2.645,9.593,3.967,14.389
			c1.611-0.565,3.223-1.131,4.833-1.697c8.967-3.151,5.39-17.039-3.965-14.383c-1.472,0.418-2.943,0.835-4.414,1.252
			c-9.253,2.622-5.37,16.688,3.963,14.377c2.38-0.59,4.76-1.179,7.14-1.769c-1.32-4.789-2.641-9.578-3.961-14.368
			c-2.355,0.589-4.504,1.493-6.588,2.741c-5.912,3.541-3.956,14.725,3.759,13.876c7.004-0.77,13.469-1.446,20.153-3.705
			c9.124-3.082,5.438-16.181-3.953-14.337c-1.454,0.286-2.907,0.571-4.361,0.856c1.317,4.777,2.634,9.555,3.951,14.332
			c2.211-0.639,4.423-1.278,6.634-1.918c-2.409-4.138-4.817-8.275-7.227-12.414c-1.108,1.327-2.217,2.653-3.325,3.979
			c-3.754,4.492-1.815,13.197,5.249,12.673c4.652-0.345,9.306-0.689,13.958-1.035c-0.657-4.854-1.314-9.709-1.971-14.564
			c-1.774,0.363-3.549,0.726-5.322,1.089c-8.271,1.693-6.297,14.759,1.97,14.558c3.008-0.073,5.959-0.444,8.912-1.018
			c-1.313-4.761-2.625-9.522-3.938-14.284c-1.532,0.324-3.064,0.648-4.596,0.972c-8.217,1.735-6.325,14.832,1.968,14.542
			c2.399-0.083,4.799-0.167,7.198-0.251c-1.245-4.596-2.489-9.191-3.734-13.787c-1.962,1.345-3.923,2.69-5.885,4.035
			c-7.115,4.88-2.573,14.938,5.698,13.515c2.868-0.493,5.722-0.809,8.625-1.01c-1.243-4.588-2.485-9.177-3.729-13.765
			c-1.388,0.923-2.776,1.845-4.164,2.768c-5.716,3.8-4.072,14.217,3.727,13.76c3.928-0.23,7.838-0.385,11.772-0.452
			c-1.241-4.581-2.482-9.163-3.723-13.745c-0.799,0.57-1.598,1.141-2.396,1.711c-5.491,3.916-4.228,14.168,3.722,13.741
			c-0.075-0.126-0.151-0.253-0.227-0.38c1.084-4.106,2.168-8.213,3.253-12.319c-7.35,1.485-14.7,2.293-22.194,2.511
			c1.238,4.572,2.477,9.145,3.715,13.717c0.823-0.463,1.701-0.766,2.635-0.906c-0.652-4.82-1.305-9.64-1.957-14.459
			c-7.058,2.055-14.222,3.603-21.533,4.399c1.238,4.572,2.477,9.145,3.715,13.717c4.918-2.238,10.251-3.721,15.624-4.311
			c-0.652-4.82-1.305-9.64-1.957-14.459c-7.515,1.733-15.062,2.955-22.748,3.595c0.652,4.82,1.305,9.64,1.957,14.459
			c6.736-2.815,13.508-4.309,20.814-4.314c-0.652-4.82-1.305-9.64-1.957-14.459c-8.944,3.301-18.221,5.823-27.686,7.082
			c1.238,4.572,2.477,9.145,3.715,13.717c3.284-1.514,6.584-1.872,10.153-1.709c-1.238-4.572-2.477-9.145-3.715-13.717
			c-3.485,2.02-7.002,3.164-11.038,3.373c1.238,4.572,2.477,9.145,3.715,13.717c2.148-1.31,4.156-2.156,6.594-2.781
			c9.267-2.373,5.308-16.063-3.914-14.195c-4.6,0.932-9.199,1.864-13.799,2.797c1.891,4.484,3.781,8.969,5.672,13.453
			c0.656-0.824,1.521-1.179,2.595-1.063c-1.305-4.731-2.609-9.464-3.914-14.195c-2.141,0.77-4.262,1.587-6.386,2.4
			c-8.84,3.387-5.368,15.397,3.861,14.006c1.03-0.155,2.061-0.311,3.091-0.465c-1.275-4.627-2.551-9.254-3.826-13.881
			c-3.721,1.182-7.389,1.732-11.285,1.104c-4.714-0.759-8.239-1.182-12.68,0.897c2.261,0,4.522,0,6.783,0
			c-5.144-3.931-11.625-5.706-18.057-5.002c0.568,4.196,1.136,8.393,1.704,12.59c18.482-7.032,37.91-9.227,57.429-5.787
			c9.505,1.676,18.689,4.318,28.425,4.252c10.598-0.072,21.104-3.243,31.095-6.463c-1.03-3.735-2.06-7.47-3.09-11.205
			c-0.647,0.267-1.296,0.533-1.944,0.8c-6.679,2.745-4.238,13.389,3.072,11.141c2.172-0.668,4.345-1.336,6.518-2.003
			c-2.393-1.822-4.786-3.646-7.179-5.468c0.071,4.379,1.491,9.009,6.825,8.764c2.569-0.119,4.629-1.636,5.398-4.11
			c0.06-0.189,0.118-0.378,0.177-0.567c1.568-5.041-4.062-8.327-8.224-6.322c-1.137,0.547-2.272,1.094-3.409,1.641
			c-3.925,1.889-3.342,7.613,0,9.654c0.147,0.091,0.296,0.181,0.444,0.271c-0.856-2.104-1.713-4.208-2.568-6.312
			c0.674-0.837,1.348-1.673,2.022-2.509c-0.8,0.277-1.557,0.642-2.271,1.091c-2.116,1.192-3.303,3.955-2.565,6.303
			c0.049,0.156,0.099,0.313,0.147,0.469c0.531,1.692,1.994,3.621,3.897,3.897c0.191,0.027,0.383,0.055,0.573,0.083
			c3.484,0.505,7.112-1.408,7.063-5.38c-0.002-0.095-0.003-0.188-0.004-0.283c-0.047-3.714-3.516-6.225-7.061-5.379
			c-10.683,2.548-21.479,3.52-32.024,6.854c-6.741,2.132-3.897,12.688,2.928,10.621c3.642-1.104,7.284-2.205,10.926-3.308
			c6.802-2.058,3.974-12.033-2.914-10.572c-9.306,1.973-18.668,3.32-28.153,4.029c0.48,3.547,0.96,7.094,1.44,10.641
			c3.529-1.382,6.918-2.175,10.717-2.287c-0.478-3.528-0.955-7.058-1.433-10.587c-8.552,1.815-17.138,2.677-25.878,2.682
			c0.473,3.49,0.944,6.979,1.417,10.47c5.45-1.451,10.805-2.028,16.438-1.837c-0.469-3.464-0.938-6.929-1.406-10.394
			c-7.039,2.193-14.222,2.887-21.521,1.68c0.417,3.191,0.834,6.383,1.251,9.573c4.554-2.577,9.107-5.155,13.661-7.733
			c4.256-2.409,9.271-4.507,12.941-7.801c5.825-5.228,6.016-15.292-2.5-17.819c-0.913,3.31-1.825,6.62-2.738,9.93
			c6.658,1.258,13.229,2.822,19.739,4.697c-1.188-1.188-2.376-2.377-3.564-3.564c1.071,5.194,4.106,9.188,8.565,11.979
			c5.571,3.487,10.667-5.307,5.129-8.773c-2.33-1.458-3.315-3.271-3.851-5.92c-0.349-1.729-1.941-3.09-3.564-3.565
			c-6.502-1.903-13.065-3.496-19.716-4.783c-6.462-1.25-9.157,7.995-2.738,9.93c-0.378-0.891-0.745-0.99-1.102-0.297
			c-0.644,0.613-1.357,1.128-2.142,1.545c-2.59,1.612-5.341,3.006-8.001,4.496c-5.136,2.878-10.271,5.757-15.407,8.635
			c-3.7,2.073-3.336,8.794,1.251,9.573c9.181,1.559,18.193,1.162,27.119-1.576c5.775-1.772,4.58-10.164-1.406-10.394
			c-6.531-0.251-12.951,0.485-19.272,2.14c-5.871,1.536-4.581,10.447,1.417,10.47c9.679,0.037,19.269-0.978,28.743-2.947
			c6.008-1.249,4.586-10.738-1.433-10.587c-4.711,0.118-9.196,0.919-13.598,2.619c-5.304,2.049-5.103,11.101,1.44,10.641
			c10.446-0.734,20.814-2.163,31.067-4.291c-0.972-3.524-1.942-7.048-2.914-10.572c-3.646,1.086-7.293,2.172-10.939,3.259
			c0.976,3.54,1.952,7.081,2.928,10.621c10.564-3.291,21.368-4.215,32.062-6.717c-2.354-1.793-4.707-3.586-7.061-5.379
			c0.001,0.095,0.002,0.188,0.003,0.283c2.354-1.793,4.707-3.586,7.062-5.379c-0.191-0.028-0.383-0.058-0.573-0.086
			c1.299,1.299,2.598,2.599,3.896,3.897c-0.048-0.156-0.097-0.313-0.145-0.469c-0.855,2.101-1.71,4.201-2.565,6.303
			c2.535-1.414,4.819-1.82,5.395-5.25c0.43-2.556-0.264-4.89-2.568-6.312c-0.147-0.091-0.295-0.183-0.443-0.273
			c0,3.218,0,6.437,0,9.654c1.14-0.542,2.278-1.084,3.417-1.627c-2.741-2.107-5.482-4.215-8.224-6.322
			c-0.059,0.189-0.117,0.378-0.177,0.567c1.8-1.37,3.6-2.74,5.398-4.11c-0.234,0.011-0.47,0.021-0.704,0.032
			c1.611,0.925,3.223,1.849,4.834,2.773c0.378,2.028,0.507,1.904,0.387-0.372c0.056-3.701-3.661-6.429-7.179-5.468
			c-2.191,0.599-4.383,1.199-6.574,1.798c1.024,3.714,2.048,7.427,3.072,11.141c0.653-0.245,1.308-0.49,1.962-0.735
			c6.887-2.584,4.231-13.315-3.09-11.205c-9.829,2.833-19.574,5.831-29.889,5.929c-9.704,0.092-19.254-3.28-28.807-4.625
			c-19.539-2.75-39.895-0.801-58.572,5.538c-6.524,2.215-5.86,13.141,1.704,12.59c3.683-0.268,6.996,0.312,9.914,2.738
			c1.7,1.414,4.261,2.682,6.538,1.729c2.78-1.164,7.633,0.797,10.703,1.054c3.952,0.331,8.114-0.426,11.91-1.458
			c7.628-2.076,6.333-15.03-1.913-14.138c-1.036,0.112-2.072,0.225-3.108,0.337c0.644,4.756,1.287,9.511,1.931,14.266
			c2.151-0.724,4.303-1.442,6.438-2.211c9.083-3.266,5.37-15.586-3.914-14.195c-2.274,0.34-4.26,1.176-6.11,2.548
			c-6.654,4.932-2.824,15.176,5.672,13.453c4.6-0.933,9.199-1.865,13.799-2.797c-1.305-4.731-2.609-9.464-3.914-14.195
			c-3.579,0.916-6.955,2.342-10.109,4.266c-5.994,3.655-3.851,14.109,3.715,13.717c6.637-0.345,12.708-2.046,18.468-5.385
			c6.551-3.796,3.432-13.392-3.715-13.717c-6.267-0.285-11.923,1.111-17.583,3.721c-6.434,2.965-3.497,14.676,3.715,13.717
			c10.842-1.442,21.326-3.817,31.6-7.609c7.532-2.78,6.756-14.467-1.957-14.459c-8.523,0.008-16.858,1.552-24.729,4.842
			c-3.08,1.287-5.404,3.504-5.404,7.098c0,3.76,3.356,7.694,7.361,7.361c8.981-0.748,17.88-2.095,26.662-4.122
			c7.978-1.841,6.368-15.372-1.957-14.459c-8.151,0.896-15.589,2.924-23.054,6.322c-6.523,2.969-3.455,14.498,3.715,13.717
			c8.636-0.942,17.103-2.497,25.447-4.927c7.696-2.24,6.526-15.465-1.957-14.459c-3.688,0.438-6.735,1.239-10.064,2.918
			c-6.589,3.32-3.426,13.925,3.715,13.717c8.783-0.256,17.499-1.289,26.112-3.019c5.375-1.079,7.188-8.725,3.253-12.319
			c-2.948-2.693-6.142-4.157-10.197-3.944c1.24,4.58,2.481,9.161,3.722,13.741c0.8-0.568,1.6-1.138,2.398-1.707
			c5.652-4.026,4.131-13.868-3.723-13.746c-3.935,0.062-7.844,0.212-11.772,0.437c1.242,4.587,2.484,9.173,3.727,13.76
			c1.39-0.921,2.778-1.842,4.168-2.763c5.692-3.774,4.086-14.296-3.729-13.766c-4.215,0.286-8.393,0.813-12.557,1.524
			c1.899,4.505,3.799,9.01,5.698,13.515c1.963-1.343,3.926-2.686,5.889-4.027c5.733-3.92,4.089-14.05-3.734-13.788
			c-2.399,0.081-4.799,0.161-7.198,0.242c0.656,4.847,1.313,9.695,1.968,14.542c1.533-0.321,3.065-0.644,4.598-0.966
			c9.383-1.973,5.365-16.076-3.938-14.284c-1.698,0.327-3.247,0.439-4.975,0.479c0.656,4.853,1.313,9.705,1.97,14.558
			c1.775-0.361,3.55-0.722,5.324-1.082c8.171-1.66,6.366-15.172-1.971-14.564c-4.652,0.339-9.306,0.678-13.958,1.017
			c1.75,4.225,3.5,8.449,5.249,12.673c1.11-1.324,2.221-2.649,3.331-3.975c4.532-5.409,0.408-14.611-7.227-12.413
			c-2.212,0.637-4.424,1.273-6.636,1.909c-9.304,2.676-5.363,16.146,3.951,14.332c1.454-0.283,2.909-0.566,4.363-0.851
			c-1.317-4.779-2.636-9.558-3.953-14.337c-5.431,1.827-10.506,2.531-16.2,3.149c1.253,4.625,2.506,9.251,3.759,13.876
			c0.883-0.717,1.894-1.128,3.031-1.232c9.323-2.317,5.368-16.665-3.961-14.368c-2.381,0.586-4.762,1.173-7.142,1.759
			c1.321,4.792,2.642,9.585,3.963,14.377c1.473-0.415,2.944-0.83,4.416-1.246c-1.321-4.794-2.644-9.588-3.965-14.383
			c-1.611,0.564-3.224,1.128-4.835,1.691c-8.986,3.142-5.286,17.31,3.967,14.389c0.808-0.432,1.654-0.483,2.54-0.156
			c-1.256-4.636-2.512-9.272-3.768-13.909c-2.371,1.5-4.54,3.23-6.523,5.215c-4.263,4.266-1.424,13.228,5.232,12.632
			c2.163-0.193,4.325-0.386,6.488-0.579c-1.232-4.55-2.465-9.101-3.697-13.65c-5.587,3.423-11.372,6.301-17.538,8.523
			c1.818,4.313,3.637,8.627,5.455,12.94c3.851-1.827,7.7-3.653,11.55-5.479c7.063-3.351,1.985-15.514-5.342-12.673
			c-5.976,2.316-11.95,4.635-17.926,6.952c1.725,4.09,3.449,8.181,5.174,12.271c4.1-2.338,8.2-4.676,12.301-7.013
			c5.268-3.003,3.411-13.103-3.307-12.209c-10.619,1.414-21.174,3.368-31.674,5.475c1.199,4.349,2.397,8.696,3.596,13.045
			c0.854-0.185,1.707-0.368,2.56-0.554c-2.9-2.209-5.8-4.418-8.7-6.627c0.012,0.203,0.023,0.406,0.036,0.609
			c1.139-1.985,2.277-3.971,3.417-5.956c-0.194,0.14-0.388,0.278-0.583,0.418c1.779-0.232,3.559-0.466,5.339-0.698
			c-0.225-0.051-0.448-0.101-0.673-0.15c1.62,1.619,3.239,3.239,4.859,4.858c-0.063-0.351-0.125-0.701-0.188-1.052
			c-0.6,2.271-1.2,4.541-1.8,6.812c-0.651,0.352-1.302,0.702-1.953,1.053c-2.297-3.016-4.594-6.031-6.892-9.046
			c-0.096,0.325-0.192,0.651-0.288,0.978c1.096-1.426,2.191-2.851,3.288-4.275c0.581-0.14,1.162-0.278,1.742-0.417
			c1.203,4.441,2.406,8.883,3.609,13.324c1.776-0.882,3.563-1.384,5.499-1.802c-1.266-4.592-2.531-9.184-3.797-13.775
			c-1.035,0.426-2.069,0.852-3.104,1.277c-3.596,1.479-6.114,4.684-4.987,8.781c0.964,3.504,5.131,6.345,8.782,4.986
			c2.146-0.798,4.068-1.633,5.936-2.967c6.378-4.559,2.713-15.189-5.497-13.039c-1.842,0.482-3.684,0.965-5.525,1.447
			c1.83,4.343,3.661,8.686,5.492,13.028c3-1.396,6-2.792,9-4.189c7.519-3.5,2.096-14.954-5.485-13.009
			c-2.686,0.689-5.372,1.378-8.059,2.067c1.826,4.331,3.651,8.663,5.478,12.994c2.124-1.232,4.247-2.466,6.37-3.699
			c5.848-3.396,3.658-13.756-3.584-13.233c-3.12,0.225-6.239,0.451-9.359,0.677c1.193,4.405,2.386,8.811,3.579,13.215
			c3.602-1.919,7.204-3.839,10.806-5.759c6.017-3.207,3.509-13.773-3.573-13.191c-5.365,0.441-10.729,0.883-16.094,1.326
			c1.665,4.019,3.329,8.037,4.994,12.055c1.108-1.225,0.889-1.124,2.341-1.094c-1.662-4.014-3.325-8.027-4.987-12.041
			c-1.51,1.173-3.031,2.331-4.554,3.487c-6.029,4.58-2.845,15.349,5.466,12.965c4.036-1.157,7.877-2.751,11.567-4.753
			c5.943-3.226,3.658-14.347-3.637-13.426c-4.437,0.561-8.873,1.12-13.309,1.68c1.731,4.179,3.462,8.358,5.193,12.538
			c0.34-0.269,0.722-0.45,1.145-0.543c-1.9-0.248-3.8-0.497-5.7-0.745c3.77,2.082,7.23,0.502,11.001-0.656
			c1.68-0.516,3.35-1.063,5.022-1.6c1.115-0.358,2.23-0.716,3.347-1.074c2.177-0.066,2.337-0.773,0.481-2.119
			c0-1.315,0-2.631,0-3.947c-0.012,0.08-0.023,0.16-0.035,0.239c-2.89,4.34,0.848,11.854,6.406,11.164
			c1.987-0.247,3.976-0.494,5.963-0.741c-0.656-4.85-1.313-9.699-1.969-14.548c-2.697,0.512-5.011,0.111-7.589-0.721
			c1.719,3.027,3.438,6.054,5.156,9.081c0.218-1.256,0.436-2.512,0.653-3.768c0.638-3.671-0.927-8.301-5.15-9.071
			c-2.488-0.454-4.798-0.736-7.325-0.543c1.238,4.574,2.478,9.147,3.716,13.72c1.158-0.515,2.315-1.031,3.473-1.546
			c7.789-3.468,2.164-15.556-5.667-13.443c-2.017,0.544-4.032,1.088-6.049,1.633c1.886,4.473,3.771,8.946,5.657,13.419
			c1.791-1.383,3.581-2.765,5.372-4.147c5.667-4.374,4.064-13.189-3.698-13.655c-2.854-0.171-5.709-0.343-8.563-0.514
			c1.229,4.541,2.46,9.081,3.689,13.621c4.094-2.688,5.637-7.558,3.054-11.967c-2.964-5.06-9.463-4.963-13.828-2.007
			c3.573,1.454,7.145,2.907,10.717,4.36c-2.374-10.67-19.349-15.864-28.025-10.41c-7.421,4.666-2.239,14.373,5.592,13.265
			c2.671,0.331,2.444-1.233-0.68-4.691c-3.88,5.428,2.479,11.384,7.899,10.275c3.083-0.631,5.919-1.84,8.491-3.652
			c6.163-4.34,2.578-14.645-5.284-12.533c-1.735,0.466-3.469,0.932-5.204,1.397c2.192,3.766,4.384,7.531,6.576,11.297
			c1.207-1.092,2.414-2.185,3.62-3.278c4.291-3.886,0.974-11.583-4.716-11.386c-2.509,0.087-5.018,0.174-7.527,0.261
			c1.54,0.638,3.08,1.275,4.619,1.914c-6.403-5.302-14.191-7.303-22.294-5.034c-6.787,1.901-5.682,13.526,1.713,12.656
			c3.015-0.355,6.033-0.66,9.052-0.968c-0.575-4.251-1.151-8.502-1.726-12.753c-3.242,0.729-5.879,2.267-8.112,4.726
			c-4.314,4.75-0.17,12.769,6.38,10.96c1.591-0.44,2.237-0.006,3.542,0.979c1.676,1.266,4.394,0.943,6.358,1.009
			c-0.592-4.376-1.185-8.753-1.777-13.129c-8.202,1.301-16.405,2.598-24.612,3.872c-6.958,1.08-6.394,11.948,0,13.455
			c6.997,1.649,14.003,1.464,20.787-1.001c7.578-2.754,6.48-13.851-1.919-14.178c-1.462-0.057-2.924-0.114-4.386-0.171
			c2.339,3.071,4.679,6.143,7.019,9.214c0.748-2.175,1.044-4.337,1.014-6.638c-0.052-3.966-3.302-7.395-7.345-7.345
			c-9.214,0.111-18.42,0.605-27.562,1.787c0.679,5.018,1.358,10.036,2.037,15.053c4.594-0.661,8.985-1.783,13.333-3.408
			c3.224-1.205,5.605-3.734,5.605-7.362c0-3.884-3.483-8.001-7.635-7.635c-0.173,0.016-0.345,0.031-0.518,0.046
			c-3.232,0.286-6.658,2.097-7.361,5.604c-0.704,3.514-0.166,5.998,2.285,8.66c2.508,2.726,6.156,2.538,9.247,1.193
			c2.149-0.936,3.312-2.393,4.527-4.342c4.085-6.546-3.951-14.292-10.433-10.433c-0.904,0.538-1.808,1.077-2.712,1.615
			c-7.257,4.321-2.483,16.807,5.871,13.925c2.058-0.71,4.171-1.413,6.34-1.697c-2.534-2.533-5.067-5.067-7.601-7.601
			c-0.243,3.917,1.883,6.673,5.019,8.72c3.09,2.018,6.405,0.817,9.717,1.218c-1.276-0.345-2.552-0.69-3.827-1.035
			c0.333,0.206,0.667,0.412,1.001,0.618c-1.161-2.854-2.323-5.707-3.484-8.561c-0.465,1.671-0.93,3.342-1.395,5.013
			c-1.413,5.078,2.481,9.138,7.299,9.582c2.097,0.193,4.193,0.386,6.29,0.579c-1.271-4.693-2.542-9.387-3.814-14.081
			c-3.532,2.373-7.064,4.746-10.597,7.119c-5.716,3.839-4.217,14.664,3.8,14.031c2.452-0.193,4.903-0.388,7.354-0.581
			c-1.264-4.667-2.528-9.335-3.792-14.002c-2.271,1.538-4.541,3.075-6.812,4.612c-6.717,4.548-2.693,16.53,5.777,13.703
			c2.343-0.782,3.933-0.941,6.328-0.288c-0.595-4.554-1.19-9.108-1.786-13.663c-5.212,3.447-9.038,11.125-5.104,17.081
			c4.043,6.122,10.475,7.652,17.049,4.741c7.693-3.406,2.142-16.545-5.734-13.602c-3.685,1.377-7.369,2.754-11.053,4.131
			c1.905,4.519,3.81,9.038,5.715,13.557c1.342-0.748,2.683-1.497,4.025-2.246c7.25-4.047,2.335-16.271-5.708-13.54
			c-4.711,1.6-9.423,3.198-14.135,4.797c1.895,4.494,3.79,8.988,5.684,13.482c2.038-1.55,4.076-3.1,6.113-4.649
			c2.672-2.031,4.34-4.834,3.383-8.313c-0.969-3.521-5.333-6.659-9.054-5.141c-5.773,2.356-11.547,4.713-17.32,7.068
			c1.88,4.461,3.761,8.922,5.642,13.383c3.827-1.965,7.474-4.153,11.008-6.605c6.67-4.627,2.699-15.424-5.622-13.333
			c-2.801,0.703-4.819,1.965-6.992,3.826c-5.563,4.766,0.324,14.369,7.089,12.178c4.909-1.59,9.676-3.507,14.361-5.668
			c2.915-1.344,4.134-5.291,3.335-8.196c-1.153-4.191-5.011-5.6-8.928-5.068c-22.674,3.075-45.363,6.049-68.044,9.072
			c-4.798,0.64-8.38,4.232-7.139,9.372c0.17,0.707,0.341,1.413,0.512,2.119c0.985,4.074,5.27,6.018,9.113,5.174
			c2.013-0.441,3.892-0.611,5.955-0.629c-2.137-3.724-4.274-7.448-6.411-11.172c-0.595,0.845-1.189,1.689-1.783,2.535
			c-4.118,5.858,2.633,11.983,8.393,10.917c2.466-0.457,4.723-1.378,6.921-2.587c4.556-2.506,4.4-8.088,1.506-11.689
			c-0.098-0.122-0.196-0.244-0.294-0.366c-2.171-2.702-6.245-2.524-9.021-1.164c-3.148,1.543-3.976,4.132-4.402,7.373
			c-0.298,2.268,1.58,5.538,3.688,6.43c7.152,3.025,13.976-1.394,20.743-4.028c-1.917-4.548-3.834-9.096-5.752-13.644
			c-2.018,1.351-3.915,2.836-5.625,4.562c-5.305,5.354,0.043,14.355,7.263,12.477c2.829-0.736,5.479-1.815,8.089-3.13
			c-2.512-4.297-5.023-8.594-7.535-12.891c-0.856,0.622-1.712,1.244-2.567,1.867c-7.736,5.628-1.222,17.156,7.535,12.891
			c2.816-1.372,5.633-2.744,8.45-4.116c7.596-3.7,2.223-16.421-5.752-13.644c-4.106,1.431-7.533,3.43-10.661,6.47
			c-5.697,5.538,0.271,13.817,7.263,12.477c4.595-0.882,9.081-2.051,13.521-3.525c-2.81-3.655-5.62-7.311-8.43-10.966
			c-3.138,5.832,0.211,12.559,6.906,13.198c5.664,0.541,12.068-3.651,16.56-6.717c5.91-4.032,4.042-13.952-3.768-13.91
			c-3.03,0.017-5.424,0.69-8.086,2.112c-7.359,3.93-2.212,16.736,5.752,13.644c3.404-1.322,6.521-2.797,9.491-4.937
			c6.961-5.013,2.74-15.17-5.752-13.644c-1.228,0.226-2.46,0.258-3.698,0.095c2.148,3.744,4.297,7.488,6.445,11.232
			c0.806-1.182,1.611-2.363,2.417-3.545c4.654-6.827-4.071-12.981-10.213-10.213c-3.454,1.557-6.907,3.113-10.361,4.67
			c3.015,3.908,6.031,7.815,9.046,11.724c1.399-1.78,2.798-3.561,4.196-5.342c5.276-6.719-1.09-15.361-9.046-11.724
			c-1.87,0.855-3.741,1.709-5.611,2.564c-7.739,3.538-2.218,16.227,5.752,13.644c2.814-0.912,5.21-2.258,7.159-4.515
			c4.732-5.479,0.304-14.335-7.21-12.386c-3.155,0.818-6.31,1.637-9.465,2.457c1.873,4.442,3.746,8.885,5.619,13.327
			c1.03-0.621,2.06-1.243,3.089-1.865c6.797-4.106,2.265-16.383-5.585-13.248c-2.886,1.153-5.595,2.396-8.19,4.114
			c-7.637,5.058-0.674,17.273,7.227,12.363c2.119-1.316,4.238-2.634,6.356-3.95c6.545-4.068,2.275-15.937-5.446-12.919
			c-2.509,0.98-5.032,1.789-7.643,2.45c2.624,3.413,5.248,6.826,7.872,10.24c0.547-1.088,1.095-2.176,1.643-3.263
			c2.625-5.214-1.668-11.988-7.822-10.175c-2.836,0.835-5.672,1.671-8.507,2.506c2.566,3.339,5.133,6.678,7.7,10.017
			c0.609-1.301,1.218-2.603,1.828-3.903c1.505-3.216,1.049-7.43-2.428-9.258c-1.35-0.71-2.603-1.327-4.179-1.327
			c-0.964,0.022-1.892,0.208-2.782,0.558c-2.135,0.814-2.15,0.901-0.044,0.261c2.16,1.644,4.32,3.289,6.479,4.933
			c-0.064-0.167-0.128-0.334-0.192-0.501c-0.226,1.725-0.451,3.448-0.677,5.173c0.103-0.16,0.205-0.32,0.308-0.479
			c-2.524,1.027-5.049,2.055-7.573,3.082c0.124,0.04,0.248,0.08,0.373,0.12c0-4.308,0-8.616,0-12.924
			c-2.388,0.845-4.756,1.497-7.24,1.994c2.488,3.237,4.977,6.474,7.465,9.71c0.566-0.761,1.132-1.521,1.699-2.281
			c3.54-4.751-2.278-11.22-7.426-9.659c-4.194,1.271-8.389,2.543-12.583,3.814c1.648,3.909,3.296,7.817,4.944,11.727
			c1.232-0.85,2.009-1.19,3.475-1.495c-2.604-2.604-5.207-5.207-7.81-7.81c-0.366,0.881-0.732,1.762-1.098,2.643
			c-1.472,3.546,2.283,8.465,6.088,7.993c2.79-0.347,5.364-0.791,8.007-1.775c-2.347-3.053-4.694-6.105-7.041-9.158
			c-0.936,1.327-1.871,2.653-2.806,3.98c-2.848,4.042,1.022,9.119,5.332,9.292c2.52,0.102,5.04,0.203,7.56,0.305
			c-1.751-3.051-3.502-6.103-5.253-9.153c-2.382,3.296-5.116,6.224-8.098,8.981c-4.938,4.567,1.491,12.894,7.17,9.294
			c2.472-1.566,4.944-3.134,7.416-4.699c6.43-4.073,0.854-13.127-5.865-10.035c-3.113,1.433-6.226,2.864-9.338,4.296
			c2.593,2.593,5.186,5.186,7.779,7.779c1.099-1.535,2.198-3.069,3.297-4.604c3.64-5.084-3.137-9.741-7.685-7.685
			c-3.447,1.559-6.895,3.117-10.343,4.676c2.213,2.868,4.426,5.736,6.639,8.604c0.93-1.031,1.859-2.063,2.789-3.094
			c3.349-3.716,0.17-11.093-5.281-9.072c-3.863,1.433-7.722,2.877-11.592,4.289c2.231,1.699,4.462,3.399,6.693,5.099
			c0.016-1.021,0.017-2.04,0.001-3.061c-0.026-3.516-3.433-6.146-6.845-5.214c-2.832,0.773-5.39,0.947-8.31,0.706
			c0.506,3.742,1.013,7.485,1.52,11.228c5.881-2.116,11.406-2.651,16.789-6.293c6.208-4.199,0.409-14.313-5.911-10.111
			c-1.248,0.829-2.497,1.659-3.745,2.488c1.962,3.357,3.924,6.715,5.887,10.072c3.326-2.229,6.652-4.456,9.979-6.685
			c6.123-4.102,0.597-13.859-5.824-9.963c-2.916,1.769-5.832,3.538-8.748,5.308c1.923,3.29,3.847,6.581,5.771,9.871
			c2.586-1.751,5.02-3.628,7.507-5.516c5.361-4.071,0.157-13.277-5.358-9.168c-3.083,2.298-6.262,4.4-9.584,6.335
			c1.867,2.419,3.733,4.839,5.6,7.258c2.018-1.865,4.035-3.729,6.052-5.595c3.708-3.427-0.995-8.239-4.999-6.479
			c-1.991,0.875-3.981,1.75-5.972,2.626c1.255,2.147,2.511,4.296,3.767,6.443c1.836-1.416,3.671-2.832,5.507-4.248
			C37.906,38.714,35.075,33.249,31.283,35.511L31.283,35.511z"/>
	</g>
</g>
</svg>
